<svg width="130" height="130" viewBox="0 0 130 130" fill="none" xmlns="http://www.w3.org/2000/svg">
<g clip-path="url(#clip0)">
<path d="M124.29 9.90234H5.70992C2.55692 9.90234 0 12.4593 0 15.6123V94.6555C0 97.8094 2.55692 100.365 5.70992 100.365H50.9677V110.345H45.5782C42.8645 110.345 40.6637 112.545 40.6637 115.26C40.6637 117.973 42.8645 120.174 45.5782 120.174H84.4218C87.1365 120.174 89.3363 117.973 89.3363 115.26C89.3363 112.545 87.1355 110.345 84.4218 110.345H79.0323V100.365H124.29C127.443 100.365 130 97.8094 130 94.6555V15.6123C130 12.4593 127.443 9.90234 124.29 9.90234V9.90234ZM85.5297 115.26C85.5297 115.872 85.0338 116.367 84.4218 116.367H45.5782C44.9662 116.367 44.4703 115.872 44.4703 115.26C44.4703 114.648 44.9662 114.152 45.5782 114.152H84.4209C85.0328 114.152 85.5297 114.648 85.5297 115.26ZM126.193 94.6555C126.193 95.7048 125.339 96.5588 124.29 96.5588H64.6191C63.5678 96.5588 62.7158 97.4107 62.7158 98.4621C62.7158 99.5134 63.5678 100.365 64.6191 100.365H75.2247V110.345H54.7753V100.365H55.7364C56.7877 100.365 57.6397 99.5134 57.6397 98.4621C57.6397 97.4107 56.7877 96.5588 55.7364 96.5588H5.70992C4.66057 96.5588 3.80661 95.7048 3.80661 94.6555V15.6123C3.80661 14.5629 4.66057 13.709 5.70992 13.709H124.29C125.339 13.709 126.193 14.5629 126.193 15.6123V94.6555Z" fill="white"/>
<path d="M119.058 18.4766H10.9433C9.19475 18.4766 7.77148 19.8988 7.77148 21.6484V85.3045C7.77148 87.0531 9.19475 88.4763 10.9433 88.4763H119.058C120.806 88.4763 122.23 87.0531 122.23 85.3045V21.6484C122.23 19.8988 120.806 18.4766 119.058 18.4766ZM25.3654 22.2832V43.4744H18.6845C17.6322 43.4744 16.7802 44.3264 16.7802 45.3777C16.7802 46.4291 17.6322 47.281 18.6845 47.281H25.3654V57.9332C25.3654 58.2833 25.0807 58.568 24.7306 58.568H11.5781V22.2832H25.3654ZM11.5781 84.6697V62.3746H24.7306C27.1794 62.3746 29.172 60.382 29.172 57.9332V22.2832H118.423V58.4618H104.253C103.904 58.4618 103.619 58.1772 103.619 57.8271V29.1496C103.619 28.0982 102.766 27.2453 101.715 27.2453C100.663 27.2453 99.8115 28.0972 99.8115 29.1496V57.8271C99.8115 60.2759 101.804 62.2684 104.253 62.2684H118.423V84.6697H11.5781Z" fill="white"/>
<path d="M115.003 75.3486H99.6011C98.7839 72.6618 96.2845 70.7009 93.3338 70.7009C90.3831 70.7009 87.8828 72.6618 87.0655 75.3486H40.1841C39.3668 72.6618 36.8664 70.7009 33.9158 70.7009C30.9661 70.7009 28.4657 72.6618 27.6485 75.3486H15.9033C14.852 75.3486 14 76.2006 14 77.2519C14 78.3032 14.852 79.1562 15.9033 79.1562H27.6475C28.4647 81.843 30.9651 83.8039 33.9158 83.8039C36.8664 83.8039 39.3668 81.843 40.1841 79.1562H87.0655C87.8828 81.843 90.3831 83.8039 93.3328 83.8039C96.2835 83.8039 98.7839 81.843 99.6011 79.1562H115.002C116.053 79.1562 116.905 78.3032 116.905 77.2519C116.906 76.2006 116.053 75.3486 115.003 75.3486ZM33.9158 79.9963C32.4032 79.9963 31.1724 78.7654 31.1724 77.2519C31.1724 75.7384 32.4032 74.5075 33.9158 74.5075C35.4293 74.5075 36.6601 75.7384 36.6601 77.2519C36.6601 78.7654 35.4293 79.9963 33.9158 79.9963ZM93.3338 79.9963C91.8203 79.9963 90.5894 78.7654 90.5894 77.2519C90.5894 75.7384 91.8203 74.5075 93.3338 74.5075C94.8463 74.5075 96.0772 75.7384 96.0772 77.2519C96.0772 78.7654 94.8463 79.9963 93.3338 79.9963Z" fill="#F9B93E"/>
<path d="M115.003 66.0237H59.4919C58.6746 63.3368 56.1742 61.376 53.2236 61.376C50.2739 61.376 47.7735 63.3368 46.9562 66.0237H15.9033C14.852 66.0237 14 66.8756 14 67.927C14 68.9793 14.852 69.8313 15.9033 69.8313H46.9562C47.7735 72.5181 50.2739 74.4789 53.2236 74.4789C56.1742 74.4789 58.6746 72.5181 59.4919 69.8313H115.002C116.053 69.8313 116.906 68.9793 116.906 67.927C116.906 66.8756 116.053 66.0237 115.003 66.0237ZM53.2236 70.6713C51.712 70.6713 50.4812 69.4415 50.4802 67.9299C50.4802 67.9289 50.4802 67.9279 50.4802 67.927C50.4802 67.926 50.4802 67.926 50.4802 67.925C50.4812 66.4124 51.712 65.1826 53.2236 65.1826C54.7371 65.1826 55.9679 66.4134 55.9679 67.927C55.9679 69.4405 54.7371 70.6713 53.2236 70.6713Z" fill="white"/>
<path d="M54.5586 59.7314C55.2538 60.1331 56.0166 60.3335 56.7803 60.3335C57.542 60.3335 58.3047 60.1331 59 59.7314L82.2294 46.32C83.6199 45.5176 84.4501 44.0795 84.4501 42.4737C84.4501 40.869 83.6199 39.4308 82.2294 38.6275L59 25.216C57.6104 24.4137 55.9491 24.4137 54.5586 25.216C53.168 26.0194 52.3379 27.4576 52.3379 29.0623V55.8851C52.3379 57.4909 53.168 58.929 54.5586 59.7314ZM56.1455 29.0623C56.1455 28.744 56.3439 28.5813 56.4619 28.5129C56.5323 28.4722 56.6444 28.4246 56.7812 28.4246C56.8765 28.4246 56.9836 28.4474 57.0966 28.5129L80.3261 41.9243C80.6018 42.083 80.6425 42.3369 80.6425 42.4737C80.6425 42.6106 80.6018 42.8635 80.3261 43.0232L57.0966 56.4346C56.8209 56.5943 56.5809 56.503 56.4619 56.4346C56.3439 56.3662 56.1455 56.2035 56.1455 55.8851V29.0623Z" fill="#F9B93E"/>
</g>
<defs>
<clipPath id="clip0">
<rect width="130" height="130" fill="white"/>
</clipPath>
</defs>
</svg>
