<svg width="88" height="88" viewBox="0 0 88 88" fill="none" xmlns="http://www.w3.org/2000/svg">
<path d="M27.5 5.67188H82.5V8.42188H27.5V5.67188Z" fill="#F9B93E"/>
<path d="M5.5 5.67188H8.25V8.42188H5.5V5.67188Z" fill="white"/>
<path d="M11 5.67188H13.75V8.42188H11V5.67188Z" fill="#F9B93E"/>
<path d="M16.5 5.67188H19.25V8.42188H16.5V5.67188Z" fill="white"/>
<path d="M32.8165 47.373L29.6992 44.2558L31.6436 42.3101L32.8165 43.4844L35.7323 40.5679L37.6766 42.5122L32.8165 47.373Z" fill="#F9B93E"/>
<path d="M32.8165 69.4321L29.6992 66.3149L31.6436 64.3692L32.8165 65.5435L35.7323 62.627L37.6766 64.5713L32.8165 69.4321Z" fill="#F9B93E"/>
<path d="M46.75 38.6719H63.25V41.4219H46.75V38.6719Z" fill="white"/>
<path d="M46.75 45.5469H57.75V48.2969H46.75V45.5469Z" fill="#F9B93E"/>
<path d="M46.75 60.6719H63.25V63.4219H46.75V60.6719Z" fill="white"/>
<path d="M46.75 67.5469H57.75V70.2969H46.75V67.5469Z" fill="#F9B93E"/>
<path d="M0 0.171875V74.4219H19.25V84.1456L25.2999 87.7046L29.9747 84.9546L34.6503 87.7046L39.3251 84.9546L44 87.7046L48.6749 84.9546L53.3497 87.7046L58.0253 84.9546L62.7001 87.7046L68.75 84.1456V74.4219H88V0.171875H0ZM66 82.5732L62.7001 84.5142L58.0253 81.7642L53.3497 84.5142L48.6749 81.7642L44 84.5142L39.3251 81.7642L34.6503 84.5142L29.9747 81.7642L25.2999 84.5142L22 82.5732V22.1719H55V33.1719H66V82.5732ZM57.75 30.4219V24.1162L64.0557 30.4219H57.75ZM85.25 71.6719H68.75V31.2275L56.9443 19.4219H19.25V71.6719H2.75V13.9219H85.25V71.6719ZM85.25 11.1719H2.75V2.92188H85.25V11.1719Z" fill="white"/>
<path d="M33.6875 34.5469C28.7515 34.5469 24.75 38.5483 24.75 43.4844C24.75 48.4204 28.7515 52.4219 33.6875 52.4219C38.6235 52.4219 42.625 48.4204 42.625 43.4844C42.619 38.551 38.6208 34.5529 33.6875 34.5469ZM33.6875 49.6719C30.2701 49.6719 27.5 46.9017 27.5 43.4844C27.5 40.067 30.2701 37.2969 33.6875 37.2969C37.1049 37.2969 39.875 40.067 39.875 43.4844C39.871 46.9004 37.1035 49.6678 33.6875 49.6719Z" fill="white"/>
<path d="M33.6875 56.5469C28.7515 56.5469 24.75 60.5483 24.75 65.4844C24.75 70.4204 28.7515 74.4219 33.6875 74.4219C38.6235 74.4219 42.625 70.4204 42.625 65.4844C42.619 60.551 38.6208 56.5529 33.6875 56.5469ZM33.6875 71.6719C30.2701 71.6719 27.5 68.9017 27.5 65.4844C27.5 62.067 30.2701 59.2969 33.6875 59.2969C37.1049 59.2969 39.875 62.067 39.875 65.4844C39.871 68.9004 37.1035 71.6678 33.6875 71.6719Z" fill="white"/>
</svg>
