<svg width="84" height="22" viewBox="0 0 84 22" fill="none" xmlns="http://www.w3.org/2000/svg">
<path d="M19.788 9.50469H11.6729V12.6951H16.3088C16.1089 13.7264 15.5024 14.5986 14.5883 15.183C13.8156 15.6771 12.8296 15.9693 11.6706 15.9693C9.42676 15.9693 7.52881 14.5191 6.85049 12.5705C6.67979 12.0764 6.58096 11.5479 6.58096 11.0043C6.58096 10.4607 6.67979 9.93223 6.85049 9.43809C7.53105 7.4916 9.429 6.04141 11.6729 6.04141C12.9374 6.04141 14.0717 6.4582 14.9656 7.27461L17.4363 4.90918C15.9427 3.57715 13.9953 2.76074 11.6729 2.76074C8.30596 2.76074 5.39277 4.6084 3.97549 7.30254C3.3915 8.41543 3.05908 9.67441 3.05908 11.0064C3.05908 12.3385 3.3915 13.5953 3.97549 14.7082C5.39277 17.4023 8.30596 19.25 11.6729 19.25C13.9998 19.25 15.9494 18.5109 17.3734 17.252C19.0019 15.8168 19.943 13.7027 19.943 11.1912C19.943 10.6068 19.8891 10.0461 19.788 9.50469Z" fill="white"/>
<path d="M77.2975 20V11.5539H75V8.51287H77.2975V5.91545C77.2975 3.87438 78.6546 2 81.7818 2C83.0479 2 83.9841 2.11799 83.9841 2.11799L83.9104 4.95778C83.9104 4.95778 82.9555 4.94874 81.9136 4.94874C80.7859 4.94874 80.6052 5.45391 80.6052 6.29237V8.51287H84L83.8523 11.5539H80.6052V20H77.2975Z" fill="white"/>
<path d="M40.7036 2L44.2986 3.26562V15.9191L49.3639 12.998L46.8827 11.8319L45.3156 7.93269L53.2963 10.7362V14.8115L44.3019 20L40.7042 17.9958L40.7036 2Z" fill="white"/>
</svg>
