<svg width="116" height="116" viewBox="0 0 116 116" fill="none" xmlns="http://www.w3.org/2000/svg">
<path d="M114.067 96.6666H112.133V27.0666C112.133 22.7956 108.671 19.3332 104.4 19.3332H87V5.79991C87 4.73222 86.1346 3.86657 85.0669 3.86633C84.9475 3.86633 84.8284 3.87745 84.7109 3.89944L73.1109 6.07444L71.1776 6.43791L53.9535 9.66657H42.5333C40.3977 9.66657 38.6667 11.3976 38.6667 13.5332C34.8275 13.5383 31.3553 15.8146 29.8197 19.3332H11.6C7.32902 19.3332 3.86667 22.7956 3.86667 27.0666V96.6666H1.93333C0.86565 96.6666 0 97.5322 0 98.5999V104.4C0 108.671 3.46236 112.133 7.73333 112.133H108.267C112.538 112.133 116 108.671 116 104.4V98.5999C116 97.5322 115.134 96.6666 114.067 96.6666ZM56.0667 13.2046L83.1333 8.12957V38.2799L56.0667 33.1952V13.2046ZM56.0667 37.1199L59.9333 37.8449V40.5999H56.0667V37.1199ZM42.5333 13.5332H52.2V32.8666H42.5333V13.5332ZM46.4 48.3332V36.7332H52.2V48.3332H46.4ZM52.2 52.1999V55.0999C52.2 56.7014 50.9015 57.9999 49.3 57.9999C47.6985 57.9999 46.4 56.7014 46.4 55.0999V52.1999H52.2ZM38.6667 17.3999V28.9999C35.4634 28.9999 32.8667 26.4032 32.8667 23.1999C32.8667 19.9966 35.4634 17.3999 38.6667 17.3999ZM7.73333 27.0666C7.73333 24.931 9.46439 23.1999 11.6 23.1999H29C29.0063 28.5359 33.3307 32.8603 38.6667 32.8666C38.6667 35.0022 40.3977 36.7332 42.5333 36.7332V55.0999C42.5333 58.837 45.5629 61.8666 49.3 61.8666C53.0371 61.8666 56.0667 58.837 56.0667 55.0999V44.4666H61.8667C62.9343 44.4666 63.8 43.6009 63.8 42.5332V38.5796L84.7109 42.5004C84.8284 42.5219 84.9473 42.533 85.0667 42.5332C86.1343 42.5332 87 41.6676 87 40.5999V23.1999H104.4C106.536 23.1999 108.267 24.931 108.267 27.0666V96.6666H75.4C74.8877 96.6661 74.3959 96.8693 74.0331 97.2311L70.7329 100.533H45.2671L41.9669 97.2311C41.6041 96.8693 41.1123 96.6661 40.6 96.6666H7.73333V27.0666ZM112.133 104.4C112.133 106.536 110.402 108.267 108.267 108.267H7.73333C5.59772 108.267 3.86667 106.536 3.86667 104.4V100.533H39.7996L43.0998 103.833C43.4623 104.196 43.9538 104.4 44.4667 104.4H71.5333C72.0462 104.4 72.5377 104.196 72.9002 103.833L76.2004 100.533H112.133V104.4Z" fill="white"/>
<path d="M100.533 29H92.8V32.8667H98.6V85.0667H17.4V32.8667H27.0667V29H15.4667C14.399 29 13.5333 29.8656 13.5333 30.9333V87C13.5333 88.0677 14.399 88.9333 15.4667 88.9333H100.533C101.601 88.9333 102.467 88.0677 102.467 87V30.9333C102.467 29.8656 101.601 29 100.533 29Z" fill="#F9B93E"/>
<path d="M59.9333 92.8H56.0667V96.6667H59.9333V92.8Z" fill="#F9B93E"/>
<path d="M30.9333 67.6666H27.0667V71.5333H30.9333V67.6666Z" fill="white"/>
<path d="M92.8001 67.6666H34.8V71.5333H92.8001V67.6666Z" fill="white"/>
<path d="M86.9999 75.4H23.2V79.2667H86.9999V75.4Z" fill="#F9B93E"/>
</svg>
