<svg width="135" height="135" viewBox="0 0 135 135" fill="none" xmlns="http://www.w3.org/2000/svg">
<g clip-path="url(#clip0)">
<path d="M3.31132 84.1286C4.05126 84.6435 4.83327 85.0951 5.64907 85.4786C6.62107 85.9758 8.25007 86.8083 8.36482 87.3911C8.50637 88.1603 8.41389 88.9543 8.09932 89.6703C7.76407 90.3903 7.41307 91.0091 7.10932 91.5423C6.28582 92.9981 4.90657 95.4371 6.98557 97.1358C7.47157 97.5858 8.31082 98.2361 9.07582 98.8233C8.51265 99.808 8.25792 100.939 8.34457 102.07C8.46351 102.96 8.94671 103.761 9.67882 104.282C10.1783 104.635 10.7116 104.941 11.2381 105.24C12.5678 105.999 13.0876 106.352 13.2631 107.056C13.3881 107.962 13.3112 108.884 13.0381 109.756C12.9053 110.357 12.7771 110.96 12.7006 111.556C12.4771 113.607 12.7305 115.681 13.4408 117.618C14.4527 121.192 17.6851 123.682 21.3991 123.749C22.0192 123.747 22.6374 123.681 23.2441 123.553C29.6718 122.029 36.0057 120.134 42.2138 117.876C47.2831 120.851 50.4848 129.896 51.3196 133.291C51.5688 134.295 52.4701 134.999 53.5043 134.999L109.979 134.841C110.695 134.84 111.367 134.498 111.79 133.921C112.213 133.343 112.336 132.599 112.121 131.916C111.565 130.392 110.798 128.953 109.842 127.641C109.303 126.864 108.816 126.05 108.386 125.207C107.368 123.146 106.518 121.006 105.846 118.808C104.579 114.507 103.695 110.102 103.205 105.645C103.131 104.827 102.617 104.115 101.865 103.786C101.112 103.457 100.24 103.564 99.5899 104.065C98.9395 104.567 98.6139 105.383 98.7406 106.194C99.2609 110.918 100.2 115.587 101.546 120.144C102.287 122.563 103.22 124.918 104.339 127.187C104.852 128.206 105.435 129.188 106.082 130.128L106.233 130.353L55.2053 130.499C53.7117 125.161 51.0007 120.243 47.2853 116.13L49.3103 115.422C50.8178 114.895 51.9541 114.499 52.5368 114.312C62.1758 111.264 66.9953 106.874 66.8648 101.262C66.8667 100.663 66.6228 100.089 66.19 99.6737C65.7572 99.2588 65.1733 99.0392 64.5743 99.0663C63.3324 99.0958 62.3494 100.126 62.3783 101.368C62.4323 103.683 60.5356 107.061 51.1823 110.019C50.5726 110.215 49.3981 110.625 47.8388 111.169C46.1671 111.754 44.0408 112.497 41.6963 113.293H41.6806C35.3486 115.614 28.8879 117.567 22.3306 119.143C20.2324 119.547 18.189 118.224 17.7001 116.144C17.2194 114.864 17.0385 113.491 17.1713 112.13C17.2298 111.657 17.3378 111.189 17.4413 110.719C17.8998 109.163 17.967 107.517 17.6371 105.929C16.9804 103.865 15.4611 102.187 13.4723 101.33L13.0043 101.062C13.2473 100.572 13.5374 100.106 13.8706 99.6716C14.248 99.1933 14.4154 98.5824 14.3344 97.9786C14.2534 97.3747 13.931 96.8295 13.4408 96.4676C12.9008 96.0716 11.6273 95.1176 10.6958 94.3661C10.8038 94.1703 10.9208 93.9543 11.0333 93.7586C11.3866 93.1398 11.7893 92.4198 12.1831 91.5873C12.8951 90.0102 13.1048 88.2522 12.7838 86.5518C12.2438 83.8068 9.61582 82.4613 7.69657 81.4803C7.05118 81.1749 6.43252 80.8159 5.84707 80.4071C5.3646 80.0829 4.91273 79.7154 4.49707 79.3091C4.49707 78.9693 4.86157 78.1458 6.57607 76.0556C10.6055 70.8702 14.0586 65.2617 16.8743 59.3291C17.4056 58.3993 17.7043 57.3549 17.7451 56.2848C17.5127 54.0232 16.3142 51.9724 14.4578 50.6598C13.5466 49.8251 12.6893 49.0376 12.5903 48.3108C12.6054 47.7776 12.7246 47.2525 12.9413 46.7651C13.3081 45.7998 13.7311 44.8548 14.1563 43.9076C15.0789 42.0052 15.8158 40.0182 16.3568 37.9743L16.5818 37.0158C17.059 34.7663 17.6736 32.5481 18.4223 30.3738C20.196 25.4784 22.9421 20.9926 26.4953 17.1866C30.7996 12.6326 37.5743 9.41057 46.6643 7.60382C53.6174 6.07742 60.6727 5.06072 67.7738 4.56182C71.3154 4.37007 74.8674 4.57155 78.3646 5.16257C79.5734 5.34377 80.7058 4.52665 80.9149 3.32228C81.124 2.11791 80.3333 0.966927 79.1341 0.730069C75.3059 0.0794804 71.4171 -0.142389 67.5398 0.0685684C60.2185 0.576368 52.9443 1.62016 45.7756 3.19157C35.6303 5.21657 28.2571 8.77382 23.2238 14.0928C19.2535 18.3412 16.1837 23.3489 14.1991 28.8146C13.3888 31.1665 12.723 33.5657 12.2056 35.9988L11.9806 36.9483C11.5004 38.713 10.8563 40.429 10.0568 42.0738C9.60682 43.0998 9.13882 44.1258 8.73607 45.1878C8.21805 46.3708 8.01273 47.667 8.13982 48.9521C8.59386 50.9667 9.75845 52.7503 11.4203 53.9763C12.5206 54.9866 13.2428 55.6976 13.2518 56.3163C13.1704 56.6591 13.0408 56.9886 12.8671 57.2951C10.1716 62.9739 6.86719 68.3432 3.01207 73.3083C1.38532 75.2906 -0.317931 77.6013 0.044319 79.9121C0.520888 81.7003 1.69881 83.2205 3.31132 84.1286Z" fill="white"/>
<path d="M25.1258 40.0342L25.3508 39.033C25.7452 37.1624 26.2462 35.3159 26.8516 33.5025C28.2066 29.7461 30.3066 26.3022 33.0256 23.3775C35.9416 20.628 39.5109 18.6679 43.3958 17.6827C44.1802 17.4617 44.7837 16.8338 44.9736 16.0413C45.1635 15.2488 44.91 14.4156 44.3109 13.8631C43.7119 13.3106 42.8609 13.1252 42.0863 13.3785C37.4499 14.5834 33.2025 16.9632 29.7541 20.2882C26.6207 23.6566 24.2 27.6231 22.6373 31.95C21.9622 33.9472 21.4055 35.9825 20.9701 38.0452L20.7451 39.0195C20.4643 40.2291 21.2165 41.4375 22.4258 41.7195C22.5932 41.7588 22.7646 41.7784 22.9366 41.778C23.983 41.7766 24.8904 41.0539 25.1258 40.0342Z" fill="#F9B93E"/>
<path d="M20.25 49.5001C21.4926 49.5001 22.5 48.4927 22.5 47.2501C22.5 46.0074 21.4926 45.0001 20.25 45.0001C19.0074 45.0001 18 46.0074 18 47.2501C18 48.4927 19.0074 49.5001 20.25 49.5001Z" fill="white"/>
<path d="M60.7499 45.4725C60.5958 53.1432 63.3065 60.5958 68.3526 66.375C69.941 68.0253 71.6728 69.5312 73.5276 70.875C76.8194 73.4198 79.9379 75.852 80.7659 79.236C78.1953 80.2534 76.5049 82.7354 76.4999 85.5V90C76.5117 92.8503 78.3126 95.3859 80.9999 96.336V96.75C80.9999 101.721 85.0293 105.75 89.9999 105.75C94.9704 105.75 98.9999 101.721 98.9999 96.75V96.336C101.687 95.3859 103.488 92.8503 103.5 90V85.5C103.493 82.7332 101.799 80.2505 99.2249 79.236C100.051 75.861 103.171 73.4198 106.463 70.875C108.318 69.5306 110.049 68.0248 111.638 66.375C116.686 60.5964 119.4 53.1441 119.25 45.4725C119.187 29.2666 106.203 16.0724 89.9999 15.75C73.7971 16.0724 60.8126 29.2666 60.7499 45.4725ZM83.2499 49.5H80.9999C79.7572 49.5 78.7499 48.4926 78.7499 47.25C78.7499 46.0074 79.7572 45 80.9999 45C82.2425 45 83.2499 46.0074 83.2499 47.25V49.5ZM92.2499 78.75H87.7499V54H92.2499V78.75ZM89.9999 101.25C87.5146 101.25 85.4999 99.2353 85.4999 96.75H94.4999C94.4999 99.2353 92.4852 101.25 89.9999 101.25ZM98.9999 90C98.9999 91.2426 97.9925 92.25 96.7499 92.25H83.2499C82.0072 92.25 80.9999 91.2426 80.9999 90V85.5C80.9999 84.2574 82.0072 83.25 83.2499 83.25H96.7499C97.9925 83.25 98.9999 84.2574 98.9999 85.5V90ZM114.75 45.5422C114.89 52.0754 112.594 58.4268 108.308 63.36C106.897 64.807 105.363 66.1297 103.725 67.3132C101.072 69.1614 98.7194 71.4069 96.7499 73.971V54H98.9999C102.728 54 105.75 50.9779 105.75 47.25C105.75 43.5221 102.728 40.5 98.9999 40.5C95.272 40.5 92.2499 43.5221 92.2499 47.25V49.5H87.7499V47.25C87.7499 43.5221 84.7278 40.5 80.9999 40.5C77.272 40.5 74.2499 43.5221 74.2499 47.25C74.2499 50.9779 77.272 54 80.9999 54H83.2499V73.971C81.2841 71.4082 78.9353 69.1634 76.2861 67.3155C74.6469 66.1311 73.1127 64.8077 71.7006 63.36C67.4107 58.4288 65.111 52.0768 65.2499 45.5422C65.4749 31.8307 76.7969 20.25 89.9999 20.25C103.203 20.25 114.536 31.8307 114.75 45.5422ZM96.7499 49.5V47.25C96.7499 46.0074 97.7572 45 98.9999 45C100.243 45 101.25 46.0074 101.25 47.25C101.25 48.4926 100.243 49.5 98.9999 49.5H96.7499Z" fill="white"/>
<path d="M126 47.2501H132.75C133.993 47.2501 135 46.2427 135 45.0001C135 43.7574 133.993 42.7501 132.75 42.7501H126C124.757 42.7501 123.75 43.7574 123.75 45.0001C123.75 46.2427 124.757 47.2501 126 47.2501Z" fill="white"/>
<path d="M115.454 21.7958C116.052 21.7963 116.625 21.5591 117.047 21.1365L121.819 16.362C122.404 15.7971 122.639 14.9606 122.433 14.1739C122.227 13.3872 121.613 12.7729 120.826 12.567C120.039 12.3611 119.203 12.5956 118.638 13.1805L113.863 17.9528C113.219 18.5961 113.025 19.5647 113.374 20.4063C113.722 21.248 114.543 21.7965 115.454 21.7958Z" fill="#F9B93E"/>
<path d="M90 11.25C91.2426 11.25 92.25 10.2426 92.25 9V2.25C92.25 1.00736 91.2426 0 90 0C88.7574 0 87.75 1.00736 87.75 2.25V9C87.75 10.2426 88.7574 11.25 90 11.25Z" fill="white"/>
<path d="M66.1364 21.1365C66.5589 20.7145 66.7962 20.1418 66.7962 19.5447C66.7962 18.9475 66.5589 18.3748 66.1364 17.9528L61.3619 13.1805C60.7969 12.5956 59.9604 12.3611 59.1737 12.567C58.3871 12.7729 57.7727 13.3872 57.5668 14.1739C57.3609 14.9606 57.5955 15.7971 58.1804 16.362L62.9526 21.1365C63.3746 21.559 63.9473 21.7964 64.5445 21.7964C65.1417 21.7964 65.7143 21.559 66.1364 21.1365Z" fill="#F9B93E"/>
<path d="M47.25 42.7501C46.0074 42.7501 45 43.7574 45 45.0001C45 46.2427 46.0074 47.2501 47.25 47.2501H54C55.2426 47.2501 56.25 46.2427 56.25 45.0001C56.25 43.7574 55.2426 42.7501 54 42.7501H47.25Z" fill="white"/>
</g>
<defs>
<clipPath id="clip0">
<rect width="135" height="135" fill="white"/>
</clipPath>
</defs>
</svg>
