<svg width="40" height="46" viewBox="0 0 40 46" fill="none" xmlns="http://www.w3.org/2000/svg">
<path d="M38.9286 43.125H37.1429V2.15625C37.1429 0.965371 36.1835 0 35 0H5C3.81652 0 2.85714 0.965371 2.85714 2.15625V43.125H1.07143C0.479732 43.125 0 43.6077 0 44.2031V46H40V44.2031C40 43.6077 39.5203 43.125 38.9286 43.125ZM11.4286 6.82812C11.4286 6.23273 11.9083 5.75 12.5 5.75H16.0714C16.6631 5.75 17.1429 6.23273 17.1429 6.82812V10.4219C17.1429 11.0173 16.6631 11.5 16.0714 11.5H12.5C11.9083 11.5 11.4286 11.0173 11.4286 10.4219V6.82812ZM11.4286 15.4531C11.4286 14.8577 11.9083 14.375 12.5 14.375H16.0714C16.6631 14.375 17.1429 14.8577 17.1429 15.4531V19.0469C17.1429 19.6423 16.6631 20.125 16.0714 20.125H12.5C11.9083 20.125 11.4286 19.6423 11.4286 19.0469V15.4531ZM16.0714 28.75H12.5C11.9083 28.75 11.4286 28.2673 11.4286 27.6719V24.0781C11.4286 23.4827 11.9083 23 12.5 23H16.0714C16.6631 23 17.1429 23.4827 17.1429 24.0781V27.6719C17.1429 28.2673 16.6631 28.75 16.0714 28.75ZM22.8571 43.125H17.1429V35.5781C17.1429 34.9827 17.6226 34.5 18.2143 34.5H21.7857C22.3774 34.5 22.8571 34.9827 22.8571 35.5781V43.125ZM28.5714 27.6719C28.5714 28.2673 28.0917 28.75 27.5 28.75H23.9286C23.3369 28.75 22.8571 28.2673 22.8571 27.6719V24.0781C22.8571 23.4827 23.3369 23 23.9286 23H27.5C28.0917 23 28.5714 23.4827 28.5714 24.0781V27.6719ZM28.5714 19.0469C28.5714 19.6423 28.0917 20.125 27.5 20.125H23.9286C23.3369 20.125 22.8571 19.6423 22.8571 19.0469V15.4531C22.8571 14.8577 23.3369 14.375 23.9286 14.375H27.5C28.0917 14.375 28.5714 14.8577 28.5714 15.4531V19.0469ZM28.5714 10.4219C28.5714 11.0173 28.0917 11.5 27.5 11.5H23.9286C23.3369 11.5 22.8571 11.0173 22.8571 10.4219V6.82812C22.8571 6.23273 23.3369 5.75 23.9286 5.75H27.5C28.0917 5.75 28.5714 6.23273 28.5714 6.82812V10.4219Z" fill="#F9B93E"/>
</svg>
