<svg width="122" height="122" viewBox="0 0 122 122" fill="none" xmlns="http://www.w3.org/2000/svg">
<path d="M98.6171 20.333C96.9324 20.333 95.5669 21.6985 95.5669 23.3832C95.5669 25.0679 96.9324 26.4334 98.6171 26.4334C100.302 26.4334 101.667 25.0679 101.667 23.3832C101.667 21.6985 100.302 20.333 98.6171 20.333Z" fill="#F9B93E"/>
<path d="M107.171 0.595653C106.377 -0.198307 105.09 -0.198307 104.296 0.595653L88.0288 16.8621C87.6481 17.2437 87.4331 17.7603 87.4331 18.3001V32.5328C87.4331 33.6562 88.3434 34.5666 89.4669 34.5666H103.7C104.239 34.5666 104.756 34.3525 105.138 33.9709L121.404 17.7035C122.198 16.9095 122.198 15.6232 121.404 14.8283L107.171 0.595653ZM102.858 30.5H91.4997V19.1416L105.733 4.90799L117.092 16.2664L102.858 30.5Z" fill="white"/>
<path d="M2.03377 69.1333H8.13321V69.3939C8.14159 73.0519 10.6687 76.223 14.2336 77.0468V95.5666C14.2336 96.6901 15.1439 97.6004 16.2664 97.6004H28.4662C29.5897 97.6004 30.5 96.6901 30.5 95.5666V87.4334H32.5496C35.906 87.4241 38.6248 84.7062 38.6332 81.3498V77.0468C41.2301 76.4381 43.3421 74.5541 44.2412 72.0429L78.4746 87.2584C79.5012 87.7145 80.7029 87.2519 81.158 86.2253C81.2735 85.9656 81.334 85.6845 81.333 85.3997V36.5995C81.334 35.477 80.4236 34.5667 79.3002 34.5667C79.0163 34.5667 78.7343 34.6262 78.4746 34.7416L44.2412 49.9572C43.1298 46.8325 40.1765 44.7429 36.8601 44.7336H16.0067C11.66 44.7373 8.13786 48.2604 8.13321 52.6062V52.8668H2.03377C0.910309 52.8668 0 53.7771 0 54.8997V67.0995C0 68.2229 0.910309 69.1333 2.03377 69.1333ZM69.1332 43.3421L77.2664 39.7297V82.2704L69.1332 78.658V43.3421ZM44.7336 54.1886L65.0666 45.1497V76.8597L44.7336 67.8115V54.1886ZM26.4334 85.3997V93.5338H18.3002V77.2665H26.4334V85.3997ZM34.5666 81.3498C34.5657 82.463 33.6637 83.3659 32.5496 83.3668H30.5V77.2665H34.5666V81.3498ZM12.1998 67.0995V52.6062C12.2026 50.5054 13.905 48.8021 16.0067 48.8002H36.8601C38.9618 48.8021 40.6642 50.5054 40.667 52.6062V69.3939C40.6642 71.4947 38.9618 73.198 36.8601 73.1999H16.0067C13.905 73.198 12.2026 71.4947 12.1998 69.3939V67.0995ZM4.0666 56.9334H8.13321V65.0666H4.0666V56.9334Z" fill="white"/>
<path d="M101.277 79.9545C100.483 79.1606 99.1959 79.1606 98.4019 79.9545L84.0222 94.3343C83.2283 95.1282 83.2283 96.4155 84.0222 97.2094L104.152 117.34C104.946 118.134 106.233 118.134 107.028 117.34L121.404 102.962C122.198 102.168 122.198 100.88 121.404 100.087L101.277 79.9545ZM114.644 99.0682L103.169 98.1877L102.287 86.713L114.644 99.0682ZM105.589 113.021L88.3346 95.7695L98.1497 85.9553L99.2499 100.237C99.3262 101.237 100.12 102.033 101.12 102.11L115.405 103.207L105.589 113.021Z" fill="white"/>
<path d="M54.9006 38.6332C62.7452 38.6509 69.1192 32.3057 69.1379 24.4611C69.1444 21.3709 68.1438 18.3626 66.2869 15.8922L78.7082 3.4709L75.8293 0.595703L63.4079 13.0133C57.1186 8.29703 48.197 9.57127 43.4807 15.8597C38.7644 22.1481 40.0387 31.0696 46.3271 35.7869C48.8002 37.641 51.8094 38.6397 54.9006 38.6332ZM54.9006 14.2327C60.5151 14.2327 65.0666 18.7851 65.0666 24.3996C65.0666 30.0151 60.5151 34.5666 54.9006 34.5666C49.2851 34.5666 44.7336 30.0151 44.7336 24.3996C44.7401 18.7879 49.2879 14.2401 54.9006 14.2327Z" fill="#F9B93E"/>
<path d="M87.4332 71.167H97.6002V73.1998C97.6002 74.3233 98.5105 75.2336 99.634 75.2336H115.9C117.023 75.2336 117.933 74.3233 117.933 73.1998V63.0719C117.923 59.6187 115.739 56.5462 112.483 55.4004C116.142 52.7961 116.998 47.7177 114.393 44.0578C111.79 40.398 106.712 39.5417 103.052 42.146C99.392 44.7503 98.5356 49.8287 101.14 53.4886C101.666 54.2276 102.312 54.8745 103.052 55.4004C101.736 55.8695 100.562 56.6691 99.6433 57.7218C98.935 56.9055 98.0703 56.2381 97.1004 55.7597C99.8332 53.7901 100.452 49.9776 98.4826 47.2448C96.513 44.5121 92.7005 43.8931 89.9668 45.8626C87.234 47.8322 86.6151 51.6447 88.5846 54.3775C88.9681 54.9099 89.4353 55.3762 89.9668 55.7597C87.1819 57.114 85.4097 59.9361 85.4004 63.0328V69.1332C85.4004 70.2557 86.3107 71.167 87.4332 71.167ZM107.767 44.7336C110.013 44.7336 111.834 46.5542 111.834 48.8002C111.834 51.0462 110.013 52.8668 107.767 52.8668C105.521 52.8668 103.701 51.0452 103.701 48.8002C103.701 46.5542 105.521 44.7336 107.767 44.7336ZM101.667 69.1332V63.0719C101.671 60.8055 103.506 58.97 105.773 58.9662H109.762C112.027 58.97 113.864 60.8055 113.867 63.0719V71.166H101.667V69.1332ZM93.5336 48.8002C94.6561 48.8002 95.5664 49.7105 95.5664 50.833C95.5664 51.9565 94.6561 52.8668 93.5336 52.8668C92.4101 52.8668 91.4998 51.9565 91.4998 50.833C91.4998 49.7105 92.4101 48.8002 93.5336 48.8002ZM89.467 63.0328C89.467 60.7869 91.2876 58.9662 93.5336 58.9662C95.7796 58.9662 97.6002 60.7878 97.6002 63.0328V67.1004H89.467V63.0328Z" fill="white"/>
<path d="M56.9335 83.3668H48.8002C48.2613 83.3668 47.7438 83.5808 47.3622 83.9625L35.1624 96.1623C34.3684 96.9562 34.3684 98.2435 35.1624 99.0375L57.5292 121.404C58.3231 122.198 59.6104 122.198 60.4044 121.404L76.6717 105.138C77.4647 104.344 77.4647 103.057 76.6717 102.263L58.3715 83.9625C57.9899 83.5808 57.4724 83.3668 56.9335 83.3668ZM58.9672 117.092L39.4756 97.6003L49.6417 87.4334H56.092L72.3584 103.7L58.9672 117.092Z" fill="white"/>
<path d="M47.3628 100.229L55.496 92.0957L58.3712 94.9709L50.238 103.104L47.3628 100.229Z" fill="white"/>
<path d="M53.4614 106.328L61.5956 98.1951L64.4708 101.07L56.3376 109.204L53.4614 106.328Z" fill="#F9B93E"/>
</svg>
