<svg width="120" height="120" viewBox="0 0 120 120" fill="none" xmlns="http://www.w3.org/2000/svg">
<path d="M75.1529 65.756V36.4628C75.1529 35.4923 74.3655 34.705 73.3951 34.705C72.4237 34.705 71.6373 35.4923 71.6373 36.4628V40.7841C71.5997 40.8033 71.5613 40.817 71.5237 40.8381L35.9381 60.2546V59.8508C35.9381 58.9554 35.5426 58.1708 34.8532 57.6975C34.1638 57.2251 33.2895 57.139 32.4536 57.4613L10.6302 65.8887C9.35669 66.3804 8.43109 67.7189 8.4137 69.083H4.10156C1.84021 69.083 0 70.9232 0 73.1846V80.4777C0 82.739 1.84021 84.5792 4.10156 84.5792H8.4137C8.43109 85.9424 9.35669 87.2819 10.6293 87.7735L14.0598 89.0974H10.3317C8.06946 89.0974 6.23016 90.8561 6.23016 93.0186C6.23016 93.2053 5.97382 93.4232 5.64423 93.4232H4.70947C2.44812 93.4232 0.60791 95.2625 0.60791 97.5248V106.969C0.60791 109.231 2.44812 111.071 4.70947 111.071H5.64423C5.97382 111.071 6.23016 111.289 6.23016 111.476C6.23016 113.637 8.06946 115.396 10.3317 115.396H13.2184V116.144C13.2184 117.76 14.5331 119.074 16.1481 119.074H23.2251C24.7211 119.074 26.0806 117.917 26.3205 116.441L26.6547 114.39H30.2518C32.5131 114.39 34.3533 112.549 34.3533 110.288V108.052C34.3533 107.181 34.0787 106.373 33.6127 105.709C34.0787 105.043 34.3533 104.237 34.3533 103.365V101.129C34.3533 100.258 34.0787 99.451 33.6127 98.7855C34.0787 98.1208 34.3533 97.3133 34.3533 96.4417V96.2275C34.5282 96.1597 34.6957 96.0718 34.8532 95.9638C35.5426 95.4914 35.9381 94.7068 35.9381 93.8105V93.4077L71.5237 112.824C71.5613 112.844 71.5988 112.859 71.6364 112.877V117.199C71.6364 118.17 72.4237 118.957 73.3942 118.957C74.3655 118.957 75.152 118.17 75.152 117.199V87.9062C79.888 86.467 83.3459 82.0496 83.3459 76.8311C83.3459 71.6126 79.888 67.1952 75.1529 65.756ZM8.41187 81.0636H4.10156C3.78387 81.0636 3.51562 80.7953 3.51562 80.4777V73.1846C3.51562 72.8669 3.78387 72.5986 4.10156 72.5986H8.41187V81.0636ZM15.2435 101.566C14.9268 101.566 14.6576 101.298 14.6576 100.98V96.8629C14.6576 95.8924 13.8712 95.105 12.8998 95.105C11.9293 95.105 11.142 95.8924 11.142 96.8629V100.98C11.142 102.505 11.9806 103.836 13.2184 104.542V111.88H10.3317C10.0012 111.88 9.74579 111.663 9.74579 111.476C9.74579 109.314 7.90558 107.555 5.64423 107.555H4.70947C4.39178 107.555 4.12354 107.287 4.12354 106.969V97.5248C4.12354 97.2071 4.39178 96.9388 4.70947 96.9388H5.64423C7.90558 96.9388 9.74579 95.1801 9.74579 93.0186C9.74579 92.8309 10.0012 92.613 10.3317 92.613H17.4271C17.7448 92.613 18.013 92.8821 18.013 93.1989V100.98C18.013 101.298 17.7448 101.566 17.4271 101.566H15.2435ZM22.9028 115.558H16.734V105.082H17.4271C18.6365 105.082 19.7223 104.552 20.4739 103.716C20.5362 104.453 20.7944 105.134 21.1963 105.709C20.7312 106.373 20.4556 107.181 20.4556 108.052V110.288C20.4556 112.049 21.5735 113.549 23.1354 114.13L22.9028 115.558ZM30.8377 110.288C30.8377 110.605 30.5695 110.874 30.2518 110.874H24.5572C24.2404 110.874 23.9713 110.605 23.9713 110.288V108.052C23.9713 107.735 24.2404 107.466 24.5572 107.466H30.2518C30.5695 107.466 30.8377 107.735 30.8377 108.052V110.288ZM30.8377 103.365C30.8377 103.683 30.5695 103.951 30.2518 103.951H24.5572C24.2404 103.951 23.9713 103.683 23.9713 103.365V101.129C23.9713 100.812 24.2404 100.543 24.5572 100.543H30.2518C30.5695 100.543 30.8377 100.812 30.8377 101.129V103.365ZM30.8377 96.4417C30.8377 96.7594 30.5695 97.0276 30.2518 97.0276H24.5572C24.2404 97.0276 23.9713 96.7594 23.9713 96.4417V94.206C23.9713 93.8892 24.2404 93.6201 24.5572 93.6201H25.773L30.8386 95.5765V96.4417H30.8377ZM71.6373 108.881L65.2029 105.37V72.1931C65.2029 71.2226 64.4165 70.4352 63.4451 70.4352C62.4747 70.4352 61.6873 71.2226 61.6873 72.1931V103.452L35.9381 89.4031V87.1931C35.9381 86.2226 35.1508 85.4352 34.1803 85.4352C33.2098 85.4352 32.4225 86.2226 32.4225 87.1931V92.4198L11.955 84.517C11.9458 84.5051 11.9348 84.4895 11.9275 84.4758V69.1855C11.9348 69.1727 11.9458 69.1572 11.955 69.1453L32.4225 61.2424V78.9899C32.4225 79.9604 33.2098 80.7477 34.1803 80.7477C35.1517 80.7477 35.9381 79.9604 35.9381 78.9899V64.2591L61.6873 50.2103V63.7556C61.6873 64.726 62.4747 65.5134 63.4451 65.5134C64.4165 65.5134 65.2029 64.726 65.2029 63.7556V48.2923L71.6373 44.7812V108.881ZM75.1529 84.1562V69.506C77.9105 70.7804 79.8303 73.5837 79.8303 76.8311C79.8303 80.0785 77.9105 82.8818 75.1529 84.1562Z" fill="white"/>
<path d="M95.6862 58.7255C94.9977 59.4103 94.9949 60.5236 95.6798 61.2112C104.252 69.8245 104.252 83.8384 95.6798 92.4499C94.9949 93.1384 94.9977 94.2516 95.6862 94.9365C96.0295 95.278 96.4781 95.4482 96.9258 95.4482C97.3771 95.4482 97.8285 95.2752 98.1718 94.93C108.104 84.9508 108.104 68.7121 98.1718 58.7319C97.487 58.0435 96.3737 58.0407 95.6862 58.7255Z" fill="#F9B93E"/>
<path d="M87.0884 64.2536C86.4 64.9375 86.3972 66.0508 87.082 66.7392C92.62 72.3047 92.6191 81.3584 87.0811 86.923C86.3963 87.6105 86.3991 88.7238 87.0875 89.4086C87.4299 89.7501 87.8785 89.9204 88.3271 89.9204C88.7785 89.9204 89.2299 89.7483 89.5732 89.4031C96.4717 82.4717 96.4726 71.1924 89.5741 64.26C88.8893 63.5706 87.776 63.5688 87.0884 64.2536Z" fill="white"/>
<path d="M25.7253 69.3429H20.0381C19.0676 69.3429 18.2803 70.1302 18.2803 71.1007C18.2803 72.0721 19.0676 72.8585 20.0381 72.8585H25.7253C26.6958 72.8585 27.4832 72.0721 27.4832 71.1007C27.4832 70.1302 26.6958 69.3429 25.7253 69.3429Z" fill="white"/>
<path d="M25.7253 75.0732H20.0381C19.0676 75.0732 18.2803 75.8606 18.2803 76.8311C18.2803 77.8015 19.0676 78.5889 20.0381 78.5889H25.7253C26.6958 78.5889 27.4832 77.8015 27.4832 76.8311C27.4832 75.8606 26.6958 75.0732 25.7253 75.0732Z" fill="#F9B93E"/>
<path d="M25.7253 80.8026H20.0381C19.0676 80.8026 18.2803 81.59 18.2803 82.5604C18.2803 83.5318 19.0676 84.3182 20.0381 84.3182H25.7253C26.6958 84.3182 27.4832 83.5318 27.4832 82.5604C27.4832 81.59 26.6958 80.8026 25.7253 80.8026Z" fill="white"/>
<path d="M117.07 15.7772H82.501C80.886 15.7772 79.5713 17.091 79.5713 18.7069V44.891C79.5713 46.5069 80.886 47.8207 82.501 47.8207H86.5696V53.2836C86.5696 54.32 87.0658 55.1458 87.8962 55.4919C88.1507 55.5981 88.4153 55.6494 88.6817 55.6494C89.2814 55.6494 89.8875 55.3848 90.3974 54.8785L97.1961 48.1375C97.3316 48.0074 97.7766 47.8243 97.9633 47.8207H104.766C105.736 47.8207 106.524 47.0342 106.524 46.0629C106.524 45.0924 105.736 44.3051 104.766 44.3051H97.9633C96.8473 44.3051 95.5143 44.8544 94.7214 45.6399L90.0852 50.2368V47.2347C90.0852 45.6198 88.7714 44.3051 87.1555 44.3051H83.0869V19.2928H116.484V44.3051H112.969C111.998 44.3051 111.211 45.0924 111.211 46.0629C111.211 47.0342 111.998 47.8207 112.969 47.8207H117.07C118.686 47.8207 120 46.5069 120 44.891V18.7069C120 17.091 118.686 15.7772 117.07 15.7772Z" fill="white"/>
<path d="M89.748 26.9596H109.823C110.793 26.9596 111.581 26.1722 111.581 25.2018C111.581 24.2304 110.793 23.444 109.823 23.444H89.748C88.7776 23.444 87.9902 24.2304 87.9902 25.2018C87.9902 26.1722 88.7776 26.9596 89.748 26.9596Z" fill="white"/>
<path d="M109.823 30.0411H89.748C88.7776 30.0411 87.9902 30.8276 87.9902 31.799C87.9902 32.7694 88.7776 33.5568 89.748 33.5568H109.823C110.793 33.5568 111.581 32.7694 111.581 31.799C111.581 30.8276 110.793 30.0411 109.823 30.0411Z" fill="#F9B93E"/>
<path d="M89.748 36.6385C88.7776 36.6385 87.9902 37.4259 87.9902 38.3964C87.9902 39.3677 88.7776 40.1542 89.748 40.1542H98.7175C99.6888 40.1542 100.475 39.3677 100.475 38.3964C100.475 37.4259 99.6888 36.6385 98.7175 36.6385H89.748Z" fill="white"/>
<path d="M31.3643 32.9819H50.4713C50.659 32.9846 51.103 33.1677 51.2385 33.2968L58.0381 40.0397C58.679 40.675 59.3245 40.8087 59.752 40.8087C60.8021 40.8087 61.8651 39.9966 61.8651 38.4439V32.9819H65.9337C67.5496 32.9819 68.8633 31.6672 68.8633 30.0522V3.86719C68.8633 2.25128 67.5496 0.9375 65.9337 0.9375H31.3643C29.7493 0.9375 28.4346 2.25128 28.4346 3.86719V30.0522C28.4346 31.6672 29.7493 32.9819 31.3643 32.9819ZM31.9502 4.45312H65.3477V29.4662H61.28C59.6641 29.4662 58.3503 30.78 58.3503 32.3959V35.3979L53.7141 30.8002C52.9213 30.0146 51.5883 29.4662 50.4722 29.4662H31.9511V4.45312H31.9502Z" fill="white"/>
<path d="M38.6123 12.1198H58.6862C59.6566 12.1198 60.444 11.3324 60.444 10.3619C60.444 9.39148 59.6566 8.60413 58.6862 8.60413H38.6123C37.6409 8.60413 36.8545 9.39148 36.8545 10.3619C36.8545 11.3324 37.6409 12.1198 38.6123 12.1198Z" fill="white"/>
<path d="M38.6123 18.717H58.6862C59.6566 18.717 60.444 17.9306 60.444 16.9592C60.444 15.9888 59.6566 15.2014 58.6862 15.2014H38.6123C37.6409 15.2014 36.8545 15.9888 36.8545 16.9592C36.8545 17.9306 37.6409 18.717 38.6123 18.717Z" fill="#F9B93E"/>
<path d="M47.5817 21.7997H38.6113C37.6409 21.7997 36.8535 22.5861 36.8535 23.5575C36.8535 24.528 37.6409 25.3153 38.6113 25.3153H47.5817C48.5521 25.3153 49.3395 24.528 49.3395 23.5575C49.3395 22.5861 48.5521 21.7997 47.5817 21.7997Z" fill="white"/>
</svg>
