<svg width="120" height="120" viewBox="0 0 120 120" fill="none" xmlns="http://www.w3.org/2000/svg">
<path d="M117.656 83.3702V82.7517C117.656 80.3749 116.433 78.2787 114.583 77.0587C116.529 75.0225 117.656 72.2925 117.656 69.375C117.656 66.4245 116.502 63.379 114.49 61.0193C112.753 58.9819 110.594 57.6792 108.281 57.2388V17.6953C108.281 12.8489 104.339 8.90625 99.4922 8.90625H20.5078C15.6614 8.90625 11.7188 12.8489 11.7188 17.6953V57.2388C9.40617 57.6792 7.24734 58.9819 5.50992 61.0193C3.49781 63.379 2.34375 66.4245 2.34375 69.375C2.34375 72.2925 3.47062 75.0225 5.41664 77.0587C3.56695 78.2784 2.34375 80.3749 2.34375 82.7515V83.37C0.960469 84.03 0 85.4381 0 87.0701V98.7888C0 99.7596 0.787031 100.547 1.75781 100.547C2.72859 100.547 3.51562 99.7596 3.51562 98.7888V87.0701C3.51562 86.7471 3.77859 86.4841 4.10156 86.4841H22.8516C23.1745 86.4841 23.4375 86.7471 23.4375 87.0701V93.5156H19.5703C17.3088 93.5156 15.4688 95.3557 15.4688 97.6172V109.336C15.4688 110.307 16.2558 111.094 17.2266 111.094C18.1973 111.094 18.9844 110.307 18.9844 109.336V97.6172C18.9844 97.2942 19.2473 97.0312 19.5703 97.0312H38.3203C38.6433 97.0312 38.9062 97.2942 38.9062 97.6172V109.336C38.9062 110.307 39.6933 111.094 40.6641 111.094C41.6348 111.094 42.4219 110.307 42.4219 109.336V97.6172C42.4219 95.3557 40.5818 93.5156 38.3203 93.5156H34.5312V87.0703C34.5312 86.7473 34.7941 86.4844 35.1171 86.4844H53.8671C54.1901 86.4844 54.453 86.7473 54.453 87.0703V93.5156H50.7422C48.4807 93.5156 46.6406 95.3557 46.6406 97.6172V109.336C46.6406 110.307 47.4277 111.094 48.3984 111.094C49.3692 111.094 50.1562 110.307 50.1562 109.336V97.6172C50.1562 97.2942 50.4192 97.0312 50.7422 97.0312H69.4922C69.8154 97.0312 70.0781 97.2942 70.0781 97.6172V109.336C70.0781 110.307 70.8649 111.094 71.8359 111.094C72.807 111.094 73.5938 110.307 73.5938 109.336V97.6172C73.5938 95.3557 71.7537 93.5156 69.4922 93.5156H65.547V87.0703C65.547 86.7473 65.8097 86.4844 66.1329 86.4844H84.8829C85.2061 86.4844 85.4688 86.7473 85.4688 87.0703V93.5156H81.9141C79.6526 93.5156 77.8125 95.3557 77.8125 97.6172V109.336C77.8125 110.307 78.5993 111.094 79.5703 111.094C80.5413 111.094 81.3281 110.307 81.3281 109.336V97.6172C81.3281 97.2942 81.5909 97.0312 81.9141 97.0312H100.664C100.987 97.0312 101.25 97.2942 101.25 97.6172V109.336C101.25 110.307 102.037 111.094 103.008 111.094C103.979 111.094 104.766 110.307 104.766 109.336V97.6172C104.766 95.3557 102.926 93.5156 100.664 93.5156H96.5625V87.0703C96.5625 86.7473 96.8252 86.4844 97.1484 86.4844H115.898C116.222 86.4844 116.484 86.7473 116.484 87.0703V98.7891C116.484 99.7598 117.271 100.547 118.242 100.547C119.213 100.547 120 99.7598 120 98.7891V87.0703C120 85.4384 119.04 84.03 117.656 83.3702ZM16.0877 78.1127C16.2802 78.8995 16.9852 79.4531 17.7952 79.4531C19.6141 79.4531 21.0938 80.9327 21.0938 82.7515V82.9688H5.85938V82.7515C5.85938 80.9327 7.33898 79.4531 9.15797 79.4531C9.96797 79.4531 10.673 78.8998 10.8654 78.1127C11.0578 77.3259 10.6877 76.5096 9.96914 76.1358C7.43414 74.8172 5.85938 72.2266 5.85938 69.375C5.85938 65.3105 9.1868 60.5859 13.4766 60.5859C17.7052 60.5859 21.042 65.2591 21.0909 69.2784L21.0938 69.375C21.0938 72.2266 19.519 74.8172 16.984 76.1358C16.2654 76.5096 15.8951 77.3259 16.0877 78.1127ZM33.3593 82.7517V83.3702C31.976 84.0302 31.0155 85.4384 31.0155 87.0703V93.5156H26.9531V87.0703C26.9531 85.4384 25.9927 84.03 24.6094 83.3702V82.7517C24.6094 80.3749 23.3862 78.2787 21.5365 77.0587C23.1124 75.4099 24.1507 73.3057 24.4887 71.0156H33.48C33.8182 73.3057 34.8563 75.4097 36.4322 77.0587C34.5823 78.2784 33.3593 80.3749 33.3593 82.7517ZM47.1035 78.1127C47.2959 78.8995 48.0009 79.4531 48.8109 79.4531C50.6297 79.4531 52.1095 80.9327 52.1095 82.7515V82.9688H36.8752V82.7515C36.8752 80.9327 38.3548 79.4531 40.1735 79.4531C40.9835 79.4531 41.6885 78.8998 41.8809 78.113C42.0734 77.3259 41.7033 76.5096 40.9847 76.1358C38.4499 74.8172 36.8752 72.2266 36.8756 69.3698L36.878 69.2791C36.927 65.2591 40.2637 60.5859 44.4923 60.5859C48.7209 60.5859 52.0577 65.2591 52.1067 69.2784L52.1095 69.375C52.1095 72.2266 50.5348 74.8172 47.9998 76.1358C47.2812 76.5096 46.9109 77.3259 47.1035 78.1127ZM64.3748 82.7517V83.3702C62.9916 84.0302 62.0311 85.4384 62.0311 87.0703V93.5156H57.9687V87.0703C57.9687 85.4384 57.0082 84.03 55.6249 83.3702V82.7517C55.6249 80.3749 54.4017 78.2787 52.552 77.0587C54.128 75.4099 55.1662 73.3057 55.5042 71.0156H64.4955C64.8337 73.3057 65.872 75.4097 67.4477 77.0587C65.5978 78.2784 64.3748 80.3749 64.3748 82.7517ZM78.1191 78.113C78.3113 78.8998 79.0165 79.4534 79.8265 79.4534C81.6455 79.4534 83.1251 80.933 83.1251 82.7517V82.9688H67.8907V82.7515C67.8907 80.9327 69.3703 79.4531 71.1891 79.4531C71.9991 79.4531 72.7043 78.8998 72.8965 78.1127C73.0891 77.3259 72.7191 76.5096 72.0002 76.1358C69.4655 74.8174 67.8907 72.2266 67.8912 69.3729L67.8935 69.2794C67.9425 65.2591 71.2791 60.5862 75.5079 60.5862C79.7365 60.5862 83.073 65.2594 83.1223 69.2787L83.1251 69.3752C83.1251 72.2269 81.5503 74.8174 79.0153 76.136C78.2967 76.5098 77.9264 77.3262 78.1191 78.113ZM95.3906 82.7517V83.3702C94.0073 84.0302 93.0469 85.4384 93.0469 87.0703V93.5156H88.9845V87.0703C88.9845 85.4384 88.024 84.03 86.6407 83.3702V82.7517C86.6407 80.3749 85.4175 78.2787 83.5676 77.0587C85.1435 75.4099 86.182 73.3057 86.52 71.0156H95.5113C95.8495 73.3057 96.8878 75.4097 98.4635 77.0587C96.6136 78.2784 95.3906 80.3749 95.3906 82.7517ZM95.547 67.5H86.4848C86.1066 65.1452 85.0373 62.8345 83.4291 60.9677C81.2637 58.4543 78.4507 57.0703 75.5079 57.0703C72.5651 57.0703 69.7519 58.4543 67.5865 60.9675C65.9794 62.8327 64.9109 65.1413 64.5314 67.5H55.4693C55.091 65.1452 54.0218 62.8345 52.4135 60.9677C50.2481 58.4543 47.4349 57.0703 44.4923 57.0703C41.5495 57.0703 38.7363 58.4543 36.5712 60.9677C34.9643 62.8327 33.8958 65.1405 33.5163 67.5H24.454C24.0757 65.1452 23.0065 62.8345 21.3982 60.9677C19.669 58.9608 17.5261 57.6764 15.2348 57.2395V17.6953C15.2344 14.7874 17.5999 12.4219 20.5078 12.4219H99.4922C102.4 12.4219 104.766 14.7874 104.766 17.6953V57.2393C102.474 57.6764 100.331 58.9605 98.602 60.9675C96.9949 62.8327 95.9264 65.1413 95.547 67.5ZM109.135 78.1127C109.327 78.8995 110.032 79.4531 110.842 79.4531C112.661 79.4531 114.141 80.9327 114.141 82.7515V82.9688H98.9062V82.7515C98.9062 80.9327 100.386 79.4531 102.205 79.4531C103.015 79.4531 103.72 78.8998 103.912 78.1127C104.104 77.3259 103.734 76.5096 103.016 76.1358C100.481 74.8174 98.9062 72.2266 98.9067 69.3729L98.9091 69.2794C98.958 65.2591 102.295 60.5862 106.523 60.5862C110.813 60.5859 114.141 65.3105 114.141 69.375C114.141 72.2266 112.566 74.8174 110.031 76.1358C109.312 76.5096 108.942 77.3259 109.135 78.1127Z" fill="white"/>
<path d="M71.332 38.3883L50.2382 27.8414C49.7015 27.5743 49.0382 27.6024 48.5296 27.9188C48.007 28.2422 47.6953 28.8 47.6953 29.4141V43.4766C47.6953 44.4469 48.4828 45.2344 49.4531 45.2344C50.4234 45.2344 51.2109 44.4469 51.2109 43.4766V32.2594L66.6161 39.961C47.8924 49.324 48.5203 49.0172 48.5203 49.0172C48.2836 49.1649 48.082 49.3711 47.9414 49.6125C47.939 49.6149 47.9367 49.6196 47.9343 49.6219C47.7082 50.0635 47.628 50.4668 47.7492 50.9461C47.7492 50.9461 47.8952 51.6713 48.6328 52.0641C48.6351 52.0641 48.6351 52.0641 48.6351 52.0641C48.7464 52.1311 48.9654 52.2122 49.1836 52.2446V52.2328L49.1859 52.2446C49.4753 52.2903 49.8079 52.2474 49.8726 52.2141C50.0334 52.2141 71.1881 41.6056 71.332 41.5336C71.9322 41.2336 72.3046 40.6313 72.3046 39.961C72.3046 39.2907 71.932 38.6883 71.332 38.3883Z" fill="#F9B93E"/>
</svg>
