<svg width="101" height="101" viewBox="0 0 101 101" fill="none" xmlns="http://www.w3.org/2000/svg">
<path d="M50.5 0C22.6543 0 0 22.6543 0 50.5C0 78.3457 22.6543 101 50.5 101C78.3457 101 101 78.3457 101 50.5C101 22.6543 78.3457 0 50.5 0ZM50.5 96.4091C25.1853 96.4091 4.59091 75.8143 4.59091 50.5C4.59091 25.1857 25.1853 4.59091 50.5 4.59091C75.8147 4.59091 96.4091 25.1857 96.4091 50.5C96.4091 75.8143 75.8147 96.4091 50.5 96.4091Z" fill="white"/>
<path d="M50.5 8.95227C27.5904 8.95227 8.95227 27.5904 8.95227 50.5C8.95227 73.4096 27.5904 92.0477 50.5 92.0477C73.4096 92.0477 92.0477 73.4096 92.0477 50.5C92.0477 27.5904 73.4096 8.95227 50.5 8.95227ZM50.5 90.6705C28.3498 90.6705 10.3295 72.6502 10.3295 50.5C10.3295 28.3498 28.3498 10.3295 50.5 10.3295C72.6502 10.3295 90.6705 28.3498 90.6705 50.5C90.6705 72.6502 72.6502 90.6705 50.5 90.6705Z" fill="#F9B93E"/>
<path d="M52.8633 65.9708C51.9777 66.2091 51.0605 66.3363 50.1203 66.3363C42.7638 66.3363 36.7786 58.6575 36.7786 49.2191C36.7786 39.7806 42.7633 32.1019 50.1203 32.1019C57.4772 32.1019 63.4619 39.7806 63.4619 49.2191C63.4619 54.5872 61.5245 59.3833 58.5014 62.5244L62.3628 66.4033C66.4033 62.2504 68.971 56.0898 68.971 49.2191C68.971 36.7428 60.5145 26.5928 50.1203 26.5928C39.726 26.5928 31.2695 36.7428 31.2695 49.2191C31.2695 61.6953 39.726 71.8454 50.1203 71.8454C52.5865 71.8454 54.9412 71.2678 57.1021 70.2294L52.8633 65.9708Z" fill="white"/>
<path d="M59.1281 70.9627C60.4521 72.2959 62.2178 73.03 64.1014 73.03C65.9653 73.03 67.7177 72.3092 69.0367 71.0003C70.3653 69.6823 71.1003 67.9253 71.1076 66.0541C71.114 64.3362 70.5057 62.711 69.3869 61.4283L66.1081 64.6828C66.3753 65.0799 66.5185 65.5472 66.5167 66.0366C66.514 66.6821 66.2601 67.2877 65.8024 67.7417C64.8575 68.6792 63.3251 68.6732 62.384 67.7261L50.8787 56.168L47.6251 59.4069L59.1281 70.9627Z" fill="#F9B93E"/>
</svg>
