<svg width="107" height="107" viewBox="0 0 107 107" fill="none" xmlns="http://www.w3.org/2000/svg">
<g clip-path="url(#clip0)">
<path d="M1.20898 57.0358C1.20898 68.1807 5.0396 78.9779 12.0053 87.685L13.3989 89.2521L52.7552 49.8958L82.1851 20.2916L80.618 19.0723C59.7209 2.18104 29.0717 5.48957 12.1796 26.3866C5.0396 35.0937 1.20898 45.8909 1.20898 57.0358ZM34.6438 29.8695L34.8181 29.1731H47.7044L47.8787 29.8695C48.053 31.4366 47.7044 33.0037 46.8337 34.223L44.7445 37.3572V43.1044H37.7788V37.3572L35.6888 34.223C34.8181 33.0037 34.4703 31.4366 34.6438 29.8695ZM35.6888 25.6902C37.2559 22.5552 40.913 21.3367 44.0481 22.9038C45.2666 23.4259 46.3116 24.4709 46.8337 25.6902H35.6888ZM36.3852 46.5873H39.5202V58.0808L30.8131 66.7879V58.7772H27.3303V70.2708L20.3646 77.2365V57.9065C20.3646 55.9908 21.4096 54.075 23.3245 53.2043L36.3852 46.5873ZM43.0031 54.598V46.5873H46.1373L49.4458 48.1544L43.0031 54.598ZM51.8845 45.7166L48.2274 43.8008V38.4023L49.7945 36.1387C51.1873 34.223 51.7102 31.7852 51.3616 29.3474L51.0138 27.083C50.3166 21.6844 45.2666 18.0281 40.0423 18.7245C35.6888 19.4209 32.3803 22.7295 31.6839 27.083L31.3352 29.3474C30.9875 31.7852 31.5095 34.223 32.9023 36.1387L34.4703 38.4023V43.8008L21.7574 50.0701C18.7975 51.4629 16.8818 54.598 16.8818 57.9065V80.8928L13.5732 84.2021C-1.22884 64.0015 2.95041 35.6158 22.9767 20.6403C38.9973 8.7981 60.9394 8.7981 76.7865 20.6403L51.8845 45.7166Z" fill="white"/>
<path d="M93.6787 21.3367L24.7183 90.2971L26.2854 91.5156C47.1824 108.408 77.8316 105.273 94.8972 84.3756C109.351 66.4393 109.351 40.8401 94.8972 22.9038L93.6787 21.3367ZM74.8708 62.2601H87.7572L88.1058 64.6979C88.1058 65.0465 88.1058 65.5686 87.7572 65.9172L84.7973 70.4442V77.2365L81.3144 80.7193L77.8316 77.2365V70.4442L74.8708 65.9172C74.6965 65.5686 74.5231 65.0465 74.5231 64.6979L74.8708 62.2601ZM75.3938 58.7772L75.7416 56.8615C75.9159 55.9908 76.6123 55.2944 77.483 55.2944H85.3194C86.1901 55.2944 86.8865 55.9908 87.0608 56.8615L87.4094 58.7772H75.3938ZM75.7416 80.0221L79.573 83.8535V92.7349C73.6524 96.2178 67.2088 98.1335 60.4174 98.6556V88.7292C60.4174 88.0328 60.7652 87.5107 61.4624 87.162L75.7416 80.0221ZM83.0559 90.4706V83.8535L86.8865 80.0221L91.763 82.4607C89.1508 85.5949 86.3644 88.2071 83.0559 90.4706ZM93.8522 79.6743L88.2801 76.8878V71.4893L90.7179 67.8321C91.4144 66.7879 91.763 65.3943 91.5887 64.1758L90.5436 56.3394C90.1959 53.7273 87.9315 51.8115 85.3194 51.8115H77.483C74.8708 51.8115 72.6073 53.7273 72.2587 56.3394L71.2137 64.1758C71.0402 65.3943 71.388 66.7879 72.0844 67.8321L74.5231 71.4893V76.8878L60.0688 84.2021C58.3274 85.0729 57.1089 86.8143 57.1089 88.9035V98.8299C47.3567 98.8299 37.9532 95.6948 30.1168 89.9485L93.5044 26.5609C104.998 42.2337 105.171 63.6529 93.8522 79.6743Z" fill="white"/>
<path d="M85.3413 45.3212L92.3597 38.3019L94.8222 40.7653L87.8038 47.7837L85.3413 45.3212Z" fill="#F9B93E"/>
<path d="M41.7964 90.6058L46.9688 85.4342L49.4313 87.8967L44.2597 93.0691L41.7964 90.6058Z" fill="white"/>
<path d="M50.5303 78.3903L60.9975 67.9231L63.46 70.3864L52.9936 80.8528L50.5303 78.3903Z" fill="#F9B93E"/>
<path d="M83.5913 15.7255L88.7629 10.554L91.2253 13.0164L86.0538 18.1888L83.5913 15.7255Z" fill="white"/>
<path d="M76.6426 8.74282L85.3854 0L87.8479 2.46248L79.1059 11.2053L76.6426 8.74282Z" fill="#F9B93E"/>
<path d="M10.4771 104.511L20.9443 94.0443L23.4068 96.5068L12.9404 106.974L10.4771 104.511Z" fill="white"/>
<path d="M22.6411 104.537L27.8135 99.3656L30.276 101.828L25.1044 107L22.6411 104.537Z" fill="#F9B93E"/>
<path d="M59.2114 24.4326L64.383 19.2611L66.8455 21.7236L61.6739 26.8951L59.2114 24.4326Z" fill="white"/>
<path d="M11.4058 44.498L21.0108 34.8939L23.4733 37.3563L13.8691 46.9614L11.4058 44.498Z" fill="#F9B93E"/>
<path d="M67.3828 88.3813H74.3485V91.8642H67.3828V88.3813Z" fill="white"/>
</g>
<defs>
<clipPath id="clip0">
<rect width="107" height="107" fill="white"/>
</clipPath>
</defs>
</svg>
