<svg width="118" height="118" viewBox="0 0 118 118" fill="none" xmlns="http://www.w3.org/2000/svg">
<path d="M116.156 11.0625C116.156 5.97928 112.021 1.84375 106.938 1.84375H11.0625C5.97928 1.84375 1.84375 5.97928 1.84375 11.0625V16.5938H5.53125V86.6562H33.3553L19.5142 106.65C18.8099 107.666 18.4375 108.859 18.4375 110.098C18.4375 113.437 21.157 116.156 24.4961 116.156H29.0077C31.1096 116.156 33.0308 115.092 34.1444 113.31L50.8027 86.6562H51.625V110.098C51.625 113.437 54.3445 116.156 57.6836 116.156H60.3164C63.6555 116.156 66.375 113.437 66.375 110.098V86.6562H67.1973L83.8556 113.31C84.9692 115.092 86.8904 116.156 88.9923 116.156H93.5039C96.843 116.156 99.5625 113.437 99.5625 110.098C99.5625 108.859 99.1901 107.666 98.4857 106.65L84.6447 86.6562H112.469V16.5938H116.156V11.0625ZM31.0192 111.355C30.5823 112.052 29.8319 112.469 29.0077 112.469H24.4961C23.1888 112.469 22.125 111.405 22.125 110.098C22.125 109.613 22.2707 109.146 22.5472 108.75L37.8411 86.6562H46.4551L31.0192 111.355ZM62.6875 110.098C62.6875 111.405 61.6237 112.469 60.3164 112.469H57.6836C56.3763 112.469 55.3125 111.405 55.3125 110.098V86.6562H62.6875V110.098ZM95.4528 108.748C95.7293 109.146 95.875 109.613 95.875 110.098C95.875 111.405 94.8112 112.469 93.5039 112.469H88.9923C88.17 112.469 87.4177 112.052 86.9808 111.355L71.5449 86.6562H80.1589L95.4528 108.748ZM108.781 82.9688H9.21875V16.5938H42.4062C42.4062 18.6274 44.0601 20.2812 46.0938 20.2812H71.9062C73.9399 20.2812 75.5938 18.6274 75.5938 16.5938H108.781V82.9688ZM46.0938 16.5938V12.9062H71.9062L71.9099 16.5938H46.0938ZM112.469 12.9062H75.5938C75.5938 10.8726 73.9399 9.21875 71.9062 9.21875H46.0938C44.0601 9.21875 42.4062 10.8726 42.4062 12.9062H5.53125V11.0625C5.53125 8.01294 8.01294 5.53125 11.0625 5.53125H106.938C109.987 5.53125 112.469 8.01294 112.469 11.0625V12.9062Z" fill="white"/>
<path d="M99.5625 42.4062H64.5312V31.3438C64.5312 28.2942 62.0496 25.8125 59 25.8125H18.4375C15.3879 25.8125 12.9062 28.2942 12.9062 31.3438V57.1562C12.9062 60.2058 15.3879 62.6875 18.4375 62.6875H53.4688V73.75C53.4688 76.7996 55.9504 79.2812 59 79.2812H99.5625C102.612 79.2812 105.094 76.7996 105.094 73.75V47.9375C105.094 44.8879 102.612 42.4062 99.5625 42.4062ZM18.4375 59C17.4198 59 16.5938 58.174 16.5938 57.1562V31.3438C16.5938 30.326 17.4198 29.5 18.4375 29.5H59C60.0177 29.5 60.8438 30.326 60.8438 31.3438V42.4062H59C55.9504 42.4062 53.4688 44.8879 53.4688 47.9375V49.0179L42.4062 37.9554L35.0312 45.3304L26.5758 36.875H29.5V33.1875H20.2812V42.4062H23.9688V39.4821L35.0312 50.5446L42.4062 43.1696L53.4688 54.2321V59H18.4375ZM101.406 73.75C101.406 74.7677 100.58 75.5938 99.5625 75.5938H59C57.9823 75.5938 57.1562 74.7677 57.1562 73.75V47.9375C57.1562 46.9198 57.9823 46.0938 59 46.0938H99.5625C100.58 46.0938 101.406 46.9198 101.406 47.9375V73.75Z" fill="white"/>
<path d="M88.5003 53.4688H91.4245L82.9691 61.9242L75.5941 54.5492L61.3843 68.759L63.9913 71.366L75.5941 59.7633L82.9691 67.1383L94.0316 56.0758V59H97.7191V49.7812H88.5003V53.4688Z" fill="#F9B93E"/>
<path d="M68.2188 27.6562H71.9062V31.3438H68.2188V27.6562Z" fill="white"/>
<path d="M75.5938 27.6562H105.094V31.3438H75.5938V27.6562Z" fill="white"/>
<path d="M68.2188 35.0312H105.094V38.7188H68.2188V35.0312Z" fill="#F9B93E"/>
<path d="M12.9062 66.375H16.5938V70.0625H12.9062V66.375Z" fill="white"/>
<path d="M20.2812 66.375H49.7812V70.0625H20.2812V66.375Z" fill="#F9B93E"/>
<path d="M12.9062 73.75H49.7812V77.4375H12.9062V73.75Z" fill="white"/>
</svg>
