<svg width="104" height="104" viewBox="0 0 104 104" fill="none" xmlns="http://www.w3.org/2000/svg">
<path d="M44.3909 83.4068C44.1774 82.5926 43.3444 82.1054 42.5296 82.3194L29.4118 85.7616C28.644 85.9629 27.8437 85.8006 27.2152 85.3159C26.5869 84.8313 26.2266 84.0982 26.2266 83.3046V80.6406H34.0699C40.3312 80.6406 45.4252 75.5466 45.4252 69.2853V68.2183C45.4252 66.8176 44.2856 65.678 42.8849 65.678H17.415C16.5733 65.678 15.8908 66.3605 15.8908 67.2023C15.8908 68.044 16.5733 68.7265 17.415 68.7265H42.3771V69.2853C42.3771 73.8658 38.6505 77.5923 34.0701 77.5923H15.4427C10.8622 77.5923 7.1357 73.8658 7.1357 69.2853V68.7265H10.3502C11.1919 68.7265 11.8744 68.044 11.8744 67.2023C11.8744 66.3605 11.1919 65.678 10.3502 65.678H6.62768C5.22693 65.678 4.0874 66.8176 4.0874 68.2183V69.2853C4.0874 75.5466 9.18137 80.6406 15.4427 80.6406H23.1785V83.3046C23.1785 85.0505 23.9713 86.6633 25.3536 87.7295C26.7383 88.801 28.5164 89.1513 30.1859 88.7102L43.3037 85.268C44.1176 85.0543 44.6045 84.2211 44.3909 83.4068Z" fill="white"/>
<path d="M16.1007 43.5978C16.668 44.0615 16.9934 44.7436 16.9934 45.4685V45.5859C16.9934 47.5213 17.3911 49.4524 18.1476 51.2326C17.9973 51.5115 17.9115 51.8302 17.9115 52.1688V56.2356C17.9115 60.0098 20.982 63.0803 24.7562 63.0803C28.5305 63.0803 31.6009 60.0098 31.6009 56.2356V52.1688C31.6009 51.8099 31.5034 51.4741 31.3359 51.1835C32.1116 49.384 32.5191 47.4305 32.5191 45.4687C32.5191 44.7446 32.8489 44.0591 33.424 43.5876C36.6114 40.9754 38.4396 37.1164 38.4396 32.9999C38.4396 29.3089 36.9921 25.8487 34.3639 23.2568C31.736 20.6654 28.2512 19.2685 24.5616 19.3178C17.1535 19.421 11.1026 25.5337 11.0729 32.9443C11.0563 37.0888 12.8889 40.972 16.1007 43.5978ZM28.5524 56.2356C28.5524 58.3288 26.8494 60.0318 24.7562 60.0318C22.663 60.0318 20.96 58.3288 20.96 56.2356V53.2375H28.5524V56.2356ZM24.6041 22.3661C27.4777 22.3269 30.1809 23.4134 32.2233 25.4274C34.2662 27.442 35.3913 30.1314 35.3913 33.0001C35.3913 36.1995 33.97 39.1991 31.4919 41.2299C30.2073 42.2825 29.4708 43.8275 29.4708 45.4687C29.4708 47.0935 29.1173 48.7116 28.4442 50.189H26.2803V42.6744L30.2075 37.9883C30.748 37.3431 30.6635 36.3817 30.0182 35.841C29.3729 35.3003 28.4115 35.385 27.871 36.0303L24.7562 39.7471L21.6415 36.0303C21.101 35.3852 20.1394 35.3005 19.4943 35.841C18.8492 36.3817 18.7645 37.3431 19.305 37.9883L23.2322 42.6744V50.189H21.0165C20.3777 48.7439 20.0421 47.1667 20.0421 45.5859V45.4685C20.0421 43.8251 19.3088 42.2829 18.0304 41.2376C15.5333 39.1962 14.1086 36.178 14.1216 32.9567C14.1442 27.197 18.8467 22.4464 24.6041 22.3661Z" fill="white"/>
<path d="M7.42381 33.8398C7.42381 32.9981 6.74131 32.3156 5.89956 32.3156H1.52425C0.6825 32.3156 0 32.9981 0 33.8398C0 34.6816 0.6825 35.3641 1.52425 35.3641H5.89956C6.74131 35.3639 7.42381 34.6816 7.42381 33.8398Z" fill="#F9B93E"/>
<path d="M16.7873 17.0369C17.0349 17.6148 17.5976 17.9611 18.1889 17.9611C18.3891 17.9611 18.5929 17.9213 18.7887 17.8374C19.5624 17.5057 19.9209 16.6097 19.5892 15.836L18.0424 12.2267C17.7107 11.453 16.8147 11.0947 16.041 11.4262C15.2673 11.7579 14.9088 12.6539 15.2405 13.4276L16.7873 17.0369Z" fill="#F9B93E"/>
<path d="M4.20663 21.017L7.35934 23.5607C7.64127 23.7882 7.97948 23.8987 8.31545 23.8987C8.76029 23.8987 9.20148 23.7047 9.50251 23.3316C10.031 22.6765 9.92846 21.7169 9.27338 21.1882L6.12068 18.6447C5.4656 18.1163 4.50604 18.2187 3.97731 18.8738C3.44877 19.5289 3.55135 20.4884 4.20663 21.017Z" fill="#F9B93E"/>
<path d="M42.0887 33.8398C42.0887 34.6816 42.7712 35.3641 43.6129 35.3641H47.9882C48.83 35.3641 49.5125 34.6816 49.5125 33.8398C49.5125 32.9981 48.83 32.3156 47.9882 32.3156H43.6129C42.7712 32.3156 42.0887 32.9979 42.0887 33.8398Z" fill="#F9B93E"/>
<path d="M30.7236 17.8375C30.9194 17.9213 31.123 17.9612 31.3235 17.9612C31.9148 17.9612 32.4774 17.615 32.725 17.0369L34.272 13.4276C34.6037 12.6539 34.2452 11.7579 33.4715 11.4262C32.6978 11.0943 31.8018 11.453 31.4701 12.2267L29.9231 15.8361C29.5914 16.6098 29.9499 17.5058 30.7236 17.8375Z" fill="#F9B93E"/>
<path d="M41.1972 23.8989C41.5334 23.8989 41.8716 23.7882 42.1533 23.5609L45.306 21.0171C45.9611 20.4886 46.0637 19.5291 45.5351 18.8738C45.0064 18.2185 44.0468 18.1163 43.3917 18.6446L40.239 21.1884C39.584 21.7169 39.4814 22.6765 40.0099 23.3318C40.3111 23.7049 40.7521 23.8989 41.1972 23.8989Z" fill="#F9B93E"/>
<path d="M74.6752 30.4495C75.2426 30.9134 75.568 31.5953 75.568 32.3202V32.4377C75.568 34.372 75.9657 36.3041 76.7221 38.0845C76.5718 38.3634 76.4863 38.6821 76.4863 39.0205V43.0873C76.4863 46.8614 79.5567 49.9318 83.331 49.9318C87.1051 49.9318 90.1755 46.8614 90.1755 43.0873V39.0205C90.1755 38.6618 90.0782 38.3258 89.9106 38.0354C90.6864 36.2359 91.0938 34.2824 91.0938 32.3205C91.0938 31.5963 91.4237 30.9108 91.999 30.4393C95.1864 27.8273 97.0145 23.9684 97.0145 19.8518C97.0145 17.7869 96.5656 15.8019 95.6804 13.9521C95.3172 13.193 94.407 12.8716 93.6475 13.2352C92.8882 13.5986 92.5671 14.5086 92.9305 15.2681C93.6175 16.7038 93.9658 18.2461 93.9658 19.852C93.9658 23.0515 92.5446 26.051 90.0664 28.0818C88.7819 29.1346 88.0451 30.6796 88.0451 32.3207C88.0451 33.9457 87.6919 35.5637 87.0187 37.0409H84.8551V29.5263L88.7823 24.8402C89.3228 24.195 89.2383 23.2337 88.593 22.6929C87.9476 22.1522 86.9862 22.2369 86.4457 22.8822L83.331 26.599L80.2163 22.8822C79.6756 22.2373 78.7142 22.1524 78.0691 22.6929C77.4239 23.2337 77.3392 24.195 77.8797 24.8402L81.807 29.5263V37.0409H79.5915C78.9529 35.5958 78.6169 34.0178 78.6169 32.4379V32.3205C78.6169 30.677 77.8836 29.1348 76.6053 28.0896C74.1083 26.0482 72.6836 23.0297 72.6964 19.8084C72.7194 14.049 77.4221 9.29827 83.1793 9.21803C85.2296 9.18472 87.2312 9.74575 88.9606 10.827C89.6742 11.2732 90.6149 11.0563 91.0611 10.3425C91.5074 9.62875 91.2905 8.68828 90.5769 8.24202C88.3498 6.84959 85.7799 6.1285 83.137 6.16973C75.7289 6.27292 69.678 12.3856 69.6483 19.796C69.6312 23.9407 71.4636 27.8239 74.6752 30.4495ZM87.1272 43.0875C87.1272 45.1807 85.4242 46.8837 83.331 46.8837C81.2378 46.8837 79.5348 45.1807 79.5348 43.0875V40.0894H87.1272V43.0875Z" fill="white"/>
<path d="M101.46 52.544H65.2023C63.8015 52.544 62.662 53.6836 62.662 55.0843V56.1513C62.662 62.4127 67.756 67.5066 74.0173 67.5066H82.4015V69.0134C82.4015 70.6874 81.2707 72.1533 79.6514 72.5781L63.8925 76.7135L62.31 69.4461C61.8123 67.1597 59.7526 65.5004 57.4126 65.5004C55.0726 65.5004 53.0132 67.1597 52.5153 69.4461L50.5811 78.3281C49.4499 83.5226 46.3951 88.0135 41.9794 90.9741L38.9788 92.9858C38.0042 93.6393 37.5789 94.8326 37.9206 95.9551C38.262 97.0776 39.2799 97.832 40.4531 97.832H74.3722C75.5454 97.832 76.5633 97.0778 76.9047 95.9551C77.2464 94.8326 76.821 93.6393 75.8464 92.9858L72.8459 90.9741C68.8191 88.2743 65.9295 84.2996 64.5927 79.6815L80.4251 75.5268C83.3836 74.7507 85.4498 72.0723 85.4498 69.0136V67.5068H92.6445C98.9058 67.5068 104 62.4129 104 56.1515V55.0845C104 53.6838 102.86 52.544 101.46 52.544ZM71.1484 93.5062L73.0537 94.7835H41.772L43.6771 93.5062C48.7506 90.1049 52.2602 84.9449 53.56 78.9769L55.4941 70.0948C55.6891 69.1993 56.4961 68.5491 57.4128 68.5491C58.3295 68.5491 59.1366 69.1993 59.3316 70.0948L61.2657 78.9769C62.5653 84.9449 66.0751 90.1047 71.1484 93.5062ZM100.951 56.1513C100.951 60.7318 97.2249 64.4583 92.6445 64.4583H74.0171C69.4366 64.4583 65.7101 60.7318 65.7101 56.1513V55.5925H100.951V56.1513H100.951Z" fill="white"/>
<path d="M57.4129 90.2544C58.6966 90.2544 59.7373 89.2137 59.7373 87.93C59.7373 86.6463 58.6966 85.6057 57.4129 85.6057C56.1292 85.6057 55.0886 86.6463 55.0886 87.93C55.0886 89.2137 56.1292 90.2544 57.4129 90.2544Z" fill="#F9B93E"/>
</svg>
