<svg width="114" height="114" viewBox="0 0 114 114" fill="none" xmlns="http://www.w3.org/2000/svg">
<path d="M107.787 37.4981H101.398V15.9072C101.398 10.958 97.3719 6.93176 92.4227 6.93176H15.0862C10.1371 6.93176 6.11078 10.958 6.11078 15.9072V70.7049C6.11078 72.7665 6.83752 74.7045 8.05834 76.2484H2.88984C1.2963 76.2482 0 77.55 0 79.1498V83.3865C0 87.4589 3.2884 90.7718 7.33026 90.7718H48.7448C49.6673 90.7718 50.4147 90.0241 50.4147 89.1018C50.4147 88.1796 49.6673 87.4319 48.7448 87.4319H7.33026C5.12998 87.4319 3.33983 85.6173 3.33983 83.3865V79.588H73.6902V87.4319H56.5378C55.6153 87.4319 54.8679 88.1796 54.8679 89.1018C54.8679 90.0241 55.6153 90.7718 56.5378 90.7718H73.6902V100.855C73.6902 104.281 76.4774 107.069 79.9032 107.069H107.787C111.213 107.069 114 104.281 114 100.855C114 98.3033 114 45.5371 114 43.7113C114 40.2853 111.213 37.4981 107.787 37.4981ZM73.6902 76.2482H14.0763C11.4307 75.763 9.45083 73.4017 9.45083 70.7047V15.9072C9.45083 12.7996 11.9789 10.2716 15.0865 10.2716H92.4229C95.5305 10.2716 98.0588 12.7996 98.0588 15.9072V37.4983H94.8354C94.8354 35.1629 94.8354 18.9892 94.8354 16.4262C94.8354 14.7828 93.4983 13.4455 91.8549 13.4455C91.4 13.4455 17.9763 13.4455 15.6547 13.4455C14.011 13.4455 12.674 14.7826 12.674 16.4262V70.104C12.674 71.7474 14.011 73.0847 15.6547 73.0847H73.6905V76.2482H73.6902ZM91.4953 16.7852V21.2189H24.534V16.7852H91.4953ZM21.1941 16.7852V21.2189H16.0136V16.7852H21.1941ZM73.6902 43.7111V69.7446H16.0136V24.5587H91.4953V37.4981H79.9034C76.4774 37.4981 73.6902 40.2853 73.6902 43.7111ZM77.0301 50.2672H80.3879V53.611H77.0301V50.2672ZM110.66 100.855C110.66 102.44 109.371 103.729 107.787 103.729H79.9032C78.319 103.729 77.0301 102.44 77.0301 100.855V96.0694H110.66V100.855ZM110.66 92.7296H77.0301C77.0301 79.0975 77.0301 70.5687 77.0301 56.9508H110.66V92.7296ZM110.66 53.611H83.7278V50.2672H110.66V53.611ZM110.66 46.9273C108.956 46.9273 78.5499 46.9273 77.0301 46.9273V43.7111C77.0301 42.1269 78.319 40.8379 79.9032 40.8379H107.787C109.371 40.8379 110.66 42.1269 110.66 43.7111V46.9273H110.66Z" fill="white"/>
<path d="M92.0703 101.218H95.6201C96.5426 101.218 97.29 100.47 97.29 99.5476C97.29 98.6254 96.5426 97.8777 95.6201 97.8777H92.0703C91.1478 97.8777 90.4004 98.6254 90.4004 99.5476C90.4004 100.47 91.1478 101.218 92.0703 101.218Z" fill="#F9B93E"/>
<path d="M59.2645 44.3261L52.0985 39.4399C49.8308 37.8933 46.751 39.5205 46.751 42.2656V52.0382C46.751 54.7827 49.8296 56.4107 52.0985 54.8639L59.2645 49.9778C61.2542 48.6211 61.2537 45.6823 59.2645 44.3261ZM57.3828 47.2184L50.2168 52.1048C50.1952 52.1193 50.1768 52.1322 50.1338 52.1095C50.091 52.0868 50.091 52.0643 50.091 52.0382V42.2656C50.091 42.2396 50.091 42.2171 50.1338 42.1944C50.1507 42.1854 50.1639 42.1819 50.175 42.1819C50.1919 42.1819 50.2039 42.1901 50.2168 42.199L57.3828 47.0852C57.3977 47.0955 57.418 47.1093 57.418 47.1518C57.418 47.1945 57.3977 47.2084 57.3828 47.2184Z" fill="white"/>
<path d="M52.6413 31.5175C44.0205 31.5175 37.0068 38.5311 37.0068 47.1517C37.0068 55.7723 44.0205 62.786 52.6413 62.786C61.2621 62.786 68.2756 55.7725 68.2756 47.1517C68.2756 38.5309 61.2621 31.5175 52.6413 31.5175ZM52.6413 59.4463C45.8621 59.4463 40.3467 53.9312 40.3467 47.1519C40.3467 40.3727 45.8621 34.8575 52.6413 34.8575C59.4203 34.8575 64.9357 40.3729 64.9357 47.1519C64.9357 53.9309 59.4203 59.4463 52.6413 59.4463Z" fill="#F9B93E"/>
<path d="M93.4944 67.7266C91.3731 66.2802 88.502 67.8083 88.502 70.365V78.8705C88.502 81.4482 91.3907 82.9433 93.4946 81.5087L99.7312 77.256C101.589 75.9895 101.589 73.2458 99.7314 71.9793L93.4944 67.7266ZM91.8418 78.5933V70.642L97.6723 74.6178L91.8418 78.5933Z" fill="white"/>
<path d="M93.8451 88.4413C99.6562 88.4413 104.884 84.7688 106.853 79.3028C107.165 78.4351 106.716 77.4784 105.848 77.1658C104.98 76.8536 104.023 77.3032 103.711 78.1708C102.217 82.3163 98.2521 85.1015 93.8449 85.1015C88.0641 85.1015 83.3611 80.3983 83.3611 74.6177C83.3611 68.8371 88.0641 64.1339 93.8449 64.1339C98.4374 64.1339 102.454 67.0734 103.84 71.4484C104.119 72.3277 105.058 72.8146 105.936 72.5361C106.816 72.2575 107.303 71.319 107.024 70.4398C105.197 64.6705 99.9002 60.7943 93.8451 60.7943C86.2229 60.7943 80.0215 66.9957 80.0215 74.6179C80.0215 82.2401 86.2229 88.4413 93.8451 88.4413Z" fill="#F9B93E"/>
</svg>
