<svg width="136" height="136" viewBox="0 0 136 136" fill="none" xmlns="http://www.w3.org/2000/svg">
<g clip-path="url(#clip0)">
<path d="M110.048 103.919C108.949 103.919 108.058 104.81 108.058 105.909V112.02H25.9686V75.2545C29.813 75.2577 35.3945 75.2606 43.5139 75.2632C43.6887 75.2632 43.8597 75.3339 43.983 75.4577L52.4941 83.9686C54.1407 85.726 57.3102 84.4029 57.23 82.0075V75.2632H57.2589C61.2829 75.2632 64.557 71.9894 64.557 67.9652V18.1616C64.557 14.1374 61.2829 10.8635 57.2589 10.8635H25.9683V7.29805C25.9683 5.46895 27.4563 3.98066 29.2857 3.98066H81.1686C82.268 3.98066 83.159 3.08948 83.159 1.99033C83.159 0.891172 82.268 0 81.1686 0H29.2859C25.2617 0 21.9879 3.27383 21.9879 7.29805V10.8635H18.071C14.047 10.8635 10.7729 14.1374 10.7729 18.1616V26.5819C10.7729 27.681 11.6639 28.5722 12.7633 28.5722C13.8627 28.5722 14.7536 27.681 14.7536 26.5819V18.1616C14.7536 16.3325 16.2416 14.8442 18.071 14.8442H57.2592C59.0883 14.8442 60.5766 16.3322 60.5766 18.1616V67.9652C60.5766 69.7943 59.0885 71.2826 57.2592 71.2826H56.3013C54.6186 71.2826 53.2493 72.6516 53.2493 74.3346V79.0944L46.7981 72.6431C45.921 71.7658 44.7546 71.2826 43.5144 71.2826C36.673 71.2805 18.9956 71.272 17.7039 71.26C16.0174 71.0765 14.7539 69.671 14.7539 67.9655V36.0331C14.7539 34.9339 13.863 34.0428 12.7635 34.0428C11.6641 34.0428 10.7732 34.9339 10.7732 36.0331V67.9652C10.7732 71.766 13.6263 74.8895 17.4099 75.2308V75.23C17.5517 75.238 18.1363 75.2444 21.9879 75.25V128.702C21.9879 132.726 25.262 136 29.2859 136H104.741C108.765 136 112.039 132.726 112.039 128.702V105.909C112.039 104.81 111.148 103.919 110.048 103.919ZM108.058 128.702C108.058 130.531 106.57 132.019 104.741 132.019H29.2859C27.4569 132.019 25.9686 130.531 25.9686 128.702V116.001H108.058V128.702Z" fill="white"/>
<path d="M60.5943 126.531H73.4325C74.532 126.531 75.4229 125.64 75.4229 124.541C75.4229 123.442 74.532 122.551 73.4325 122.551H60.5943C59.4949 122.551 58.604 123.442 58.604 124.541C58.604 125.64 59.4949 126.531 60.5943 126.531Z" fill="#F9B93E"/>
<path d="M117.928 34.0428H112.039V7.29805C112.039 3.27383 108.765 0 104.741 0H91.4976C90.3982 0 89.5073 0.891172 89.5073 1.99033C89.5073 3.08948 90.3982 3.98066 91.4976 3.98066H104.741C106.57 3.98066 108.058 5.46869 108.058 7.29805V34.0428H78.7399C74.716 34.0428 71.4419 37.3166 71.4419 41.3408V91.1444C71.4419 95.1687 74.716 98.4425 78.7399 98.4425H78.7692V105.361C78.6895 107.757 81.8578 109.079 83.5047 107.322L92.1904 98.6367C92.3155 98.5116 92.4823 98.4425 92.6589 98.4425H117.928C121.952 98.4425 125.226 95.1687 125.226 91.1444V41.3408C125.226 37.3166 121.952 34.0428 117.928 34.0428ZM121.245 91.1444C121.245 92.9735 119.757 94.4618 117.928 94.4618H92.6587C91.4182 94.4621 90.2524 94.9453 89.3753 95.8221L82.7498 102.448V97.5136C82.7498 95.8311 81.3808 94.4621 79.6978 94.4616H78.7397C76.9106 94.4616 75.4223 92.9735 75.4223 91.1442V41.3408C75.4223 39.5117 76.9103 38.0234 78.7397 38.0234H117.928C119.757 38.0234 121.245 39.5115 121.245 41.3408V91.1444Z" fill="white"/>
<path d="M42.6194 51.5508H32.7575C32.4953 51.5508 32.311 51.8111 32.3976 52.0587C33.1626 54.2463 35.2398 55.8173 37.6886 55.8173C40.1374 55.8173 42.2146 54.2463 42.9796 52.0587C43.0659 51.8111 42.8816 51.5508 42.6194 51.5508Z" fill="#F9B93E"/>
<path d="M44.0192 41.4065C42.8095 41.4065 41.8291 42.3872 41.8291 43.5966C41.8291 44.806 42.8098 45.7867 44.0192 45.7867C45.2286 45.7867 46.2093 44.8062 46.2093 43.5966C46.2093 42.3869 45.2288 41.4065 44.0192 41.4065Z" fill="#F9B93E"/>
<path d="M33.5476 43.5966C33.5476 42.3869 32.5669 41.4065 31.3576 41.4065C30.1479 41.4065 29.1675 42.3872 29.1675 43.5966C29.1675 44.806 30.1482 45.7867 31.3576 45.7867C32.5669 45.7869 33.5476 44.8062 33.5476 43.5966Z" fill="#F9B93E"/>
<path d="M49.3106 20.8367H26.2329C23.4938 20.8367 21.2654 23.065 21.2654 25.8041V39.1292C19.0793 39.3741 17.374 41.234 17.374 43.4846V45.0003C17.374 47.9902 19.2645 50.6236 22.0015 51.6316C22.8422 54.3947 24.3719 56.887 26.464 58.8882L29.8385 62.1158C32.0631 64.2438 34.9172 65.3076 37.7722 65.3073C40.6263 65.3073 43.4815 64.2432 45.7056 62.1158L49.0801 58.8882C51.1722 56.8868 52.7019 54.3947 53.5423 51.6319C56.2796 50.6239 58.17 47.9904 58.17 45.0003V43.4846C58.17 41.234 56.4647 39.3741 54.2786 39.1292V25.8041C54.2784 23.065 52.0498 20.8367 49.3106 20.8367ZM25.2498 25.8041C25.2498 25.262 25.6907 24.821 26.2329 24.821H49.3106C49.8528 24.821 50.294 25.262 50.294 25.8041V31.344C46.4188 29.6328 42.1428 28.7379 37.7716 28.7379C33.4008 28.7379 29.125 29.6328 25.2495 31.344V25.8041H25.2498ZM54.1854 45.0003C54.1854 46.4692 53.1388 47.7408 51.6968 48.0242C50.8321 48.1939 50.1415 48.8561 49.9367 49.7114C49.3598 52.1236 48.1111 54.3012 46.3258 56.0089L42.9511 59.2365C40.0464 62.0146 35.4966 62.0144 32.5925 59.2365L29.218 56.0089C27.4324 54.3012 26.1837 52.1236 25.6065 49.7109C25.4017 48.8561 24.7111 48.1939 23.8468 48.0242C22.4047 47.741 21.3581 46.4692 21.3581 45.0003V43.4846C21.3581 43.265 21.5369 43.0862 21.7566 43.0862H23.2574C24.3578 43.0862 25.2495 42.1942 25.2495 41.094V35.7704C29.023 33.7755 33.336 32.7226 37.7716 32.7226C42.2076 32.7226 46.5208 33.7758 50.294 35.7706V41.0943C50.294 42.1945 51.1857 43.0865 52.2862 43.0865H53.787C54.0066 43.0865 54.1854 43.2652 54.1854 43.4849V45.0003Z" fill="#F9B93E"/>
<path d="M93.1616 74.4868C92.8996 74.4868 92.7153 74.7469 92.8019 74.9942C93.5664 77.18 95.6414 78.7493 98.0881 78.7493C100.535 78.7493 102.61 77.1797 103.374 74.9942C103.461 74.7469 103.277 74.4868 103.015 74.4868H93.1616Z" fill="#F9B93E"/>
<path d="M104.413 68.7282C105.622 68.7282 106.602 67.7485 106.602 66.54C106.602 65.3315 105.622 64.3518 104.413 64.3518C103.205 64.3518 102.225 65.3315 102.225 66.54C102.225 67.7485 103.205 68.7282 104.413 68.7282Z" fill="#F9B93E"/>
<path d="M91.7634 68.7282C92.9719 68.7282 93.9516 67.7485 93.9516 66.54C93.9516 65.3315 92.9719 64.3518 91.7634 64.3518C90.5549 64.3518 89.5752 65.3315 89.5752 66.54C89.5752 67.7485 90.5549 68.7282 91.7634 68.7282Z" fill="#F9B93E"/>
<path d="M114.595 62.2701V56.4473C114.595 49.2783 108.763 43.4463 101.594 43.4463H94.5833C87.4147 43.4463 81.5823 49.2786 81.5823 56.4473V62.2701C79.3962 62.515 77.6909 64.3749 77.6909 66.6255V68.1412C77.6909 71.1571 79.5537 73.7676 82.3194 74.7746C83.1607 77.5366 84.6925 80.0311 86.7811 82.0291L90.1554 85.2567C92.38 87.3846 95.2341 88.4485 98.0891 88.4482C100.943 88.4482 103.798 87.3841 106.022 85.2567L109.397 82.0288C111.486 80.0308 113.017 77.5366 113.858 74.7744C116.625 73.7671 118.487 71.1568 118.487 68.1409V66.6252C118.487 64.3751 116.781 62.5152 114.595 62.2701ZM94.5833 47.4307H101.594C104.922 47.4307 107.833 49.2443 109.395 51.9341C108.728 51.733 108.022 51.6238 107.291 51.6238H88.8873C88.1557 51.6238 87.4497 51.7333 86.783 51.9341C88.3449 49.2443 91.2553 47.4307 94.5833 47.4307ZM114.502 68.1412C114.502 69.5925 113.513 70.8288 112.095 71.1475C111.172 71.3555 110.453 72.0629 110.219 72.9939C109.627 75.3492 108.391 77.4779 106.642 79.1497L103.268 82.3776C100.364 85.156 95.8137 85.1555 92.9094 82.3776L89.5349 79.15C87.7868 77.4779 86.5503 75.3492 85.959 72.9965C85.7261 72.0647 85.0068 71.3563 84.0816 71.148C82.6871 70.8343 81.675 69.57 81.675 68.1417V66.626C81.675 66.4064 81.8538 66.2276 82.0735 66.2276H83.3086C84.5536 66.2276 85.5664 65.2148 85.5664 63.9698V58.9288C85.5664 57.0978 87.0558 55.6085 88.8867 55.6085H107.29C109.121 55.6085 110.611 57.0978 110.611 58.9288V63.9698C110.611 65.2148 111.623 66.2276 112.868 66.2276H114.104C114.323 66.2276 114.502 66.4064 114.502 66.626V68.1412H114.502Z" fill="#F9B93E"/>
</g>
<defs>
<clipPath id="clip0">
<rect width="136" height="136" fill="white"/>
</clipPath>
</defs>
</svg>
