<svg width="102" height="102" viewBox="0 0 102 102" fill="none" xmlns="http://www.w3.org/2000/svg">
<g clip-path="url(#clip0)">
<path d="M96.6637 38.7913C100.88 33.636 102.724 26.9407 101.742 20.3538C99.8364 7.35256 87.7524 -1.64267 74.7509 0.262632C68.8893 1.12171 63.5587 4.13655 59.8025 8.71765C56.8373 12.5049 51.9221 14.1939 47.2554 13.0292C43.3313 11.939 39.2286 11.6454 35.1892 12.1659C21.5326 14.0098 10.7557 24.6883 8.7864 38.3273C7.94114 44.4163 8.96145 50.6184 11.7129 56.1155C5.14999 56.2103 -0.0934808 61.6073 0.001264 68.17C0.0864494 74.0759 4.49612 79.023 10.3533 79.7839L12.187 98.5918C12.187 100.469 13.7087 101.991 15.5859 101.991H25.5023C26.4946 101.99 27.4371 101.555 28.0821 100.801C28.7533 99.9996 29.028 98.9385 28.8298 97.912L24.2855 79.8978H25.1352C27.0148 79.908 28.8918 80.0431 30.7536 80.3022C36.8532 93.5257 50.0869 101.993 64.6493 101.991C65.771 101.991 66.9039 101.94 68.0482 101.839C86.0776 100.06 100.285 85.6957 101.867 67.6481C102.534 59.6392 100.582 51.6303 96.3051 44.826C95.1183 42.9458 95.2625 40.5179 96.6637 38.7913ZM10.2072 76.3289C5.60799 75.3951 2.63691 70.9098 3.57076 66.3106C4.2497 62.9667 6.86325 60.3531 10.2072 59.6742V76.3289ZM25.5023 98.5918L15.5774 98.4219L13.776 79.8978H20.7761L25.5023 98.5918ZM13.6061 76.4989V59.5043H17.005V76.4989H13.6061ZM25.1301 76.4989H20.4039V59.5043H25.1301C30.0621 59.506 34.9619 58.7106 39.6401 57.1488L47.5952 54.4977V81.5055L39.6401 78.8543C34.9619 77.2927 30.0621 76.4972 25.1301 76.4989ZM98.4685 67.3745C96.9673 86.056 80.6062 99.9832 61.9246 98.4822C50.574 97.57 40.4375 91.0258 34.9343 81.0568C36.1545 81.3474 37.3679 81.6788 38.566 82.0765L57.2601 88.3067C57.4315 88.3641 57.6112 88.3938 57.792 88.3951C58.7305 88.3951 59.4915 87.6341 59.4915 86.6956V78.1983C63.2458 78.1983 66.2893 75.1548 66.2893 71.4005V64.6026C66.2893 60.8483 63.2458 57.8048 59.4915 57.8048V49.3075C59.4917 48.369 58.7309 47.6078 57.7924 47.6076C57.6097 47.6076 57.4283 47.6369 57.255 47.6947L38.5609 53.9249C34.2305 55.3695 29.6953 56.1058 25.1301 56.1054H15.5859C12.5305 50.8755 11.322 44.7704 12.1547 38.7709C14.2085 23.9042 27.9253 13.5171 42.7919 15.5707C43.9888 15.736 45.1733 15.9811 46.3376 16.304C52.3025 17.8338 58.6088 15.7065 62.4281 10.876C69.5431 2.15286 82.3823 0.849158 91.1056 7.96394C99.8289 15.0787 101.133 27.9181 94.0177 36.6415C91.6981 39.4972 91.4555 43.5132 93.4143 46.6275C97.301 52.8135 99.0746 60.094 98.4685 67.3745ZM50.9942 82.639V53.3641L56.0925 51.6647V84.3385L50.9942 82.639ZM59.4915 74.7994V61.2037C61.3687 61.2037 62.8904 62.7254 62.8904 64.6026V71.4005C62.8904 73.2777 61.3685 74.7994 59.4915 74.7994Z" fill="white"/>
<path d="M30.6007 69.7015H23.8029V73.1004H30.6007V69.7015Z" fill="#F9B93E"/>
<path d="M30.6007 62.9037H23.8029V66.3026H30.6007V62.9037Z" fill="white"/>
<path d="M86.3977 22.8734C86.2732 22.6869 86.1133 22.5268 85.9266 22.4023L75.7298 15.6044C74.9491 15.0836 73.8938 15.2941 73.3729 16.075C73.1866 16.3543 73.0872 16.6825 73.0872 17.0184V30.614C73.0869 31.2409 73.4317 31.8171 73.9845 32.113C74.5374 32.4089 75.2083 32.3762 75.7298 32.028L85.9266 25.2302C86.7075 24.7095 86.9184 23.6543 86.3977 22.8734ZM76.4861 27.4378V20.1947L81.9243 23.8162L76.4861 27.4378Z" fill="#F9B93E"/>
<path d="M78.1855 8.521C69.7384 8.521 62.8904 15.3688 62.8904 23.8161C62.8997 32.2595 69.7422 39.1019 78.1855 39.1112C86.6329 39.1112 93.4806 32.2633 93.4806 23.8161C93.4806 15.369 86.6327 8.521 78.1855 8.521ZM78.1855 35.7123C71.6154 35.7123 66.2893 30.3862 66.2893 23.8161C66.2967 17.2492 71.6186 11.9273 78.1855 11.9199C84.7556 11.9199 90.0817 17.246 90.0817 23.8161C90.0817 30.3862 84.7556 35.7123 78.1855 35.7123Z" fill="white"/>
<path d="M44.1963 30.614H42.4969C41.5583 30.614 40.7974 29.8531 40.7974 28.9145V23.8162C40.7974 21.0004 38.5148 18.7178 35.699 18.7178C32.8833 18.7178 30.6007 21.0004 30.6007 23.8162V28.9145C30.6007 29.8531 29.8397 30.614 28.9012 30.614C28.9012 29.6755 28.1403 28.9145 27.2018 28.9145H20.4039C19.4654 28.9145 18.7045 29.6755 18.7045 30.614V49.308C18.7045 50.2466 19.4654 51.0075 20.4039 51.0075H27.2018C28.1403 51.0075 28.9012 50.2466 28.9012 49.308H44.1963C47.0121 49.308 49.2947 47.0255 49.2947 44.2097V35.7124C49.2947 32.8968 47.0121 30.614 44.1963 30.614ZM25.5023 47.6086H22.1034V32.3134H25.5023V47.6086ZM45.8958 44.2097C45.8958 45.1482 45.1349 45.9091 44.1963 45.9091H28.9012V34.0129C31.717 34.0129 33.9996 31.7303 33.9996 28.9145V23.8162C33.9996 22.8776 34.7605 22.1167 35.699 22.1167C36.6376 22.1167 37.3985 22.8776 37.3985 23.8162V28.9145C37.3985 31.7303 39.6811 34.0129 42.4969 34.0129H44.1963C45.1349 34.0129 45.8958 34.7738 45.8958 35.7124V44.2097Z" fill="white"/>
<path d="M93.6846 61.7175L92.9606 60.9901C91.2386 59.2794 88.5516 59.0138 86.5282 60.3545L84.691 61.5798L82.8539 60.3545C80.8307 59.0126 78.1428 59.2781 76.4215 60.9901L75.6941 61.7175C73.7038 63.7084 73.7038 66.9356 75.6941 68.9265L83.4878 76.7185C84.1515 77.382 85.2272 77.382 85.8909 76.7185L93.6846 68.9265C95.6749 66.9356 95.6749 63.7084 93.6846 61.7175ZM91.2845 66.5222C91.2841 66.5227 91.2837 66.5231 91.2832 66.5235L84.691 73.114L78.1005 66.5303C77.4371 65.8667 77.4371 64.7909 78.1005 64.1273L78.8262 63.4016C79.3992 62.8285 80.2969 62.7397 80.9709 63.1892L83.7495 65.0416C84.3206 65.4227 85.0649 65.4227 85.6359 65.0416L88.4163 63.1892C89.0897 62.7401 89.9863 62.8283 90.5593 63.3999V63.3931L91.2832 64.1188C91.9473 64.7822 91.9479 65.8582 91.2845 66.5222Z" fill="white"/>
<path d="M66.3443 45.4989L64.6431 52.2963L67.9387 53.1211L69.64 46.3237L66.3443 45.4989Z" fill="white"/>
<path d="M75.7241 51.1866L68.9266 54.5853L70.4466 57.6253L77.2441 54.2266L75.7241 51.1866Z" fill="#F9B93E"/>
<path d="M67.9297 84.5836L64.634 85.4075L66.3332 92.2048L69.6289 91.381L67.9297 84.5836Z" fill="#F9B93E"/>
<path d="M70.4458 80.0762L68.9258 83.1162L75.7232 86.5149L77.2432 83.4749L70.4458 80.0762Z" fill="white"/>
<path d="M1.70984 45.9091H5.10876C5.10876 22.8474 18.7843 8.52099 40.7974 8.52099V5.12207C16.6872 5.12207 1.70984 20.7571 1.70984 45.9091Z" fill="#F9B93E"/>
</g>
<defs>
<clipPath id="clip0">
<rect width="102" height="102" fill="white"/>
</clipPath>
</defs>
</svg>
