<svg width="162" height="162" viewBox="0 0 162 162" fill="none" xmlns="http://www.w3.org/2000/svg">
<g clip-path="url(#clip0)">
<path d="M154.067 112.643C152.984 111.904 151.509 112.183 150.77 113.266L145.319 121.255C143.557 123.837 142.564 126.852 142.447 129.976L141.888 144.971C141.838 146.308 142.907 147.432 144.261 147.432C145.53 147.432 146.583 146.426 146.63 145.147L147.19 130.153C147.273 127.924 147.981 125.772 149.239 123.929L154.69 115.94C155.428 114.858 155.149 113.382 154.067 112.643Z" fill="white"/>
<path d="M158.676 87.617L144.365 65.4141V24.1665C144.365 18.8738 140.059 14.5679 134.767 14.5679H27.2246C21.932 14.5679 17.626 18.8735 17.626 24.1665V42.3956C17.626 43.7063 18.688 44.7683 19.9987 44.7683C21.3094 44.7683 22.3714 43.7063 22.3714 42.3956V24.1665C22.3714 21.4904 24.5485 19.3132 27.2246 19.3132H134.767C137.442 19.3132 139.619 21.4904 139.619 24.1665V95.8597C139.619 96.5307 139.477 97.1837 139.216 97.785L134.391 92.5522V27.33C134.391 25.7929 133.15 24.542 131.625 24.542H115.505C114.195 24.542 113.133 25.604 113.133 26.9147C113.133 28.2253 114.195 29.2874 115.505 29.2874H129.646V87.4063L121.727 78.8185C120.735 77.7429 119.478 77.0077 118.093 76.6704C118.891 76.2883 119.443 75.4755 119.443 74.5315C119.443 73.2209 118.381 72.1588 117.071 72.1588H88.5897C87.2791 72.1588 86.217 73.2209 86.217 74.5315C86.217 75.8422 87.2791 76.9042 88.5897 76.9042H113.837C112.872 77.2535 111.984 77.8042 111.226 78.5452C110.923 78.8416 110.651 79.1608 110.409 79.4968H88.5897C87.2791 79.4968 86.217 80.5588 86.217 81.8694C86.217 83.1801 87.2791 84.2421 88.5897 84.2421H109.044C109.11 85.3022 109.399 86.3576 109.937 87.3285L111.825 90.7392H50.1672L52.0549 87.3285C52.1814 87.0998 52.2899 86.865 52.3896 86.6278H73.0654C75.44 86.6278 77.3717 84.6961 77.3717 82.3215V66.7419C77.3717 64.3673 75.44 62.4356 73.0654 62.4356H49.5632C47.1887 62.4356 45.257 64.3673 45.257 66.7419V76.4724C43.3386 76.5736 41.5724 77.4003 40.2649 78.8185L35.0545 84.4686V29.287H106.018C107.329 29.287 108.391 28.225 108.391 26.9144C108.391 25.6037 107.329 24.5417 106.018 24.5417H33.0747C31.5499 24.5417 30.3091 25.7925 30.3091 27.3297V89.6145L22.7725 97.7873C22.5118 97.1859 22.3714 96.5336 22.3714 95.8594V51.8822C22.3714 50.5716 21.3094 49.5095 19.9987 49.5095C18.688 49.5095 17.626 50.5716 17.626 51.8822V65.4144L3.31527 87.617C-1.21181 94.6402 -1.09381 103.638 3.61581 110.54L12.7532 123.929C14.0107 125.772 14.719 127.924 14.8019 130.153L15.3615 145.148C15.4096 146.428 16.4735 147.472 17.8209 147.43C19.1306 147.381 20.1524 146.28 20.1037 144.971L19.5441 129.976C19.4277 126.854 18.4349 123.838 16.6731 121.255L7.53579 107.865C3.90432 102.542 3.8129 95.6038 7.3039 90.1881L17.6263 74.1734V95.8597C17.6263 97.8844 18.253 99.8164 19.4109 101.433L18.1306 102.822C17.2423 103.785 17.3033 105.286 18.2666 106.175C19.2299 107.063 20.7311 107.002 21.6194 106.039L43.754 82.0352C44.2301 81.5189 44.8793 81.2244 45.5809 81.206C46.2776 81.1874 46.947 81.448 47.4497 81.939C48.2766 82.7473 48.4633 84.0184 47.9036 85.0302L34.597 109.071C33.6166 110.842 33.8143 112.996 35.1006 114.558C37.6878 117.702 38.4613 122.042 37.119 125.885C36.4581 127.779 36.0994 129.755 36.0532 131.757L35.7973 142.753C35.7663 144.079 36.8308 145.181 38.1703 145.181C39.4553 145.181 40.5113 144.155 40.5414 142.864L40.7973 131.868C40.8321 130.36 41.1019 128.874 41.5993 127.45C43.4841 122.053 42.3977 115.958 38.7644 111.543C38.7245 111.494 38.7182 111.425 38.7486 111.369L42.0206 105.458H119.971L123.244 111.37C123.274 111.425 123.268 111.494 123.227 111.543C119.594 115.957 118.508 122.052 120.393 127.45C120.89 128.873 121.16 130.359 121.195 131.868L121.451 142.864C121.48 144.143 122.528 145.203 123.878 145.18C125.188 145.15 126.226 144.063 126.195 142.753L125.939 131.757C125.892 129.753 125.534 127.777 124.873 125.885C123.531 122.042 124.304 117.702 126.891 114.559C128.177 112.996 128.375 110.842 127.395 109.071L114.088 85.0299C113.529 84.0185 113.715 82.7473 114.542 81.9387C115.605 80.9007 117.273 80.9884 118.238 82.0349L140.373 106.038C141.261 107.001 142.762 107.062 143.726 106.174C144.689 105.286 144.75 103.785 143.862 102.821L142.579 101.431C143.729 99.8189 144.365 97.8774 144.365 95.8594V74.1728L154.688 90.1881C157.69 94.8461 158.08 100.621 155.729 105.635C155.173 106.822 155.683 108.235 156.87 108.791C157.195 108.943 157.538 109.016 157.875 109.016C158.767 109.016 159.622 108.51 160.025 107.65C163.074 101.146 162.57 93.6572 158.676 87.617ZM57.4257 81.8821L61.0701 78.8024C61.2122 78.6824 61.4172 78.6824 61.5592 78.8024L65.2036 81.8821H57.4257ZM72.6266 67.1806V81.8821H72.5552L64.6219 75.1778C62.7057 73.559 59.9236 73.5581 58.0071 75.1778L52.0381 80.2222C51.7012 79.6154 51.2798 79.0475 50.7654 78.5448C50.5237 78.3088 50.2684 78.0934 50.0023 77.8957V67.1806H72.6266ZM44.6467 100.712L47.5405 95.4842H114.451L117.344 100.712H44.6467Z" fill="white"/>
<path d="M54.2548 74.2936C55.5655 74.2936 56.6275 73.2315 56.6275 71.9209V70.3157C56.6275 69.005 55.5655 67.943 54.2548 67.943C52.9441 67.943 51.8821 69.005 51.8821 70.3157V71.9209C51.8821 73.2312 52.9441 74.2936 54.2548 74.2936Z" fill="#F9B93E"/>
<path d="M117.071 64.821H88.5895C87.2788 64.821 86.2168 65.8831 86.2168 67.1937C86.2168 68.5044 87.2788 69.5664 88.5895 69.5664H117.071C118.381 69.5664 119.443 68.5044 119.443 67.1937C119.443 65.8831 118.381 64.821 117.071 64.821Z" fill="#F9B93E"/>
<path d="M49.5636 33.3983C47.189 33.3983 45.2573 35.33 45.2573 37.7046V53.2842C45.2573 55.6588 47.189 57.5905 49.5636 57.5905H73.0658C75.4404 57.5905 77.372 55.6588 77.372 53.2842V37.7046C77.372 35.33 75.4404 33.3983 73.0658 33.3983H49.5636ZM50.0024 38.1437H72.6267V52.8454H72.5552L64.6219 46.1409C62.7057 44.5218 59.923 44.5211 58.0072 46.1409L50.0739 52.8454H50.0024V38.1437ZM57.4254 52.8454L61.0701 49.7654C61.2122 49.6458 61.4172 49.6452 61.5592 49.7654L65.204 52.8454H57.4254Z" fill="white"/>
<path d="M54.2548 45.256C55.5655 45.256 56.6275 44.194 56.6275 42.8833V41.2784C56.6275 39.9678 55.5655 38.9058 54.2548 38.9058C52.9441 38.9058 51.8821 39.9678 51.8821 41.2784V42.8833C51.8821 44.1937 52.9441 45.256 54.2548 45.256Z" fill="#F9B93E"/>
<path d="M117.071 35.7839H88.5895C87.2788 35.7839 86.2168 36.8459 86.2168 38.1566C86.2168 39.4673 87.2788 40.5293 88.5895 40.5293H117.071C118.381 40.5293 119.443 39.4673 119.443 38.1566C119.443 36.8459 118.381 35.7839 117.071 35.7839Z" fill="white"/>
<path d="M117.071 43.1218H88.5895C87.2788 43.1218 86.2168 44.1838 86.2168 45.4945C86.2168 46.8052 87.2788 47.8672 88.5895 47.8672H117.071C118.381 47.8672 119.443 46.8052 119.443 45.4945C119.443 44.1838 118.381 43.1218 117.071 43.1218Z" fill="#F9B93E"/>
<path d="M117.071 50.4595H88.5895C87.2788 50.4595 86.2168 51.5215 86.2168 52.8322C86.2168 54.1428 87.2788 55.2049 88.5895 55.2049H117.071C118.381 55.2049 119.443 54.1428 119.443 52.8322C119.443 51.5215 118.381 50.4595 117.071 50.4595Z" fill="white"/>
<path d="M28.7751 61.7262V58.2994C28.7751 56.9888 27.7131 55.9268 26.4025 55.9268C25.0918 55.9268 24.0298 56.9888 24.0298 58.2994V61.7262C24.0298 63.0369 25.0918 64.0989 26.4025 64.0989C27.7131 64.0989 28.7751 63.0369 28.7751 61.7262Z" fill="#F9B93E"/>
</g>
<defs>
<clipPath id="clip0">
<rect width="162" height="162" fill="white"/>
</clipPath>
</defs>
</svg>
