<svg width="120" height="120" viewBox="0 0 120 120" fill="none" xmlns="http://www.w3.org/2000/svg">
<g clip-path="url(#clip0)">
<path d="M89.8541 116.484H88.1968V55.8156H89.8541C90.8251 55.8156 91.6119 55.0286 91.6119 54.0578C91.6119 53.087 90.8251 52.3 89.8541 52.3H88.5915L90.9652 40.6626C91.22 39.4136 90.9036 38.1311 90.0976 37.1439C89.2913 36.1567 88.0979 35.5905 86.8231 35.5905H68.5574L68.8893 35.2588L74.5255 32.9352L75.0528 33.4626C75.7391 34.1488 76.8521 34.1495 77.5386 33.4628C78.0594 32.9423 78.1843 32.1768 77.9153 31.5377L84.9273 28.6467L85.2149 28.9342C85.5582 29.2776 86.008 29.4492 86.458 29.4492C86.9077 29.4492 87.3577 29.2776 87.7009 28.9345C88.3876 28.248 88.3876 27.1352 87.7011 26.4487L86.5848 25.3321C86.5848 25.3321 86.5848 25.3321 86.5848 25.3319L75.7299 14.475C75.0432 13.7885 73.9302 13.7885 73.2442 14.4747C72.5575 15.1612 72.5575 16.274 73.2439 16.9605L82.2357 25.9539L75.354 28.791L59.4278 12.862L62.2663 5.98077L68.2747 11.9901C68.9675 12.6829 70.0843 12.6672 70.7605 11.9904C71.4472 11.3039 71.4472 10.1911 70.7607 9.50459L61.7725 0.514918C61.086 -0.171565 59.9729 -0.171799 59.2867 0.514684C58.6 1.20117 58.6 2.31398 59.2865 3.00046L59.5738 3.2878L56.6814 10.2996C56.0423 10.0305 55.2768 10.1552 54.7562 10.676C54.0695 11.3625 54.0695 12.4753 54.756 13.1618L55.2831 13.6891L52.9581 19.3254C43.8283 28.4538 45.1256 27.1565 42.4309 29.8506C41.6109 30.6707 41.159 31.7608 41.1588 32.9207C41.1588 33.9013 41.4848 34.8304 42.0801 35.5902H33.1762C30.4947 35.5902 28.5009 38.0498 29.0343 40.6626L31.4081 52.2997H30.1455C29.1745 52.2997 28.3877 53.0868 28.3877 54.0576C28.3877 55.0283 29.1745 55.8154 30.1455 55.8154H31.803V116.484H30.1455C29.1745 116.484 28.3877 117.271 28.3877 118.242C28.3877 119.213 29.1745 120 30.1455 120H89.8538C90.8248 120 91.6116 119.213 91.6116 118.242C91.6116 117.271 90.8251 116.484 89.8541 116.484ZM71.8335 30.2423L68.3087 31.6954L56.5218 19.9064L57.9756 16.3818L71.8335 30.2423ZM51.9904 27.3321C52.1317 27.4736 52.1528 27.6386 52.1528 27.7244C52.1528 27.8102 52.1315 27.9749 51.9904 28.1163L49.5283 30.5777C49.3157 30.7905 48.9644 30.7973 48.7443 30.5774L47.7105 29.5434L50.9566 26.298L51.9904 27.3321ZM44.6749 32.9212C44.6749 32.4227 45.1009 32.2014 45.2247 32.0294L46.2585 33.0634C47.8473 34.6527 50.4236 34.6546 52.0145 33.0639L54.4764 30.6028C56.0633 29.016 56.0636 26.4337 54.4769 24.8465L53.443 23.8125L54.4497 22.806L65.409 33.7675L63.5858 35.5905H47.0015C45.2802 33.7101 44.6749 33.5624 44.6749 32.9212ZM33.1767 39.1061H86.8234C87.1173 39.1061 87.2949 39.2699 87.3748 39.3677C87.4545 39.4654 87.5795 39.6721 87.5209 39.9602L85.0037 52.3H34.9966L32.4796 39.9599C32.3894 39.5186 32.7257 39.1061 33.1767 39.1061ZM71.2522 112.069H78.1435C78.6109 112.069 78.991 112.449 78.991 112.916V115.637C78.991 116.104 78.6109 116.484 78.1435 116.484H68.4568C69.6892 115.248 70.652 113.744 71.2522 112.069ZM82.4225 116.484C82.4767 116.21 82.5067 115.927 82.5067 115.637V112.917C82.5067 110.511 80.5492 108.553 78.1435 108.553H71.9366C72.0071 106.851 71.7271 105.226 71.1259 103.692C70.7718 102.789 69.7522 102.343 68.8478 102.698C67.944 103.052 67.4985 104.072 67.8529 104.976C70.0166 110.496 65.9284 116.485 60.0004 116.485C55.3499 116.485 51.5666 112.701 51.5666 108.051C51.5666 103.401 55.3501 99.6176 60.0004 99.6176C61.3883 99.6176 62.7643 99.9624 63.9798 100.615C64.8353 101.073 65.901 100.752 66.3599 99.897C66.819 99.0415 66.4977 97.9761 65.6422 97.5169C63.9175 96.5914 61.9663 96.102 60.0004 96.102C53.4114 96.102 48.051 101.462 48.051 108.051C48.051 111.34 49.3867 114.322 51.5437 116.485H35.3193V63.816C36.4026 65.5775 37.7024 67.2123 39.2076 68.6816C39.9025 69.3599 41.0153 69.3458 41.6934 68.6516C42.3717 67.9567 42.3581 66.8439 41.6634 66.1658C38.744 63.3163 36.7068 59.7528 35.7342 55.8154H84.2647C82.5116 62.8782 77.2557 68.6966 70.3609 71.1245C67.3508 72.1841 65.3284 75.0402 65.3284 78.2314V85.5535L54.6714 88.4548V78.2312C54.6714 75.0402 52.649 72.1841 49.6391 71.1245C48.7284 70.8038 47.8272 70.4164 46.96 69.9737C46.0956 69.5319 45.0367 69.8748 44.5949 70.7394C44.1531 71.604 44.496 72.6627 45.3606 73.1045C46.3666 73.6184 47.4133 74.068 48.4715 74.4406C50.0769 75.006 51.1555 76.5294 51.1555 78.2314V88.8479C51.1555 89.8583 51.6159 90.7892 52.4186 91.4025C52.9886 91.838 53.6676 92.0651 54.3627 92.0651C54.6463 92.0651 54.933 92.0272 55.2154 91.9503L66.4736 88.8856C67.869 88.5055 68.8438 87.2298 68.8438 85.7834V78.2316C68.8438 76.5294 69.9226 75.006 71.5281 74.4406C77.0572 72.4937 81.6784 68.6687 84.6807 63.7876V116.484H82.4225V116.484Z" fill="white"/>
<path d="M55.785 66.5074L58.893 69.0255C59.2157 69.2869 59.6076 69.4177 59.9997 69.4177C60.3916 69.4177 60.7837 69.2869 61.1064 69.0255L64.2147 66.5074C64.9689 65.8964 65.085 64.7895 64.4737 64.035C63.8632 63.2808 62.7562 63.1643 62.0013 63.776L61.7575 63.9736V61.3545C61.7575 60.3834 60.9707 59.5966 59.9997 59.5966C59.0287 59.5966 58.2419 60.3834 58.2419 61.3545V63.9734L57.9984 63.776C57.2435 63.1645 56.1368 63.281 55.526 64.035C54.9147 64.7895 55.0307 65.8964 55.785 66.5074Z" fill="#F9B93E"/>
</g>
<defs>
<clipPath id="clip0">
<rect width="120" height="120" fill="white"/>
</clipPath>
</defs>
</svg>
