<svg width="80" height="80" viewBox="0 0 80 80" fill="none" xmlns="http://www.w3.org/2000/svg">
<path d="M33.75 15H46.25V17.5H33.75V15Z" fill="#F9B93E"/>
<path d="M33.75 20H46.25V22.5H33.75V20Z" fill="white"/>
<path d="M71.25 67.5V57.5C71.25 56.945 70.8837 56.4563 70.35 56.3L41.25 47.8125V32.5H50C50.6912 32.5 51.25 31.94 51.25 31.25V11.25C51.25 10.9187 51.1188 10.6 50.8838 10.3663L43.3838 2.86625C43.15 2.63125 42.8325 2.5 42.5 2.5H30C29.3088 2.5 28.75 3.06 28.75 3.75V31.25C28.75 31.94 29.3088 32.5 30 32.5H38.75V47.8125L9.65 56.3C9.11625 56.4563 8.75 56.945 8.75 57.5V67.5C8.75 68.055 9.11625 68.5437 9.65 68.7L39.65 77.45C39.765 77.4837 39.8813 77.5 40 77.5C40.1187 77.5 40.235 77.4837 40.35 77.45L70.35 68.7C70.8837 68.5437 71.25 68.055 71.25 67.5ZM43.75 6.7675L46.9825 10H43.75V6.7675ZM31.25 5H41.25V11.25C41.25 11.94 41.8088 12.5 42.5 12.5H48.75V30H31.25V5ZM38.75 50.4163V56.9825L35.8838 54.1162L34.1162 55.8838L39.1162 60.8838C39.36 61.1275 39.68 61.25 40 61.25C40.32 61.25 40.64 61.1275 40.8838 60.8838L45.8838 55.8838L44.1162 54.1162L41.25 56.9825V50.4163L65.5363 57.5L40 64.9475L14.4637 57.5L38.75 50.4163ZM11.25 59.1663L38.75 67.1875V74.5837L11.25 66.5625V59.1663ZM41.25 74.5837V67.1875L68.75 59.1663V66.5625L41.25 74.5837Z" fill="white"/>
<path d="M33.75 10H38.75V12.5H33.75V10Z" fill="white"/>
<path d="M3.75 32.5H12.5C12.5 35.9463 15.3038 38.75 18.75 38.75H22.5C24.5675 38.75 26.25 40.4325 26.25 42.5V44.4825L23.3838 41.6162L21.6162 43.3838L26.6162 48.3838C26.86 48.6275 27.18 48.75 27.5 48.75C27.82 48.75 28.14 48.6275 28.3838 48.3838L33.3838 43.3838L31.6162 41.6162L28.75 44.4825V42.5C28.75 39.0537 25.9463 36.25 22.5 36.25H18.75C16.6825 36.25 15 34.5675 15 32.5H23.75C24.4412 32.5 25 31.94 25 31.25V11.25C25 10.9187 24.8688 10.6 24.6338 10.3663L17.1337 2.86625C16.9 2.63125 16.5825 2.5 16.25 2.5H3.75C3.05875 2.5 2.5 3.06 2.5 3.75V31.25C2.5 31.94 3.05875 32.5 3.75 32.5ZM17.5 6.7675L20.7325 10H17.5V6.7675ZM5 5H15V11.25C15 11.94 15.5588 12.5 16.25 12.5H22.5V30H5V5Z" fill="white"/>
<path d="M7.5 15H20V17.5H7.5V15Z" fill="white"/>
<path d="M7.5 20H20V22.5H7.5V20Z" fill="#F9B93E"/>
<path d="M7.5 25H20V27.5H7.5V25Z" fill="white"/>
<path d="M7.5 10H12.5V12.5H7.5V10Z" fill="white"/>
<path d="M77.5 31.25V11.25C77.5 10.9187 77.3687 10.6 77.1337 10.3663L69.6337 2.86625C69.4 2.63125 69.0825 2.5 68.75 2.5H56.25C55.5587 2.5 55 3.06 55 3.75V31.25C55 31.94 55.5587 32.5 56.25 32.5H65C65 34.5675 63.3175 36.25 61.25 36.25H57.5C54.0537 36.25 51.25 39.0537 51.25 42.5V44.4825L48.3837 41.6162L46.6162 43.3838L51.6162 48.3838C51.86 48.6275 52.18 48.75 52.5 48.75C52.82 48.75 53.14 48.6275 53.3837 48.3838L58.3837 43.3838L56.6162 41.6162L53.75 44.4825V42.5C53.75 40.4325 55.4325 38.75 57.5 38.75H61.25C64.6962 38.75 67.5 35.9463 67.5 32.5H76.25C76.9412 32.5 77.5 31.94 77.5 31.25ZM70 6.7675L73.2325 10H70V6.7675ZM57.5 30V5H67.5V11.25C67.5 11.94 68.0587 12.5 68.75 12.5H75V30H57.5Z" fill="white"/>
<path d="M60 15H72.5V17.5H60V15Z" fill="white"/>
<path d="M60 20H72.5V22.5H60V20Z" fill="#F9B93E"/>
<path d="M60 25H72.5V27.5H60V25Z" fill="white"/>
<path d="M60 10H65V12.5H60V10Z" fill="#F9B93E"/>
<path d="M33.75 25H36.25V27.5H33.75V25Z" fill="white"/>
<path d="M38.75 25H41.25V27.5H38.75V25Z" fill="#F9B93E"/>
<path d="M43.75 25H46.25V27.5H43.75V25Z" fill="white"/>
</svg>
