<svg width="81" height="81" viewBox="0 0 81 81" fill="none" xmlns="http://www.w3.org/2000/svg">
<g clip-path="url(#clip0)">
<path d="M9.29248 11.3401C8.63705 11.3401 8.10596 11.8712 8.10596 12.5267C8.10596 13.1821 8.63705 13.7132 9.29248 13.7132H10.9226C11.578 13.7132 12.1091 13.1821 12.1091 12.5267C12.1091 11.8712 11.578 11.3401 10.9226 11.3401H9.29248Z" fill="white"/>
<path d="M17.3472 11.3401C16.6917 11.3401 16.1606 11.8712 16.1606 12.5267C16.1606 13.1821 16.6917 13.7132 17.3472 13.7132H18.9775C19.6329 13.7132 20.164 13.1821 20.164 12.5267C20.164 11.8712 19.6329 11.3401 18.9775 11.3401H17.3472Z" fill="#F9B93E"/>
<path d="M27.0321 13.7132C27.6876 13.7132 28.2187 13.1821 28.2187 12.5267C28.2187 11.8712 27.6876 11.3401 27.0321 11.3401H25.4019C24.7464 11.3401 24.2153 11.8712 24.2153 12.5267C24.2153 13.1821 24.7464 13.7132 25.4019 13.7132H27.0321Z" fill="white"/>
<path d="M58.2309 47.8862C58.6941 48.3494 59.4454 48.3499 59.9088 47.8863C60.3723 47.423 60.3723 46.6717 59.9089 46.2084L38.071 24.3663C37.6077 23.9028 36.8564 23.9029 36.3931 24.3661C35.9296 24.8295 35.9296 25.5808 36.393 26.044L36.7736 26.4247L34.1353 32.8208C33.6701 32.4653 33.0028 32.499 32.5776 32.9243C32.1141 33.3877 32.1141 34.139 32.5774 34.6022L33.1601 35.1849L31.1046 40.1678L22.1966 49.074C20.8853 50.385 20.8851 52.5184 22.1961 53.8297L22.3564 53.99L21.5176 54.8286L21.5146 54.8256C21.0512 54.3622 20.2999 54.3621 19.8367 54.8255C19.3732 55.2888 19.3732 56.0401 19.8365 56.5034L19.9152 56.582C18.4559 58.7593 18.6866 61.7415 20.6086 63.6638C21.7014 64.7568 23.1367 65.3033 24.5725 65.3033C25.6617 65.3033 26.7506 64.9878 27.6902 64.3583L27.7688 64.4369C28.0006 64.6687 28.3042 64.7845 28.608 64.7845C28.9115 64.7845 29.2153 64.6687 29.4469 64.4371C29.9104 63.9737 29.9104 63.2224 29.4471 62.7592L29.4441 62.7562L30.2829 61.9175L30.443 62.0778C31.0987 62.7337 31.9596 63.0615 32.8211 63.0615C33.6818 63.0615 34.5431 62.7337 35.1985 62.0783L35.3629 61.9139L38.5009 65.0523C38.9631 65.5149 39.7144 65.5167 40.1788 65.0525C40.6422 64.5893 40.6423 63.838 40.1789 63.3746L37.041 60.236L40.7986 56.479L43.2536 58.9346C43.272 58.9528 43.278 58.9805 43.2693 59.0047L42.6577 60.6946C42.337 61.5809 42.5604 62.5839 43.2267 63.2502L46.6632 66.6874C46.9676 66.9919 46.9676 67.4872 46.663 67.7916L46.1812 68.2734C45.8768 68.5777 45.3811 68.5777 45.0769 68.273L43.5333 66.7293C43.0698 66.2661 42.3186 66.2661 41.8553 66.7293C41.3919 67.1928 41.3919 67.944 41.8553 68.4074L43.3988 69.9509C44.6279 71.1803 46.6292 71.1814 47.8591 69.9514L48.3409 69.4697C49.5707 68.2401 49.571 66.2392 48.3414 65.0095L44.9049 61.5722C44.8866 61.554 44.8806 61.5265 44.8893 61.5023L45.5009 59.8122C45.8214 58.9259 45.5982 57.9228 44.9318 57.2566L42.4768 54.8011L44.1066 53.1716L49.0894 51.1173L49.6722 51.7002C50.1354 52.1634 50.8868 52.1638 51.3501 51.7003C51.7755 51.2751 51.8094 50.6076 51.4539 50.1425L57.8504 47.5054L58.2309 47.8862ZM30.2479 47.6131C30.2477 47.6133 30.2477 47.6133 30.2479 47.6131L28.1743 49.6862C27.8763 49.9843 27.3952 49.9832 27.0981 49.6861L26.0196 48.6074L29.1694 45.4582L30.2479 46.5372C30.5459 46.8349 30.5448 47.3162 30.2479 47.6131ZM22.2865 61.9859C21.6761 61.3754 21.3399 60.5636 21.3401 59.7003C21.3401 59.2143 21.4502 58.7462 21.6524 58.3197L25.9516 62.6196C24.7524 63.1846 23.2762 62.9759 22.2865 61.9859ZM28.6046 60.2393L27.7658 61.078L23.1954 56.5067L24.0341 55.668C25.6326 57.2668 27.006 58.6405 28.6046 60.2393ZM32.1207 60.3999C29.868 58.1469 25.174 53.4518 23.8742 52.1518C23.4885 51.766 23.4885 51.1381 23.8744 50.752L24.3414 50.2852L25.42 51.364C26.6434 52.5877 28.6276 52.5896 29.8524 51.3644L31.9256 49.2914C33.1506 48.0667 33.1511 46.0841 31.9261 44.8591L30.8475 43.7803L32.111 42.5171L41.7572 52.1648L34.5255 59.3952C34.5249 59.3958 34.5243 59.3963 34.5238 59.3967C34.5233 59.3972 34.5229 59.398 34.5222 59.3985L33.5205 60.4001C33.1343 60.7861 32.5066 60.7858 32.1207 60.3999V60.3999ZM43.7145 50.7664C42.5015 49.5532 34.7274 41.7778 33.5097 40.56L34.9771 37.0028L47.2718 49.2999L43.7145 50.7664ZM49.6482 48.32L35.9573 34.6266L38.5907 28.2424L56.0329 45.6878L49.6482 48.32Z" fill="white"/>
<path d="M54.4685 28.1252L51.2894 31.3043C50.8261 31.7678 50.8261 32.519 51.2894 32.9823C51.7531 33.4457 52.5041 33.4455 52.9675 32.9823L56.1466 29.8032C56.61 29.3397 56.61 28.5886 56.1466 28.1252C55.6832 27.6621 54.9321 27.6621 54.4685 28.1252Z" fill="#F9B93E"/>
<path d="M47.1001 27.8349V23.3391C47.1001 22.6836 46.569 22.1526 45.9136 22.1526C45.2581 22.1526 44.7271 22.6836 44.7271 23.3391V27.8349C44.7271 28.4903 45.2581 29.0214 45.9136 29.0214C46.569 29.0214 47.1001 28.4903 47.1001 27.8349Z" fill="white"/>
<path d="M55.165 38.3948C55.165 39.0502 55.6961 39.5813 56.3516 39.5813H60.8474C61.5028 39.5813 62.0339 39.0502 62.0339 38.3948C62.0339 37.7394 61.5028 37.2083 60.8474 37.2083H56.3516C55.6963 37.2083 55.165 37.7395 55.165 38.3948Z" fill="white"/>
<path d="M19.3484 27.8349C19.3484 27.1795 18.8173 26.6484 18.1619 26.6484H8.01172C7.35628 26.6484 6.8252 27.1795 6.8252 27.8349C6.8252 28.4903 7.35628 29.0214 8.01172 29.0214H18.1619C18.8171 29.0214 19.3484 28.4903 19.3484 27.8349Z" fill="white"/>
<path d="M8.01172 32.5769C7.35628 32.5769 6.8252 33.108 6.8252 33.7634C6.8252 34.4188 7.35628 34.9499 8.01172 34.9499H14.9978C15.6532 34.9499 16.1843 34.4188 16.1843 33.7634C16.1843 33.108 15.6532 32.5769 14.9978 32.5769H8.01172Z" fill="#F9B93E"/>
<path d="M72.1485 57.8269H55.3081C54.6527 57.8269 54.1216 58.358 54.1216 59.0134C54.1216 59.6689 54.6527 60.2 55.3081 60.2H72.1485C72.8039 60.2 73.335 59.6689 73.335 59.0134C73.335 58.358 72.8038 57.8269 72.1485 57.8269Z" fill="#F9B93E"/>
<path d="M72.1485 63.0545H61.6362C60.9808 63.0545 60.4497 63.5856 60.4497 64.241C60.4497 64.8965 60.9808 65.4275 61.6362 65.4275H72.1485C72.8039 65.4275 73.335 64.8965 73.335 64.241C73.335 63.5856 72.8038 63.0545 72.1485 63.0545Z" fill="white"/>
<path d="M72.8764 5.32623H25.419C24.7635 5.32623 24.2324 5.85732 24.2324 6.51276C24.2324 7.16819 24.7635 7.69928 25.419 7.69928H72.8766C76.0473 7.69928 78.627 10.2789 78.627 13.4498V17.3541H2.37305V13.4498C2.37305 10.2789 4.95271 7.69928 8.12341 7.69928H20.6749C21.3304 7.69928 21.8615 7.16819 21.8615 6.51276C21.8615 5.85732 21.3304 5.32623 20.6749 5.32623H8.12341C3.64405 5.32623 0 8.97044 0 13.4498V67.5504C0 72.0296 3.64405 75.6738 8.12341 75.6738H72.8766C77.3558 75.6738 81 72.0297 81 67.5504V64.6094C81 63.9539 80.4689 63.4229 79.8135 63.4229C79.158 63.4229 78.627 63.9539 78.627 64.6094V67.5504C78.627 70.7211 76.0473 73.3007 72.8766 73.3007H8.12341C4.95271 73.3006 2.37305 70.7209 2.37305 67.5502V19.727H78.6268V59.8652C78.6268 60.5206 79.1579 61.0517 79.8133 61.0517C80.4688 61.0517 80.9998 60.5206 80.9998 59.8652V13.4498C80.9998 8.97044 77.3558 5.32623 72.8764 5.32623V5.32623Z" fill="white"/>
</g>
<defs>
<clipPath id="clip0">
<rect width="81" height="81" fill="white"/>
</clipPath>
</defs>
</svg>
