<svg width="126" height="126" viewBox="0 0 126 126" fill="none" xmlns="http://www.w3.org/2000/svg">
<path d="M125.733 41.4491L113.892 18.1134V8.85877C113.892 7.49984 112.79 6.39783 111.431 6.39783H14.5683C13.2094 6.39783 12.1074 7.49984 12.1074 8.85877V18.1146L0.266274 41.4491C0.0913011 41.7941 0 42.1758 0 42.5627V48.6169C0 55.8107 5.2428 61.7997 12.1074 62.9733V114.679H9.58908C8.2299 114.679 7.12813 115.781 7.12813 117.14C7.12813 118.499 8.2299 119.601 9.58908 119.601H14.5494C14.5555 119.601 14.5619 119.602 14.5683 119.602H81.8998H101.588H111.431H116.411C117.77 119.602 118.872 118.5 118.872 117.141C118.872 115.782 117.77 114.68 116.411 114.68H113.892V62.9733C120.757 61.7997 126 55.8109 126 48.6169V42.5627C126 42.1758 125.909 41.7941 125.733 41.4491ZM17.0293 11.3197H108.97V16.2424H92.0591H72.6863H53.314H33.9409H17.0293V11.3197ZM77.556 42.3141L75.4098 21.1642H90.236L96.8626 42.9289V48.6169C96.8626 53.9359 92.5351 58.2633 87.2157 58.2633C81.8964 58.2633 77.5686 53.9359 77.5686 48.6169V42.5627C77.5686 42.4797 77.5644 42.3968 77.556 42.3141ZM72.6467 42.6872V48.6169H72.6464C72.6464 53.9359 68.3191 58.2633 63.0002 58.2633C57.6809 58.2633 53.3531 53.9359 53.3531 48.6169V42.6872L55.5379 21.1642H70.4626L72.6467 42.6872ZM50.5909 21.1645L48.444 42.3144C48.4354 42.3968 48.4312 42.4797 48.4312 42.5627V48.6169C48.4312 53.9359 44.1039 58.2633 38.7845 58.2633C33.4652 58.2633 29.1379 53.9359 29.1379 48.6169V42.9291L35.7647 21.1645H50.5909ZM4.92189 48.6169V43.1513L16.0793 21.1642H30.6194L24.3225 41.8458C24.2519 42.0781 24.2157 42.3198 24.2157 42.5627V48.6169C24.2157 53.9359 19.8879 58.2633 14.5683 58.2633C9.24922 58.2633 4.92189 53.9359 4.92189 48.6169ZM99.1267 114.68H84.3608V107.297V97.4529H86.822C88.1812 97.4529 89.2829 96.3511 89.2829 94.9919C89.2829 93.633 88.1812 92.531 86.822 92.531H84.3608V75.3048H99.1267V114.68ZM108.97 114.68H104.048V72.8439C104.048 71.485 102.946 70.383 101.587 70.383H81.8993H24.4123C23.0529 70.383 21.9514 71.485 21.9514 72.8439V107.297C21.9514 108.656 23.0529 109.758 24.4123 109.758H79.4389V114.68H17.0293V62.9733C21.0391 62.2879 24.4955 59.9616 26.6767 56.7089C29.2931 60.6108 33.7433 63.1852 38.7843 63.1852C43.8253 63.1852 48.2752 60.6108 50.8919 56.7089C53.5086 60.6108 57.959 63.1852 63 63.1852C68.0405 63.1852 72.4909 60.611 75.1071 56.7089C77.7239 60.611 82.1742 63.1852 87.2152 63.1852C92.2562 63.1852 96.7066 60.6108 99.3231 56.7089C101.504 59.9616 104.96 62.2879 108.97 62.9733V114.68ZM50.8752 75.3048H59.4491L54.7696 79.9836C53.8086 80.9444 53.8086 82.5026 54.7694 83.4639C55.25 83.9445 55.8797 84.1849 56.5097 84.1849C57.1395 84.1849 57.769 83.9445 58.2496 83.4641L66.4099 75.3048H79.4386V104.836H26.8733V99.3067L50.8752 75.3048ZM26.8733 92.3459V75.3048H43.9144L26.8733 92.3459ZM121.078 48.6169C121.078 53.9359 116.751 58.2633 111.431 58.2633C106.112 58.2633 101.785 53.9359 101.785 48.6169V42.5627C101.785 42.3198 101.749 42.0781 101.678 41.8458L95.3809 21.1642H109.921L121.078 43.1513V48.6169Z" fill="white"/>
<path d="M51.4689 89.2255C52.0964 89.2255 52.7239 88.987 53.2041 88.5098L53.2452 88.469C54.2091 87.5109 54.2136 85.9526 53.2555 84.9887C52.297 84.0247 50.7387 84.0201 49.775 84.9786L49.7339 85.0195C48.7699 85.9775 48.7658 87.536 49.7236 88.4997C50.2047 88.9836 50.8366 89.2255 51.4689 89.2255Z" fill="#F9B93E"/>
<path d="M2.51903 114.679H2.46095C1.10177 114.679 0 115.781 0 117.14C0 118.499 1.10177 119.601 2.46095 119.601H2.51903C3.87796 119.601 4.97997 118.499 4.97997 117.14C4.97997 115.781 3.87821 114.679 2.51903 114.679Z" fill="#F9B93E"/>
<path d="M123.539 114.68H123.481C122.122 114.68 121.02 115.782 121.02 117.141C121.02 118.5 122.122 119.602 123.481 119.602H123.539C124.898 119.602 126 118.5 126 117.141C126 115.782 124.898 114.68 123.539 114.68Z" fill="#F9B93E"/>
</svg>
