<svg width="108" height="108" viewBox="0 0 108 108" fill="none" xmlns="http://www.w3.org/2000/svg">
<path d="M0 12.1925V67.9358V71.4224V85.3476H38.5228C36.652 87.176 35.3764 89.5996 34.9937 92.3209H22.663V95.8075H34.8661H73.1976H85.4008V92.3209H73.0701C72.6874 89.5996 71.4118 87.176 69.5409 85.3476H108V71.4224V67.9358V12.1925H0ZM38.5016 92.3209C39.3095 88.3453 42.8386 85.3476 47.0268 85.3476H60.952C65.1827 85.3476 68.6906 88.3453 69.4984 92.3209H38.5016ZM104.513 81.861H60.9732H47.048H3.48661V71.4012H104.513V81.861ZM104.513 67.9146H3.48661V15.6579H104.513V67.9146Z" fill="white"/>
<path d="M55.7425 74.8878H52.2559V78.3744H55.7425V74.8878Z" fill="white"/>
<path d="M62.7171 74.8878H59.2305V78.3744H62.7171V74.8878Z" fill="#F9B93E"/>
<path d="M48.7698 74.8878H45.2832V78.3744H48.7698V74.8878Z" fill="#F9B93E"/>
<path d="M19.9633 46.9949H41.3932L45.879 31.3264H17.0081L15.3711 22.6099H8.7168V26.0965H12.501L13.479 31.3264L16.4129 46.9949L17.7097 53.9681H18.7727C17.9436 54.9036 17.4121 56.1154 17.4121 57.4547C17.4121 60.3461 19.7507 62.6847 22.642 62.6847C25.5333 62.6847 27.8719 60.3461 27.8719 57.4547C27.8719 56.1154 27.3404 54.9036 26.5113 53.9681H34.4625C33.6333 54.9036 33.1018 56.1154 33.1018 57.4547C33.1018 60.3461 35.4404 62.6847 38.3318 62.6847C41.2231 62.6847 43.5617 60.3461 43.5617 57.4547C43.5617 56.1154 43.0302 54.9036 42.201 53.9681H44.4333V50.4815H20.6223L19.9633 46.9949ZM17.6672 34.813H41.2444L38.757 43.5295H19.3042L17.6672 34.813ZM38.3318 55.7114C39.2885 55.7114 40.0751 56.4981 40.0751 57.4547C40.0751 58.4114 39.2885 59.1981 38.3318 59.1981C37.3751 59.1981 36.5885 58.4114 36.5885 57.4547C36.5885 56.4981 37.3538 55.7114 38.3318 55.7114ZM22.642 55.7114C23.5987 55.7114 24.3853 56.4981 24.3853 57.4547C24.3853 58.4114 23.5987 59.1981 22.642 59.1981C21.6853 59.1981 20.8987 58.4114 20.8987 57.4547C20.8987 56.4981 21.6853 55.7114 22.642 55.7114Z" fill="#F9B93E"/>
<path d="M60.9727 20.8665V45.2515H99.2829V20.8665H60.9727ZM95.8175 41.7861H95.7963H64.4593V31.3263H95.8175V41.7861ZM95.8175 27.8397H95.7963H64.4593V24.3531H95.8175V27.8397Z" fill="white"/>
<path d="M71.4124 36.5564H67.9258V40.043H71.4124V36.5564Z" fill="white"/>
<path d="M78.3851 36.5564H74.8984V40.043H78.3851V36.5564Z" fill="#F9B93E"/>
<path d="M85.3577 36.5564H81.8711V40.043H85.3577V36.5564Z" fill="white"/>
</svg>
