<svg width="154" height="154" viewBox="0 0 154 154" fill="none" xmlns="http://www.w3.org/2000/svg">
<path d="M150.241 126.568C148.655 124.982 146.727 123.866 144.624 123.28C144.846 121.641 145.054 120.017 145.243 118.435C148.397 92.1521 148.407 65.5077 145.274 39.2414C144.506 32.8185 139.262 27.8241 132.803 27.366C122.601 26.6474 112.268 26.1219 102.036 25.7977C102.177 25.1964 102.254 24.5708 102.254 23.9271V13.7246C102.254 9.19697 98.5702 5.51331 94.0426 5.51331H79.9389C76.0634 5.51331 72.2612 6.14916 68.6377 7.40281C67.4601 7.81007 66.836 9.09501 67.2436 10.2723C67.6508 11.4498 68.9358 12.0739 70.113 11.6664C73.2607 10.5773 76.5666 10.0247 79.9386 10.0247H94.0423C96.0822 10.0247 97.7419 11.6844 97.7419 13.7243V23.9268C97.7419 25.9652 96.0822 27.6234 94.0423 27.6234H79.9386C73.054 27.6234 67.4532 33.2243 67.4532 40.1089V47.7668C67.4532 52.2929 71.1369 55.9751 75.6645 55.9751H82.7419C84.7803 55.9751 86.4385 57.6348 86.4385 59.6747V69.8772C86.4385 71.9171 84.7803 73.5768 82.7419 73.5768H75.6645C71.1369 73.5768 67.4532 77.259 67.4532 81.7851V102.876C67.4532 104.914 65.795 106.573 63.7566 106.573H53.5511C51.5127 106.573 49.8545 104.914 49.8545 102.876V81.7851C49.8545 77.259 46.1708 73.5768 41.6432 73.5768H35.9644C33.9245 73.5768 32.2648 71.9171 32.2648 69.8772V59.675C32.2648 57.6351 33.9245 55.9754 35.9644 55.9754H41.6432C46.1708 55.9754 49.8545 52.2932 49.8545 47.7671V40.1092C49.8545 30.5434 54.2528 21.7612 61.9212 16.0142C62.918 15.267 63.1208 13.8531 62.3733 12.856C61.6259 11.8589 60.2119 11.6565 59.2151 12.4036C54.4029 16.01 50.7141 20.6579 48.3533 25.9237C39.3557 26.248 30.23 26.7292 21.1958 27.366C14.7377 27.8238 9.49356 32.8182 8.72626 39.2417C5.59273 65.5077 5.60265 92.1522 8.75665 118.434C8.94614 120.018 9.15428 121.643 9.37625 123.285C3.97422 124.801 0 129.766 0 135.646C0 139.073 1.33457 142.297 3.75886 144.725C6.18466 147.151 9.40994 148.487 12.8404 148.487H141.16C148.24 148.487 154 142.726 154 135.646C154 132.22 152.665 128.996 150.241 126.568ZM41.6432 51.4637H35.9644C31.4368 51.4637 27.7531 55.1473 27.7531 59.675V69.8775C27.7531 74.4052 31.4368 78.0888 35.9644 78.0888H41.6432C43.6831 78.0888 45.3428 79.747 45.3428 81.7854V102.876C45.3428 107.402 49.0249 111.085 53.5511 111.085H63.7566C68.2825 111.085 71.9649 107.402 71.9649 102.876V81.7854C71.9649 79.747 73.6246 78.0888 75.6645 78.0888H82.7419C87.2681 78.0888 90.9502 74.4052 90.9502 69.8775V59.675C90.9502 55.1473 87.2681 51.4637 82.7419 51.4637H75.6645C73.6246 51.4637 71.9649 49.8055 71.9649 47.7671V41.9617C73.6475 41.9502 75.3322 41.9421 77 41.9421C94.3009 41.9421 111.829 42.5326 129.134 43.6972C131.716 66.9049 131.715 90.4473 129.13 113.734C111.779 114.898 94.2507 115.489 77 115.489C59.7493 115.489 42.2213 114.898 24.8698 113.734C22.2846 90.4473 22.2837 66.9052 24.8662 43.6975C31.7604 43.2346 38.6287 42.8649 45.3428 42.5942V47.7668C45.3428 49.8055 43.6831 51.4637 41.6432 51.4637ZM141.16 143.975H12.8404C10.6149 143.975 8.52264 143.108 6.95015 141.536C5.37767 139.961 4.51172 137.869 4.51172 135.646C4.51172 131.054 8.24802 127.318 12.8404 127.318H121.961C123.207 127.318 124.217 126.308 124.217 125.062C124.217 123.816 123.207 122.806 121.961 122.806H13.8642C13.6389 121.145 13.4284 119.5 13.2365 117.898C10.1252 91.9705 10.1153 65.6867 13.2064 39.7765C13.7174 35.4982 17.2116 32.1715 21.514 31.8666C29.8835 31.2764 38.3301 30.8243 46.6818 30.5034C45.984 32.9443 45.5491 35.4801 45.4008 38.0774C37.9595 38.3752 30.3293 38.7929 22.6819 39.3247C21.5997 39.3999 20.7244 40.2349 20.5981 41.3123C17.691 66.0876 17.6923 91.2558 20.6008 116.118C20.7268 117.196 21.6024 118.031 22.6849 118.107C40.7507 119.364 59.0247 120.001 77.0003 120.001C94.9759 120.001 113.25 119.364 131.316 118.107C132.398 118.031 133.273 117.196 133.4 116.118C136.308 91.2561 136.31 66.0876 133.402 41.3123C133.276 40.2352 132.401 39.4002 131.319 39.3247C113.304 38.0678 95.0291 37.4304 77.0003 37.4304C75.4844 37.4304 73.954 37.437 72.4239 37.4464C73.5224 34.3552 76.4757 32.1352 79.9389 32.1352H94.0426C96.0395 32.1352 97.8715 31.4184 99.2963 30.2294C110.317 30.5419 121.477 31.0911 132.485 31.8663C136.788 32.1712 140.283 35.4979 140.794 39.7759C143.885 65.6864 143.875 91.9702 140.764 117.898C140.572 119.5 140.361 121.144 140.136 122.806H131.971C130.725 122.806 129.715 123.816 129.715 125.062C129.715 126.307 130.725 127.317 131.971 127.317H141.16C143.385 127.317 145.477 128.184 147.05 129.756C148.622 131.331 149.488 133.423 149.488 135.646C149.488 140.239 145.752 143.975 141.16 143.975Z" fill="white"/>
<path d="M100.611 58.8358H122.216C123.462 58.8358 124.472 57.8258 124.472 56.58C124.472 55.3341 123.462 54.3241 122.216 54.3241H100.611C99.3655 54.3241 98.3555 55.3341 98.3555 56.58C98.3555 57.8258 99.3655 58.8358 100.611 58.8358Z" fill="white"/>
<path d="M100.611 68.0378H122.216C123.462 68.0378 124.472 67.0278 124.472 65.782C124.472 64.5361 123.462 63.5261 122.216 63.5261H100.611C99.3655 63.5261 98.3555 64.5361 98.3555 65.782C98.3555 67.0278 99.3655 68.0378 100.611 68.0378Z" fill="#F9B93E"/>
<path d="M100.611 77.24H122.216C123.462 77.24 124.472 76.23 124.472 74.9841C124.472 73.7383 123.462 72.7283 122.216 72.7283H100.611C99.3655 72.7283 98.3555 73.7383 98.3555 74.9841C98.3555 76.23 99.3655 77.24 100.611 77.24Z" fill="white"/>
<path d="M100.611 86.4421H122.216C123.462 86.4421 124.472 85.4321 124.472 84.1863C124.472 82.9404 123.462 81.9304 122.216 81.9304H100.611C99.3655 81.9304 98.3555 82.9404 98.3555 84.1863C98.3555 85.4321 99.3655 86.4421 100.611 86.4421Z" fill="#F9B93E"/>
<path d="M100.611 95.6443H122.216C123.462 95.6443 124.472 94.6343 124.472 93.3884C124.472 92.1426 123.462 91.1326 122.216 91.1326H100.611C99.3655 91.1326 98.3555 92.1426 98.3555 93.3884C98.3555 94.6343 99.3655 95.6443 100.611 95.6443Z" fill="white"/>
<path d="M100.611 104.846H122.216C123.462 104.846 124.472 103.836 124.472 102.59C124.472 101.344 123.462 100.334 122.216 100.334H100.611C99.3655 100.334 98.3555 101.344 98.3555 102.59C98.3555 103.836 99.3655 104.846 100.611 104.846Z" fill="#F9B93E"/>
</svg>
