<svg width="42" height="31" viewBox="0 0 42 31" fill="none" xmlns="http://www.w3.org/2000/svg">
<path d="M20.999 15.5L0.0195312 5.04557V2.58333C0.0195312 1.85677 0.279043 1.24457 0.798068 0.746745C1.31709 0.248915 1.93173 0 2.64197 0H39.3561C40.0664 0 40.681 0.248915 41.2 0.746745C41.719 1.24457 41.9786 1.85677 41.9786 2.58333V5.04557L20.999 15.5ZM19.6878 18.0833H22.3103L41.9786 8.03255V28.4167C41.9786 29.1163 41.719 29.7218 41.2 30.2331C40.681 30.7444 40.0664 31 39.3561 31H2.64197C1.93173 31 1.31709 30.7444 0.798068 30.2331C0.279043 29.7218 0.0195312 29.1163 0.0195312 28.4167V8.03255L19.6878 18.0833Z" fill="#F9B93E"/>
</svg>
