<svg width="162" height="162" viewBox="0 0 162 162" fill="none" xmlns="http://www.w3.org/2000/svg">
<path d="M93.6562 136.688H88.5938V111.881C88.5938 111.21 88.3271 110.566 87.8524 110.091C87.3777 109.617 86.7338 109.35 86.0625 109.35C85.3912 109.35 84.7473 109.617 84.2726 110.091C83.7979 110.566 83.5312 111.21 83.5312 111.881V136.688H17.7188V86.0625H38.7787C39.4501 86.0625 40.0939 85.7958 40.5686 85.3211C41.0433 84.8464 41.31 84.2026 41.31 83.5312C41.31 82.8599 41.0433 82.2161 40.5686 81.7414C40.0939 81.2667 39.4501 81 38.7787 81H15.1875C14.5162 81 13.8723 81.2667 13.3976 81.7414C12.9229 82.2161 12.6562 82.8599 12.6562 83.5312V136.688H7.59375C6.92242 136.688 6.27859 136.954 5.80389 137.429C5.32918 137.904 5.0625 138.547 5.0625 139.219V144.281C5.0625 147.638 6.39592 150.857 8.76943 153.231C11.1429 155.604 14.3621 156.938 17.7188 156.938H83.5312C86.8879 156.938 90.1071 155.604 92.4806 153.231C94.8541 150.857 96.1875 147.638 96.1875 144.281V139.219C96.1875 138.547 95.9208 137.904 95.4461 137.429C94.9714 136.954 94.3276 136.688 93.6562 136.688ZM91.125 144.281C91.125 146.295 90.3249 148.227 88.9008 149.651C87.4767 151.075 85.5452 151.875 83.5312 151.875H78.4688V149.344C78.4688 148.672 78.2021 148.029 77.7274 147.554C77.2527 147.079 76.6088 146.812 75.9375 146.812C75.2662 146.812 74.6223 147.079 74.1476 147.554C73.6729 148.029 73.4062 148.672 73.4062 149.344V151.875H27.8438V149.344C27.8438 148.672 27.5771 148.029 27.1024 147.554C26.6277 147.079 25.9838 146.812 25.3125 146.812C24.6412 146.812 23.9973 147.079 23.5226 147.554C23.0479 148.029 22.7812 148.672 22.7812 149.344V151.875H17.7188C15.7048 151.875 13.7733 151.075 12.3492 149.651C10.9251 148.227 10.125 146.295 10.125 144.281V141.75H91.125V144.281Z" fill="white"/>
<path d="M136.688 20.25H141.75C142.421 20.25 143.065 19.9833 143.54 19.5086C144.015 19.0339 144.281 18.3901 144.281 17.7188C144.281 17.0474 144.015 16.4036 143.54 15.9289C143.065 15.4542 142.421 15.1875 141.75 15.1875H136.688C134.674 15.1875 132.742 15.9876 131.318 17.4117C129.894 18.8358 129.094 20.7673 129.094 22.7812V25.3125H126.562C125.891 25.3125 125.247 25.5792 124.773 26.0539C124.298 26.5286 124.031 27.1724 124.031 27.8438C124.031 28.5151 124.298 29.1589 124.773 29.6336C125.247 30.1083 125.891 30.375 126.562 30.375H129.094V37.9688C129.094 38.6401 129.36 39.2839 129.835 39.7586C130.31 40.2333 130.954 40.5 131.625 40.5C132.296 40.5 132.94 40.2333 133.415 39.7586C133.89 39.2839 134.156 38.6401 134.156 37.9688V30.375H136.688C137.359 30.375 138.003 30.1083 138.477 29.6336C138.952 29.1589 139.219 28.5151 139.219 27.8438C139.219 27.1724 138.952 26.5286 138.477 26.0539C138.003 25.5792 137.359 25.3125 136.688 25.3125H134.156V22.7812C134.156 22.1099 134.423 21.4661 134.898 20.9914C135.372 20.5167 136.016 20.25 136.688 20.25Z" fill="#F9B93E"/>
<path d="M149.344 5.0625H118.969C116.955 5.0625 115.023 5.86255 113.599 7.28666C112.175 8.71076 111.375 10.6423 111.375 12.6562V17.7188C111.375 18.3901 111.642 19.0339 112.116 19.5086C112.591 19.9833 113.235 20.25 113.906 20.25C114.578 20.25 115.221 19.9833 115.696 19.5086C116.171 19.0339 116.438 18.3901 116.438 17.7188V12.6562C116.438 11.9849 116.704 11.3411 117.179 10.8664C117.654 10.3917 118.297 10.125 118.969 10.125H149.344C150.015 10.125 150.659 10.3917 151.134 10.8664C151.608 11.3411 151.875 11.9849 151.875 12.6562V43.0312C151.875 43.7026 151.608 44.3464 151.134 44.8211C150.659 45.2958 150.015 45.5625 149.344 45.5625H118.969C118.297 45.5625 117.654 45.2958 117.179 44.8211C116.704 44.3464 116.438 43.7026 116.438 43.0312V27.8438C116.438 27.1724 116.171 26.5286 115.696 26.0539C115.221 25.5792 114.578 25.3125 113.906 25.3125C113.235 25.3125 112.591 25.5792 112.116 26.0539C111.642 26.5286 111.375 27.1724 111.375 27.8438V43.0312C111.375 45.0452 112.175 46.9767 113.599 48.4008C115.023 49.8249 116.955 50.625 118.969 50.625H149.344C151.358 50.625 153.289 49.8249 154.713 48.4008C156.137 46.9767 156.938 45.0452 156.938 43.0312V12.6562C156.938 10.6423 156.137 8.71076 154.713 7.28666C153.289 5.86255 151.358 5.0625 149.344 5.0625Z" fill="white"/>
<path d="M93.6563 58.2188C94.0492 58.2188 94.4368 58.1273 94.7883 57.9515C95.1397 57.7758 95.4455 57.5206 95.6813 57.2063L103.275 47.0813C103.678 46.5442 103.851 45.8691 103.756 45.2045C103.661 44.54 103.306 43.9403 102.769 43.5375C102.232 43.1347 101.557 42.9618 100.892 43.0567C100.227 43.1516 99.6278 43.5067 99.225 44.0438L91.6313 54.1688C91.2285 54.7058 91.0555 55.3809 91.1505 56.0455C91.2454 56.7101 91.6004 57.3097 92.1375 57.7125C92.5757 58.0411 93.1086 58.2188 93.6563 58.2188Z" fill="#F9B93E"/>
<path d="M99.225 67.3313C99.4608 67.6456 99.7665 67.9008 100.118 68.0765C100.469 68.2523 100.857 68.3438 101.25 68.3438C101.798 68.3438 102.331 68.1661 102.769 67.8375L112.894 60.2438C113.431 59.841 113.786 59.2413 113.881 58.5767C113.976 57.9122 113.803 57.2371 113.4 56.7C112.997 56.1629 112.398 55.8079 111.733 55.713C111.068 55.618 110.393 55.791 109.856 56.1938L99.7313 63.7875C99.1942 64.1903 98.8391 64.79 98.7442 65.4545C98.6493 66.1191 98.8222 66.7942 99.225 67.3313Z" fill="white"/>
<path d="M124.031 72.9C123.971 72.5644 123.844 72.2445 123.657 71.9593C123.47 71.6741 123.228 71.4297 122.944 71.2406C122.66 71.0514 122.341 70.9216 122.006 70.8588C121.671 70.7959 121.327 70.8015 120.994 70.875L108.338 73.4063C108.005 73.4395 107.683 73.5379 107.388 73.6958C107.094 73.8537 106.833 74.0681 106.622 74.3266C106.195 74.8488 105.992 75.5193 106.06 76.1906C106.127 76.862 106.458 77.4791 106.98 77.9064C107.502 78.3336 108.173 78.5359 108.844 78.4688H109.35L122.006 75.9375C122.342 75.8773 122.662 75.75 122.947 75.5631C123.232 75.3763 123.477 75.1337 123.666 74.8501C123.855 74.5664 123.985 74.2474 124.048 73.9123C124.11 73.5772 124.105 73.2329 124.031 72.9Z" fill="#F9B93E"/>
<path d="M7.59375 73.4062H37.9688C38.6401 73.4062 39.2839 73.1396 39.7586 72.6649C40.2333 72.1902 40.5 71.5463 40.5 70.875V30.375C40.5 29.7037 40.2333 29.0598 39.7586 28.5851C39.2839 28.1104 38.6401 27.8438 37.9688 27.8438H7.59375C6.92242 27.8438 6.27859 28.1104 5.80389 28.5851C5.32918 29.0598 5.0625 29.7037 5.0625 30.375V70.875C5.0625 71.5463 5.32918 72.1902 5.80389 72.6649C6.27859 73.1396 6.92242 73.4062 7.59375 73.4062ZM10.125 32.9062H35.4375V68.3438H10.125V32.9062Z" fill="white"/>
<path d="M27.8438 37.9688H22.7812C22.1099 37.9688 21.4661 38.2354 20.9914 38.7101C20.5167 39.1848 20.25 39.8287 20.25 40.5C20.25 41.1713 20.5167 41.8152 20.9914 42.2899C21.4661 42.7646 22.1099 43.0312 22.7812 43.0312H27.8438C28.5151 43.0312 29.1589 42.7646 29.6336 42.2899C30.1083 41.8152 30.375 41.1713 30.375 40.5C30.375 39.8287 30.1083 39.1848 29.6336 38.7101C29.1589 38.2354 28.5151 37.9688 27.8438 37.9688Z" fill="white"/>
<path d="M27.8438 48.0938H17.7188C17.0474 48.0938 16.4036 48.3604 15.9289 48.8351C15.4542 49.3098 15.1875 49.9537 15.1875 50.625C15.1875 51.2963 15.4542 51.9402 15.9289 52.4149C16.4036 52.8896 17.0474 53.1562 17.7188 53.1562H27.8438C28.5151 53.1562 29.1589 52.8896 29.6336 52.4149C30.1083 51.9402 30.375 51.2963 30.375 50.625C30.375 49.9537 30.1083 49.3098 29.6336 48.8351C29.1589 48.3604 28.5151 48.0938 27.8438 48.0938Z" fill="#F9B93E"/>
<path d="M27.8438 58.2188H17.7188C17.0474 58.2188 16.4036 58.4854 15.9289 58.9601C15.4542 59.4348 15.1875 60.0787 15.1875 60.75C15.1875 61.4213 15.4542 62.0652 15.9289 62.5399C16.4036 63.0146 17.0474 63.2812 17.7188 63.2812H27.8438C28.5151 63.2812 29.1589 63.0146 29.6336 62.5399C30.1083 62.0652 30.375 61.4213 30.375 60.75C30.375 60.0787 30.1083 59.4348 29.6336 58.9601C29.1589 58.4854 28.5151 58.2188 27.8438 58.2188Z" fill="white"/>
<path d="M91.4287 72.6469C91.2625 72.3577 91.041 72.1041 90.7768 71.9005C90.5125 71.6969 90.2108 71.5474 89.8888 71.4604C89.5668 71.3734 89.2308 71.3507 88.9 71.3936C88.5692 71.4365 88.2501 71.5441 87.9609 71.7103C87.6717 71.8765 87.4181 72.0981 87.2145 72.3623C87.0109 72.6265 86.8614 72.9282 86.7744 73.2503C86.6875 73.5723 86.6648 73.9083 86.7077 74.239C86.7505 74.5698 86.8582 74.8889 87.0244 75.1781L98.1872 94.4916L57.6872 109.679C57.6872 109.679 57.6872 109.679 57.51 109.679H57.3075L50.7262 113.476L46.3472 116.007C45.7707 116.34 45.1341 116.557 44.4739 116.644C43.8136 116.73 43.1428 116.686 42.4997 116.513C41.2077 116.164 40.1065 115.318 39.4369 114.159L34.3744 105.401C33.7788 104.255 33.6436 102.925 33.9965 101.683C34.3494 100.441 35.1637 99.3803 36.2728 98.7188L45.0309 93.6563L51.359 104.617C51.5821 105.003 51.9032 105.323 52.2899 105.546C52.6766 105.768 53.1152 105.884 53.5612 105.882C54.0064 105.884 54.4442 105.768 54.8304 105.547C55.2166 105.325 55.5376 105.006 55.7609 104.621C55.9843 104.236 56.1021 103.799 56.1026 103.353C56.103 102.908 55.986 102.471 55.7634 102.085L49.2328 90.7959L81 64.5975L82.0378 66.3947C82.204 66.6839 82.4255 66.9375 82.6898 67.1411C82.954 67.3447 83.2557 67.4942 83.5777 67.5812C83.8997 67.6682 84.2357 67.6908 84.5665 67.648C84.8973 67.6051 85.2164 67.4975 85.5056 67.3313C85.7948 67.1651 86.0484 66.9435 86.252 66.6793C86.4556 66.4151 86.6051 66.1133 86.6921 65.7913C86.7791 65.4693 86.8018 65.1333 86.7589 64.8025C86.716 64.4717 86.6084 64.1526 86.4422 63.8634L83.9109 59.4844C83.7254 59.1672 83.4731 58.8943 83.1715 58.6845C82.8699 58.4747 82.5262 58.333 82.1644 58.2694C81.8006 58.2008 81.4262 58.2129 81.0675 58.3047C80.7089 58.3966 80.3748 58.566 80.0887 58.8009L44.6512 88.0116L33.8681 94.2384C31.933 95.3656 30.4262 97.1024 29.5834 99.1773C28.7407 101.252 28.6096 103.548 29.2106 105.705L26.6794 107.148C25.3751 107.897 24.3227 109.016 23.6555 110.364C22.9882 111.712 22.7362 113.227 22.9314 114.719C23.1267 116.21 23.7603 117.61 24.752 118.74C25.7437 119.871 27.0488 120.682 28.5019 121.07C29.146 121.24 29.8099 121.325 30.4762 121.323C31.8078 121.317 33.1156 120.969 34.2731 120.31L36.8044 118.867C38.0203 120.124 39.5495 121.032 41.234 121.5C42.099 121.742 42.9937 121.861 43.8919 121.854C45.6711 121.858 47.419 121.387 48.9544 120.487L51.1565 119.222L56.219 128.005C57.2251 129.745 58.8797 131.015 60.8202 131.536C62.7607 132.058 64.8289 131.79 66.5719 130.79C67.4365 130.291 68.1945 129.628 68.8025 128.836C69.4105 128.045 69.8565 127.142 70.1151 126.178C70.3737 125.214 70.4398 124.209 70.3096 123.219C70.1794 122.23 69.8554 121.276 69.3562 120.412L64.7494 112.388L102.718 98.1366C103.062 98.0071 103.374 97.8042 103.632 97.5419C103.89 97.2796 104.088 96.9643 104.212 96.6178C104.335 96.2755 104.383 95.9106 104.352 95.548C104.322 95.1855 104.213 94.8338 104.034 94.5169L91.4287 72.6469ZM31.6406 115.906C31.3524 116.073 31.0341 116.181 30.7039 116.224C30.3738 116.268 30.0384 116.245 29.7169 116.159C29.0683 115.991 28.5131 115.572 28.1728 114.995C28.0062 114.706 27.898 114.388 27.8546 114.058C27.8111 113.728 27.8333 113.392 27.9197 113.071C28.0061 112.748 28.1557 112.445 28.3599 112.18C28.5641 111.915 28.8189 111.693 29.1094 111.527L31.3115 110.261L33.8428 114.64L31.6406 115.906ZM64.9519 122.993C65.1185 123.282 65.2266 123.6 65.2701 123.93C65.3135 124.26 65.2914 124.596 65.205 124.917C65.0245 125.561 64.5968 126.107 64.0153 126.436C63.4371 126.768 62.7513 126.859 62.1067 126.688C61.4621 126.517 60.9109 126.099 60.5728 125.525L55.5103 116.741L59.7122 114.337H59.9147L64.9519 122.993Z" fill="white"/>
</svg>
