<svg width="208" height="208" viewBox="0 0 208 208" fill="none" xmlns="http://www.w3.org/2000/svg">
<path d="M130 146.25V152.75H120.25V162.5C120.25 167.875 124.624 172.25 130 172.25H136.5C138.294 172.25 139.75 173.709 139.75 175.5V178.75H130C128.206 178.75 126.75 177.291 126.75 175.5H120.25C120.25 180.875 124.624 185.25 130 185.25V191.75H136.5V185.25H146.25V175.5C146.25 170.125 141.875 165.75 136.5 165.75H130C128.206 165.75 126.75 164.291 126.75 162.5V159.25H136.5C138.294 159.25 139.75 160.709 139.75 162.5H146.25C146.25 157.125 141.875 152.75 136.5 152.75V146.25H130Z" fill="#F9B93E"/>
<path d="M94.9004 66.9761L100.1 63.0761L122.038 92.3261L116.838 96.2261L94.9004 66.9761Z" fill="#F9B93E"/>
<path d="M121.713 102.733L126.913 98.8327L131.788 105.333L126.588 109.233L121.713 102.733Z" fill="white"/>
<path d="M198.25 35.75H191.584C189.937 17.5565 174.616 3.25 156 3.25C147.592 3.25 139.63 6.13925 133.24 11.4335C127.056 6.3245 119.129 3.25 110.5 3.25C91.884 3.25 76.5635 17.5565 74.9157 35.75H68.25C64.6652 35.75 61.75 38.6652 61.75 42.25V48.75C61.75 52.3348 64.6652 55.25 68.25 55.25H69.875L117 118.082V137.195C105.443 143.127 97.5 155.139 97.5 169C97.5 181.09 103.548 191.776 112.759 198.25H9.75V48.75H3.25V204.75H133.25C152.961 204.75 169 188.711 169 169C169 155.142 161.057 143.127 149.5 137.195V118.082L196.625 55.25H198.25C201.835 55.25 204.75 52.3348 204.75 48.75V42.25C204.75 38.6652 201.835 35.75 198.25 35.75ZM185.058 35.75H178.49C176.904 24.7423 167.437 16.25 156 16.25C150.657 16.25 145.61 18.096 141.586 21.4077C140.51 19.513 139.275 17.719 137.881 16.0583C143.026 11.9795 149.337 9.75 156 9.75C171.031 9.75 183.437 21.1478 185.058 35.75ZM146.084 35.75C145.831 32.942 145.239 30.238 144.372 27.6542C147.423 24.5212 151.57 22.75 156 22.75C163.846 22.75 170.41 28.3433 171.922 35.75H146.084ZM110.5 9.75C125.531 9.75 137.937 21.1478 139.558 35.75H132.99C131.404 24.7423 121.937 16.25 110.5 16.25C99.0632 16.25 89.596 24.7423 88.01 35.75H81.4417C83.0635 21.1478 95.4688 9.75 110.5 9.75ZM126.422 35.75H94.5782C96.0895 28.3433 102.655 22.75 110.5 22.75C118.345 22.75 124.91 28.3433 126.422 35.75ZM162.5 169C162.5 185.126 149.38 198.25 133.25 198.25C117.12 198.25 104 185.126 104 169C104 152.874 117.12 139.75 133.25 139.75C149.38 139.75 162.5 152.874 162.5 169ZM133.25 133.25C129.867 133.25 126.604 133.754 123.5 134.634V120.25H143V134.634C139.896 133.754 136.633 133.25 133.25 133.25ZM144.625 113.75H121.875L78 55.25H188.5L144.625 113.75ZM68.25 48.75V42.25H198.25L198.253 48.75H68.25Z" fill="white"/>
<path d="M22.75 191.75H29.25V178.75H35.75V152.75H29.25V120.25H22.75V152.75H16.25V178.75H22.75V191.75ZM22.75 159.25H29.25V172.25H22.75V159.25Z" fill="white"/>
<path d="M48.75 87.75V100.75H42.25V126.75H48.75V159.25H55.25V126.75H61.75V100.75H55.25V87.75H48.75ZM55.25 120.25H48.75V107.25H55.25V120.25Z" fill="#F9B93E"/>
<path d="M74.75 104V120.25H68.25V162.5H74.75V175.5H81.25V162.5H87.75V120.25H81.25V104H74.75ZM81.25 156H74.75V126.75H81.25V156Z" fill="white"/>
<path d="M16.25 48.75H48.75V55.25H16.25V48.75Z" fill="#F9B93E"/>
<path d="M16.25 61.75H48.75V68.25H16.25V61.75Z" fill="white"/>
<path d="M16.25 74.75H22.75V81.25H16.25V74.75Z" fill="white"/>
<path d="M42.25 74.75H48.75V81.25H42.25V74.75Z" fill="white"/>
<path d="M29.25 74.75H35.75V81.25H29.25V74.75Z" fill="white"/>
</svg>
