<svg width="98" height="98" viewBox="0 0 98 98" fill="none" xmlns="http://www.w3.org/2000/svg">
<g clip-path="url(#clip0)">
<path d="M43.3592 77.0123C42.5593 77.0123 41.8268 76.4938 41.5571 75.7423C41.291 75.001 41.5197 74.1483 42.1209 73.6395C42.7509 73.1065 43.6681 73.0408 44.3692 73.4742C45.0378 73.8874 45.3902 74.7011 45.2349 75.4717C45.0571 76.3544 44.2622 77.0123 43.3592 77.0123Z" fill="#F9B93E"/>
<path d="M75.6242 74.5891C72.3636 74.5891 69.7109 71.9364 69.7109 68.6758V67.1507H68.1858C64.9252 67.1507 62.2725 64.498 62.2725 61.2375C62.2725 57.9769 64.925 55.3242 68.1858 55.3242H69.7109V53.7991C69.7109 50.5385 72.3634 47.8858 75.6242 47.8858C78.8848 47.8858 81.5373 50.5385 81.5373 53.7991V55.3242H83.0624C86.323 55.3242 88.9757 57.9769 88.9757 61.2375C88.9757 64.4981 86.3232 67.1507 83.0624 67.1507H81.5373V68.6758C81.5373 71.9364 78.8848 74.5891 75.6242 74.5891ZM68.1858 59.1524C67.036 59.1524 66.1006 60.0878 66.1006 61.2375C66.1006 62.3873 67.036 63.3225 68.1858 63.3225H71.625C72.6819 63.3225 73.539 64.1795 73.539 65.2366V68.6758C73.539 69.8256 74.4744 70.761 75.6242 70.761C76.774 70.761 77.7092 69.8256 77.7092 68.6758V65.2366C77.7092 64.1795 78.5663 63.3225 79.6232 63.3225H83.0624C84.2122 63.3225 85.1476 62.3871 85.1476 61.2375C85.1476 60.0878 84.2122 59.1524 83.0624 59.1524H79.6232C78.5663 59.1524 77.7092 58.2954 77.7092 57.2383V53.7991C77.7092 52.6493 76.7738 51.7139 75.6242 51.7139C74.4744 51.7139 73.539 52.6493 73.539 53.7991V57.2383C73.539 58.2954 72.6819 59.1524 71.625 59.1524H68.1858Z" fill="#F9B93E"/>
<path d="M75.624 38.8292C70.6947 38.8292 66.1326 40.4338 62.431 43.1487C62.425 43.1487 62.4191 43.1485 62.413 43.1485H58.5037C62.0621 40.154 64.327 35.6693 64.327 30.6656C64.327 21.6716 57.0098 14.3543 48.0158 14.3543C40.9596 14.3543 34.9355 18.8581 32.6673 25.142C30.3685 19.9474 25.1649 16.3137 19.1286 16.3137C10.9699 16.3137 4.33229 22.9513 4.33229 31.1098C4.33229 35.4553 6.21534 39.3692 9.20817 42.0785C4.12098 42.1356 0 46.2914 0 51.3918V69.356C0 70.4132 0.856926 71.2701 1.91406 71.2701H26.8629V75.0982C26.8629 76.1554 27.72 77.0123 28.777 77.0123H34.6711C35.7281 77.0123 36.5852 76.1554 36.5852 75.0982C36.5852 74.0411 35.7281 73.1842 34.6711 73.1842H30.691V53.3325C30.691 49.8278 33.5422 46.9766 37.0469 46.9766H58.3768C55.1746 50.854 53.2481 55.8246 53.2481 61.2375C53.2481 65.6261 54.5144 69.7239 56.7003 73.1842H51.9769C50.92 73.1842 50.0629 74.0411 50.0629 75.0982C50.0629 76.1554 50.92 77.0123 51.9769 77.0123H59.7469C63.8036 81.1067 69.4232 83.6459 75.6242 83.6459C87.9625 83.6459 98.0002 73.5936 98.0002 61.2375C98 48.8815 87.9623 38.8292 75.624 38.8292ZM48.0158 18.1824C54.8989 18.1824 60.4989 23.7822 60.4989 30.6656C60.4989 37.5487 54.8989 43.1485 48.0158 43.1485C41.1326 43.1485 35.5327 37.5487 35.5327 30.6656C35.5328 23.7822 41.1328 18.1824 48.0158 18.1824ZM8.16041 31.11C8.16041 25.0621 13.0807 20.1421 19.1286 20.1421C25.1764 20.1421 30.0967 25.0623 30.0967 31.11C30.0967 37.1577 25.1764 42.0782 19.1286 42.0782C13.0807 42.0782 8.16041 37.1577 8.16041 31.11ZM3.82812 67.442V51.3918C3.82812 48.367 6.28884 45.9061 9.31364 45.9061H28.9433C29.3231 45.9061 29.6756 45.9308 30.0054 45.9815C28.0697 47.8364 26.8629 50.4461 26.8629 53.3323V67.4418H3.82812V67.442ZM37.0469 43.1485C36.0246 43.1485 35.0371 43.2999 34.1053 43.5815C32.6738 42.5888 31.0107 42.0956 29.049 42.0785C30.691 40.5919 31.9989 38.7427 32.8451 36.6587C33.8502 39.1941 35.4735 41.4197 37.5279 43.1485H37.0469ZM75.624 79.8176C65.3966 79.8176 57.0762 71.4826 57.0762 61.2374C57.0762 50.9921 65.3968 42.6574 75.624 42.6574C85.8512 42.6574 94.1719 50.9923 94.1719 61.2375C94.1719 71.4828 85.8512 79.8176 75.624 79.8176Z" fill="white"/>
</g>
<defs>
<clipPath id="clip0">
<rect width="98" height="98" fill="white"/>
</clipPath>
</defs>
</svg>
