<svg width="127" height="127" viewBox="0 0 127 127" fill="none" xmlns="http://www.w3.org/2000/svg">
<path d="M69.4531 15.875C69.4531 12.5928 66.7822 9.92188 63.5 9.92188C60.2178 9.92188 57.5469 12.5928 57.5469 15.875C57.5469 19.1572 60.2178 21.8281 63.5 21.8281C66.7822 21.8281 69.4531 19.1572 69.4531 15.875ZM61.5156 15.875C61.5156 14.7796 62.4066 13.8906 63.5 13.8906C64.5934 13.8906 65.4844 14.7796 65.4844 15.875C65.4844 16.9704 64.5934 17.8594 63.5 17.8594C62.4066 17.8594 61.5156 16.9704 61.5156 15.875Z" fill="#F9B93E"/>
<path d="M12.8983 82.1532C10.0547 83.7962 9.07841 87.4435 10.7175 90.2871C11.8188 92.1941 13.8231 93.2617 15.8848 93.2617C16.8929 93.2617 17.9148 93.0057 18.8515 92.4679C21.6931 90.8249 22.6694 87.1776 21.0303 84.334C19.3872 81.4924 15.738 80.5141 12.8983 82.1532ZM16.8671 89.029C15.9166 89.5787 14.7021 89.2493 14.1564 88.3027C13.6087 87.3542 13.9362 86.1378 14.8827 85.5921C15.8293 85.0444 17.0457 85.3738 17.5914 86.3184C18.1391 87.2669 17.8117 88.4833 16.8671 89.029Z" fill="#F9B93E"/>
<path d="M114.101 82.1531C111.26 80.516 107.611 81.4943 105.969 84.3339C104.328 87.1775 105.307 90.8248 108.148 92.4679H108.15C109.085 93.0056 110.107 93.2616 111.115 93.2616C113.175 93.2616 115.181 92.194 116.282 90.287C117.923 87.4434 116.945 83.7981 114.101 82.1531ZM112.845 88.3027C112.3 89.2512 111.081 89.5786 110.137 89.0289C109.188 88.4832 108.863 87.2648 109.41 86.3183C109.956 85.3698 111.172 85.0403 112.119 85.592C113.066 86.1377 113.393 87.3541 112.845 88.3027Z" fill="#F9B93E"/>
<path d="M118.072 75.2812C114.86 73.4258 111.119 72.9278 107.531 73.8942C104.323 74.7534 101.594 76.6921 99.7228 79.3929L85.3282 72.1936V54.8045L107.319 43.8071C108.637 45.4898 110.425 46.7221 112.526 47.2857C113.381 47.5159 114.248 47.629 115.11 47.629C116.828 47.629 118.525 47.1765 120.055 46.2955C122.351 44.9699 123.992 42.8307 124.678 40.2709C125.365 37.7111 125.012 35.0361 123.686 32.7422C122.361 30.4482 120.221 28.8072 117.662 28.1206C115.104 27.428 112.429 27.7872 110.133 29.1108C107.837 30.4363 106.196 32.5755 105.509 35.1353C105.051 36.8439 105.097 38.5941 105.545 40.257L85.3282 50.3674V37.7031H65.4844V29.6069C72.2055 28.6385 77.3907 22.858 77.3907 15.875C77.3907 8.2173 71.1597 1.98438 63.5 1.98438C55.8403 1.98438 49.6094 8.2173 49.6094 15.875C49.6094 22.858 54.7946 28.6385 61.5156 29.6069V37.7031H41.6719V50.3654L21.4551 40.257C21.9036 38.5941 21.9492 36.8439 21.4908 35.1353C20.8042 32.5755 19.1631 30.4363 16.8672 29.1108C14.5713 27.7872 11.8963 27.428 9.33849 28.1206C6.77864 28.8072 4.63949 30.4482 3.31392 32.7422C1.98836 35.0361 1.63514 37.7111 2.32174 40.2709C3.00833 42.8307 4.64941 44.9699 6.94533 46.2955C8.47528 47.1765 10.1699 47.629 11.8904 47.629C12.7536 47.629 13.6208 47.5159 14.4741 47.2857C16.5755 46.7221 18.3634 45.4898 19.6791 43.8071L41.6719 54.8025V72.1916L27.2753 79.3889C25.406 76.6882 22.6755 74.7494 19.4667 73.8902C15.883 72.9278 12.1404 73.4219 8.92574 75.2773C2.29396 79.1091 0.0119243 87.6201 3.83978 94.2538C6.40955 98.7048 11.0867 101.197 15.8929 101.197C18.2483 101.197 20.6336 100.598 22.8144 99.3378C28.6147 95.9882 31.0872 89.0568 29.0552 82.935L41.6719 76.6306V89.2969H61.5156V105.372C56.9933 106.295 53.5781 110.301 53.5781 115.094C53.5781 120.565 58.0291 125.016 63.5 125.016C68.9709 125.016 73.4219 120.565 73.4219 115.094C73.4219 110.303 70.0068 106.295 65.4844 105.372V89.2969H85.3282V76.6306L97.9408 82.937C95.9088 89.0607 98.3814 95.9902 104.182 99.3398C106.365 100.6 108.75 101.199 111.103 101.199C115.907 101.199 120.587 98.7068 123.156 94.2558C126.986 87.6221 124.704 79.1111 118.072 75.2812ZM109.343 36.1632C109.756 34.6293 110.74 33.3435 112.117 32.5497C113.052 32.01 114.074 31.754 115.084 31.754C117.144 31.754 119.148 32.8216 120.249 34.7285C121.043 36.1057 121.255 37.7091 120.844 39.245C120.432 40.7789 119.448 42.0648 118.07 42.8585C115.229 44.5016 111.579 43.5233 109.938 40.6797C109.143 39.3025 108.932 37.6992 109.343 36.1632ZM53.5781 15.875C53.5781 10.4041 58.0291 5.95312 63.5 5.95312C68.9709 5.95312 73.4219 10.4041 73.4219 15.875C73.4219 21.3459 68.9709 25.7969 63.5 25.7969C58.0291 25.7969 53.5781 21.3459 53.5781 15.875ZM17.0617 40.6797C15.4206 43.5233 11.7713 44.5016 8.92971 42.8585C7.55255 42.0648 6.5683 40.7789 6.15555 39.245C5.74478 37.7091 5.95513 36.1057 6.75086 34.7285C7.85219 32.8216 9.85641 31.754 11.9162 31.754C12.9262 31.754 13.9482 32.01 14.8828 32.5497C16.26 33.3435 17.2442 34.6293 17.657 36.1632C18.0678 37.6992 17.8574 39.3025 17.0617 40.6797ZM20.834 95.9029C16.0933 98.6373 10.0152 97.0101 7.28069 92.2715C4.54622 87.5328 6.17539 81.4546 10.9121 78.7182C12.4421 77.8351 14.1367 77.3827 15.8572 77.3827C16.7204 77.3827 17.5875 77.4978 18.4408 77.726C21.0007 78.4126 23.1398 80.0537 24.4654 82.3496C27.2018 87.0883 25.5707 93.1664 20.834 95.9029ZM69.4532 115.094C69.4532 118.376 66.7822 121.047 63.5 121.047C60.2179 121.047 57.5469 118.376 57.5469 115.094C57.5469 111.812 60.2179 109.141 63.5 109.141C66.7822 109.141 69.4532 111.812 69.4532 115.094ZM81.3594 85.3281H45.6406V41.6719H81.3594V85.3281ZM119.719 92.2715C116.987 97.0121 110.903 98.6393 106.166 95.9029C101.429 93.1664 99.8002 87.0883 102.535 82.3496C103.86 80.0537 105.999 78.4126 108.559 77.726C111.117 77.0414 113.792 77.3906 116.088 78.7182C120.825 81.4546 122.454 87.5328 119.719 92.2715Z" fill="white"/>
<path d="M77.3906 61.5156H65.4844V65.4844H57.5469V69.4531H49.6094V81.3594H77.3906V61.5156ZM53.5781 73.4219H57.5469V77.3906H53.5781V73.4219ZM61.5156 77.3906V69.4531H65.4844V77.3906H61.5156ZM73.4219 77.3906H69.4531V65.4844H73.4219V77.3906Z" fill="white"/>
<path d="M49.6094 45.6406H53.5781V49.6094H49.6094V45.6406Z" fill="white"/>
<path d="M57.5469 45.6406H77.3906V49.6094H57.5469V45.6406Z" fill="white"/>
<path d="M49.6094 53.5781H77.3906V57.5469H49.6094V53.5781Z" fill="#F9B93E"/>
</svg>
