<svg width="134" height="134" viewBox="0 0 134 134" fill="none" xmlns="http://www.w3.org/2000/svg">
<g clip-path="url(#clip0)">
<path d="M129.616 70.7204V37.503C129.616 21.7562 116.805 8.94507 101.058 8.94507C87.9045 8.94507 76.8019 17.8843 73.5006 30.0061C68.6266 29.2853 63.5626 29.3824 58.7362 30.3018C57.6807 30.5028 56.988 31.5215 57.189 32.5772C57.3852 33.6393 58.4345 34.3286 59.4643 34.1245C63.7997 33.299 68.351 33.2012 72.7358 33.8277C72.5806 35.0314 72.5 36.258 72.5 37.5033V49.6858C72.3121 49.6777 62.0656 49.6714 62.0656 49.6714C55.6885 49.6714 50.356 54.2245 49.145 60.2503C48.1939 59.8423 47.2201 59.4885 46.2295 59.1901V56.4834C48.1379 54.3441 49.5489 51.7921 50.3382 48.9922C52.2438 48.0304 54.1737 45.9254 55.3161 43.4998C56.9186 40.1995 56.3931 36.8563 53.1111 35.2842C52.4275 34.9623 51.7353 34.7796 51.0548 34.7351V26.4925C51.0548 19.2254 45.1426 13.3132 37.8754 13.3132H28.0073C20.7402 13.3132 14.8279 19.2254 14.8279 26.4925V34.7351C14.1472 34.7793 13.455 34.962 12.7714 35.2842C9.48914 36.8574 8.96413 40.1985 10.5664 43.4998C11.7085 45.9251 13.6379 48.0299 15.5443 48.992C16.3339 51.7924 17.7448 54.3444 19.6532 56.4837V59.1904C8.03294 62.6804 0 73.4145 0 85.6399C0 87.1846 1.25677 88.4414 2.80144 88.4414H25.7173C28.3355 95.6507 32.7834 102.027 38.6635 106.994C35.7369 111.408 34.0583 116.677 34.0583 122.253C34.0583 123.798 35.315 125.055 36.8597 125.055H97.1403C98.685 125.055 99.9418 123.798 99.9418 122.253C99.9418 110.029 91.9083 99.2938 80.288 95.8038V92.8411C81.4676 91.5192 82.4582 90.0405 83.2274 88.4411H104.123C102.634 92.13 100.603 95.5656 98.0673 98.6832C97.3895 99.5168 97.5154 100.742 98.3489 101.421C98.7096 101.714 99.1441 101.857 99.5754 101.857C100.141 101.857 100.702 101.612 101.086 101.139C104.2 97.3115 106.616 93.045 108.287 88.4414H131.198C132.743 88.4414 133.999 87.1846 133.999 85.6399C134 80.2093 132.407 75.0657 129.616 70.7204ZM76.3918 37.503C76.3918 23.902 87.457 12.8366 101.058 12.8366C114.66 12.8366 125.725 23.9018 125.725 37.503V65.9354C122.6 62.861 118.729 60.5094 114.347 59.1925V55.4844C117.422 52.0326 119.172 47.5402 119.172 42.8V33.5597C119.172 29.1885 115.615 25.632 111.244 25.632H90.7798C86.4083 25.632 82.8518 29.1885 82.8518 33.5597V42.8C82.8518 47.5884 84.6372 52.1242 87.7705 55.5896V59.1883C86.7804 59.4864 85.8063 59.8415 84.8547 60.2498C83.9408 55.7022 80.679 51.9947 76.392 50.449V37.503H76.3918ZM108.564 55.4059L103.852 58.5732C102.127 59.7332 99.8968 59.7332 98.171 58.5732L93.459 55.4059C89.2537 52.5793 86.743 47.8671 86.743 42.8V33.5597C86.743 31.3341 88.5539 29.5232 90.7798 29.5232H111.244C113.469 29.5232 115.281 31.3338 115.281 33.5597V42.8C115.28 47.8668 112.77 52.5793 108.564 55.4059ZM91.6618 58.8865L96.0003 61.8028C97.5224 62.8259 99.2671 63.3373 101.011 63.3373C102.756 63.3373 104.501 62.8259 106.023 61.8028L110.455 58.8237V61.8887C110.455 67.0699 106.24 71.2852 101.058 71.2852C95.8767 71.2852 91.6615 67.0699 91.6615 61.8887V58.8865H91.6618ZM82.3849 81.9874C81.5908 82.2588 80.9975 82.9123 80.7973 83.7372C79.9051 87.428 77.6784 90.627 74.5278 92.7445L69.8292 95.9024C68.1107 97.0574 65.8895 97.0574 64.1706 95.9024L59.4722 92.7445C56.3219 90.627 54.0954 87.4283 53.2025 83.7359C53.0025 82.9118 52.4087 82.2583 51.6154 81.9876C50.6277 81.65 49.0291 80.1548 48.1453 78.1995C47.0761 75.8346 48.8862 74.5697 49.7883 75.1534C50.3851 75.5394 51.1472 75.5588 51.7688 75.2167C52.3911 74.8749 52.7779 74.2214 52.7779 73.5114V68.6096C52.7779 66.1063 54.8146 64.0696 57.318 64.0696H76.6818C79.1851 64.0696 81.2218 66.1063 81.2218 68.6096V73.5111C81.2218 74.2209 81.6084 74.8746 82.231 75.2165C82.8531 75.5585 83.6123 75.5342 84.2114 75.1531C85.3928 74.6572 87.2481 75.3719 85.8545 78.1993C84.9403 80.1407 83.3723 81.6498 82.3849 81.9874ZM57.6035 96.177L62.0001 99.1323C63.5186 100.153 65.2596 100.663 67 100.663C68.7407 100.663 70.4817 100.153 72.0001 99.1323L76.3968 96.1772V98.5021C76.3968 103.683 72.1815 107.899 67.0003 107.899C61.819 107.899 57.6035 103.683 57.6035 98.5021V96.177ZM62.0658 53.5629H71.9339C76.5766 53.5629 80.4343 56.987 81.115 61.4422C79.8261 60.6421 78.3073 60.1783 76.6818 60.1783H57.318C55.6924 60.1783 54.1737 60.6419 52.8847 61.4422C53.5655 56.9867 57.4235 53.5629 62.0658 53.5629ZM23.5453 59.8198L27.9419 62.7749C29.4606 63.7958 31.2011 64.3062 32.9418 64.3062C34.6822 64.3059 36.4234 63.7956 37.9416 62.7749L42.3385 59.8195V62.1446C42.3385 67.3259 38.123 71.5411 32.9418 71.5411C27.7605 71.5411 23.5453 67.3259 23.5453 62.1446V59.8198ZM28.0078 17.2049H37.8759C42.5186 17.2049 46.3763 20.629 47.057 25.0842C45.7681 24.2839 44.2491 23.8204 42.6235 23.8204H23.26C21.6345 23.8204 20.1157 24.2839 18.8267 25.0842C19.5075 20.629 23.3655 17.2049 28.0078 17.2049ZM17.5579 45.6302C16.5699 45.2926 15.0017 43.783 14.0875 41.8421C13.6458 40.9038 13.4853 40.1064 13.6355 39.596C13.5806 39.0603 14.8285 37.9901 15.7303 38.7957C16.2601 39.2689 17.0887 39.2005 17.711 38.8593C18.3331 38.5175 18.7202 37.8639 18.7202 37.1536V32.2519C18.7202 29.7486 20.7569 27.7119 23.2603 27.7119H42.6238C45.1271 27.7119 47.1638 29.7486 47.1638 32.2519V37.1536C47.1638 37.8637 47.5506 38.5175 48.173 38.8593C48.7954 39.2005 49.6622 39.3084 50.1537 38.7957C50.8329 38.0872 52.0765 38.8169 52.2485 39.596C52.3631 40.1155 52.2383 40.9038 51.7965 41.8421C50.8823 43.7832 49.3141 45.2926 48.3279 45.6297C47.5328 45.9008 46.9393 46.5548 46.7393 47.3798C45.8471 51.0705 43.6204 54.2693 40.4698 56.3871L35.7712 59.545C34.0528 60.7 31.8318 60.7005 30.1128 59.545L25.4145 56.3871C22.2639 54.2693 20.0372 51.0703 19.1445 47.3793C18.945 46.5551 18.3517 45.9013 17.5579 45.6302ZM19.7045 63.2635C20.2751 70.0682 25.9921 75.4326 32.9418 75.4326C39.8914 75.4326 45.6082 70.069 46.1792 63.2648C47.1044 63.5922 48.0089 63.979 48.8864 64.4192V71.0931C48.2057 71.1373 47.5132 71.32 46.8299 71.6422C44.4265 72.7741 42.5853 75.5268 44.6249 79.858C45.5145 81.7469 46.8822 83.4386 48.3442 84.5504H3.91636C4.35736 74.8786 10.6407 66.4607 19.7045 63.2635ZM29.8838 88.4414H50.7729C51.5421 90.0407 52.5325 91.5192 53.712 92.8411V95.8051C48.7012 97.3108 44.3574 100.166 41.0367 103.908C36.1067 99.7057 32.2958 94.4112 29.8838 88.4414ZM96.0257 121.163H37.9746C38.4167 111.495 44.7118 103.063 53.7822 99.8704C54.4694 106.557 60.1349 111.79 67 111.79C73.8652 111.79 79.5311 106.556 80.2178 99.8693C89.2922 103.061 95.5844 111.486 96.0257 121.163ZM85.6561 84.5499C87.1178 83.4383 88.4855 81.7463 89.3751 79.8572C91.415 75.5263 89.5735 72.7736 87.1702 71.6416C86.4863 71.3197 85.7943 71.137 85.1136 71.0925V64.4185C85.9974 63.9754 86.909 63.587 87.8409 63.2583C88.5287 69.9441 94.1942 75.1767 101.059 75.1767C107.923 75.1767 113.589 69.9441 114.276 63.2583C123.344 66.4515 129.642 74.8877 130.084 84.5499H85.6561Z" fill="white"/>
<path d="M26.2772 40.8744C27.5265 40.8744 28.5392 39.8617 28.5392 38.6124C28.5392 37.3631 27.5265 36.3503 26.2772 36.3503C25.0279 36.3503 24.0151 37.3631 24.0151 38.6124C24.0151 39.8617 25.0279 40.8744 26.2772 40.8744Z" fill="white"/>
<path d="M39.3948 40.8744C40.6441 40.8744 41.6569 39.8617 41.6569 38.6124C41.6569 37.3631 40.6441 36.3503 39.3948 36.3503C38.1456 36.3503 37.1328 37.3631 37.1328 38.6124C37.1328 39.8617 38.1456 40.8744 39.3948 40.8744Z" fill="white"/>
<path d="M27.8615 49.9093C29.0777 51.1218 30.9296 51.8172 32.9422 51.8172C34.9551 51.8172 36.807 51.1218 38.0232 49.909C38.784 49.1503 38.7859 47.9181 38.0271 47.1573C37.2684 46.396 36.0363 46.3947 35.2754 47.1534C34.9182 47.5096 34.0927 47.9257 32.9422 47.9257C31.792 47.9257 30.9662 47.5096 30.609 47.1534C29.8479 46.3949 28.616 46.3965 27.8573 47.1576C27.0986 47.9187 27.1007 49.1506 27.8615 49.9093Z" fill="#F9B93E"/>
<path d="M60.3363 77.2317C61.5855 77.2317 62.5983 76.219 62.5983 74.9697C62.5983 73.7204 61.5855 72.7076 60.3363 72.7076C59.087 72.7076 58.0742 73.7204 58.0742 74.9697C58.0742 76.219 59.087 77.2317 60.3363 77.2317Z" fill="white"/>
<path d="M73.4525 77.2317C74.7018 77.2317 75.7145 76.219 75.7145 74.9697C75.7145 73.7204 74.7018 72.7076 73.4525 72.7076C72.2032 72.7076 71.1904 73.7204 71.1904 74.9697C71.1904 76.219 72.2032 77.2317 73.4525 77.2317Z" fill="white"/>
<path d="M69.3331 83.5111C68.9756 83.8673 68.1501 84.2835 66.9998 84.2835C65.8493 84.2835 65.0239 83.8676 64.6666 83.5111C63.9058 82.7527 62.6739 82.7543 61.9149 83.5153C61.1562 84.2764 61.1583 85.5083 61.9191 86.267C63.135 87.4793 64.9872 88.1747 66.9998 88.1747C69.0125 88.1747 70.8641 87.4793 72.0803 86.267C72.8414 85.5086 72.8435 84.2764 72.0845 83.5153C71.326 82.7543 70.0941 82.7519 69.3331 83.5111Z" fill="#F9B93E"/>
<path d="M94.3944 40.6184C95.6437 40.6184 96.6564 39.6057 96.6564 38.3564C96.6564 37.1071 95.6437 36.0944 94.3944 36.0944C93.1451 36.0944 92.1323 37.1071 92.1323 38.3564C92.1323 39.6057 93.1451 40.6184 94.3944 40.6184Z" fill="white"/>
<path d="M107.511 40.6184C108.76 40.6184 109.773 39.6057 109.773 38.3564C109.773 37.1071 108.76 36.0944 107.511 36.0944C106.262 36.0944 105.249 37.1071 105.249 38.3564C105.249 39.6057 106.262 40.6184 107.511 40.6184Z" fill="white"/>
<path d="M103.391 46.8975C103.034 47.2537 102.208 47.6699 101.058 47.6699C99.9077 47.6699 99.082 47.2537 98.7247 46.8973C97.9636 46.1391 96.7317 46.1404 95.973 46.9015C95.2143 47.6625 95.2164 48.8945 95.9772 49.6532C97.1934 50.8657 99.0453 51.5611 101.058 51.5611C103.071 51.5611 104.923 50.8657 106.139 49.6529C106.9 48.8942 106.902 47.662 106.143 46.9012C105.384 46.1399 104.152 46.1388 103.391 46.8975Z" fill="#F9B93E"/>
</g>
<defs>
<clipPath id="clip0">
<rect width="134" height="134" fill="white"/>
</clipPath>
</defs>
</svg>
