<svg width="106" height="106" viewBox="0 0 106 106" fill="none" xmlns="http://www.w3.org/2000/svg">
<path d="M102.895 98.2361C102.895 99.0924 102.198 99.7889 101.342 99.7889H27.9492V102.894H101.342C103.911 102.894 106 100.805 106 98.2361V90.4727H102.895V98.2361Z" fill="white"/>
<path d="M0 29.502V37.2656H3.10547V29.502C3.10547 28.6457 3.80192 27.9492 4.6582 27.9492H21.7381V62.3164H24.8435V24.8438H4.6582C2.08977 24.8438 0 26.9335 0 29.502Z" fill="white"/>
<path d="M101.342 24.8438H27.9492V27.9492H101.342C102.198 27.9492 102.895 28.6457 102.895 29.502V87.3672H106V29.502C106 26.9335 103.911 24.8438 101.342 24.8438Z" fill="white"/>
<path d="M21.7381 99.7889H4.6582C3.80192 99.7889 3.10547 99.0924 3.10547 98.2361V40.3711H0V98.2361C0 100.805 2.08977 102.894 4.6582 102.894H24.8435V65.4219H21.7381V99.7889Z" fill="white"/>
<path d="M12.4219 70.0801C15.8466 70.0801 18.6328 67.2939 18.6328 63.8691C18.6328 60.4444 15.8466 57.6582 12.4219 57.6582C8.99716 57.6582 6.21094 60.4444 6.21094 63.8691C6.21094 67.2939 8.99716 70.0801 12.4219 70.0801ZM12.4219 60.7637C14.1342 60.7637 15.5273 62.1568 15.5273 63.8691C15.5273 65.5815 14.1342 66.9746 12.4219 66.9746C10.7095 66.9746 9.31641 65.5815 9.31641 63.8691C9.31641 62.1568 10.7095 60.7637 12.4219 60.7637Z" fill="#F9B93E"/>
<path d="M6.21094 90.2654H18.6328V84.8309H15.5273V87.16H9.31641V79.3963H15.5273V81.7254H18.6328V76.2908H6.21094V90.2654Z" fill="white"/>
<path d="M18.6328 42.9072V37.4727H6.21094V51.4473H18.6328V46.0127H15.5273V48.3418H9.31641V40.5781H15.5273V42.9072H18.6328Z" fill="white"/>
<path d="M69.5458 18.6331V15.5276H20.7701V6.21118H30.0863V3.10571H18.7406L7.28906 10.8694L18.7406 18.6331H69.5458ZM17.6646 7.58711V14.1517L12.8232 10.8694L17.6646 7.58711Z" fill="white"/>
<path d="M42.5098 9.31641H45.6152V12.4219H42.5098V9.31641Z" fill="white"/>
<path d="M30.0879 9.31641H39.4043V12.4219H30.0879V9.31641Z" fill="#F9B93E"/>
<path d="M81.9671 15.5276H72.6509V18.6331H89.731C94.012 18.6331 97.4947 15.1504 97.4947 10.8694C97.4947 6.58839 94.012 3.10571 89.731 3.10571H33.1914V6.21118H81.9671V15.5276ZM94.3892 10.8694C94.3892 13.438 92.2994 15.5276 89.731 15.5276H85.0726V6.21118H89.731C92.2994 6.21118 94.3892 8.30075 94.3892 10.8694Z" fill="white"/>
<path d="M96.6836 31.0547H99.7891V34.1602H96.6836V31.0547Z" fill="white"/>
<path d="M96.6836 37.2656H99.7891V46.582H96.6836V37.2656Z" fill="#F9B93E"/>
<path d="M27.9492 93.5781H31.0547V96.6836H27.9492V93.5781Z" fill="white"/>
<path d="M34.1602 93.5781H37.2656V96.6836H34.1602V93.5781Z" fill="#F9B93E"/>
<path d="M77.8047 65.2886L80.0001 63.0932L82.1955 65.2886L80.0001 67.484L77.8047 65.2886Z" fill="#F9B93E"/>
<path d="M45.5137 62.4474L47.7092 60.2518L49.9048 62.4474L47.7092 64.6429L45.5137 62.4474Z" fill="#F9B93E"/>
<path d="M73.4284 56.5057C76.4554 53.4787 76.4554 48.5534 73.4286 45.5262C71.967 44.0646 70.0174 43.2598 67.9388 43.2598C65.8602 43.2598 63.9106 44.0648 62.4487 45.5262L49.918 58.0572L52.1139 60.253L64.6445 47.722C65.5196 46.8468 66.6896 46.3651 67.9386 46.3651C69.1876 46.3651 70.3575 46.8468 71.2322 47.722C73.0483 49.5383 73.0485 52.4936 71.2325 54.3097L54.3095 71.2324C51.2827 74.2594 51.2827 79.1849 54.3097 82.2119C55.8233 83.7255 57.8112 84.482 59.7994 84.482C61.7877 84.482 63.7756 83.7253 65.2894 82.2119L77.8202 69.6809L75.6242 67.4852L63.0936 80.0162C61.2774 81.8322 58.3222 81.8324 56.5059 80.0162C54.6898 78.1999 54.6898 75.2447 56.5057 73.4284L73.4284 56.5057Z" fill="white"/>
</svg>
