<svg width="97" height="97" viewBox="0 0 97 97" fill="none" xmlns="http://www.w3.org/2000/svg">
<g clip-path="url(#clip0)">
<path d="M29.1001 9.70108H8.08368V12.9344H29.1001V9.70108Z" fill="white"/>
<path d="M29.1001 16.1677H8.08368V19.401H29.1001V16.1677Z" fill="#F9B93E"/>
<path d="M22.6335 22.6343H8.08368V25.8676H22.6335V22.6343Z" fill="white"/>
<path d="M22.6335 29.1009H8.08368V32.3342H22.6335V29.1009Z" fill="#F9B93E"/>
<path d="M96.9993 93.7668H0.000488281V97.0001H96.9993V93.7668Z" fill="white"/>
<path d="M93.5963 13.8283L87.1297 0.895177C86.731 0.0961492 85.7604 -0.228392 84.9614 0.170313C84.961 0.170515 84.9606 0.170717 84.9602 0.170919L72.027 6.6375C71.228 7.03661 70.9037 8.00802 71.3028 8.80704C71.7019 9.60607 72.6733 9.93041 73.4723 9.5313L82.8392 4.85111L80.2832 12.1487C69.049 44.1437 40.1132 66.59 6.32977 69.517L6.6046 72.7503C41.661 69.7134 71.6855 46.4181 83.3371 13.2156L85.9464 5.75967L90.7025 15.2736C91.1016 16.0727 92.073 16.397 92.8721 15.9979C93.6713 15.5988 93.9954 14.6276 93.5963 13.8283Z" fill="white"/>
<path d="M19.4002 77.6003H8.08369C7.19089 77.6003 6.46704 78.3242 6.46704 79.217V88.9169C6.46704 89.8097 7.19089 90.5335 8.08369 90.5335H19.4002C20.293 90.5335 21.0169 89.8097 21.0169 88.9169V79.217C21.0169 78.3242 20.293 77.6003 19.4002 77.6003ZM17.7836 87.3002H9.70033V80.8336H17.7836V87.3002Z" fill="white"/>
<path d="M37.1835 72.7504H25.867C24.9742 72.7504 24.2503 73.4742 24.2503 74.367V88.9168C24.2503 89.8096 24.9742 90.5335 25.867 90.5335H37.1835C38.0763 90.5335 38.8001 89.8096 38.8001 88.9168V74.367C38.8001 73.4742 38.0763 72.7504 37.1835 72.7504ZM35.5668 87.3002H27.4836V75.9837H35.5668V87.3002Z" fill="#F9B93E"/>
<path d="M54.9666 64.6671H43.6501C42.7574 64.6671 42.0335 65.391 42.0335 66.2838V88.9168C42.0335 89.8096 42.7574 90.5334 43.6501 90.5334H54.9666C55.8594 90.5334 56.5833 89.8096 56.5833 88.9168V66.2838C56.5833 65.391 55.8594 64.6671 54.9666 64.6671ZM53.35 87.3002H45.2668V67.9004H53.35V87.3002Z" fill="white"/>
<path d="M72.7497 53.3506H61.4332C60.5404 53.3506 59.8165 54.0745 59.8165 54.9673V88.9168C59.8165 89.8096 60.5404 90.5335 61.4332 90.5335H72.7497C73.6425 90.5335 74.3663 89.8096 74.3663 88.9168V54.9673C74.3663 54.0745 73.6425 53.3506 72.7497 53.3506ZM71.133 87.3002H63.0498V56.5839H71.133V87.3002Z" fill="#F9B93E"/>
<path d="M90.5328 30.7175H79.2163C78.3235 30.7175 77.5996 31.4414 77.5996 32.3342V88.9168C77.5996 89.8096 78.3235 90.5335 79.2163 90.5335H90.5328C91.4256 90.5335 92.1494 89.8096 92.1494 88.9168V32.3342C92.1494 31.4414 91.4256 30.7175 90.5328 30.7175ZM88.9161 87.3002H80.8329V33.9508H88.9161V87.3002Z" fill="white"/>
</g>
<defs>
<clipPath id="clip0">
<rect width="97" height="97" fill="white"/>
</clipPath>
</defs>
</svg>
