<svg width="82" height="82" viewBox="0 0 82 82" fill="none" xmlns="http://www.w3.org/2000/svg">
<path d="M60.2188 56.5774C59.8789 56.5774 59.5531 56.7124 59.3128 56.9527C59.0725 57.193 58.9375 57.5189 58.9375 57.8587V73.0312C58.9375 74.0507 58.5325 75.0283 57.8117 75.7492C57.0908 76.47 56.1132 76.875 55.0938 76.875H16.6562C15.6368 76.875 14.6592 76.47 13.9383 75.7492C13.2175 75.0283 12.8125 74.0507 12.8125 73.0312V69.1875H20.5C20.8398 69.1875 21.1657 69.0525 21.406 68.8122C21.6463 68.5719 21.7812 68.246 21.7812 67.9062C21.7812 67.5664 21.6463 67.2405 21.406 67.0002C21.1657 66.76 20.8398 66.625 20.5 66.625H11.5312V61.5C11.5312 61.1602 11.3963 60.8343 11.156 60.594C10.9157 60.3537 10.5898 60.2187 10.25 60.2187C9.91019 60.2187 9.5843 60.3537 9.34402 60.594C9.10374 60.8343 8.96875 61.1602 8.96875 61.5V66.625H5.125V58.9375C5.12056 57.6003 5.4678 56.2855 6.13187 55.1249C6.79594 53.9643 7.75351 52.9987 8.90853 52.325C9.05332 52.2391 9.17978 52.1257 9.28071 51.991C9.38163 51.8563 9.45504 51.703 9.49674 51.54C9.53844 51.3769 9.54762 51.2073 9.52375 51.0407C9.49987 50.874 9.44342 50.7138 9.35761 50.569C9.2718 50.4242 9.15831 50.2977 9.02363 50.1968C8.88894 50.0959 8.73569 50.0225 8.57264 49.9808C8.40958 49.9391 8.23991 49.9299 8.07331 49.9538C7.90671 49.9777 7.74644 50.0341 7.60166 50.1199C6.07152 51.0291 4.80306 52.3192 3.91993 53.8645C3.0368 55.4099 2.56912 57.1576 2.5625 58.9375V67.9062C2.5625 68.246 2.69749 68.5719 2.93777 68.8122C3.17805 69.0525 3.50394 69.1875 3.84375 69.1875H10.25V73.0312C10.252 74.7296 10.9276 76.3579 12.1286 77.5589C13.3296 78.7598 14.9578 79.4354 16.6562 79.4375H55.0938C56.7922 79.4354 58.4204 78.7598 59.6214 77.5589C60.8224 76.3579 61.498 74.7296 61.5 73.0312V57.8587C61.5 57.5189 61.365 57.193 61.1247 56.9527C60.8844 56.7124 60.5586 56.5774 60.2188 56.5774Z" fill="white"/>
<path d="M16.6562 10.25C17.3639 10.25 17.9375 9.67636 17.9375 8.96875C17.9375 8.26114 17.3639 7.6875 16.6562 7.6875C15.9486 7.6875 15.375 8.26114 15.375 8.96875C15.375 9.67636 15.9486 10.25 16.6562 10.25Z" fill="white"/>
<path d="M21.7812 10.25C22.4889 10.25 23.0625 9.67636 23.0625 8.96875C23.0625 8.26114 22.4889 7.6875 21.7812 7.6875C21.0736 7.6875 20.5 8.26114 20.5 8.96875C20.5 9.67636 21.0736 10.25 21.7812 10.25Z" fill="#F9B93E"/>
<path d="M29.4688 71.75C29.1289 71.75 28.803 71.885 28.5628 72.1253C28.3225 72.3655 28.1875 72.6914 28.1875 73.0312C28.1875 73.3711 28.3225 73.697 28.5628 73.9372C28.803 74.1775 29.1289 74.3125 29.4688 74.3125H42.2812C42.6211 74.3125 42.947 74.1775 43.1872 73.9372C43.4275 73.697 43.5625 73.3711 43.5625 73.0312C43.5625 72.6914 43.4275 72.3655 43.1872 72.1253C42.947 71.885 42.6211 71.75 42.2812 71.75H29.4688Z" fill="#F9B93E"/>
<path d="M78.1562 39.7187C77.8164 39.7187 77.4906 39.8537 77.2503 40.094C77.01 40.3343 76.875 40.6602 76.875 41V47.4062C76.875 48.4257 76.47 49.4033 75.7492 50.1242C75.0283 50.845 74.0507 51.25 73.0312 51.25H52.5312C52.1915 51.2501 51.8656 51.3851 51.6254 51.6254L46.125 57.1258V52.5312C46.125 52.1914 45.99 51.8655 45.7497 51.6253C45.5095 51.385 45.1836 51.25 44.8438 51.25H42.2812C41.2618 51.25 40.2842 50.845 39.5633 50.1242C38.8425 49.4033 38.4375 48.4257 38.4375 47.4062V28.1875C38.4375 27.8477 38.3025 27.5218 38.0622 27.2815C37.822 27.0412 37.4961 26.9062 37.1562 26.9062C36.8164 26.9062 36.4905 27.0412 36.2503 27.2815C36.01 27.5218 35.875 27.8477 35.875 28.1875V47.4062C35.877 49.1047 36.5526 50.7329 37.7536 51.9339C38.9546 53.1349 40.5828 53.8104 42.2812 53.8125H43.5625V60.2187C43.5624 60.4721 43.6375 60.7198 43.7782 60.9306C43.9189 61.1413 44.119 61.3056 44.353 61.4026C44.5085 61.4674 44.6753 61.5005 44.8438 61.5C45.1835 61.4999 45.5094 61.3649 45.7496 61.1246L53.0617 53.8125H73.0312C74.7297 53.8104 76.3579 53.1349 77.5589 51.9339C78.7599 50.7329 79.4355 49.1047 79.4375 47.4062V41C79.4375 40.6602 79.3025 40.3343 79.0622 40.094C78.8219 39.8537 78.4961 39.7187 78.1562 39.7187Z" fill="white"/>
<path d="M73.0312 12.8125H61.5V8.96875C61.498 7.27033 60.8224 5.64206 59.6214 4.44109C58.4204 3.24013 56.7922 2.56453 55.0938 2.5625H16.6562C14.9578 2.56453 13.3296 3.24013 12.1286 4.44109C10.9276 5.64206 10.252 7.27033 10.25 8.96875V23.0625H8.96875C8.62894 23.0625 8.30305 23.1975 8.06277 23.4378C7.82249 23.678 7.6875 24.0039 7.6875 24.3438C7.6875 24.6836 7.82249 25.0095 8.06277 25.2497C8.30305 25.49 8.62894 25.625 8.96875 25.625H21.7812C24.1591 25.6277 26.4387 26.5735 28.1201 28.2549C29.8015 29.9363 30.7473 32.2159 30.75 34.5938C30.7466 35.6829 30.4649 36.753 29.9316 37.7027C29.3984 38.6523 28.6313 39.45 27.7032 40.0198C27.4806 39.8299 27.1988 39.7234 26.9062 39.7188C26.5664 39.7188 26.2405 39.8537 26.0003 40.094C25.76 40.3343 25.625 40.6602 25.625 41C25.625 41.2562 25.6109 41.5125 25.5866 41.7547V41.7764C25.3895 43.7396 24.4452 45.5519 22.949 46.8382C21.4528 48.1244 19.5193 48.7861 17.5488 48.6864C15.5783 48.5866 13.7215 47.733 12.3629 46.3022C11.0043 44.8715 10.2478 42.9731 10.25 41V35.875C11.3479 35.8427 12.4222 35.5485 13.3834 35.017C14.3446 34.4854 15.165 33.7319 15.776 32.8192C18.3074 34.8082 21.4358 35.8849 24.6551 35.875H25.625C25.625 36.2148 25.76 36.5407 26.0003 36.781C26.2405 37.0213 26.5664 37.1562 26.9062 37.1562C27.2461 37.1562 27.572 37.0213 27.8122 36.781C28.0525 36.5407 28.1875 36.2148 28.1875 35.875V34.5938C28.1875 34.2539 28.0525 33.928 27.8122 33.6878C27.572 33.4475 27.2461 33.3125 26.9062 33.3125H24.6551C23.0992 33.3169 21.558 33.0126 20.1205 32.4172C18.6831 31.8219 17.378 30.9473 16.2808 29.8442C16.1264 29.6897 15.935 29.5772 15.7249 29.5175C15.5148 29.4578 15.2929 29.4528 15.0803 29.503C14.8677 29.5532 14.6714 29.6569 14.5102 29.8043C14.349 29.9517 14.2281 30.1379 14.1591 30.3451C13.8719 31.2097 13.3196 31.9618 12.5806 32.4945C11.8416 33.0272 10.9534 33.3134 10.0424 33.3125H8.96875C8.62894 33.3125 8.30305 33.4475 8.06277 33.6878C7.82249 33.928 7.6875 34.2539 7.6875 34.5938V37.5188C6.0364 35.6506 5.12506 33.2433 5.125 30.75V24.3438C5.125 24.0039 4.99001 23.678 4.74973 23.4378C4.50945 23.1975 4.18356 23.0625 3.84375 23.0625C3.50394 23.0625 3.17805 23.1975 2.93777 23.4378C2.69749 23.678 2.5625 24.0039 2.5625 24.3438V30.75C2.56489 32.7341 3.02925 34.6904 3.9188 36.464C4.80835 38.2375 6.09865 39.7796 7.6875 40.968V41C7.68979 42.797 8.16449 44.5619 9.064 46.1176C9.96352 47.6733 11.2562 48.9652 12.8125 49.8637V52.5312C12.8125 53.8905 13.3525 55.194 14.3136 56.1552C15.2747 57.1163 16.5783 57.6562 17.9375 57.6562C19.2967 57.6562 20.6003 57.1163 21.5614 56.1552C22.5225 55.194 23.0625 53.8905 23.0625 52.5312V51.25C25.1007 51.252 27.0549 52.0626 28.4961 53.5039C29.9374 54.9451 30.748 56.8993 30.75 58.9375C30.75 59.2773 30.885 59.6032 31.1253 59.8435C31.3655 60.0838 31.6914 60.2188 32.0312 60.2188C32.3711 60.2188 32.697 60.0838 32.9372 59.8435C33.1775 59.6032 33.3125 59.2773 33.3125 58.9375C33.3066 56.4821 32.4201 54.1103 30.8141 52.253C29.2081 50.3956 26.9891 49.176 24.5603 48.8156C26.3943 47.2606 27.6226 45.1097 28.0299 42.7399C29.6006 42.0339 30.9343 40.8899 31.8713 39.4451C32.8082 38.0002 33.3086 36.3158 33.3125 34.5938C33.3091 31.5365 32.0931 28.6055 29.9313 26.4437C27.7695 24.2819 24.8385 23.0659 21.7812 23.0625H12.8125V8.96875C12.8125 7.94932 13.2175 6.97165 13.9383 6.25081C14.6592 5.52997 15.6368 5.125 16.6562 5.125H55.0938C56.1132 5.125 57.0908 5.52997 57.8117 6.25081C58.5325 6.97165 58.9375 7.94932 58.9375 8.96875V12.8125H56.375V11.5312C56.375 10.5118 55.97 9.53415 55.2492 8.81331C54.5283 8.09247 53.5507 7.6875 52.5312 7.6875H29.4688C28.4493 7.6875 27.4717 8.09247 26.7508 8.81331C26.03 9.53415 25.625 10.5118 25.625 11.5312C25.625 11.8711 25.49 12.1969 25.2497 12.4372C25.0095 12.6775 24.6836 12.8125 24.3438 12.8125H19.2188C18.1993 12.8125 17.2217 13.2175 16.5008 13.9383C15.78 14.6592 15.375 15.6368 15.375 16.6562V19.2188C15.375 19.5586 15.51 19.8844 15.7503 20.1247C15.9906 20.365 16.3164 20.5 16.6562 20.5C16.9961 20.5 17.3219 20.365 17.5622 20.1247C17.8025 19.8844 17.9375 19.5586 17.9375 19.2188V16.6562C17.9375 16.3164 18.0725 15.9906 18.3128 15.7503C18.5531 15.51 18.8789 15.375 19.2188 15.375H24.3438C25.3632 15.375 26.3408 14.97 27.0617 14.2492C27.7825 13.5283 28.1875 12.5507 28.1875 11.5312C28.1875 11.1914 28.3225 10.8656 28.5628 10.6253C28.803 10.385 29.1289 10.25 29.4688 10.25H52.5312C52.8711 10.25 53.1969 10.385 53.4372 10.6253C53.6775 10.8656 53.8125 11.1914 53.8125 11.5312V12.8125H42.2812C40.5828 12.8145 38.9546 13.4901 37.7536 14.6911C36.5526 15.8921 35.877 17.5203 35.875 19.2188V23.0625C35.875 23.4023 36.01 23.7282 36.2503 23.9685C36.4906 24.2088 36.8164 24.3438 37.1562 24.3438C37.4961 24.3438 37.8219 24.2088 38.0622 23.9685C38.3025 23.7282 38.4375 23.4023 38.4375 23.0625V19.2188C38.4375 18.1993 38.8425 17.2217 39.5633 16.5008C40.2841 15.78 41.2618 15.375 42.2812 15.375H73.0312C74.0507 15.375 75.0283 15.78 75.7492 16.5008C76.47 17.2217 76.875 18.1993 76.875 19.2188V35.875C76.875 36.2148 77.01 36.5407 77.2503 36.781C77.4905 37.0213 77.8164 37.1562 78.1562 37.1562C78.4961 37.1562 78.822 37.0213 79.0622 36.781C79.3025 36.5407 79.4375 36.2148 79.4375 35.875V19.2188C79.4355 17.5203 78.7599 15.8921 77.5589 14.6911C76.3579 13.4901 74.7297 12.8145 73.0312 12.8125ZM17.9375 55.0938C17.2579 55.0938 16.6061 54.8238 16.1255 54.3432C15.645 53.8627 15.375 53.2109 15.375 52.5312V50.913C17.0538 51.3623 18.8212 51.3623 20.5 50.913V52.5312C20.5 53.2109 20.23 53.8627 19.7495 54.3432C19.2689 54.8238 18.6171 55.0938 17.9375 55.0938Z" fill="white"/>
<path d="M46.125 34.5938C45.1056 34.5938 44.1279 34.9987 43.4071 35.7196C42.6862 36.4404 42.2812 37.4181 42.2812 38.4375C42.2812 39.4569 42.6862 40.4346 43.4071 41.1554C44.1279 41.8763 45.1056 42.2813 46.125 42.2813H46.3274L46.239 42.6298C45.9918 43.6186 46.1474 44.6652 46.6717 45.5393C47.1959 46.4134 48.0459 47.0435 49.0347 47.2909C49.3401 47.3679 49.6538 47.4067 49.9688 47.4063C50.8258 47.4062 51.6582 47.1196 52.3338 46.5922C53.0093 46.0648 53.4892 45.3267 53.6972 44.4953L54.2507 42.2813H56.5774L56.489 42.6298C56.2418 43.6186 56.3974 44.6652 56.9217 45.5393C57.4459 46.4134 58.2959 47.0435 59.2847 47.2909C59.5901 47.3679 59.9038 47.4067 60.2188 47.4063C61.0758 47.4062 61.9082 47.1196 62.5838 46.5922C63.2593 46.0648 63.7392 45.3267 63.9472 44.4953L64.5007 42.2813H66.625C67.6444 42.2813 68.6221 41.8763 69.3429 41.1554C70.0638 40.4346 70.4688 39.4569 70.4688 38.4375C70.4688 37.4181 70.0638 36.4404 69.3429 35.7196C68.6221 34.9987 67.6444 34.5938 66.625 34.5938H66.4226L67.0632 32.0313H69.1875C70.2069 32.0313 71.1846 31.6263 71.9054 30.9054C72.6263 30.1846 73.0312 29.2069 73.0312 28.1875C73.0312 27.1681 72.6263 26.1904 71.9054 25.4696C71.1846 24.7487 70.2069 24.3437 69.1875 24.3437H68.9851L69.0735 23.9952C69.3208 23.0061 69.1651 21.9591 68.6406 21.0847C68.1161 20.2104 67.2657 19.5802 66.2765 19.3328C65.2873 19.0854 64.2404 19.2411 63.366 19.7656C62.4916 20.2902 61.8614 21.1406 61.614 22.1297L61.0618 24.3437H58.7351L58.8235 23.9952C59.0708 23.0061 58.9151 21.9591 58.3906 21.0847C57.8661 20.2104 57.0157 19.5802 56.0265 19.3328C55.0373 19.0854 53.9904 19.2411 53.116 19.7656C52.2416 20.2902 51.6114 21.1406 51.364 22.1297L50.8118 24.3437H48.6875C47.6681 24.3437 46.6904 24.7487 45.9696 25.4696C45.2487 26.1904 44.8438 27.1681 44.8438 28.1875C44.8438 29.2069 45.2487 30.1846 45.9696 30.9054C46.6904 31.6263 47.6681 32.0313 48.6875 32.0313H48.8899L48.2493 34.5938H46.125ZM51.5408 29.962C51.421 29.8083 51.2676 29.684 51.0924 29.5985C50.9172 29.513 50.7249 29.4687 50.5299 29.4687H48.6875C48.3477 29.4687 48.0218 29.3338 47.7815 29.0935C47.5412 28.8532 47.4062 28.5273 47.4062 28.1875C47.4062 27.8477 47.5412 27.5218 47.7815 27.2815C48.0218 27.0412 48.3477 26.9062 48.6875 26.9062H51.8112C52.0972 26.9065 52.3751 26.811 52.6005 26.635C52.826 26.459 52.9861 26.2126 53.0553 25.9351L53.8509 22.7524C53.8884 22.5858 53.9588 22.4284 54.058 22.2894C54.1572 22.1505 54.2832 22.0327 54.4285 21.9431C54.5739 21.8535 54.7357 21.7938 54.9044 21.7676C55.0731 21.7414 55.2454 21.7492 55.4111 21.7906C55.5768 21.8319 55.7325 21.9059 55.8691 22.0083C56.0058 22.1107 56.1206 22.2394 56.2068 22.3867C56.2931 22.5341 56.3489 22.6973 56.3712 22.8666C56.3935 23.0358 56.3817 23.2079 56.3366 23.3726L55.851 25.3137C55.8036 25.5027 55.8 25.7 55.8404 25.8906C55.8808 26.0813 55.9642 26.2602 56.0841 26.4137C56.2041 26.5673 56.3575 26.6915 56.5327 26.7768C56.7079 26.8622 56.9002 26.9064 57.0951 26.9062H62.0612C62.3472 26.9065 62.6251 26.811 62.8505 26.635C63.076 26.459 63.2361 26.2126 63.3053 25.9351L64.1009 22.7524C64.1413 22.5879 64.2141 22.4331 64.315 22.2972C64.416 22.1612 64.5432 22.0468 64.689 21.9606C64.8323 21.8735 64.9917 21.8161 65.1577 21.7919C65.3237 21.7677 65.4929 21.7771 65.6551 21.8197C65.9844 21.9023 66.2675 22.1122 66.4422 22.4034C66.6168 22.6945 66.6687 23.0431 66.5866 23.3726L66.101 25.3137C66.0536 25.5027 66.05 25.7 66.0904 25.8906C66.1308 26.0813 66.2142 26.2602 66.3341 26.4137C66.4541 26.5673 66.6075 26.6915 66.7827 26.7768C66.9579 26.8622 67.1502 26.9064 67.3451 26.9062H69.1875C69.5273 26.9062 69.8532 27.0412 70.0935 27.2815C70.3338 27.5218 70.4688 27.8477 70.4688 28.1875C70.4688 28.5273 70.3338 28.8532 70.0935 29.0935C69.8532 29.3338 69.5273 29.4687 69.1875 29.4687H66.0638C65.7778 29.4685 65.4999 29.564 65.2745 29.74C65.049 29.916 64.8889 30.1624 64.8197 30.4399L63.5385 35.5649C63.4913 35.7539 63.4879 35.9511 63.5284 36.1415C63.5689 36.332 63.6523 36.5107 63.7723 36.6641C63.8922 36.8176 64.0455 36.9416 64.2206 37.0269C64.3956 37.1121 64.5878 37.1564 64.7826 37.1563H66.625C66.9648 37.1563 67.2907 37.2912 67.531 37.5315C67.7713 37.7718 67.9062 38.0977 67.9062 38.4375C67.9062 38.7773 67.7713 39.1032 67.531 39.3435C67.2907 39.5838 66.9648 39.7188 66.625 39.7188H63.5013C63.2153 39.7185 62.9374 39.8141 62.712 39.9901C62.4865 40.1661 62.3264 40.4124 62.2572 40.6899L61.4616 43.8726C61.3745 44.1995 61.1636 44.4798 60.8735 44.6539C60.5834 44.828 60.2369 44.8823 59.9074 44.8053C59.5781 44.7227 59.295 44.5128 59.1203 44.2216C58.9457 43.9305 58.8938 43.5819 58.9759 43.2524L59.4615 41.3114C59.5089 41.1223 59.5125 40.925 59.4721 40.7344C59.4317 40.5437 59.3483 40.3648 59.2284 40.2113C59.1084 40.0577 58.955 39.9335 58.7798 39.8482C58.6046 39.7628 58.4123 39.7186 58.2174 39.7188H53.2513C52.9653 39.7185 52.6874 39.8141 52.462 39.9901C52.2365 40.1661 52.0764 40.4124 52.0072 40.6899L51.2116 43.8726C51.1245 44.1995 50.9136 44.4798 50.6235 44.6539C50.3334 44.828 49.9869 44.8823 49.6574 44.8053C49.3281 44.7227 49.045 44.5128 48.8703 44.2216C48.6957 43.9305 48.6438 43.5819 48.7259 43.2524L49.2115 41.3114C49.2589 41.1223 49.2625 40.925 49.2221 40.7344C49.1817 40.5437 49.0983 40.3648 48.9784 40.2113C48.8584 40.0577 48.705 39.9335 48.5298 39.8482C48.3546 39.7628 48.1623 39.7186 47.9674 39.7188H46.125C45.7852 39.7188 45.4593 39.5838 45.219 39.3435C44.9787 39.1032 44.8438 38.7773 44.8438 38.4375C44.8438 38.0977 44.9787 37.7718 45.219 37.5315C45.4593 37.2912 45.7852 37.1563 46.125 37.1563H49.2487C49.5347 37.1565 49.8126 37.061 50.038 36.885C50.2635 36.709 50.4236 36.4626 50.4928 36.1851L51.774 31.0601C51.8211 30.8713 51.8245 30.6744 51.7841 30.4841C51.7437 30.2939 51.6605 30.1154 51.5408 29.962Z" fill="#F9B93E"/>
<path d="M54.5324 37.1563H59.4986C59.7846 37.1565 60.0624 37.061 60.2879 36.885C60.5133 36.709 60.6734 36.4626 60.7426 36.1851L62.0239 31.0601C62.071 30.8711 62.0745 30.6739 62.034 30.4835C61.9934 30.293 61.91 30.1143 61.7901 29.9609C61.6702 29.8075 61.5169 29.6834 61.3418 29.5981C61.1667 29.5129 60.9745 29.4686 60.7798 29.4688H55.8137C55.5277 29.4685 55.2498 29.564 55.0243 29.74C54.7989 29.916 54.6388 30.1624 54.5696 30.4399L53.2883 35.5649C53.2412 35.7539 53.2378 35.9511 53.2783 36.1415C53.3188 36.332 53.4022 36.5107 53.5221 36.6641C53.642 36.8176 53.7954 36.9416 53.9704 37.0269C54.1455 37.1122 54.3377 37.1564 54.5324 37.1563ZM56.813 32.0313H59.1398L58.4992 34.5938H56.1724L56.813 32.0313Z" fill="white"/>
<path d="M21.7812 41C22.4889 41 23.0625 40.4264 23.0625 39.7188C23.0625 39.0111 22.4889 38.4375 21.7812 38.4375C21.0736 38.4375 20.5 39.0111 20.5 39.7188C20.5 40.4264 21.0736 41 21.7812 41Z" fill="#F9B93E"/>
<path d="M14.0938 41C14.8014 41 15.375 40.4264 15.375 39.7188C15.375 39.0111 14.8014 38.4375 14.0938 38.4375C13.3861 38.4375 12.8125 39.0111 12.8125 39.7188C12.8125 40.4264 13.3861 41 14.0938 41Z" fill="#F9B93E"/>
<path d="M17.9374 45.902C18.5814 45.9032 19.2194 45.7772 19.8146 45.5311C20.4098 45.2851 20.9505 44.9239 21.4057 44.4683C21.6391 44.2267 21.7683 43.903 21.7653 43.5671C21.7624 43.2312 21.6277 42.9098 21.3901 42.6723C21.1526 42.4347 20.8312 42.3 20.4953 42.297C20.1593 42.2941 19.8357 42.4233 19.594 42.6567C19.1543 43.0953 18.5585 43.3416 17.9374 43.3416C17.3163 43.3416 16.7205 43.0953 16.2807 42.6567C16.0391 42.4233 15.7154 42.2941 15.3795 42.297C15.0436 42.3 14.7222 42.4347 14.4846 42.6723C14.2471 42.9098 14.1123 43.2312 14.1094 43.5671C14.1065 43.903 14.2356 44.2267 14.469 44.4683C14.9243 44.9239 15.465 45.2851 16.0602 45.5311C16.6554 45.7772 17.2933 45.9032 17.9374 45.902Z" fill="white"/>
<path d="M25.625 60.2188C25.2852 60.2188 24.9593 60.3537 24.719 60.594C24.4787 60.8343 24.3438 61.1602 24.3438 61.5V67.9062C24.3438 68.2461 24.4787 68.572 24.719 68.8122C24.9593 69.0525 25.2852 69.1875 25.625 69.1875H52.5312C53.5507 69.1875 54.5283 68.7825 55.2492 68.0617C55.97 67.3408 56.375 66.3632 56.375 65.3438V57.6562C56.375 57.3164 56.24 56.9905 55.9997 56.7503C55.7595 56.51 55.4336 56.375 55.0938 56.375C54.7539 56.375 54.428 56.51 54.1878 56.7503C53.9475 56.9905 53.8125 57.3164 53.8125 57.6562V65.3438C53.8125 65.6836 53.6775 66.0095 53.4372 66.2497C53.197 66.49 52.8711 66.625 52.5312 66.625H33.3125V63.4219C33.3125 63.0821 33.1775 62.7562 32.9372 62.5159C32.697 62.2756 32.3711 62.1406 32.0312 62.1406C31.6914 62.1406 31.3655 62.2756 31.1253 62.5159C30.885 62.7562 30.75 63.0821 30.75 63.4219V66.625H26.9062V61.5C26.9062 61.1602 26.7713 60.8343 26.531 60.594C26.2907 60.3537 25.9648 60.2188 25.625 60.2188Z" fill="#F9B93E"/>
</svg>
