<svg width="110" height="110" viewBox="0 0 110 110" fill="none" xmlns="http://www.w3.org/2000/svg">
<path d="M55 9.91031C69.6854 9.91031 71.4248 9.96617 77.2243 10.2304C82.5868 10.4754 85.4992 11.3712 87.4375 12.1245C90.0045 13.1222 91.8367 14.3142 93.7612 16.2388C95.6862 18.1633 96.8778 19.9955 97.8755 22.5625C98.6288 24.5008 99.5246 27.4132 99.7696 32.7753C100.034 38.5752 100.09 40.3146 100.09 55C100.09 69.6859 100.034 71.4252 99.7696 77.2247C99.5246 82.5872 98.6288 85.4992 97.8755 87.4375C96.8778 90.0045 95.6858 91.8371 93.7612 93.7617C91.8367 95.6862 90.0045 96.8782 87.4375 97.8755C85.4992 98.6288 82.5868 99.5251 77.2243 99.7696C71.4257 100.034 69.6863 100.09 55 100.09C40.3133 100.09 38.5739 100.034 32.7753 99.7696C27.4128 99.5246 24.5008 98.6288 22.5625 97.8755C19.9955 96.8782 18.1629 95.6862 16.2383 93.7617C14.3138 91.8367 13.1218 90.0045 12.1245 87.4375C11.3712 85.4996 10.4749 82.5872 10.2304 77.2247C9.96574 71.4252 9.90988 69.6859 9.90988 55C9.90988 40.3146 9.96574 38.5752 10.2304 32.7757C10.4754 27.4132 11.3712 24.5008 12.1245 22.5625C13.1218 19.9955 14.3138 18.1633 16.2383 16.2388C18.1633 14.3138 19.9955 13.1222 22.5625 12.1245C24.5004 11.3712 27.4128 10.4754 32.7753 10.2304C38.5748 9.96617 40.3141 9.91031 55 9.91031ZM55 0C40.0628 0 38.1898 0.063164 32.3237 0.330859C26.4692 0.598125 22.4709 1.52797 18.9729 2.8875C15.3557 4.29301 12.2886 6.17375 9.23098 9.23141C6.17332 12.2891 4.29301 15.3562 2.8875 18.9729C1.52754 22.4714 0.598125 26.4696 0.330859 32.3237C0.063164 38.1898 0 40.0628 0 55C0 69.9372 0.063164 71.8102 0.330859 77.6763C0.598125 83.5308 1.52754 87.5291 2.8875 91.0271C4.29258 94.6438 6.17332 97.7114 9.23098 100.769C12.2886 103.827 15.3557 105.707 18.9729 107.113C22.4714 108.472 26.4692 109.402 32.3232 109.669C38.1898 109.937 40.0628 110 55 110C69.9372 110 71.8102 109.937 77.6763 109.669C83.5304 109.402 87.5286 108.472 91.0267 107.113C94.6438 105.707 97.7109 103.827 100.769 100.769C103.826 97.7114 105.707 94.6443 107.113 91.0271C108.472 87.5286 109.402 83.5308 109.669 77.6768C109.937 71.8102 110 69.9372 110 55C110 40.0628 109.937 38.1898 109.669 32.3237C109.402 26.4696 108.472 22.4714 107.113 18.9733C105.707 15.3562 103.826 12.2891 100.769 9.23141C97.7109 6.17375 94.6438 4.29258 91.0271 2.8875C87.5286 1.52797 83.5304 0.598125 77.6763 0.330859C71.8102 0.063164 69.9372 0 55 0ZM55 26.7566C39.4015 26.7566 26.7566 39.4023 26.7566 55C26.7566 70.5985 39.4015 83.2434 55 83.2434C70.5981 83.2434 83.2434 70.5985 83.2434 55C83.2434 39.4019 70.5981 26.7566 55 26.7566ZM55 73.3335C44.8748 73.3335 36.6665 65.1252 36.6665 55C36.6665 44.8748 44.8748 36.6665 55 36.6665C65.1252 36.6665 73.3335 44.8748 73.3335 55C73.3335 65.1252 65.1252 73.3335 55 73.3335ZM90.9588 25.6407C90.9588 29.2862 88.0043 32.2407 84.3588 32.2407C80.7138 32.2407 77.7588 29.2862 77.7588 25.6407C77.7588 21.9957 80.7138 19.0407 84.3588 19.0407C88.0043 19.0407 90.9588 21.9957 90.9588 25.6407Z" fill="white"/>
</svg>
