<svg width="134" height="134" viewBox="0 0 134 134" fill="none" xmlns="http://www.w3.org/2000/svg">
<path d="M94.7422 0H39.2578C17.6111 0 0 17.6111 0 39.2578V94.7422C0 116.389 17.6111 134 39.2578 134H94.7422C116.389 134 134 116.389 134 94.7422V39.2578C134 17.6111 116.389 0 94.7422 0ZM128.766 94.7422C128.766 113.503 113.503 128.766 94.7422 128.766H39.2578C20.4973 128.766 5.23438 113.503 5.23438 94.7422V39.2578C5.23438 20.4973 20.4973 5.23438 39.2578 5.23438H94.7422C113.503 5.23438 128.766 20.4973 128.766 39.2578V94.7422Z" fill="white"/>
<path d="M94.7422 11.5156H39.2578C23.9606 11.5156 11.5156 23.9606 11.5156 39.2578V94.7422C11.5156 110.039 23.9606 122.484 39.2578 122.484H55.2227C56.6681 122.484 57.8398 121.313 57.8398 119.867C57.8398 118.422 56.6681 117.25 55.2227 117.25H39.2578C26.8471 117.25 16.75 107.153 16.75 94.7422V39.2578C16.75 26.8471 26.8471 16.75 39.2578 16.75H94.7422C107.153 16.75 117.25 26.8471 117.25 39.2578V94.7422C117.25 107.153 107.153 117.25 94.7422 117.25H78.9519C77.5064 117.25 76.3347 118.422 76.3347 119.867C76.3347 121.313 77.5064 122.484 78.9519 122.484H94.7422C110.039 122.484 122.484 110.039 122.484 94.7422V39.2578C122.484 23.9606 110.039 11.5156 94.7422 11.5156Z" fill="#F9B93E"/>
<path d="M68.8504 118.017C68.3636 117.53 67.6883 117.25 67 117.25C66.3117 117.25 65.6364 117.53 65.1496 118.017C64.6628 118.504 64.3828 119.179 64.3828 119.867C64.3828 120.556 64.6628 121.231 65.1496 121.718C65.6364 122.204 66.3117 122.484 67 122.484C67.6883 122.484 68.3636 122.204 68.8504 121.718C69.3372 121.231 69.6172 120.556 69.6172 119.867C69.6172 119.179 69.3372 118.504 68.8504 118.017Z" fill="#F9B93E"/>
<path d="M46.0173 40.7523C45.0288 39.6976 43.3729 39.6437 42.3179 40.6316L42.2019 40.7408C41.1506 41.7327 41.1025 43.3891 42.0946 44.4404C42.6094 44.9861 43.3032 45.2615 43.9986 45.2615C44.643 45.2615 45.2886 45.0249 45.7943 44.5478L45.8966 44.4517C46.9513 43.4634 47.0055 41.807 46.0173 40.7523Z" fill="#F9B93E"/>
<path d="M67 30.8828C61.2516 30.8828 55.5304 32.2676 50.4549 34.8874C49.1707 35.5503 48.6669 37.129 49.3298 38.4135C49.993 39.6978 51.5717 40.2013 52.8559 39.5386C57.2541 37.2682 62.0129 36.1172 67 36.1172C84.0287 36.1172 97.8828 49.9713 97.8828 67C97.8828 84.0287 84.0287 97.8828 67 97.8828C49.9713 97.8828 36.1172 84.0287 36.1172 67C36.1172 61.656 37.503 56.3907 40.1249 51.7737C40.8386 50.517 40.3984 48.9194 39.1413 48.2055C37.8843 47.492 36.287 47.932 35.5731 49.189C32.5047 54.5924 30.8828 60.7515 30.8828 67C30.8828 86.915 47.085 103.117 67 103.117C86.915 103.117 103.117 86.915 103.117 67C103.117 47.085 86.915 30.8828 67 30.8828Z" fill="white"/>
<path d="M67 43.4453C54.0119 43.4453 43.4453 54.0119 43.4453 67C43.4453 79.9881 54.0119 90.5547 67 90.5547C79.9881 90.5547 90.5547 79.9881 90.5547 67C90.5547 54.0119 79.9881 43.4453 67 43.4453ZM67 85.3203C56.8982 85.3203 48.6797 77.1018 48.6797 67C48.6797 56.8982 56.8982 48.6797 67 48.6797C77.1018 48.6797 85.3203 56.8982 85.3203 67C85.3203 77.1018 77.1018 85.3203 67 85.3203Z" fill="#F9B93E"/>
<path d="M101.351 22.7041C95.8668 22.7041 91.4053 27.1656 91.4053 32.6494C91.4053 38.1332 95.8668 42.5947 101.351 42.5947C106.834 42.5947 111.296 38.1332 111.296 32.6494C111.296 27.1656 106.834 22.7041 101.351 22.7041ZM101.351 37.3604C98.753 37.3604 96.6396 35.247 96.6396 32.6494C96.6396 30.0519 98.753 27.9385 101.351 27.9385C103.948 27.9385 106.062 30.0519 106.062 32.6494C106.062 35.247 103.948 37.3604 101.351 37.3604Z" fill="white"/>
</svg>
