<svg width="120" height="120" viewBox="0 0 120 120" fill="none" xmlns="http://www.w3.org/2000/svg">
<path d="M89.5312 115.312H7.03125C5.73853 115.312 4.6875 114.261 4.6875 112.969V7.03125C4.6875 5.73853 5.73853 4.6875 7.03125 4.6875H11.7188C13.0133 4.6875 14.0625 3.63831 14.0625 2.34375C14.0625 1.04919 13.0133 0 11.7188 0H7.03125C3.15399 0 0 3.15399 0 7.03125V112.969C0 116.846 3.15399 120 7.03125 120H89.5312C90.8249 120 91.875 118.951 91.875 117.656C91.875 116.362 90.8258 115.312 89.5312 115.312Z" fill="white"/>
<path d="M112.969 0H30.4688C29.1742 0 28.125 1.04919 28.125 2.34375C28.125 3.63831 29.1742 4.6875 30.4688 4.6875H112.969C114.261 4.6875 115.312 5.73853 115.312 7.03125V112.969C115.312 114.261 114.261 115.312 112.969 115.312H108.281C106.987 115.312 105.938 116.362 105.938 117.656C105.938 118.951 106.987 120 108.281 120H112.969C116.846 120 120 116.845 120 112.969V7.03125C120 3.15399 116.846 0 112.969 0Z" fill="white"/>
<path d="M28.8867 41.4258C35.7037 41.4258 41.25 35.8795 41.25 29.0625C41.25 22.2446 35.7037 16.6992 28.8867 16.6992C22.0688 16.6992 16.5234 22.2455 16.5234 29.0625C16.5234 35.8795 22.0688 41.4258 28.8867 41.4258ZM28.8867 21.3867C33.1192 21.3867 36.5625 24.83 36.5625 29.0625C36.5625 33.295 33.1192 36.7383 28.8867 36.7383C24.6542 36.7383 21.2109 33.295 21.2109 29.0625C21.2109 24.83 24.6542 21.3867 28.8867 21.3867Z" fill="white"/>
<path d="M80.6836 42.5977C75.5035 42.5977 70.5038 44.3994 66.5039 47.5836V46.1133C66.5039 44.8187 65.4538 43.7695 64.1602 43.7695H47.8125C46.5179 43.7695 45.4688 44.8187 45.4688 46.1133V100.957C45.4688 102.252 46.5179 103.301 47.8125 103.301H65.0391C66.3327 103.301 67.3828 102.252 67.3828 100.957V69.3018C67.3828 65.3925 70.5634 62.2119 74.4727 62.2119C78.382 62.2119 81.5625 65.3925 81.5625 69.3018V100.957C81.5625 102.252 82.6117 103.301 83.9062 103.301H101.133C102.426 103.301 103.477 102.252 103.477 100.957V65.3906C103.477 52.8223 93.251 42.5977 80.6836 42.5977ZM98.7891 98.6133H86.25V69.3018C86.25 62.8079 80.9665 57.5244 74.4727 57.5244C67.9779 57.5244 62.6953 62.8079 62.6953 69.3018V98.6133H50.1562V48.457H61.8164V53.3817C61.8164 54.3961 62.4683 55.2951 63.4332 55.61C64.3964 55.9241 65.4547 55.5826 66.0526 54.7632C69.4711 50.0812 74.9405 47.2852 80.6836 47.2852C90.6665 47.2852 98.7891 55.4068 98.7891 65.3906V98.6133Z" fill="white"/>
<path d="M20.2734 43.7695C18.9789 43.7695 17.9297 44.8187 17.9297 46.1133V100.957C17.9297 102.252 18.9789 103.301 20.2734 103.301H37.5C38.7936 103.301 39.8438 102.252 39.8438 100.957V46.1133C39.8438 44.8187 38.7936 43.7695 37.5 43.7695H20.2734ZM35.1562 98.6133H22.6172V48.457H35.1562V98.6133Z" fill="#F9B93E"/>
<path d="M21.0947 4.6875C22.3883 4.6875 23.4384 3.63831 23.4384 2.34375C23.4384 1.04919 22.3883 0 21.0947 0H21.0928C19.7983 0 18.75 1.04919 18.75 2.34375C18.75 3.63831 19.8001 4.6875 21.0947 4.6875Z" fill="#F9B93E"/>
<path d="M98.9072 115.312H98.9053C97.6108 115.312 96.5625 116.362 96.5625 117.656C96.5625 118.951 97.6126 120 98.9072 120C100.202 120 101.251 118.951 101.251 117.656C101.251 116.362 100.202 115.312 98.9072 115.312Z" fill="#F9B93E"/>
</svg>
