<svg width="106" height="106" viewBox="0 0 106 106" fill="none" xmlns="http://www.w3.org/2000/svg">
<g clip-path="url(#clip0)">
<path d="M0.79497 102.961V103.226C1.15786 104.877 2.63876 106.039 4.3283 106H101.725C102.876 106 103.955 105.438 104.616 104.496C105.277 103.553 105.437 102.348 105.046 101.265L98.792 83.7224C98.7702 83.6487 98.7405 83.5777 98.7036 83.5104L88.6513 55.3497C88.1514 53.9437 86.8222 53.0033 85.33 53H78.2633C81.4025 45.8429 83.0266 38.1136 83.0333 30.2983C83.0333 13.7114 69.5869 0.265015 53 0.265015C36.413 0.265015 22.9666 13.7114 22.9666 30.2983C22.9916 38.1154 24.6274 45.8433 27.772 53H20.7053C19.2066 52.9958 17.8684 53.9376 17.3663 55.3497L4.45197 91.478C4.44198 91.5542 4.44198 91.6315 4.45197 91.7077L0.95397 101.248C0.785594 101.748 0.731265 102.279 0.79497 102.802V102.961ZM10.6 84.9414L14.628 86.708L9.08064 89.0577L10.6 84.9414ZM7.41997 93.6334L19.7866 88.3334C20.4381 88.0558 20.8609 87.4161 20.8609 86.708C20.8609 85.9999 20.4381 85.3602 19.7866 85.0827L11.7836 81.5493L13.3913 77.0797L28.832 83.7577C29.0571 83.8469 29.2965 83.8948 29.5386 83.899C29.7809 83.8964 30.0206 83.8484 30.2453 83.7577L45.368 77.221C46.905 78.652 48.2653 79.7827 49.3606 80.6484L44.4846 82.7507C43.8332 83.0282 43.4104 83.6679 43.4104 84.376C43.4104 85.0841 43.8332 85.7238 44.4846 86.0014L82.468 102.467H70.5253L35.4393 87.3087C34.9887 87.112 34.4766 87.112 34.026 87.3087L5.29997 99.746L7.41997 93.6334ZM18.921 61.5153L38.3543 69.907C39.803 71.6737 41.2516 73.2284 42.6296 74.624L29.5386 80.2773L14.522 73.7937L18.921 61.5153ZM70.4016 66.462L86.4076 59.5543L87.9976 64.024L80.931 67.045C80.2795 67.3225 79.8567 67.9622 79.8567 68.6703C79.8567 69.3785 80.2795 70.0182 80.931 70.2957L91.8666 74.995L94.0573 81.09L71.9916 71.55C71.541 71.3534 71.0289 71.3534 70.5783 71.55L63.388 74.6417C65.9197 72.0812 68.2637 69.3417 70.4016 66.4444V66.462ZM90.2943 70.4547L86.1426 68.688L89.1813 67.3807L90.2943 70.4547ZM61.6213 102.467H7.8793L34.7326 90.8597L61.6213 102.467ZM91.372 102.467L49.608 84.429L52.8763 83.0157H53C53.3523 83.0165 53.6968 82.9119 53.9893 82.7153L54.6783 82.2207L71.285 75.154L95.7356 85.754L101.725 102.467H91.372ZM84.4643 56.5334L74.0763 61.0207C74.9773 59.5367 75.843 58.035 76.5496 56.5334H84.4643ZM28.8496 19.3097C33.9955 7.91766 46.4025 1.67081 58.6186 4.32112C70.8347 6.97142 79.5376 17.7981 79.5 30.2983C79.5 49.555 68.1756 67.7517 53 79.0937C50.8752 77.488 48.8459 75.7596 46.9226 73.9174C34.556 62.1513 26.5 47.0287 26.5 30.2983C26.4887 26.5096 27.2899 22.7625 28.8496 19.3097ZM29.4326 56.5334C30.7564 59.1819 32.2678 61.7324 33.9553 64.1653L20.1046 58.1587L20.6876 56.5334H29.4326Z" fill="white"/>
<path d="M38.8666 53H67.1333C69.0847 53 70.6666 51.4181 70.6666 49.4666V24.7333C70.6666 22.7819 69.0847 21.2 67.1333 21.2H60.0666V10.6C60.0666 8.64858 58.4847 7.06665 56.5333 7.06665H49.4666C47.5152 7.06665 45.9333 8.64858 45.9333 10.6V28.2666H38.8666C36.9152 28.2666 35.3333 29.8486 35.3333 31.8V49.4666C35.3333 51.4181 36.9152 53 38.8666 53ZM67.1333 24.7333V28.2666H65.3666C64.3909 28.2666 63.6 29.0576 63.6 30.0333C63.6 31.009 64.3909 31.8 65.3666 31.8H67.1333V35.3333H65.3666C64.3909 35.3333 63.6 36.1243 63.6 37.1C63.6 38.0757 64.3909 38.8666 65.3666 38.8666H67.1333V42.4H65.3666C64.3909 42.4 63.6 43.1909 63.6 44.1666C63.6 45.1424 64.3909 45.9333 65.3666 45.9333H67.1333V49.4666H60.0666V24.7333H67.1333ZM56.5333 10.6V49.4666H49.4666V45.9333H51.2333C52.209 45.9333 53 45.1424 53 44.1666C53 43.1909 52.209 42.4 51.2333 42.4H49.4666V38.8666H51.2333C52.209 38.8666 53 38.0757 53 37.1C53 36.1243 52.209 35.3333 51.2333 35.3333H49.4666V31.8H51.2333C52.209 31.8 53 31.009 53 30.0333C53 29.0576 52.209 28.2666 51.2333 28.2666H49.4666V24.7333H51.2333C52.209 24.7333 53 23.9424 53 22.9667C53 21.9909 52.209 21.2 51.2333 21.2H49.4666V17.6666H51.2333C52.209 17.6666 53 16.8757 53 15.9C53 14.9243 52.209 14.1333 51.2333 14.1333H49.4666V10.6H56.5333ZM45.9333 31.8V49.4666H38.8666V45.9333H40.6333C41.609 45.9333 42.4 45.1424 42.4 44.1666C42.4 43.1909 41.609 42.4 40.6333 42.4H38.8666V38.8666H40.6333C41.609 38.8666 42.4 38.0757 42.4 37.1C42.4 36.1243 41.609 35.3333 40.6333 35.3333H38.8666V31.8H45.9333Z" fill="#F9B93E"/>
</g>
<defs>
<clipPath id="clip0">
<rect width="106" height="106" fill="white"/>
</clipPath>
</defs>
</svg>
