<svg width="42" height="42" viewBox="0 0 42 42" fill="none" xmlns="http://www.w3.org/2000/svg">
<path d="M21 12.5878C16.3447 12.5878 12.5876 16.3449 12.5876 21.0001C12.5876 25.6554 16.3447 29.4124 21 29.4124C25.6552 29.4124 29.4123 25.6554 29.4123 21.0001C29.4123 16.3449 25.6552 12.5878 21 12.5878ZM21 26.4675C17.9894 26.4675 15.5326 24.0107 15.5326 21.0001C15.5326 17.9896 17.9894 15.5328 21 15.5328C24.0105 15.5328 26.4673 17.9896 26.4673 21.0001C26.4673 24.0107 24.0105 26.4675 21 26.4675ZM29.7568 10.2828C28.6699 10.2828 27.7921 11.1605 27.7921 12.2474C27.7921 13.3343 28.6699 14.2121 29.7568 14.2121C30.8437 14.2121 31.7214 13.3384 31.7214 12.2474C31.7218 11.9893 31.6712 11.7337 31.5726 11.4952C31.4739 11.2567 31.3292 11.04 31.1467 10.8575C30.9642 10.675 30.7475 10.5303 30.509 10.4317C30.2705 10.333 30.0149 10.2824 29.7568 10.2828V10.2828ZM37.398 21.0001C37.398 18.7361 37.4185 16.4925 37.2914 14.2326C37.1642 11.6076 36.5654 9.27788 34.6459 7.35835C32.7222 5.43472 30.3966 4.83999 27.7716 4.71284C25.5076 4.58569 23.264 4.6062 21.0041 4.6062C18.74 4.6062 16.4964 4.58569 14.2365 4.71284C11.6115 4.83999 9.28179 5.43882 7.36226 7.35835C5.43862 9.28198 4.8439 11.6076 4.71675 14.2326C4.5896 16.4966 4.61011 18.7402 4.61011 21.0001C4.61011 23.2601 4.5896 25.5078 4.71675 27.7677C4.8439 30.3927 5.44272 32.7224 7.36226 34.6419C9.28589 36.5656 11.6115 37.1603 14.2365 37.2874C16.5005 37.4146 18.7441 37.3941 21.0041 37.3941C23.2681 37.3941 25.5117 37.4146 27.7716 37.2874C30.3966 37.1603 32.7263 36.5615 34.6459 34.6419C36.5695 32.7183 37.1642 30.3927 37.2914 27.7677C37.4226 25.5078 37.398 23.2642 37.398 21.0001V21.0001ZM33.7886 30.6716C33.4892 31.4181 33.1283 31.9759 32.55 32.5501C31.9716 33.1285 31.4179 33.4894 30.6714 33.7888C28.514 34.646 23.3912 34.4533 21 34.4533C18.6087 34.4533 13.4818 34.646 11.3244 33.7929C10.5779 33.4935 10.0201 33.1326 9.44585 32.5542C8.86753 31.9759 8.50659 31.4222 8.20718 30.6757C7.35405 28.5142 7.54683 23.3914 7.54683 21.0001C7.54683 18.6089 7.35405 13.482 8.20718 11.3246C8.50659 10.5781 8.86753 10.0203 9.44585 9.44604C10.0242 8.87183 10.5779 8.50679 11.3244 8.20737C13.4818 7.35425 18.6087 7.54702 21 7.54702C23.3912 7.54702 28.5181 7.35425 30.6755 8.20737C31.422 8.50679 31.9798 8.86772 32.5541 9.44604C33.1324 10.0244 33.4933 10.5781 33.7927 11.3246C34.6459 13.482 34.4531 18.6089 34.4531 21.0001C34.4531 23.3914 34.6459 28.5142 33.7886 30.6716Z" fill="white"/>
</svg>
