<svg width="120" height="120" viewBox="0 0 120 120" fill="none" xmlns="http://www.w3.org/2000/svg">
<g clip-path="url(#clip0)">
<path d="M112.667 47.0267C108.518 46.6862 104.804 49.5896 104.132 53.698L100 55.7638V14.9998C99.9935 9.47984 95.5202 5.00633 90 5H10.0001C4.47984 5.00633 0.0065625 9.47984 0 14.9998V94.9998C0.0065625 100.52 4.47984 104.993 10.0001 105H56.3611L57.3966 110.176C57.9616 112.978 60.4212 114.994 63.2794 115H68.0002C71.3123 114.996 73.9966 112.312 74.0002 109V105H78C79.1046 105 79.9999 104.104 79.9999 103C79.9999 101.895 79.1044 101 78 101H73.9999V94.9998H77.5273L104.132 108.302C104.804 112.41 108.518 115.314 112.667 114.973C116.816 114.633 120.007 111.163 120 107V54.9999C120.007 50.8372 116.816 47.367 112.667 47.0267ZM4.00008 14.9998C4.00359 11.6877 6.68789 9.00336 10.0001 8.99984H90C93.3122 9.00336 95.9965 11.6877 96 14.9998V36.9999H73.9254C68.2908 29.4481 59.4216 24.9999 49.9995 24.9999C40.5773 24.9999 31.7081 29.4481 26.0735 36.9999H4.00008V14.9998ZM73.0045 66.9999H55.9999C50.4797 67.0065 46.0064 71.4798 45.9998 77V80.6694C33.3593 78.6739 24.0373 67.797 23.9998 54.9999C23.9946 43.6407 31.3676 33.5942 42.2055 30.1925C53.0435 26.7908 64.8352 30.8225 71.322 40.1473C76.8867 48.0702 77.5366 58.4445 73.0045 66.9999ZM10.0001 101C6.68789 100.996 4.00359 98.3122 4.00008 95V41H23.4952C21.198 45.3088 19.9978 50.1172 19.9999 54.9999C20.0473 69.9971 31.1402 82.6658 45.9998 84.6931V84.9999C46.0116 89.8672 49.5277 94.0182 54.3265 94.8308L55.5609 101H10.0001ZM70.0001 109C69.9989 110.104 69.1043 110.999 68.0002 111H63.2794C62.3264 110.998 61.5063 110.326 61.3184 109.391L58.4395 94.9998H70.0001V109ZM76.0001 90.9999H56.0002C52.688 90.9964 50.0037 88.3121 50.0002 84.9999V77C50.0037 73.6878 52.688 71.0035 56.0002 71H76.0001V90.9999ZM77.4813 66.9999C81.154 58.6409 80.7942 49.0599 76.5047 41H96V57.7637L77.5273 66.9999H77.4813ZM104 103.764L79.9999 91.7635V70.2362L104 58.2362V103.764ZM116 107C116 109.209 114.209 111 112 111C109.791 111 108 109.209 108 107V54.9999C108 52.7907 109.791 50.9998 112 50.9998C114.209 50.9998 116 52.7907 116 54.9999V107Z" fill="white"/>
<path d="M10.0002 85C9.46977 84.9998 8.96094 85.2105 8.5857 85.5857C8.2107 85.9607 8 86.4695 8 87.0002V93.0002C8 94.1048 8.89531 95.0001 9.99992 95.0001C11.1045 95.0001 11.9998 94.1045 11.9998 93.0002V87.0002C12.0001 86.4698 11.7894 85.9609 11.4141 85.5857C11.0394 85.2105 10.5305 84.9998 10.0002 85Z" fill="white"/>
<path d="M16.0002 85C15.4698 84.9998 14.9609 85.2105 14.5857 85.5857C14.2107 85.9607 14 86.4695 14 87.0002V93.0002C14 94.1048 14.8953 95.0001 15.9999 95.0001C17.1045 95.0001 17.9998 94.1045 17.9998 93.0002V87.0002C18.0001 86.4698 17.7894 85.9609 17.4141 85.5857C17.0394 85.2105 16.5305 84.9998 16.0002 85Z" fill="#F9B93E"/>
<path d="M22.0002 85C21.4698 84.9998 20.9609 85.2105 20.5857 85.5857C20.2107 85.9607 20 86.4695 20 87.0002V93.0002C20 94.1048 20.8953 95.0001 21.9999 95.0001C23.1045 95.0001 23.9998 94.1045 23.9998 93.0002V87.0002C24.0001 86.4698 23.7894 85.9609 23.4141 85.5857C23.0394 85.2105 22.5305 84.9998 22.0002 85Z" fill="white"/>
<path d="M78.0001 31.0001H86C88.208 30.9975 89.9975 29.2083 90.0001 27V19.0001C89.9975 16.792 88.2083 15.0026 86 15H78.0001C75.792 15.0026 74.0026 16.7918 74 19.0001V27C74.0026 29.2081 75.792 30.9975 78.0001 31.0001ZM78.0001 19.0001H86L86.0021 27H78.0001V19.0001Z" fill="#F9B93E"/>
<path d="M58.0002 38.9996C58.0002 36.5728 56.5384 34.385 54.2964 33.4564C52.0543 32.5278 49.4736 33.0411 47.7576 34.7569C46.0415 36.473 45.5282 39.0537 46.457 41.2957C47.3856 43.5378 49.5735 44.9996 52.0002 44.9996C55.3124 44.996 57.9965 42.3118 58.0002 38.9996ZM52.0002 40.9997C50.8956 40.9997 50.0003 40.1044 50.0003 38.9998C50.0003 37.8952 50.8956 36.9999 52.0002 36.9999C53.1048 36.9999 54.0001 37.8954 54.0001 38.9998C53.999 40.1037 53.1044 40.9986 52.0002 40.9997Z" fill="white"/>
<path d="M63.9999 43C59.5836 43.0047 56.0047 46.5836 56 50.9999C56 55.4181 59.5817 58.9998 63.9999 58.9998C68.4181 58.9998 71.9999 55.4181 71.9999 50.9999C71.9999 46.5817 68.4181 43 63.9999 43ZM63.9999 55C61.7907 55 59.9998 53.2091 59.9998 50.9999C59.9998 48.7907 61.7907 46.9998 63.9999 46.9998C66.208 47.0024 67.9974 48.7919 68 50.9999C67.9998 53.2091 66.2089 55 63.9999 55Z" fill="#F9B93E"/>
</g>
<defs>
<clipPath id="clip0">
<rect width="120" height="120" fill="white"/>
</clipPath>
</defs>
</svg>
