<svg width="258" height="258" viewBox="0 0 258 258" fill="none" xmlns="http://www.w3.org/2000/svg">
<path d="M254.221 30.0181H122.998C120.91 30.0181 119.219 31.7102 119.219 33.7974C119.219 35.8845 120.91 37.5767 122.998 37.5767H250.441V66.261H7.55859V37.5767H105.775C107.863 37.5767 109.555 35.8845 109.555 33.7974C109.555 31.7102 107.863 30.0181 105.775 30.0181H3.7793C1.69161 30.0181 0 31.7102 0 33.7974V224.202C0 226.289 1.69161 227.981 3.7793 227.981H161.205C163.293 227.981 164.984 226.289 164.984 224.202C164.984 222.115 163.293 220.423 161.205 220.423H7.55859V206.35H250.441V220.423H178.428C176.34 220.423 174.648 222.115 174.648 224.202C174.648 226.289 176.34 227.981 178.428 227.981H254.221C256.308 227.981 258 226.289 258 224.202V33.7974C258 31.7107 256.308 30.0181 254.221 30.0181ZM250.441 198.792H7.55859V73.8196H250.441V198.792Z" fill="white"/>
<path d="M25.8903 48.1401H25.8369C23.7492 48.1401 22.0576 49.8323 22.0576 51.9194C22.0576 54.0066 23.7492 55.6987 25.8369 55.6987H25.8903C27.978 55.6987 29.6696 54.0066 29.6696 51.9194C29.6696 49.8317 27.978 48.1401 25.8903 48.1401Z" fill="white"/>
<path d="M39.9108 48.1401H39.8574C37.7697 48.1401 36.0781 49.8323 36.0781 51.9194C36.0781 54.0066 37.7697 55.6987 39.8574 55.6987H39.9108C41.9985 55.6987 43.6901 54.0066 43.6901 51.9194C43.6901 49.8317 41.9985 48.1401 39.9108 48.1401Z" fill="#F9B93E"/>
<path d="M53.9304 48.1401H53.877C51.7893 48.1401 50.0977 49.8323 50.0977 51.9194C50.0977 54.0066 51.7893 55.6987 53.877 55.6987H53.9304C56.0181 55.6987 57.7097 54.0066 57.7097 51.9194C57.7097 49.8317 56.0181 48.1401 53.9304 48.1401Z" fill="white"/>
<path d="M234.156 48.1401H192.027C189.94 48.1401 188.248 49.8323 188.248 51.9194C188.248 54.0066 189.94 55.6987 192.027 55.6987H234.156C236.244 55.6987 237.935 54.0066 237.935 51.9194C237.935 49.8317 236.244 48.1401 234.156 48.1401Z" fill="white"/>
<path d="M178.5 48.1401H169.224C167.136 48.1401 165.444 49.8323 165.444 51.9194C165.444 54.0066 167.136 55.6987 169.224 55.6987H178.5C180.587 55.6987 182.279 54.0066 182.279 51.9194C182.279 49.8317 180.587 48.1401 178.5 48.1401Z" fill="#F9B93E"/>
<path d="M217.07 124.078H199.591C197.503 124.078 195.811 125.77 195.811 127.858C195.811 129.945 197.503 131.637 199.591 131.637H213.291V158.267H49.2275V131.637H182.369C184.456 131.637 186.148 129.945 186.148 127.858C186.148 125.77 184.456 124.078 182.369 124.078H45.4482C43.3606 124.078 41.6689 125.77 41.6689 127.858V162.046C41.6689 164.133 43.3606 165.825 45.4482 165.825H217.07C219.158 165.825 220.849 164.133 220.849 162.046V127.858C220.849 125.771 219.158 124.078 217.07 124.078Z" fill="white"/>
<path d="M75.7388 137.468C74.0466 135.776 71.7972 134.844 69.4042 134.844C67.0111 134.844 64.7617 135.776 63.0696 137.468C60.5329 140.005 59.8481 143.696 60.997 146.865L58.873 148.989C57.3966 150.465 57.3966 152.858 58.8725 154.334C59.6107 155.072 60.5782 155.441 61.5452 155.441C62.5122 155.441 63.4797 155.072 64.218 154.334L66.3379 152.214C67.3084 152.567 68.3404 152.761 69.4042 152.761C71.7972 152.761 74.0466 151.829 75.7388 150.137C79.2313 146.645 79.2313 140.962 75.7388 137.468ZM70.3938 144.793C70.0376 145.15 69.6208 145.203 69.4042 145.203C69.1875 145.203 68.7707 145.15 68.4145 144.793C67.8688 144.247 67.8688 143.359 68.4145 142.813C68.7707 142.456 69.1875 142.403 69.4042 142.403C69.6208 142.403 70.0376 142.456 70.3938 142.813C70.9396 143.359 70.9396 144.247 70.3938 144.793Z" fill="#F9B93E"/>
<path d="M120.598 172.325H79.501C77.4133 172.325 75.7217 174.018 75.7217 176.105C75.7217 178.192 77.4133 179.884 79.501 179.884H120.598C122.685 179.884 124.377 178.192 124.377 176.105C124.377 174.018 122.685 172.325 120.598 172.325Z" fill="#F9B93E"/>
<path d="M178.499 172.325H137.402C135.315 172.325 133.623 174.018 133.623 176.105C133.623 178.192 135.315 179.884 137.402 179.884H178.499C180.587 179.884 182.278 178.192 182.278 176.105C182.278 174.018 180.587 172.325 178.499 172.325Z" fill="#F9B93E"/>
<path d="M165.143 91.4595H92.8564C90.7688 91.4595 89.0771 93.1516 89.0771 95.2388V112.875C89.0771 114.963 90.7693 116.655 92.8564 116.655H165.143C167.231 116.655 168.923 114.963 168.923 112.875V95.2388C168.923 93.1511 167.231 91.4595 165.143 91.4595ZM161.364 109.096H96.6357V99.0181H161.364V109.096Z" fill="#F9B93E"/>
</svg>
