<svg width="126" height="126" viewBox="0 0 126 126" fill="none" xmlns="http://www.w3.org/2000/svg">
<path d="M119.602 4.67578H6.39844C5.94164 4.67604 5.50363 4.85762 5.18062 5.18062C4.85762 5.50363 4.67604 5.94164 4.67578 6.39844V89.6077C4.67604 90.0645 4.85762 90.5025 5.18062 90.8255C5.50363 91.1485 5.94164 91.33 6.39844 91.3303H18.2474C19.3127 92.1364 20.6122 92.5725 21.9481 92.5725C23.2841 92.5725 24.5835 92.1364 25.6489 91.3303H55.5945L53.0578 106.256C49.8876 106.771 47.0036 108.396 44.9203 110.84C42.8371 113.285 41.6902 116.39 41.6843 119.602C41.6846 120.058 41.8662 120.496 42.1892 120.819C42.5122 121.142 42.9502 121.324 43.407 121.324H82.5891C83.0459 121.324 83.4839 121.142 83.8069 120.819C84.1299 120.496 84.3115 120.058 84.3117 119.602C84.3061 116.391 83.1599 113.286 81.0776 110.842C78.9953 108.397 76.1124 106.772 72.9432 106.256L70.4055 91.3303H119.602C120.058 91.33 120.496 91.1485 120.819 90.8255C121.142 90.5025 121.324 90.0645 121.324 89.6077V6.39844C121.324 5.94164 121.142 5.50363 120.819 5.18062C120.496 4.85762 120.058 4.67604 119.602 4.67578ZM20.034 88.3378C19.5268 87.8299 19.242 87.1415 19.242 86.4237C19.242 85.7059 19.5268 85.0175 20.034 84.5096L39.5099 65.0327L43.3381 68.862L35.6521 76.548C35.6304 76.5686 35.6088 76.5903 35.5881 76.6119L23.8622 88.3378C23.3543 88.845 22.6659 89.1298 21.9481 89.1298C21.2303 89.1298 20.5419 88.845 20.034 88.3378ZM46.9931 67.6433L45.0785 65.7297L49.2424 61.5717C53.4445 65.1338 58.8616 66.9323 64.3597 66.5908C69.8578 66.2493 75.0108 63.7942 78.7397 59.7395C82.4687 55.6848 84.4847 50.3447 84.3656 44.8373C84.2465 39.3298 82.0016 34.082 78.1008 30.1922C74.2 26.3024 68.9458 24.0724 63.4381 23.9689C57.9303 23.8654 52.596 25.8964 48.5518 29.6369C44.5076 33.3773 42.0671 38.5371 41.7412 44.0362C41.4152 49.5353 43.2291 54.9473 46.8031 59.1393L42.6421 63.2953L40.7285 61.3817C40.5686 61.2216 40.3787 61.0946 40.1697 61.0079C39.9607 60.9213 39.7366 60.8767 39.5104 60.8767C39.2841 60.8767 39.06 60.9213 38.851 61.0079C38.642 61.0946 38.4521 61.2216 38.2922 61.3817L23.5994 76.0725H14.0273V14.0273H111.973V76.0725H40.9992L46.9921 70.0796C47.3147 69.7563 47.4959 69.3182 47.4959 68.8615C47.4959 68.4047 47.3147 67.9666 46.9921 67.6433H46.9931ZM50.3636 57.9482C47.8644 55.449 46.1625 52.2648 45.473 48.7983C44.7835 45.3318 45.1374 41.7387 46.49 38.4733C47.8426 35.208 50.1331 32.417 53.0718 30.4534C56.0106 28.4898 59.4656 27.4418 63 27.4418C66.5344 27.4418 69.9894 28.4898 72.9282 30.4534C75.8669 32.417 78.1574 35.208 79.51 38.4733C80.8626 41.7387 81.2165 45.3318 80.527 48.7983C79.8375 52.2648 78.1356 55.449 75.6364 57.9482C72.2824 61.2946 67.7379 63.1739 63 63.1739C58.2621 63.1739 53.7176 61.2946 50.3636 57.9482ZM80.7188 117.879H45.2812C45.6903 115.538 46.9111 113.416 48.7294 111.886C50.5476 110.355 52.847 109.515 55.2234 109.512H70.7766C73.153 109.515 75.4524 110.355 77.2706 111.886C79.0889 113.416 80.3098 115.538 80.7188 117.879ZM69.4162 106.066H56.5799L59.0891 91.3303H66.9109L69.4162 106.066ZM117.879 87.885H29.1867L37.5539 79.5178H113.695C114.152 79.5175 114.59 79.336 114.913 79.013C115.236 78.69 115.418 78.252 115.418 77.7952V12.3047C115.418 11.8479 115.236 11.4099 114.913 11.0869C114.59 10.7639 114.152 10.5823 113.695 10.582H12.3047C11.8479 10.5823 11.4099 10.7639 11.0869 11.0869C10.7639 11.4099 10.5823 11.8479 10.582 12.3047V77.7952C10.5823 78.252 10.7639 78.69 11.0869 79.013C11.4099 79.336 11.8479 79.5175 12.3047 79.5178H20.1541L17.5947 82.0772C16.8493 82.8251 16.309 83.7522 16.0258 84.7694C15.7425 85.7866 15.7259 86.8595 15.9774 87.885H8.12109V8.12109H117.879V87.885Z" fill="white"/>
<path d="M36.4222 16.4883H25.4297C24.9728 16.4883 24.5346 16.6698 24.2116 16.9928C23.8885 17.3159 23.707 17.7541 23.707 18.2109C23.707 18.6678 23.8885 19.106 24.2116 19.429C24.5346 19.7521 24.9728 19.9336 25.4297 19.9336H36.4222C36.8791 19.9336 37.3172 19.7521 37.6403 19.429C37.9634 19.106 38.1449 18.6678 38.1449 18.2109C38.1449 17.7541 37.9634 17.3159 37.6403 16.9928C37.3172 16.6698 36.8791 16.4883 36.4222 16.4883Z" fill="#F9B93E"/>
<path d="M66.2096 52.0754H69.1233L73.2193 38.5472H70.0693L67.568 47.6251L64.5755 38.5472H61.4246L58.4311 47.6251L55.9298 38.5472H52.7798L56.8758 52.0754H59.8092L63.0192 42.781L66.2096 52.0754Z" fill="#F9B93E"/>
</svg>
