<svg width="119" height="119" viewBox="0 0 119 119" fill="none" xmlns="http://www.w3.org/2000/svg">
<path d="M109.471 24.7883H93.7735V1.74316C93.7735 0.780473 92.9932 0 92.0303 0H45.5081C44.5454 0 43.7649 0.780473 43.7649 1.74316C43.7649 2.70586 44.5454 3.48633 45.5081 3.48633H90.2871V77.6584H28.7137V3.48633H38.5384C39.5011 3.48633 40.2816 2.70586 40.2816 1.74316C40.2816 0.780473 39.5011 0 38.5384 0H26.9705C26.0079 0 25.2274 0.780473 25.2274 1.74316V24.7883H9.52984C6.40656 24.7883 3.86572 27.3293 3.86572 30.4524V93.0664C3.86572 96.1906 6.40679 98.7326 9.52984 98.7326H48.3659C49.333 103.085 47.9073 106.87 44.1963 109.762H41.8302C39.4927 109.762 37.4465 111.065 36.7381 113.006L35.7591 115.689C35.4832 116.444 35.5939 117.289 36.0548 117.948C36.5157 118.607 37.2708 119 38.075 119H80.9254C81.7296 119 82.485 118.607 82.9459 117.948C83.4065 117.289 83.5172 116.444 83.2415 115.689L82.2621 113.006C81.5539 111.065 79.5074 109.762 77.1702 109.762H74.8041C71.093 106.87 69.6674 103.085 70.6345 98.7326H79.8895C80.8524 98.7326 81.6327 97.9523 81.6327 96.9894C81.6327 96.0265 80.8524 95.2463 79.8895 95.2463C65.5977 95.2463 23.8233 95.2463 9.52938 95.2463C8.32845 95.2463 7.35159 94.2685 7.35159 93.0664V81.1448C39.7447 81.1461 50.0463 81.1457 111.648 81.1448V93.0664C111.648 94.2685 110.671 95.2463 109.471 95.2463H86.8592C85.8962 95.2463 85.116 96.0265 85.116 96.9894C85.116 97.9523 85.8962 98.7326 86.8592 98.7326H109.471C112.594 98.7326 115.135 96.1906 115.135 93.0664V30.4524C115.135 27.3293 112.594 24.7883 109.471 24.7883ZM78.9875 114.201L79.4667 115.514H39.5343L40.0134 114.201C40.1821 113.739 40.8761 113.248 41.8304 113.248H77.1707C78.1247 113.248 78.8187 113.739 78.9875 114.201ZM67.077 98.7326C66.3537 102.841 67.3069 106.614 69.8384 109.762H49.1622C51.6935 106.614 52.6469 102.841 51.9236 98.7326H67.077ZM93.7735 34.3464H105.576V77.6587H93.7735V34.3464ZM13.4243 77.6584V34.3464H25.2274V77.6587H13.4243V77.6584ZM7.35205 30.4524C7.35205 29.2515 8.32915 28.2746 9.52984 28.2746H25.2274V30.86H11.6811C10.7184 30.86 9.93798 31.6405 9.93798 32.6032V77.6587H7.35205V30.4524ZM109.063 77.6584V32.6032C109.063 31.6405 108.282 30.86 107.319 30.86H93.7735V28.2746H109.471C110.672 28.2746 111.649 29.2517 111.649 30.4524V77.6584H109.063Z" fill="white"/>
<path d="M57.4736 86.4523C56.5109 86.4523 55.7305 87.2326 55.7305 88.1955C55.7305 89.1584 56.5109 89.9387 57.4736 89.9387H61.5278C62.4907 89.9387 63.2709 89.1584 63.2709 88.1955C63.2709 87.2326 62.4907 86.4523 61.5278 86.4523H57.4736Z" fill="#F9B93E"/>
<path d="M86.9283 11.1451C86.9283 9.43614 85.5381 8.04602 83.8291 8.04602H35.1719C33.4629 8.04602 32.0728 9.43637 32.0728 11.1451V14.4311C32.0728 16.1401 33.4631 17.5302 35.1719 17.5302H83.8291C85.5381 17.5302 86.9283 16.1399 86.9283 14.4311V11.1451ZM83.4419 14.0439H35.5588V11.5324H83.4417V14.0439H83.4419Z" fill="white"/>
<path d="M39.8891 39.7034C44.1991 39.7034 47.7054 36.1971 47.7054 31.8871C47.7054 27.5771 44.1991 24.0707 39.8891 24.0707C35.5791 24.0707 32.0728 27.5771 32.0728 31.8871C32.0728 36.1971 35.5791 39.7034 39.8891 39.7034ZM39.8891 27.5568C42.2768 27.5568 44.2191 29.4992 44.2191 31.8869C44.2191 34.2745 42.2768 36.2169 39.8891 36.2169C37.5014 36.2169 35.5591 34.2745 35.5591 31.8869C35.5591 29.4992 37.5014 27.5568 39.8891 27.5568Z" fill="white"/>
<path d="M67.3168 31.8869C67.3168 27.5769 63.8102 24.0706 59.5004 24.0706C55.1904 24.0706 51.6841 27.5769 51.6841 31.8869C51.6841 36.1969 55.1904 39.7032 59.5004 39.7032C63.8102 39.7035 67.3168 36.1969 67.3168 31.8869ZM55.1702 31.8869C55.1702 29.4992 57.1125 27.5569 59.5002 27.5569C61.8879 27.5569 63.8302 29.4992 63.8302 31.8869C63.8302 34.2746 61.8879 36.2169 59.5002 36.2169C57.1125 36.2169 55.1702 34.2746 55.1702 31.8869Z" fill="#F9B93E"/>
<path d="M79.112 24.0706C74.802 24.0706 71.2954 27.5769 71.2954 31.8869C71.2954 36.1969 74.802 39.7032 79.112 39.7032C83.422 39.7032 86.9284 36.1969 86.9284 31.8869C86.9284 27.5769 83.422 24.0706 79.112 24.0706ZM79.112 36.2171C76.7243 36.2171 74.7817 34.2748 74.7817 31.8871C74.7817 29.4995 76.7241 27.5571 79.112 27.5571C81.4994 27.5571 83.442 29.4995 83.442 31.8871C83.442 34.2748 81.4994 36.2171 79.112 36.2171Z" fill="white"/>
<path d="M45.3247 60.9222H33.8159C32.8532 60.9222 32.0728 61.7024 32.0728 62.6653C32.0728 63.6283 32.8532 64.4085 33.8159 64.4085H45.3247C46.2874 64.4085 47.0679 63.6283 47.0679 62.6653C47.0679 61.7024 46.2874 60.9222 45.3247 60.9222Z" fill="white"/>
<path d="M65.2549 60.9222H53.7461C52.7834 60.9222 52.0029 61.7024 52.0029 62.6653C52.0029 63.6283 52.7834 64.4085 53.7461 64.4085H65.2549C66.2178 64.4085 66.9981 63.6283 66.9981 62.6653C66.9981 61.7024 66.2176 60.9222 65.2549 60.9222Z" fill="#F9B93E"/>
<path d="M85.1851 60.9222H73.6763C72.7133 60.9222 71.9331 61.7024 71.9331 62.6653C71.9331 63.6283 72.7133 64.4085 73.6763 64.4085H85.1851C86.148 64.4085 86.9283 63.6283 86.9283 62.6653C86.9283 61.7024 86.1478 60.9222 85.1851 60.9222Z" fill="white"/>
<path d="M45.3247 69.5106H33.8159C32.8532 69.5106 32.0728 70.2909 32.0728 71.2538C32.0728 72.2167 32.8532 72.9969 33.8159 72.9969H45.3247C46.2874 72.9969 47.0679 72.2167 47.0679 71.2538C47.0679 70.2909 46.2874 69.5106 45.3247 69.5106Z" fill="#F9B93E"/>
<path d="M65.2549 69.5106H53.7461C52.7834 69.5106 52.0029 70.2909 52.0029 71.2538C52.0029 72.2167 52.7834 72.9969 53.7461 72.9969H65.2549C66.2178 72.9969 66.9981 72.2167 66.9981 71.2538C66.9981 70.2909 66.2176 69.5106 65.2549 69.5106Z" fill="white"/>
<path d="M85.1851 69.5106H73.6763C72.7133 69.5106 71.9331 70.2909 71.9331 71.2538C71.9331 72.2167 72.7133 72.9969 73.6763 72.9969H85.1851C86.148 72.9969 86.9283 72.2167 86.9283 71.2538C86.9283 70.2909 86.1478 69.5106 85.1851 69.5106Z" fill="#F9B93E"/>
<path d="M86.9283 47.0268C86.9283 45.3178 85.5381 43.9275 83.8291 43.9275H35.1719C33.4629 43.9275 32.0728 45.3178 32.0728 47.0268V50.3126C32.0728 52.0216 33.4631 53.4117 35.1719 53.4117H69.5538C70.5167 53.4117 71.297 52.6312 71.297 51.6685C71.297 50.7058 70.5167 49.9254 69.5538 49.9254H35.5588V47.4141H83.4417V49.9258H76.5232C75.5603 49.9258 74.78 50.7063 74.78 51.669C74.78 52.6317 75.5603 53.4122 76.5232 53.4122H83.8289C85.5379 53.4122 86.928 52.0218 86.928 50.3131V47.0268H86.9283Z" fill="white"/>
</svg>
