<svg width="36" height="34" viewBox="0 0 36 34" fill="none" xmlns="http://www.w3.org/2000/svg">
<g clip-path="url(#clip0)">
<path d="M8.17133 33.9995V11.0598H0.454323V33.9995H8.17133ZM4.31383 7.92586C7.00488 7.92586 8.67994 6.16436 8.67994 3.96306C8.6298 1.71213 7.00499 -0.000488281 4.36489 -0.000488281C1.72521 -0.000488281 -0.000976562 1.71216 -0.000976562 3.96306C-0.000976562 6.16446 1.67366 7.92586 4.26345 7.92586H4.31359H4.31383ZM12.4427 33.9995H20.1597V21.1889C20.1597 20.5032 20.2098 19.8183 20.4136 19.3282C20.9715 17.9584 22.2412 16.5397 24.373 16.5397C27.1655 16.5397 28.2826 18.6433 28.2826 21.7271V33.9994H35.9991V20.8459C35.9991 13.7997 32.192 10.5212 27.1146 10.5212C22.9516 10.5212 21.1238 12.8204 20.1083 14.3863H20.1599V11.0593H12.4428C12.5441 13.2118 12.4428 33.9991 12.4428 33.9991L12.4427 33.9995Z" fill="white"/>
</g>
<defs>
<clipPath id="clip0">
<rect width="36" height="34" fill="white"/>
</clipPath>
</defs>
</svg>
