<svg width="110" height="110" viewBox="0 0 110 110" fill="none" xmlns="http://www.w3.org/2000/svg">
<path d="M21.568 0.0284424C9.71908 0.0284424 0.0214844 9.72582 0.0214844 21.5749V88.4374C0.0214844 100.286 9.71886 109.98 21.568 109.98H88.4305C100.279 109.98 109.973 100.286 109.973 88.4374V21.5749C109.973 9.72604 100.279 0.0284424 88.4305 0.0284424H21.568ZM26.9872 18.1727C32.6685 18.1727 36.1679 21.9024 36.2759 26.805C36.2759 31.5993 32.6683 35.4338 26.8773 35.4338H26.7707C21.1976 35.4338 17.5954 31.5995 17.5954 26.805C17.5954 21.9025 21.3066 18.1727 26.9871 18.1727H26.9872ZM75.946 41.0868C86.8722 41.0868 95.0629 48.2282 95.0629 63.5748V92.2242H78.4581V65.4956C78.4581 58.779 76.0549 54.1966 70.0457 54.1966C65.4583 54.1966 62.7239 57.2852 61.5234 60.2688C61.0848 61.3363 60.977 62.8271 60.977 64.3204V92.2242H44.3722C44.3722 92.2242 44.5901 46.9467 44.3722 42.2585H60.9804V49.3342C63.187 45.9297 67.134 41.0867 75.946 41.0867V41.0868ZM18.5749 42.2622H35.1797V92.2244H18.5749V42.2622Z" fill="white"/>
</svg>
