<svg width="120" height="120" viewBox="0 0 120 120" fill="none" xmlns="http://www.w3.org/2000/svg">
<path d="M17.85 1.875L4.6275 18.4013C2.85187 20.6194 1.875 23.4075 1.875 26.25C1.875 29.0925 2.85187 31.8806 4.6275 34.0988L17.85 50.625H26.8537C26.475 51.4425 26.25 52.3425 26.25 53.3006C26.25 54.2906 26.4844 55.2825 26.9269 56.175L43.125 88.5675V118.125H76.875V88.5675L93.075 56.1731C93.5156 55.2844 93.75 54.2925 93.75 53.3025C93.75 52.3444 93.525 51.4444 93.1444 50.6269H118.125V1.875H17.85ZM90 53.3006C90 53.7131 89.9025 54.1275 89.7188 54.4969L73.125 87.6825V114.375H46.875V87.6825L30.2831 54.5006C30.0956 54.1294 30 53.715 30 53.3006C30 51.825 31.2 50.625 32.8125 50.625C33.8325 50.625 34.7494 51.1912 35.205 52.1044L44.7544 71.2031C47.4131 76.5187 52.5356 79.9575 58.3612 80.5106C58.8994 80.5781 59.4431 80.625 60 80.625C60.5569 80.625 61.1006 80.5781 61.6388 80.5106C67.4644 79.9556 72.585 76.5187 75.2456 71.2031L84.795 52.1044C85.2506 51.1912 86.1675 50.625 87.3244 50.625C88.8 50.625 90 51.825 90 53.3006ZM50.625 67.5C50.625 62.3306 54.8306 58.125 60 58.125C65.1694 58.125 69.375 62.3306 69.375 67.5C69.375 72.6694 65.1694 76.875 60 76.875C54.8306 76.875 50.625 72.6694 50.625 67.5ZM73.1044 67.0987C72.8906 60.0469 67.1006 54.375 60 54.375C52.8994 54.375 47.1094 60.0469 46.8956 67.0987L38.6587 50.625H81.3412L73.1044 67.0987ZM114.375 46.875H19.65L7.55625 31.7569C6.31125 30.1988 5.625 28.2431 5.625 26.25C5.625 24.2569 6.31125 22.3012 7.55625 20.7431L19.65 5.625H114.375V46.875Z" fill="white"/>
<path d="M13.125 26.25C13.125 30.3863 16.4887 33.75 20.625 33.75C24.7613 33.75 28.125 30.3863 28.125 26.25C28.125 22.1137 24.7613 18.75 20.625 18.75C16.4887 18.75 13.125 22.1137 13.125 26.25ZM20.625 22.5C22.6931 22.5 24.375 24.1819 24.375 26.25C24.375 28.3181 22.6931 30 20.625 30C18.5569 30 16.875 28.3181 16.875 26.25C16.875 24.1819 18.5569 22.5 20.625 22.5Z" fill="#F9B93E"/>
<path d="M75 33.2944C75 38.715 79.41 43.125 84.8288 43.125H85.335C87.5606 43.125 89.7412 42.36 91.4756 40.9706L109.877 26.25L91.4775 11.5294C89.7394 10.14 87.5588 9.375 85.335 9.375H84.8288C79.41 9.375 75 13.785 75 19.2056C75 21.8288 76.0219 24.2981 77.8781 26.1581L77.9719 26.2519L77.8763 26.3475C76.0219 28.2038 75 30.6712 75 33.2944ZM80.5313 23.505C79.3819 22.3556 78.75 20.8275 78.75 19.2056C78.75 15.8531 81.4763 13.125 84.8288 13.125H85.335C86.7113 13.125 88.0594 13.5975 89.1319 14.4563L103.873 26.25L89.1319 38.0438C88.0594 38.9025 86.7113 39.375 85.335 39.375H84.8288C81.4763 39.375 78.75 36.6469 78.75 33.2944C78.75 31.6706 79.3819 30.1444 80.5294 28.9969L83.2781 26.25L80.5313 23.505Z" fill="#F9B93E"/>
<path d="M37.5 33.2944C37.5 38.715 41.91 43.125 47.3288 43.125H47.835C50.0606 43.125 52.2413 42.36 53.9756 40.9706L72.3769 26.25L53.9775 11.5294C52.2394 10.14 50.0587 9.375 47.835 9.375H47.3288C41.91 9.375 37.5 13.785 37.5 19.2056C37.5 21.8288 38.5219 24.2981 40.3781 26.1581L40.4719 26.2519L40.3763 26.3475C38.5219 28.2038 37.5 30.6712 37.5 33.2944ZM43.0313 23.505C41.8819 22.3556 41.25 20.8275 41.25 19.2056C41.25 15.8531 43.9763 13.125 47.3288 13.125H47.835C49.2112 13.125 50.5594 13.5975 51.6319 14.4563L66.3731 26.25L51.6319 38.0438C50.5594 38.9025 49.2112 39.375 47.835 39.375H47.3288C43.9763 39.375 41.25 36.6469 41.25 33.2944C41.25 31.6706 41.8819 30.1444 43.0294 28.9969L45.7781 26.25L43.0313 23.505Z" fill="white"/>
<path d="M97.5 54.375H101.25V58.125H97.5V54.375Z" fill="white"/>
<path d="M97.5 61.875H101.25V65.625H97.5V61.875Z" fill="white"/>
<path d="M97.5 69.375H101.25V88.125H97.5V69.375Z" fill="#F9B93E"/>
<path d="M104.241 91.875H103.894C102.238 91.875 100.656 92.3588 99.3656 93.2119C98.0344 92.3419 96.4819 91.875 94.8563 91.875H94.5094C89.9569 91.875 86.25 95.58 86.25 100.134C86.25 102.592 87.3337 104.904 89.2219 106.479L99.375 114.941L109.528 106.479C111.416 104.906 112.5 102.592 112.5 100.134C112.5 95.58 108.793 91.875 104.241 91.875ZM107.126 103.599L99.375 110.059L91.6238 103.599C90.5906 102.739 90 101.477 90 100.134C90 97.6481 92.0231 95.625 94.5094 95.625H94.8563C96.0431 95.625 97.2037 96.1069 98.1694 97.0612L99.4969 98.1581L100.708 96.9469C101.546 96.1069 102.707 95.625 103.894 95.625H104.241C106.727 95.625 108.75 97.6481 108.75 100.134C108.75 101.477 108.159 102.739 107.126 103.599Z" fill="white"/>
<path d="M18.75 54.375H22.5V58.125H18.75V54.375Z" fill="white"/>
<path d="M18.75 61.875H22.5V65.625H18.75V61.875Z" fill="#F9B93E"/>
<path d="M18.75 69.375H22.5V88.125H18.75V69.375Z" fill="white"/>
<path d="M25.4906 91.875H25.1437C23.4881 91.875 21.9056 92.3588 20.6156 93.2119C19.2844 92.3419 17.7319 91.875 16.1063 91.875H15.7594C11.2069 91.875 7.5 95.58 7.5 100.134C7.5 102.592 8.58375 104.904 10.4719 106.479L20.625 114.941L30.7781 106.479C32.6663 104.906 33.75 102.592 33.75 100.134C33.75 95.58 30.0431 91.875 25.4906 91.875ZM28.3762 103.599L20.625 110.059L12.8738 103.599C11.8406 102.739 11.25 101.477 11.25 100.134C11.25 97.6481 13.2731 95.625 15.7594 95.625H16.1063C17.2931 95.625 18.4538 96.1069 19.4194 97.0612L20.7469 98.1581L21.9581 96.9469C22.7963 96.1069 23.9569 95.625 25.1437 95.625H25.4906C27.9769 95.625 30 97.6481 30 100.134C30 101.477 29.4094 102.739 28.3762 103.599Z" fill="white"/>
<path d="M22.5 9.375H26.25V13.125H22.5V9.375Z" fill="white"/>
<path d="M30 9.375H33.75V13.125H30V9.375Z" fill="#F9B93E"/>
<path d="M106.875 39.375H110.625V43.125H106.875V39.375Z" fill="white"/>
<path d="M106.875 31.875H110.625V35.625H106.875V31.875Z" fill="white"/>
<path d="M58.125 84.375H61.875V88.125H58.125V84.375Z" fill="#F9B93E"/>
<path d="M58.125 91.875H61.875V95.625H58.125V91.875Z" fill="white"/>
<path d="M58.125 99.375H61.875V103.125H58.125V99.375Z" fill="#F9B93E"/>
</svg>
