<svg width="94" height="94" viewBox="0 0 94 94" fill="none" xmlns="http://www.w3.org/2000/svg">
<path d="M37.6496 10.8192C37.3081 10.4777 36.8344 10.2812 36.3516 10.2812C35.8687 10.2812 35.395 10.4775 35.0536 10.8192C34.7121 11.1607 34.5156 11.6343 34.5156 12.1172C34.5156 12.6 34.7121 13.0737 35.0536 13.415C35.395 13.7567 35.8687 13.9531 36.3516 13.9531C36.8344 13.9531 37.3081 13.7567 37.6496 13.415C37.9911 13.0737 38.1875 12.6 38.1875 12.1172C38.1875 11.6343 37.9911 11.1607 37.6496 10.8192Z" fill="#F9B93E"/>
<path d="M29.5674 10.2812H22.1919C21.1779 10.2812 20.356 11.1034 20.356 12.1172C20.356 13.131 21.1779 13.9531 22.1919 13.9531H29.5674C30.5814 13.9531 31.4033 13.131 31.4033 12.1172C31.4033 11.1034 30.5814 10.2812 29.5674 10.2812Z" fill="white"/>
<path d="M31.04 20.5625H22.1919C21.1779 20.5625 20.356 21.3846 20.356 22.3984C20.356 23.4122 21.1779 24.2344 22.1919 24.2344H31.04C32.054 24.2344 32.8759 23.4122 32.8759 22.3984C32.8759 21.3846 32.054 20.5625 31.04 20.5625Z" fill="#F9B93E"/>
<path d="M93.2913 38.2092C93.2915 38.2086 93.2919 38.2082 93.2921 38.2077L81.1749 28.7715C81.1663 28.7649 81.1571 28.7596 81.1484 28.753V26.8047C81.1484 25.7909 80.3265 24.9688 79.3125 24.9688C78.2985 24.9688 77.4766 25.7909 77.4766 26.8047V51.7123C77.4766 51.7235 77.478 51.7343 77.4782 51.7455L62.2868 66.937L60.5277 65.3392C57.7786 62.8416 54.4286 61.1766 50.8384 60.4809L55.6052 55.7141C56.3222 54.9972 56.3222 53.8346 55.6052 53.1175L49.4383 46.9504L76.3135 35.4927C76.8744 35.2535 77.2801 34.7514 77.396 34.1527C77.5118 33.554 77.3229 32.9367 76.8916 32.5055L68.116 23.7297C68.8589 22.5174 69.2571 21.1214 69.2571 19.6636C69.2571 17.5791 68.4454 15.6196 66.9715 14.1455C65.4976 12.6716 63.5379 11.86 61.4534 11.86C59.9957 11.86 58.5996 12.2582 57.3874 13.001L48.6116 4.22523C48.1801 3.79378 47.5633 3.60431 46.964 3.72108C46.3651 3.83711 45.8632 4.24304 45.6241 4.8041L33.2516 33.8624L26.5923 40.5215C24.7211 42.3927 23.6904 44.8808 23.6904 47.5271C23.6904 50.1734 24.7211 52.6613 26.5923 54.5325C28.4635 56.4037 30.9515 57.4344 33.5978 57.4344C36.2442 57.4344 38.732 56.4039 40.6032 54.5325L41.3035 53.8323L47.5923 60.1211C47.3951 60.1154 47.1975 60.1114 46.9996 60.1114C41.9866 60.1114 37.1823 61.9677 33.4717 65.3386L31.7127 66.9364L16.5212 51.745C16.5214 51.7338 16.5229 51.7229 16.5229 51.7116V3.67188H37.083C38.097 3.67188 38.9189 2.84974 38.9189 1.83594C38.9189 0.822133 38.097 0 37.083 0H14.6875C13.6735 0 12.8516 0.822133 12.8516 1.83594V28.4596C12.8358 28.4715 12.8191 28.4818 12.8036 28.4943L0.686457 38.2248C0.686641 38.2251 0.686641 38.2253 0.686824 38.2257C0.268414 38.5622 0 39.0776 0 39.6562V84.6367C0 89.7996 4.20026 94 9.36328 94H84.6367C89.7997 94 94 89.7996 94 84.6367V39.6562C94 39.0676 93.722 38.5451 93.2913 38.2092ZM81.1484 33.4047L89.3962 39.8275L81.1484 48.0753V33.4047ZM61.4536 15.5322C62.5572 15.5322 63.5949 15.962 64.3753 16.7425C65.1556 17.5227 65.5854 18.5602 65.5854 19.664C65.5854 20.1193 65.5083 20.5619 65.3675 20.9815L60.1361 15.75C60.5556 15.6091 60.9983 15.5322 61.4536 15.5322ZM47.9378 8.74439L55.9333 16.7399C55.934 16.7406 55.9348 16.7415 55.9355 16.7425C55.9362 16.7434 55.9372 16.7439 55.9381 16.7447L64.3751 25.1817C64.3751 25.1819 64.3753 25.1819 64.3753 25.1821C64.3753 25.1823 64.3755 25.1823 64.3757 25.1823L72.3741 33.1807L68.4764 34.8424L46.2776 12.6435L47.9378 8.74439ZM44.7267 16.2859L64.8354 36.3945L46.6405 44.1517L36.9767 34.4879L44.7267 16.2859ZM38.0072 51.9365C36.8296 53.1142 35.2638 53.7629 33.5982 53.7629C31.9326 53.7629 30.3668 53.1142 29.189 51.9365C28.0113 50.7589 27.3626 49.193 27.3626 47.5275C27.3626 45.8619 28.0113 44.296 29.189 43.1183L34.8017 37.5056L43.6195 46.3244L38.0072 51.9365ZM43.9002 51.2362L46.2157 48.9209L51.7106 54.4159L49.3952 56.7312L43.9002 51.2362ZM12.8516 33.1649V48.0755L4.58195 39.8059L12.8516 33.1649ZM6.85374 89.5201C6.80178 89.5673 6.75386 89.6174 6.70852 89.6688C4.90434 88.7132 3.67188 86.8167 3.67188 84.6367V44.0888L28.9922 69.4089L6.85374 89.5201ZM11.425 90.3281L17.488 84.8203H30.9644C31.9784 84.8203 32.8003 83.9982 32.8003 82.9844C32.8003 81.9706 31.9784 81.1484 30.9644 81.1484H21.53L35.9412 68.0567C42.2458 62.3295 51.7543 62.3295 58.059 68.0567L82.575 90.3281H11.425ZM90.3281 84.6367C90.3281 86.8167 89.0957 88.7132 87.2915 89.6688C87.2461 89.6172 87.1982 89.5673 87.1463 89.5201L65.008 69.4089L90.3281 44.0888V84.6367Z" fill="white"/>
<path d="M80.6834 0.610316C79.9664 -0.106434 78.8039 -0.106434 78.087 0.610316L70.6705 8.02677C69.9536 8.7437 69.9536 9.90622 70.6705 10.6233C71.0291 10.9817 71.4989 11.1611 71.9687 11.1611C72.4385 11.1611 72.9085 10.9817 73.2669 10.6233L80.6834 3.20688C81.4003 2.48995 81.4003 1.32743 80.6834 0.610316Z" fill="#F9B93E"/>
<path d="M65.0679 0C64.0539 0 63.2319 0.822133 63.2319 1.83594V5.52379C63.2319 6.53759 64.0539 7.35972 65.0679 7.35972C66.0819 7.35972 66.9038 6.53759 66.9038 5.52379V1.83594C66.9038 0.822133 66.0819 0 65.0679 0Z" fill="white"/>
<path d="M79.4389 14.2324H75.6277C74.6137 14.2324 73.7917 15.0546 73.7917 16.0684C73.7917 17.0822 74.6137 17.9043 75.6277 17.9043H79.4389C80.4529 17.9043 81.2749 17.0822 81.2749 16.0684C81.2749 15.0546 80.4529 14.2324 79.4389 14.2324Z" fill="white"/>
<path d="M39.7903 81.6864C39.447 81.3449 38.9752 81.1484 38.4923 81.1484C38.0076 81.1484 37.5358 81.3447 37.1925 81.6864C36.851 82.0279 36.6564 82.5015 36.6564 82.9844C36.6564 83.4672 36.851 83.9409 37.1925 84.2822C37.5358 84.6239 38.0095 84.8203 38.4923 84.8203C38.9752 84.8203 39.447 84.6239 39.7903 84.2822C40.1318 83.9409 40.3282 83.4672 40.3282 82.9844C40.3282 82.5015 40.1318 82.0279 39.7903 81.6864Z" fill="#F9B93E"/>
</svg>
