<svg width="114" height="114" viewBox="0 0 114 114" fill="none" xmlns="http://www.w3.org/2000/svg">
<path d="M56.9996 4.10593L79.1654 22.6968L81.4543 19.9679L58.145 0.416978C57.4826 -0.138993 56.5167 -0.138993 55.8543 0.416978L45.2915 9.27688L47.5804 12.0057L56.9996 4.10593Z" fill="white"/>
<path d="M114 48.098V48.0938H113.999C114 47.5845 113.784 47.0787 113.364 46.7258L104.864 39.6008L102.575 42.3297L109.13 47.8284L56.9998 78.097L4.86992 47.8284L13.6176 40.495L11.3269 37.7661L0.639466 46.7293C0.481158 46.862 0.347342 47.0212 0.243808 47.2C0.0803786 47.4819 0.00445311 47.7898 0.00467576 48.0938H0V112.219C0 113.202 0.797551 114 1.78124 114H112.218C113.202 114 114 113.202 114 112.219V48.1116C114 48.1071 114 48.1024 114 48.098ZM110.437 51.1844V107.918L74.5443 72.0254L110.437 51.1844ZM56.9998 81.9374C57.3142 81.9363 57.6228 81.8521 57.894 81.6933L71.357 73.8761L107.918 110.437H6.08294L42.6427 73.8777L56.1092 81.6969C56.3797 81.8539 56.6869 81.9369 56.9998 81.9374ZM39.4552 72.027L3.56249 107.92V51.186L39.4552 72.027Z" fill="white"/>
<path d="M12.4687 35.6249H26.7187V44.5311C26.7187 45.5148 27.5162 46.3124 28.4999 46.3124C28.9724 46.3124 29.4253 46.1245 29.7593 45.7905L39.9248 35.6249H46.3124V44.5311C46.3124 45.5148 47.1099 46.3124 48.0936 46.3124H62.3435V55.2186C62.3435 56.2023 63.1411 56.9998 64.1248 56.9998C64.5973 56.9998 65.0501 56.8119 65.3841 56.4779L75.5497 46.3124H97.9684C98.9521 46.3124 99.7497 45.5148 99.7497 44.5311V26.7187C99.7497 25.735 98.9521 24.9375 97.9684 24.9375H64.1248V16.0312C64.1248 15.0476 63.3272 14.25 62.3435 14.25H12.4687C11.4851 14.25 10.6875 15.0476 10.6875 16.0312V33.8437C10.6875 34.8276 11.4851 35.6249 12.4687 35.6249ZM64.1248 33.8437V28.4999H96.1872V42.7499H74.8123C74.3398 42.7499 73.8869 42.9378 73.5529 43.2718L65.906 50.9187V44.5311C65.906 43.5474 65.1085 42.7499 64.1248 42.7499H49.8748V35.6249H62.3435C63.3272 35.6249 64.1248 34.8276 64.1248 33.8437ZM14.25 17.8125H60.5623V32.0624H39.1874C38.7149 32.0624 38.262 32.2504 37.928 32.5843L30.2812 40.2312V33.8437C30.2812 32.86 29.4836 32.0624 28.4999 32.0624H14.25V17.8125Z" fill="white"/>
<path d="M42.7499 23.1562H17.8125V26.7187H42.7499V23.1562Z" fill="#F9B93E"/>
<path d="M92.6249 33.8438H74.8125V37.4062H92.6249V33.8438Z" fill="white"/>
<path d="M57 23.1562H53.4375V26.7187H57V23.1562Z" fill="white"/>
<path d="M71.25 33.8438H67.6875V37.4062H71.25V33.8438Z" fill="#F9B93E"/>
<path d="M49.875 23.1562H46.3125V26.7187H49.875V23.1562Z" fill="white"/>
</svg>
