<svg width="32" height="30" viewBox="0 0 32 30" fill="none" xmlns="http://www.w3.org/2000/svg">
<path d="M2.51838 7.929L14.5184 13.9725C14.9216 14.175 15.4432 14.271 15.968 14.271C16.4928 14.271 17.0144 14.175 17.4176 13.9725L29.4176 7.929C30.2 7.5345 30.9392 6 29.504 6H2.43358C0.998378 6 1.73758 7.5345 2.51838 7.929V7.929ZM29.7808 11.2335L17.4176 17.274C16.8736 17.541 16.4928 17.5725 15.968 17.5725C15.4432 17.5725 15.0624 17.541 14.5184 17.274C13.9744 17.007 3.10558 11.6655 2.21758 11.232C1.59358 10.926 1.59998 11.2845 1.59998 11.5605V22.5C1.59998 23.13 2.50558 24 3.19998 24H28.8C29.4944 24 30.4 23.13 30.4 22.5V11.562C30.4 11.286 30.4064 10.9275 29.7808 11.2335V11.2335Z" fill="white"/>
</svg>
