<svg width="121" height="121" viewBox="0 0 121 121" fill="none" xmlns="http://www.w3.org/2000/svg">
<g clip-path="url(#clip0)">
<path d="M33.0328 41.675C27.8755 41.675 23.6797 45.8711 23.6797 51.0282C23.6797 56.1856 27.8757 60.3814 33.0328 60.3814C38.19 60.3814 42.386 56.1854 42.386 51.0282C42.386 45.8711 38.1902 41.675 33.0328 41.675ZM33.0328 56.8298C29.8341 56.8298 27.2315 54.2271 27.2315 51.0284C27.2315 48.4489 28.9243 46.2582 31.2568 45.5062V49.134C31.2568 50.1148 32.0521 50.91 33.0328 50.91C34.0136 50.91 34.8089 50.1148 34.8089 49.134V45.5062C37.1414 46.2582 38.8342 48.4487 38.8342 51.0284C38.8342 54.2271 36.2315 56.8298 33.0328 56.8298Z" fill="#F9B93E"/>
<path d="M48.187 64.4071H12.195C11.2142 64.4071 10.4189 65.2023 10.4189 66.1831C10.4189 67.1639 11.2142 67.9591 12.195 67.9591H48.187C49.1678 67.9591 49.963 67.1639 49.963 66.1831C49.963 65.2023 49.1678 64.4071 48.187 64.4071Z" fill="white"/>
<path d="M53.87 5.68262H12.195C11.2142 5.68262 10.4189 6.47786 10.4189 7.45862V22.6132C10.4189 23.5939 11.2142 24.3892 12.195 24.3892H53.87C54.8508 24.3892 55.646 23.5939 55.646 22.6132V7.45862C55.646 6.47786 54.8508 5.68262 53.87 5.68262ZM52.0942 20.8372H13.9707V9.23439H52.094V20.8372H52.0942Z" fill="#F9B93E"/>
<path d="M102.995 75.4737C102.905 74.5733 102.118 73.8788 101.217 73.8788H87.9674C86.9864 73.8788 86.1914 74.674 86.1914 75.6548C86.1914 76.6355 86.9864 77.4308 87.9674 77.4308H96.3223L67.1301 101.758L37.9375 77.4305H79.5617C80.5427 77.4305 81.3377 76.6353 81.3377 75.6545C81.3377 74.6738 80.5427 73.8785 79.5617 73.8785H63.2232V1.77601C63.2232 0.795244 62.4281 0 61.4471 0H4.61731C3.63655 0 2.84131 0.795244 2.84131 1.77601V105.964C2.84131 106.945 3.63655 107.74 4.61731 107.74H31.2562V119.224C31.2562 120.205 32.0515 121 33.0322 121H101.228C102.209 121 103.004 120.205 103.004 119.224V75.6548C103.004 75.5945 103.001 75.5333 102.995 75.4737ZM6.39332 3.55178H59.6711V26.5205H6.39332V3.55178ZM12.1947 73.8788C11.2139 73.8788 10.4187 74.674 10.4187 75.6548C10.4187 76.6355 11.2139 77.4308 12.1947 77.4308H31.2565V83.3506H12.1947C11.2139 83.3506 10.4187 84.1458 10.4187 85.1266C10.4187 86.1073 11.2139 86.9026 12.1947 86.9026H31.2565V104.188H6.39332V30.0725H59.6711V73.8788H12.1947ZM99.452 117.448H34.8082V79.4464L65.9931 105.434C66.6438 105.976 67.6162 105.976 68.2673 105.434L99.452 79.4464V117.448Z" fill="white"/>
<path d="M76.6025 54.9352C72.4897 54.9352 69.1436 58.2813 69.1436 62.3942C69.1436 66.507 72.4897 69.8531 76.6025 69.8531C80.7154 69.8531 84.0615 66.507 84.0615 62.3942C84.0615 58.2813 80.7154 54.9352 76.6025 54.9352ZM76.6025 66.3011C74.4482 66.3011 72.6956 64.5485 72.6956 62.3942C72.6956 60.2398 74.4484 58.4872 76.6025 58.4872C78.7567 58.4872 80.5095 60.24 80.5095 62.3942C80.5095 64.5483 78.7569 66.3011 76.6025 66.3011Z" fill="white"/>
<path d="M76.6012 45.464C75.6202 45.464 74.8252 46.2592 74.8252 47.24C74.8252 48.2208 75.6202 49.016 76.6012 49.016C83.9782 49.016 89.98 55.0178 89.98 62.3948C89.98 63.3755 90.775 64.1708 91.756 64.1708C92.737 64.1708 93.532 63.3755 93.532 62.3948C93.5317 53.0589 85.9366 45.464 76.6012 45.464Z" fill="#F9B93E"/>
<path d="M76.6012 34.0979C75.6202 34.0979 74.8252 34.8931 74.8252 35.8739C74.8252 36.8547 75.6202 37.6499 76.6012 37.6499C90.2454 37.6499 101.346 48.7502 101.346 62.3944C101.346 63.3751 102.141 64.1704 103.122 64.1704C104.103 64.1704 104.898 63.3751 104.898 62.3944C104.898 46.7915 92.2041 34.0979 76.6012 34.0979Z" fill="white"/>
<path d="M76.6012 20.8376C75.6202 20.8376 74.8252 21.6329 74.8252 22.6137C74.8252 23.5944 75.6202 24.3897 76.6012 24.3897C97.5571 24.3897 114.606 41.4386 114.606 62.3945C114.606 63.3753 115.401 64.1705 116.382 64.1705C117.363 64.1705 118.158 63.3753 118.158 62.3945C118.158 39.4799 99.5156 20.8376 76.6012 20.8376Z" fill="#F9B93E"/>
</g>
<defs>
<clipPath id="clip0">
<rect width="121" height="121" fill="white"/>
</clipPath>
</defs>
</svg>
