<svg width="50" height="50" viewBox="0 0 50 50" fill="none" xmlns="http://www.w3.org/2000/svg">
<path d="M45.1323 16.5234C44.0368 13.9088 42.443 11.5323 40.4399 9.52635C38.4427 7.51692 36.0704 5.9193 33.4575 4.8242C30.7808 3.69692 27.9048 3.11907 25.0004 3.12498H24.9028C21.9487 3.13963 19.0922 3.72557 16.4018 4.87791C13.8113 5.98424 11.4612 7.58469 9.48285 9.58983C7.49912 11.5913 5.92364 13.9595 4.84418 16.5625C3.72365 19.2693 3.15587 22.173 3.17426 25.1025C3.18891 28.4912 3.99946 31.8554 5.51313 34.8633V42.2851C5.51313 43.5254 6.51899 44.5312 7.75434 44.5312H15.1664C18.1883 46.0561 21.5229 46.8584 24.9077 46.875H25.0102C27.9301 46.875 30.7573 46.3086 33.4233 45.2002C36.0229 44.1181 38.3865 42.5391 40.3813 40.5517C42.393 38.5547 43.975 36.2207 45.0834 33.6181C46.2309 30.9228 46.8168 28.0566 46.8315 25.0976C46.8412 22.124 46.2651 19.2383 45.1323 16.5234ZM15.2543 27.3437C13.9653 27.3437 12.9155 26.2939 12.9155 25C12.9155 23.706 13.9653 22.6562 15.2543 22.6562C16.5434 22.6562 17.5932 23.706 17.5932 25C17.5932 26.2939 16.5483 27.3437 15.2543 27.3437ZM25.0004 27.3437C23.7114 27.3437 22.6616 26.2939 22.6616 25C22.6616 23.706 23.7114 22.6562 25.0004 22.6562C26.2895 22.6562 27.3393 23.706 27.3393 25C27.3393 26.2939 26.2895 27.3437 25.0004 27.3437ZM34.7465 27.3437C33.4575 27.3437 32.4077 26.2939 32.4077 25C32.4077 23.706 33.4575 22.6562 34.7465 22.6562C36.0356 22.6562 37.0854 23.706 37.0854 25C37.0854 26.2939 36.0356 27.3437 34.7465 27.3437Z" fill="#F9B93E"/>
</svg>
