<svg width="95" height="95" viewBox="0 0 95 95" fill="none" xmlns="http://www.w3.org/2000/svg">
<g clip-path="url(#clip0)">
<path d="M39.4663 25.4626C43.6001 25.4626 46.9633 22.0996 46.9633 17.9658C46.9633 13.832 43.6001 10.4688 39.4663 10.4688C35.3325 10.4688 31.9695 13.832 31.9695 17.9658C31.9695 22.0996 35.3325 25.4626 39.4663 25.4626ZM39.4663 13.252C42.0656 13.252 44.1801 15.3664 44.1801 17.9658C44.1801 20.5649 42.0656 22.6794 39.4663 22.6794C36.8672 22.6794 34.7527 20.5649 34.7527 17.9658C34.7527 15.3666 36.8672 13.252 39.4663 13.252Z" fill="white"/>
<path d="M36.7084 81.0843C41.4391 81.0843 45.2879 77.2355 45.2879 72.5048C45.2879 67.7741 41.4391 63.9253 36.7084 63.9253C31.9777 63.9253 28.1289 67.7741 28.1289 72.5048C28.1289 77.2355 31.9777 81.0843 36.7084 81.0843ZM36.7084 66.7085C39.9046 66.7085 42.5047 69.3087 42.5047 72.5048C42.5047 75.7008 39.9044 78.3011 36.7084 78.3011C33.5124 78.3011 30.9121 75.7008 30.9121 72.5048C30.9121 69.3087 33.5122 66.7085 36.7084 66.7085Z" fill="#F9B93E"/>
<path d="M24.4212 24.4238C19.4057 24.4238 15.3253 28.5041 15.3253 33.5196C15.3253 38.5352 19.4057 42.6155 24.4212 42.6155C29.4367 42.6155 33.5171 38.5352 33.5171 33.5196C33.5171 28.5041 29.4367 24.4238 24.4212 24.4238ZM24.4212 39.8325C20.9403 39.8325 18.1085 37.0007 18.1085 33.5198C18.1085 30.039 20.9405 27.2072 24.4212 27.2072C27.9019 27.2072 30.7339 30.039 30.7339 33.5198C30.7339 37.0007 27.902 39.8325 24.4212 39.8325Z" fill="#F9B93E"/>
<path d="M21.8161 64.7045C26.8316 64.7045 30.912 60.6241 30.912 55.6086C30.912 50.5931 26.8316 46.5127 21.8161 46.5127C16.8006 46.5127 12.7202 50.5931 12.7202 55.6086C12.7202 60.6241 16.8006 64.7045 21.8161 64.7045ZM21.8161 49.2957C25.297 49.2957 28.1288 52.1275 28.1288 55.6084C28.1288 59.0892 25.2968 61.9211 21.8161 61.9211C18.3354 61.9211 15.5034 59.0892 15.5034 55.6084C15.5034 52.1275 18.3352 49.2957 21.8161 49.2957Z" fill="white"/>
<path d="M17.9521 80.2735L17.5834 80.6112L17.9521 80.2735C7.26973 68.611 2.55032 56.0789 3.8448 43.0095C5.30607 28.2545 13.8107 17.201 25.5678 10.5438C37.3341 3.88129 52.3512 1.62982 66.7705 4.5138L66.8679 4.02645L66.7705 4.51381C70.4097 5.24162 71.8308 8.19213 71.9393 10.5324L71.9393 10.5325C72.0467 12.8407 70.922 15.8666 67.4169 16.9137C62.4716 18.391 58.5239 20.558 55.7142 23.3767L56.0683 23.7297L55.7142 23.3767C49.2598 29.8519 48.7088 40.7564 54.8589 48.1002C57.7241 51.5215 59.5681 55.6631 60.209 60.1076C57.0904 67.2054 53.9057 75.2237 51.4274 82.6654C47.5197 85.8536 42.5952 87.7866 37.5029 88.1191C36.4603 88.1872 35.6704 89.0874 35.7385 90.13L35.7385 90.1301C35.804 91.1307 36.6357 91.8985 37.6249 91.8985C37.6646 91.8985 37.7062 91.8973 37.7495 91.8943C41.9729 91.6185 46.0965 90.387 49.7588 88.3477C49.4743 91.0338 50.8871 93.6485 53.4118 94.8617C56.487 96.3396 60.2074 95.1691 61.8853 92.2002C64.5734 87.4441 67.4833 81.6766 70.3009 75.521C70.7361 74.571 70.318 73.4485 69.3685 73.0137L69.1604 73.4683L69.3685 73.0137C68.4181 72.5786 67.296 72.9969 66.8613 73.9463L66.8612 73.9464C64.085 80.0117 61.2251 85.68 58.5919 90.3388C57.8907 91.5794 56.3342 92.0682 55.0504 91.452C53.8323 90.8665 53.2357 89.5113 53.6257 88.2253L53.6257 88.2253C57.1629 76.5573 63.0367 62.3738 68.4586 51.2988L75.0654 54.1269C73.3648 58.7334 71.4424 63.5111 69.482 68.0488L69.4819 68.049C69.068 69.0082 69.5102 70.1212 70.4693 70.5351L70.4693 70.5351C71.4298 70.9494 72.5418 70.5066 72.9556 69.5477L72.9557 69.5474C76.7449 60.754 80.9763 49.7761 83.481 40.4825C84.3723 40.0908 85.0253 39.398 85.384 38.5599L86.5883 35.7463C86.8388 35.1613 86.9255 34.5465 86.8701 33.9537C89.2027 32.4206 92.3577 29.7682 94.0295 25.8627C95.115 23.3271 95.282 19.9642 95.0694 16.7258C94.8558 13.4723 94.2534 10.2747 93.7469 8.02909C93.5189 7.01718 92.8139 6.17023 91.8603 5.76202L91.6635 6.22167L91.8602 5.762C90.9065 5.35383 89.8074 5.42806 88.9175 5.96171C86.9431 7.14553 84.2137 8.91703 81.7121 11.0084C79.2221 13.0899 76.9042 15.532 75.8188 18.0673C74.1476 21.9712 74.4056 26.0836 74.906 28.8296C74.428 29.2073 74.0495 29.7 73.8039 30.2737L72.5996 33.0872C72.238 33.9317 72.1922 34.88 72.5222 35.791C69.041 41.5246 65.5945 48.3606 62.7357 54.5154C61.6383 51.2964 59.9612 48.3007 57.7595 45.6716C55.501 42.9747 54.3583 39.8214 54.3583 36.2819C54.3583 32.4488 55.5395 29.2336 57.8726 26.623C60.2141 24.0033 63.7462 21.9591 68.4999 20.5389C73.1015 19.1643 75.9417 15.1575 75.7186 10.3573C75.5344 6.39425 72.9283 1.88766 67.5125 0.804411L67.4145 1.29432L67.5125 0.804411C52.0872 -2.28078 36.0361 0.181417 23.4347 7.40951C10.8243 14.6427 1.66299 26.6556 0.0798485 42.6367L0.577413 42.686L0.0798475 42.6367C-1.32929 56.864 3.77074 70.3921 15.1624 82.8289C19.3419 87.392 24.7476 90.3895 30.7917 91.4932C31.8193 91.6823 32.8051 90.9994 32.9929 89.9723C33.1808 88.9444 32.4995 87.9593 31.4718 87.7716C26.2462 86.8175 21.5724 84.2261 17.9521 80.2735ZM79.2964 19.556C79.8374 18.2921 82.0144 14.6331 90.2181 9.59702C92.2378 19.0096 91.0923 23.1096 90.5513 24.3737C89.2264 27.4689 86.5967 29.6325 84.6406 30.8916L78.6602 28.3315C78.2213 26.0468 77.9718 22.6507 79.2964 19.556ZM70.1524 47.9085C71.9761 44.3346 73.7668 41.0719 75.4177 38.3145L79.6562 40.1288C78.8004 43.2274 77.6758 46.7754 76.3489 50.561L70.1524 47.9085ZM83.0763 34.3369L81.9401 36.9912L76.1113 34.4961L77.2475 31.8418L83.0763 34.3369ZM76.0772 34.5759L76.0773 34.5756L76.0772 34.5759ZM82.0197 37.0253L82.0194 37.0252C82.0196 37.0252 82.0197 37.0253 82.0199 37.0254L82.0197 37.0253ZM83.1103 34.2576C83.1103 34.2575 83.1103 34.2574 83.1104 34.2573L83.1103 34.2576Z" fill="white" stroke="white"/>
</g>
<defs>
<clipPath id="clip0">
<rect width="95" height="95" fill="white"/>
</clipPath>
</defs>
</svg>
