<svg width="45" height="45" viewBox="0 0 45 45" fill="none" xmlns="http://www.w3.org/2000/svg">
<path d="M38.4132 32.1377L30.7913 25.2077C30.431 24.8802 29.9576 24.7056 29.4709 24.7206C28.9843 24.7357 28.5225 24.9392 28.1832 25.2883L23.6963 29.9027C22.6163 29.6965 20.445 29.0196 18.21 26.7902C15.975 24.5533 15.2982 22.3765 15.0975 21.304L19.7082 16.8152C20.0577 16.4761 20.2615 16.0142 20.2766 15.5275C20.2916 15.0407 20.1167 14.5672 19.7888 14.2071L12.8607 6.58708C12.5326 6.22587 12.0767 6.00677 11.5897 5.97632C11.1027 5.94586 10.623 6.10644 10.2525 6.42395L6.18379 9.91333C5.85962 10.2387 5.66614 10.6717 5.64004 11.1302C5.61192 11.599 5.07567 22.7027 13.6857 31.3165C21.1969 38.8258 30.6057 39.3752 33.1969 39.3752C33.5757 39.3752 33.8082 39.3639 33.87 39.3602C34.3285 39.3345 34.7613 39.1402 35.085 38.8146L38.5725 34.744C38.8913 34.3746 39.0531 33.8953 39.0233 33.4084C38.9935 32.9214 38.7746 32.4654 38.4132 32.1377V32.1377Z" fill="#F9B93E"/>
</svg>
