<svg width="37" height="37" viewBox="0 0 37 37" fill="none" xmlns="http://www.w3.org/2000/svg">
<path d="M31.5841 26.4241L25.3172 20.7261C25.021 20.4569 24.6317 20.3133 24.2316 20.3257C23.8314 20.338 23.4518 20.5054 23.1727 20.7924L19.4835 24.5865C18.5955 24.4169 16.8103 23.8603 14.9726 22.0273C13.1349 20.1881 12.5784 18.3982 12.4134 17.5164L16.2044 13.8256C16.4918 13.5468 16.6594 13.1671 16.6718 12.7668C16.6842 12.3666 16.5403 11.9772 16.2707 11.6812L10.5742 5.41584C10.3045 5.11884 9.92964 4.9387 9.52922 4.91365C9.12881 4.88861 8.73441 5.02064 8.42978 5.28171L5.08436 8.15075C4.81783 8.41826 4.65874 8.77428 4.63728 9.15129C4.61415 9.53671 4.17324 18.6665 11.2526 25.7489C17.4285 31.9233 25.1646 32.375 27.2952 32.375C27.6066 32.375 27.7977 32.3657 27.8486 32.3626C28.2256 32.3415 28.5814 32.1817 28.8476 31.914L31.7151 28.567C31.9772 28.2634 32.1102 27.8693 32.0857 27.4689C32.0613 27.0685 31.8812 26.6936 31.5841 26.4241V26.4241Z" fill="white"/>
</svg>
