<svg width="108" height="108" viewBox="0 0 108 108" fill="none" xmlns="http://www.w3.org/2000/svg">
<g clip-path="url(#clip0)">
<path d="M92.1839 15.8163C81.9844 5.61705 68.4239 0 54 0C39.5761 0 26.0156 5.61705 15.8161 15.8163C5.61705 26.0156 0 39.5761 0 54C0 75.4937 12.7362 94.9324 32.4468 103.522C32.7166 103.64 33.0037 103.698 33.2893 103.698C33.6909 103.698 34.09 103.584 34.4377 103.359C35.0317 102.974 35.393 102.317 35.3997 101.609C35.4461 96.7682 36.0182 91.9253 37.0957 87.2313L42.4818 64.5684C42.8374 63.0718 42.8849 61.5438 42.6233 60.0269L41.907 55.8809C41.8449 55.5228 41.8137 55.1566 41.8137 54.7921V53.711C41.8137 50.27 42.8146 46.933 44.7084 44.0606C45.6929 42.5674 47.3481 41.6756 49.1362 41.6753H49.2813H49.2824C51.6348 41.6753 53.6802 43.2835 54.2561 45.587L54.3145 45.8205C54.7305 47.4846 54.7246 49.2421 54.2978 50.9032L50.3803 66.1502C49.6517 68.9861 50.2561 71.947 52.0387 74.2736C53.7941 76.565 56.4452 77.8986 59.3148 77.9323L59.4517 77.9332C70.6206 77.9332 78.7274 66.5291 78.7274 50.8167C78.7274 43.9203 76.2368 37.6975 71.7147 33.2946C67.2089 28.9077 60.8494 26.4916 53.8074 26.4916C45.9234 26.4916 39.1177 29.2528 34.1267 34.4763C29.6228 39.1897 27.0399 45.6859 27.0399 52.2994C27.0399 56.4169 28.3297 61.0689 30.4062 64.4397C30.684 64.8909 30.7469 65.4265 30.5786 65.9089L29.3844 69.3303C29.2973 69.5798 29.0993 69.6661 28.9889 69.6952C28.8581 69.7302 28.6641 69.7378 28.482 69.579C24.3053 65.934 21.2739 58.5811 21.2739 52.095C21.2739 36.7795 31.2755 24.9434 46.7541 21.9415C47.8978 21.7196 48.6449 20.6128 48.4232 19.4691C48.2013 18.3254 47.0939 17.577 45.9506 17.8C37.0248 19.5311 29.5823 23.8794 24.428 30.3748C19.6735 36.3665 17.0551 44.08 17.0551 52.095C17.0551 59.8149 20.6134 68.3115 25.7082 72.7576C26.9032 73.8001 28.5335 74.18 30.0685 73.7733C31.6094 73.3653 32.8428 72.2239 33.3676 70.72L34.5617 67.2983C35.15 65.6121 34.9445 63.7637 33.9983 62.227C32.334 59.5249 31.2586 55.6282 31.2586 52.299C31.2586 41.8331 39.1612 30.71 53.8072 30.71C65.9958 30.71 74.5084 38.9779 74.5084 50.8163C74.5084 57.4619 72.8878 63.4407 69.9454 67.6517C67.2133 71.561 63.4867 73.714 59.4515 73.714L59.3622 73.7136C57.7986 73.695 56.3498 72.9639 55.3873 71.7076C54.3976 70.4158 54.0618 68.7728 54.466 67.1998L58.3835 51.9529C58.9842 49.6142 58.9925 47.1397 58.4065 44.7962L58.3481 44.5627C57.302 40.3783 53.5741 37.4562 49.2822 37.4562H49.2803H49.1351C45.9247 37.4568 42.9528 39.0574 41.1855 41.738C38.8363 45.3016 37.5943 49.4416 37.5943 53.7104V54.7914C37.5943 55.3956 37.6464 56.0037 37.749 56.5983L38.4653 60.7441C38.6294 61.6954 38.5997 62.6537 38.3765 63.5924L32.987 86.2709C32.0804 90.2188 31.5107 94.2538 31.2863 98.307C14.7439 89.8227 4.21875 72.7604 4.21875 54C4.21875 26.5505 26.5505 4.21875 54 4.21875C81.4495 4.21875 103.781 26.5505 103.781 54C103.781 67.6534 98.3635 80.3893 88.5262 89.8623C87.6869 90.6704 87.6618 92.0057 88.4699 92.845C89.2782 93.6841 90.6133 93.7094 91.4526 92.9013C96.629 87.9166 100.699 82.0612 103.551 75.4979C106.503 68.7019 108 61.4691 108 54C108 39.5761 102.383 26.0156 92.1839 15.8163Z" fill="white"/>
<path d="M84.4006 96.1158C83.7592 95.1436 82.4512 94.8753 81.4783 95.5169L81.3258 95.6178C80.3534 96.2592 80.0853 97.5679 80.727 98.5401C81.1324 99.1548 81.8044 99.4878 82.4893 99.4878C82.8882 99.4878 83.2915 99.3748 83.6493 99.139L83.8018 99.0381C84.7742 98.3967 85.0423 97.088 84.4006 96.1158Z" fill="#F9B93E"/>
<path d="M83.6804 29.7685C78.9936 24.0438 72.5256 20.0168 64.9755 18.1228C63.8455 17.8391 62.6995 18.5255 62.4162 19.6555C62.1329 20.7855 62.8191 21.9313 63.9489 22.2148C77.6191 25.644 86.8035 37.0467 86.8035 50.5891C86.8035 68.7503 75.5276 82.4459 60.5747 82.4459C56.8569 82.4459 52.6399 80.2591 50.5596 78.2016C50.0228 77.6707 49.2425 77.4671 48.5144 77.6682C47.7862 77.8694 47.2215 78.4446 47.0334 79.1764L45.5153 85.0851C43.9963 90.9965 41.7661 96.723 38.8868 102.105L38.3822 103.048C38.0797 103.614 38.0508 104.287 38.3042 104.876C38.5575 105.466 39.0652 105.908 39.6841 106.077C44.3346 107.353 49.1514 108 54.0006 108C60.6477 108 67.1387 106.806 73.2934 104.451C74.3816 104.035 74.9263 102.815 74.5099 101.727C74.0933 100.639 72.8734 100.095 71.786 100.511C66.1144 102.681 60.1305 103.781 54.0006 103.781C50.4147 103.781 46.8488 103.398 43.3662 102.64C46.0396 97.3874 48.1347 91.8429 49.6013 86.1348L50.3147 83.358C53.1115 85.178 56.8622 86.6646 60.5749 86.6646C69.0993 86.6646 76.9044 82.865 82.5525 75.9657C88.0143 69.2937 91.0223 60.2814 91.0223 50.5888C91.0223 42.835 88.4834 35.6353 83.6804 29.7685Z" fill="#F9B93E"/>
<path d="M55.6026 16.9414C55.484 16.9404 55.3649 16.9399 55.2461 16.9399C54.0813 16.9399 53.1367 17.8843 53.1367 19.0493C53.1367 20.2143 54.0813 21.1587 55.2461 21.1587C55.3522 21.1587 55.4581 21.1591 55.564 21.16C55.5705 21.16 55.5773 21.16 55.5838 21.16C56.7395 21.16 57.682 20.2282 57.6926 19.07C57.7031 17.9052 56.7674 16.9522 55.6026 16.9414Z" fill="#F9B93E"/>
</g>
<defs>
<clipPath id="clip0">
<rect width="108" height="108" fill="white"/>
</clipPath>
</defs>
</svg>
