<svg width="140" height="140" viewBox="0 0 140 140" fill="none" xmlns="http://www.w3.org/2000/svg">
<g clip-path="url(#clip0)">
<path d="M75.5549 100.139C74.9954 100.139 74.4422 99.9264 74.0214 99.5259L58.3697 84.5837H9.26713C4.158 84.5837 0 80.4257 0 75.3166V13.8506C0 8.7415 4.158 4.5835 9.26713 4.5835H95.1776C100.285 4.5835 104.443 8.7415 104.443 13.8506V68.0713C104.443 69.2996 103.45 70.2939 102.222 70.2939C100.994 70.2939 99.9993 69.2996 99.9993 68.0713V13.8506C99.9993 11.1918 97.8352 9.02887 95.1776 9.02887H9.26713C6.6083 9.02887 4.4441 11.1918 4.4441 13.8506V75.3166C4.4441 77.9754 6.6083 80.1396 9.26713 80.1396H59.2598C59.8307 80.1396 60.3826 80.3583 60.7946 80.7538L73.3335 92.7243V82.3611C73.3335 81.1327 74.3265 80.1396 75.5549 80.1396H86.7751C88.0034 80.1396 88.9965 81.1327 88.9965 82.3611C88.9965 83.5894 88.0034 84.5837 86.7751 84.5837H77.7775V97.9173C77.7775 98.8074 77.2486 99.6098 76.4297 99.9595C76.1474 100.082 75.8499 100.139 75.5549 100.139Z" fill="white"/>
<path d="M137.777 135.694H80C78.7717 135.694 77.7773 134.701 77.7773 133.472V126.237C77.7773 120.024 84.6501 115.695 90.8172 115.695H99.2922C100.52 115.695 101.515 116.688 101.515 117.916C101.515 119.145 100.52 120.139 99.2922 120.139H90.8172C86.4799 120.139 82.2214 123.16 82.2214 126.237V131.25H135.555V125.285C135.555 122.687 131.848 120.139 128.07 120.139H118.483C117.254 120.139 116.26 119.145 116.26 117.916C116.26 116.688 117.254 115.695 118.483 115.695H128.07C133.712 115.695 140 119.633 140 125.285V133.472C139.999 134.701 139.006 135.694 137.777 135.694Z" fill="white"/>
<path d="M128.89 101.25C128.829 101.25 128.768 101.247 128.706 101.243C127.484 101.142 126.572 100.07 126.672 98.8452L127.784 85.2827C127.777 77.6266 121.857 71.2498 114.579 71.2498H103.198C95.9197 71.2498 89.9993 77.6266 89.9993 85.4645L91.103 98.8452C91.2034 100.07 90.2917 101.142 89.0698 101.243C87.8287 101.358 86.7746 100.433 86.6729 99.2101L85.5615 85.6464C85.5552 75.1751 93.4694 66.8057 103.198 66.8057H114.579C124.307 66.8057 132.221 75.1751 132.221 85.4645L131.104 99.2101C131.008 100.371 130.036 101.25 128.89 101.25Z" fill="white"/>
<path d="M108.889 122.362C102.475 122.362 96.6579 119.989 93.3239 116.014C89.2791 111.191 86.666 104.489 86.666 98.9344V89.9788C86.666 86.1998 86.7512 84.0152 88.5111 83.045C90.0776 82.1778 91.5615 83.1099 92.8687 83.9313C94.6069 85.0274 97.2327 86.6804 101.52 86.6804C104.982 86.6804 109.145 85.6237 113.17 84.5989C119.678 82.9458 125.291 81.5179 128.685 84.1589C130.295 85.4114 131.111 87.3683 131.111 89.9788V98.9357C131.111 104.489 128.498 111.192 124.456 116.014C121.12 119.989 115.302 122.362 108.889 122.362ZM91.1368 88.088C91.1203 88.5852 91.1114 89.2045 91.1114 89.9788V98.9344C91.1114 103.436 93.3671 109.151 96.7291 113.158C99.1909 116.094 103.851 117.916 108.889 117.916C113.926 117.916 118.587 116.094 121.05 113.158C124.41 109.151 126.667 103.436 126.667 98.9344V89.9788C126.667 88.8103 126.428 88.0321 125.957 87.6671C124.284 86.3587 118.962 87.7155 114.264 88.9069C109.976 89.9954 105.539 91.1245 101.52 91.1245C96.5193 91.1245 93.151 89.3253 91.1368 88.088Z" fill="white"/>
<path d="M76.505 34.4866C75.0808 25.9264 68.943 17.9016 60.0345 15.4361C55.6488 14.1632 50.6414 14.6897 46.5712 16.8119C42.4386 18.9163 39.4517 22.3292 37.196 25.8311C34.8932 29.4143 33.3241 33.7821 33.3037 38.3114C33.3597 40.5405 33.3889 42.8751 34.3629 44.9248C35.2912 47.0216 36.3275 48.7751 37.9843 50.6392L37.744 50.2806C38.2971 51.0398 38.8464 51.7162 39.4097 52.3558L42.862 49.1121C42.6344 48.6543 42.4284 48.2042 42.253 47.7757L42.0126 47.4171C41.4137 46.2205 40.8212 44.4861 40.5999 42.9679C40.4232 41.4001 39.8968 39.9301 39.9705 38.3623C39.9883 35.2686 41.0399 32.1927 42.8264 29.4003C44.66 26.5533 46.9158 24.0916 49.6089 22.745C52.2856 21.3781 55.3526 21.0309 58.2797 21.8676C64.2293 23.452 68.9227 29.2706 69.9348 35.6196C70.4841 38.815 70.2171 42.0168 68.8502 44.6705C67.5468 47.3421 65.1563 49.4897 62.3729 50.6303C60.9932 51.2063 59.5055 51.509 58.15 51.4835C56.8428 51.4912 55.4899 51.0156 55.0156 50.5667C54.5032 50.1509 53.8661 48.8311 53.5711 47.3243C53.533 47.1488 53.5228 46.9479 53.491 46.766C54.0454 45.0037 54.5833 43.2298 55.0881 41.4293C55.6094 39.5423 56.1079 37.6528 56.4906 35.5967C56.6712 34.5438 56.8632 33.5393 56.8403 32.0477L56.7882 31.3954C56.7487 31.1233 56.7017 30.855 56.6101 30.5282C56.2706 29.586 56.1575 29.3393 55.4327 28.5103C55.1186 28.1733 54.3811 27.582 53.3664 27.3964C52.2512 27.1916 51.3039 27.535 50.7215 27.8783C49.6903 28.5497 49.4436 29.0469 49.1474 29.4436C48.2382 30.9542 48.0182 31.9346 47.6851 33.0294C47.4002 34.0899 47.1879 35.1186 47.02 36.146C46.6831 38.1995 46.5051 40.2429 46.4809 42.3232C46.4707 43.5821 46.5483 44.86 46.6843 46.1544C46.2368 47.5493 45.7841 48.9455 45.3161 50.3404C44.7071 52.1206 44.1234 53.9135 43.4571 55.6784C43.1138 56.5583 42.7387 57.4268 42.4678 58.3309C42.2059 59.2413 42.0266 60.1797 41.8041 61.1042C41.0259 64.4522 40.2324 67.8027 39.4479 71.1635L43.3694 71.4661C44.8164 68.7297 46.2279 65.973 47.6177 63.2048C48.0411 62.3452 48.5039 61.4958 48.8778 60.6159C49.2465 59.7347 49.5034 58.8115 49.7895 57.8998L50.588 55.5474C53.018 57.5832 55.584 58.0499 58.0254 58.1478C60.4681 58.1859 62.7747 57.6722 64.8982 56.7987C69.1337 55.0655 72.7615 51.8116 74.8138 47.6511C76.936 43.5058 77.2501 38.7323 76.505 34.4866Z" fill="#F9B93E"/>
</g>
<defs>
<clipPath id="clip0">
<rect width="140" height="140" fill="white"/>
</clipPath>
</defs>
</svg>
