<svg width="102" height="102" viewBox="0 0 102 102" fill="none" xmlns="http://www.w3.org/2000/svg">
<path d="M89.25 98.8125C90.5176 98.8111 91.7329 98.3068 92.6292 97.4105C93.5256 96.5142 94.0298 95.2989 94.0312 94.0312V7.96875C94.0298 6.70113 93.5256 5.48584 92.6292 4.5895C91.7329 3.69315 90.5176 3.18895 89.25 3.1875H12.75C11.4824 3.18895 10.2671 3.69315 9.37075 4.5895C8.4744 5.48584 7.9702 6.70113 7.96875 7.96875V94.0312C7.9702 95.2989 8.4744 96.5142 9.37075 97.4105C10.2671 98.3068 11.4824 98.8111 12.75 98.8125H89.25ZM12.75 6.375H89.25C89.6725 6.37548 90.0776 6.54355 90.3764 6.84233C90.6752 7.14111 90.8433 7.54621 90.8438 7.96875V12.75H11.1562V7.96875C11.1567 7.54621 11.3248 7.14111 11.6236 6.84233C11.9224 6.54355 12.3275 6.37548 12.75 6.375ZM11.1562 94.0312V15.9375H90.8438V94.0312C90.8433 94.4538 90.6752 94.8589 90.3764 95.1577C90.0776 95.4565 89.6725 95.6245 89.25 95.625H12.75C12.3275 95.6245 11.9224 95.4565 11.6236 95.1577C11.3248 94.8589 11.1567 94.4538 11.1562 94.0312Z" fill="white"/>
<path d="M15.9375 11.1562C16.8177 11.1562 17.5312 10.4427 17.5312 9.5625C17.5312 8.6823 16.8177 7.96875 15.9375 7.96875C15.0573 7.96875 14.3438 8.6823 14.3438 9.5625C14.3438 10.4427 15.0573 11.1562 15.9375 11.1562Z" fill="white"/>
<path d="M20.7188 11.1562C21.599 11.1562 22.3125 10.4427 22.3125 9.5625C22.3125 8.6823 21.599 7.96875 20.7188 7.96875C19.8385 7.96875 19.125 8.6823 19.125 9.5625C19.125 10.4427 19.8385 11.1562 20.7188 11.1562Z" fill="#F9B93E"/>
<path d="M25.5 11.1562C26.3802 11.1562 27.0938 10.4427 27.0938 9.5625C27.0938 8.6823 26.3802 7.96875 25.5 7.96875C24.6198 7.96875 23.9062 8.6823 23.9062 9.5625C23.9062 10.4427 24.6198 11.1562 25.5 11.1562Z" fill="white"/>
<path d="M19.125 62.1562H82.875C83.2977 62.1562 83.703 61.9883 84.0019 61.6894C84.3008 61.3905 84.4687 60.9852 84.4688 60.5625V23.9062C84.4687 23.4836 84.3008 23.0782 84.0019 22.7793C83.703 22.4804 83.2977 22.3125 82.875 22.3125H19.125C18.7023 22.3125 18.297 22.4804 17.9981 22.7793C17.6992 23.0782 17.5313 23.4836 17.5312 23.9062V60.5625C17.5313 60.9852 17.6992 61.3905 17.9981 61.6894C18.297 61.9883 18.7023 62.1562 19.125 62.1562ZM47.8125 45.3611C49.2324 46.185 50.9163 46.427 52.5108 46.0364C52.3619 46.5972 52.014 47.0846 51.5321 47.4077C51.0502 47.7309 50.4671 47.8676 49.8918 47.7923C49.3165 47.7171 48.7882 47.435 48.4056 46.9988C48.0229 46.5626 47.8121 46.0021 47.8125 45.4219V45.3611ZM51 43.0312C50.1549 43.0303 49.3447 42.6941 48.7472 42.0966C48.1496 41.499 47.8135 40.6888 47.8125 39.8438V38.9101L50.0664 36.6562H54.1875V39.8438C54.1865 40.6888 53.8504 41.499 53.2528 42.0966C52.6553 42.6941 51.8451 43.0303 51 43.0312ZM55.6774 31.7067L54.7963 33.4688H49.4062C48.9836 33.4688 48.5782 33.6366 48.2792 33.9355L47.8125 34.4022V33.4688C47.8135 32.6237 48.1496 31.8135 48.7472 31.2159C49.3447 30.6184 50.1549 30.2822 51 30.2812H54.7962C54.9641 30.2813 55.1292 30.3242 55.2759 30.406C55.4225 30.4877 55.5458 30.6056 55.6341 30.7484C55.7224 30.8912 55.7727 31.0542 55.7802 31.2219C55.7878 31.3897 55.7524 31.5565 55.6774 31.7067ZM50.2031 51C51.682 50.9983 53.0999 50.4101 54.1456 49.3644C55.1914 48.3186 55.7796 46.9008 55.7812 45.4219V44.625H60.851C62.2489 44.6273 63.6075 45.0881 64.7184 45.9366C65.8294 46.7851 66.6314 47.9746 67.0015 49.3226L68.0829 53.2878L63.75 55.021V51H60.5625V58.9688H42.1977L44.511 53.1856L41.5515 52.0019L40.2347 55.294L33.942 53.1965L34.9985 49.3226C35.3686 47.9746 36.1706 46.7851 37.2816 45.9366C38.3925 45.0881 39.7511 44.6273 41.149 44.625H44.625V45.4219C44.6267 46.9008 45.2149 48.3186 46.2606 49.3644C47.3064 50.4101 48.7242 50.9983 50.2031 51ZM63.75 58.454L68.9271 56.3831L69.6322 58.9688H63.75V58.454ZM33.102 56.2766L39.0487 58.2588L38.7648 58.9688H32.3678L33.102 56.2766ZM20.7188 25.5H81.2812V58.9688H72.936L70.0766 48.4841C69.5215 46.462 68.3185 44.6778 66.6521 43.405C64.9858 42.1322 62.9479 41.441 60.851 41.4375H57.1733C57.3075 40.9169 57.3753 40.3814 57.375 39.8438V35.4388L58.5285 33.132C58.8464 32.4958 58.9965 31.789 58.9645 31.0785C58.9325 30.368 58.7194 29.6775 58.3455 29.0725C57.9715 28.4676 57.4492 27.9682 56.828 27.6219C56.2068 27.2756 55.5074 27.0938 54.7962 27.0938H51C49.3098 27.0957 47.6895 27.768 46.4943 28.9631C45.2992 30.1582 44.6269 31.7786 44.625 33.4688V39.8438C44.6247 40.3814 44.6925 40.9169 44.8267 41.4375H41.149C39.0521 41.441 37.0142 42.1322 35.3479 43.405C33.6815 44.6778 32.4785 46.462 31.9234 48.4841L29.0641 58.9688H20.7188V25.5Z" fill="white"/>
<path d="M24.373 79.2208C24.6719 79.5196 25.0773 79.6875 25.5 79.6875C25.9227 79.6875 26.3281 79.5196 26.627 79.2208L32.0118 73.836C32.9019 72.9454 33.4212 71.7504 33.465 70.492C33.5088 69.2336 33.0738 68.0054 32.2478 67.0551C31.4217 66.1047 30.266 65.503 29.0138 65.3711C27.7616 65.2392 26.5059 65.5871 25.5 66.3445C24.4942 65.5868 23.2384 65.2386 21.9859 65.3704C20.7335 65.5021 19.5777 66.1039 18.7515 67.0544C17.9253 68.0049 17.4903 69.2333 17.5343 70.4918C17.5782 71.7504 18.0978 72.9455 18.9882 73.836L24.373 79.2208ZM22.5059 68.5312C22.7407 68.5306 22.9732 68.5766 23.1901 68.6664C23.407 68.7563 23.604 68.8883 23.7695 69.0548L24.373 69.6583C24.672 69.9571 25.0773 70.1249 25.5 70.1249C25.9227 70.1249 26.3281 69.9571 26.627 69.6583L27.2305 69.0548C27.5657 68.7197 28.0202 68.5314 28.4941 68.5314C28.9681 68.5314 29.4226 68.7197 29.7577 69.0548C30.0929 69.3899 30.2811 69.8444 30.2811 70.3184C30.2811 70.7923 30.0929 71.2469 29.7577 71.582L25.5 75.8399L21.2423 71.582C20.9923 71.3321 20.8221 71.0137 20.7531 70.667C20.6841 70.3203 20.7195 69.961 20.8548 69.6344C20.99 69.3079 21.2191 69.0287 21.513 68.8324C21.8069 68.636 22.1524 68.5312 22.5059 68.5312Z" fill="#F9B93E"/>
<path d="M36.6562 76.5C37.5365 76.5 38.25 75.7865 38.25 74.9062C38.25 74.026 37.5365 73.3125 36.6562 73.3125C35.776 73.3125 35.0625 74.026 35.0625 74.9062C35.0625 75.7865 35.776 76.5 36.6562 76.5Z" fill="white"/>
<path d="M41.4375 76.5C42.3177 76.5 43.0312 75.7865 43.0312 74.9062C43.0312 74.026 42.3177 73.3125 41.4375 73.3125C40.5573 73.3125 39.8438 74.026 39.8438 74.9062C39.8438 75.7865 40.5573 76.5 41.4375 76.5Z" fill="#F9B93E"/>
<path d="M46.2188 76.5C47.099 76.5 47.8125 75.7865 47.8125 74.9062C47.8125 74.026 47.099 73.3125 46.2188 73.3125C45.3385 73.3125 44.625 74.026 44.625 74.9062C44.625 75.7865 45.3385 76.5 46.2188 76.5Z" fill="white"/>
<path d="M25.5 82.875C24.5544 82.875 23.63 83.1554 22.8437 83.6808C22.0574 84.2062 21.4446 84.9529 21.0827 85.8265C20.7208 86.7002 20.6261 87.6616 20.8106 88.589C20.9951 89.5165 21.4505 90.3684 22.1191 91.0371C22.7878 91.7058 23.6398 92.1612 24.5672 92.3456C25.4947 92.5301 26.456 92.4354 27.3297 92.0736C28.2034 91.7117 28.9501 91.0988 29.4755 90.3126C30.0008 89.5263 30.2812 88.6019 30.2812 87.6563C30.2798 86.3886 29.7756 85.1733 28.8793 84.277C27.9829 83.3807 26.7676 82.8764 25.5 82.875ZM25.5 89.25C25.1848 89.25 24.8767 89.1565 24.6146 88.9814C24.3525 88.8063 24.1482 88.5574 24.0276 88.2662C23.9069 87.9749 23.8754 87.6545 23.9369 87.3453C23.9984 87.0362 24.1502 86.7522 24.3731 86.5293C24.5959 86.3064 24.8799 86.1546 25.1891 86.0931C25.4982 86.0316 25.8187 86.0632 26.1099 86.1838C26.4011 86.3044 26.65 86.5087 26.8252 86.7708C27.0003 87.0329 27.0938 87.341 27.0938 87.6563C27.0933 88.0788 26.9252 88.4839 26.6264 88.7827C26.3276 89.0815 25.9225 89.2495 25.5 89.25Z" fill="white"/>
<path d="M38.25 86.0625H35.0625V89.25H38.25V86.0625Z" fill="white"/>
<path d="M57.375 86.0625H41.4375V89.25H57.375V86.0625Z" fill="#F9B93E"/>
</svg>
