<svg width="136" height="136" viewBox="0 0 136 136" fill="none" xmlns="http://www.w3.org/2000/svg">
<path d="M118.795 110.158L127.25 105.503C127.575 105.324 127.839 105.052 128.008 104.722C128.177 104.391 128.243 104.018 128.198 103.65C128.154 103.282 128 102.936 127.757 102.655C127.514 102.375 127.193 102.174 126.835 102.078L121.787 100.725C129.786 87.5742 132.689 71.9478 129.946 56.8016C127.202 41.6554 119.003 28.0398 106.9 18.5302C94.7958 9.02058 79.6266 4.27649 64.2615 5.1953C48.8963 6.11411 34.4006 12.6321 23.5163 23.5163C12.6321 34.4006 6.11411 48.8963 5.1953 64.2615C4.27649 79.6266 9.02058 94.7958 18.5302 106.9C28.0398 119.003 41.6554 127.202 56.8016 129.946C71.9478 132.689 87.5743 129.786 100.725 121.787L102.078 126.834C102.174 127.192 102.375 127.513 102.655 127.756C102.935 127.999 103.281 128.153 103.65 128.198C104.018 128.243 104.391 128.176 104.721 128.007C105.051 127.838 105.323 127.574 105.502 127.249L110.158 118.796L121.771 130.408C121.944 130.581 122.149 130.718 122.374 130.811C122.6 130.905 122.842 130.953 123.086 130.953C123.33 130.953 123.572 130.905 123.798 130.811C124.023 130.718 124.228 130.581 124.401 130.408L130.408 124.401C130.581 124.228 130.718 124.023 130.811 123.798C130.905 123.572 130.953 123.33 130.953 123.086C130.953 122.842 130.905 122.6 130.811 122.374C130.718 122.149 130.581 121.944 130.408 121.771L118.795 110.158ZM68 127.234C54.8554 127.234 42.0842 122.862 31.6975 114.807C21.3107 106.751 13.8984 95.4693 10.6279 82.7381C7.35743 70.007 8.41447 56.5496 13.6326 44.4851C18.8507 32.4207 27.9335 22.4346 39.4506 16.0994C50.9677 9.76419 64.2649 7.43975 77.2483 9.49212C90.2316 11.5445 102.164 17.8571 111.165 27.4358C120.167 37.0146 125.726 49.3153 126.969 62.401C128.211 75.4867 125.066 88.614 118.028 99.7156L96.1212 93.8432C95.8058 93.7585 95.4737 93.7583 95.1582 93.8428C94.8427 93.9272 94.5551 94.0932 94.3242 94.3242C94.0932 94.5551 93.9272 94.8427 93.8428 95.1582C93.7584 95.4736 93.7585 95.8058 93.8432 96.1212L99.7167 118.028C90.2368 124.054 79.2332 127.248 68 127.234ZM123.086 126.464L111.038 114.416C110.865 114.243 110.66 114.106 110.435 114.013C110.209 113.919 109.967 113.871 109.723 113.871C109.636 113.871 109.548 113.878 109.461 113.889C109.176 113.93 108.904 114.037 108.666 114.201C108.429 114.365 108.234 114.581 108.095 114.834L104.474 121.409L98.2696 98.2696L121.41 104.473L114.834 108.093C114.581 108.233 114.364 108.429 114.2 108.666C114.037 108.903 113.93 109.176 113.89 109.461C113.849 109.747 113.876 110.038 113.967 110.312C114.058 110.585 114.212 110.834 114.416 111.038L126.464 123.086L123.086 126.464Z" fill="white"/>
<path d="M78.4689 67.2478C76.0382 66.2722 73.532 65.4965 70.9751 64.9284V52.2655C74.558 52.68 78.0161 53.8322 81.1316 55.6496L83.7017 49.3182C81.8828 48.1668 79.909 47.2807 77.8399 46.6864C75.607 46.0184 73.3025 45.6186 70.9751 45.4953V38.537H65.8379V45.6207C61.1566 46.0818 57.5834 47.5027 55.1184 49.8834C53.9319 50.9868 52.9901 52.3269 52.3539 53.817C51.7177 55.3072 51.4013 56.9142 51.4251 58.5343C51.3086 60.8848 52.0179 63.202 53.4301 65.0846C54.7571 66.7289 56.469 68.0207 58.4142 68.8458C60.8198 69.8379 63.305 70.6245 65.8432 71.1972V83.7347C63.4805 83.5325 61.1584 82.9959 58.9466 82.1409C56.9122 81.3875 55.0088 80.3195 53.3057 78.9757L50.4795 85.3018C52.4217 86.8913 54.658 88.0827 57.0606 88.8081C59.9023 89.7439 62.852 90.3126 65.8379 90.5007V97.4632H70.9751V90.4422C75.6976 89.9407 79.3023 88.5095 81.7892 86.1487C82.9854 85.0575 83.9364 83.7249 84.5793 82.239C85.2221 80.753 85.5423 79.1475 85.5186 77.5286C85.6357 75.1723 84.9149 72.8507 83.4839 70.9751C82.1433 69.3401 80.421 68.0601 78.4689 67.2478ZM65.8379 63.612C64.153 63.1966 62.5592 62.4741 61.1364 61.4806C60.616 61.1001 60.1958 60.599 59.9119 60.0203C59.628 59.4415 59.4889 58.8025 59.5065 58.1582C59.4931 57.4662 59.6258 56.7791 59.8959 56.1418C60.1659 55.5046 60.5672 54.9314 61.0737 54.4596C62.4212 53.3226 64.083 52.6229 65.8379 52.4536V63.612ZM75.8987 81.666C74.479 82.7745 72.7693 83.4493 70.9751 83.6093V72.5136C72.703 72.9329 74.3392 73.6661 75.8021 74.6768C76.3418 75.0651 76.7784 75.5793 77.074 76.1749C77.3695 76.7704 77.515 77.4292 77.4978 78.0938C77.509 78.77 77.3716 79.4404 77.0953 80.0577C76.819 80.6749 76.4105 81.2239 75.8987 81.666Z" fill="#F9B93E"/>
<path d="M68 26.9875C68.4931 26.9875 68.9661 26.7916 69.3148 26.4429C69.6635 26.0942 69.8594 25.6213 69.8594 25.1281V16.0703C69.8594 15.5772 69.6635 15.1042 69.3148 14.7555C68.9661 14.4068 68.4931 14.2109 68 14.2109C67.5069 14.2109 67.0339 14.4068 66.6852 14.7555C66.3365 15.1042 66.1406 15.5772 66.1406 16.0703V25.126C66.1403 25.3704 66.1882 25.6124 66.2816 25.8382C66.3749 26.064 66.5118 26.2693 66.6845 26.4422C66.8572 26.615 67.0622 26.7522 67.288 26.8458C67.5137 26.9393 67.7556 26.9875 68 26.9875Z" fill="#F9B93E"/>
<path d="M98.3164 39.5431C98.5607 39.5434 98.8028 39.4954 99.0285 39.4018C99.2542 39.3083 99.4593 39.1711 99.6318 38.998L106.038 32.5954C106.21 32.4226 106.348 32.2174 106.441 31.9916C106.535 31.7658 106.583 31.5238 106.583 31.2793C106.583 31.0349 106.535 30.7928 106.441 30.567C106.348 30.3411 106.211 30.1359 106.038 29.963C105.865 29.7902 105.66 29.653 105.434 29.5594C105.209 29.4658 104.966 29.4177 104.722 29.4176C104.478 29.4176 104.236 29.4656 104.01 29.5591C103.784 29.6526 103.579 29.7897 103.406 29.9625L97.0063 36.3683C96.7466 36.6285 96.5698 36.9598 96.4983 37.3204C96.4267 37.6809 96.4635 38.0546 96.6041 38.3943C96.7447 38.7339 96.9828 39.0243 97.2883 39.2288C97.5938 39.4332 97.953 39.5426 98.3207 39.5431H98.3164Z" fill="white"/>
<path d="M110.874 69.8594H119.93C120.423 69.8594 120.896 69.6635 121.244 69.3148C121.593 68.9661 121.789 68.4931 121.789 68C121.789 67.5069 121.593 67.0339 121.244 66.6852C120.896 66.3365 120.423 66.1406 119.93 66.1406H110.874C110.381 66.1406 109.908 66.3365 109.559 66.6852C109.211 67.0339 109.015 67.5069 109.015 68C109.015 68.4931 109.211 68.9661 109.559 69.3148C109.908 69.6635 110.381 69.8594 110.874 69.8594Z" fill="#F9B93E"/>
<path d="M68 109.012C67.5069 109.012 67.0339 109.208 66.6852 109.557C66.3365 109.906 66.1406 110.379 66.1406 110.872V119.928C66.1406 120.421 66.3365 120.894 66.6852 121.242C67.0339 121.591 67.5069 121.787 68 121.787C68.4931 121.787 68.9661 121.591 69.3148 121.242C69.6635 120.894 69.8594 120.421 69.8594 119.928V110.872C69.8594 110.379 69.6635 109.906 69.3148 109.557C68.9661 109.208 68.4931 109.012 68 109.012Z" fill="#F9B93E"/>
<path d="M36.3683 97.0062L29.9624 103.405C29.7896 103.577 29.6524 103.783 29.5588 104.008C29.4652 104.234 29.417 104.476 29.417 104.721C29.4169 104.965 29.465 105.207 29.5585 105.433C29.652 105.659 29.7891 105.864 29.9619 106.037C30.1347 106.21 30.3399 106.347 30.5657 106.441C30.7915 106.534 31.0335 106.582 31.278 106.582C31.5224 106.582 31.7645 106.534 31.9903 106.441C32.2161 106.347 32.4214 106.21 32.5942 106.037L38.9937 99.6316C39.3103 99.2774 39.4794 98.8154 39.4661 98.3404C39.4528 97.8655 39.2582 97.4137 38.9222 97.0777C38.5862 96.7417 38.1344 96.5471 37.6595 96.5338C37.1845 96.5205 36.7225 96.6896 36.3683 97.0062Z" fill="white"/>
<path d="M25.126 66.1406H16.0703C15.5772 66.1406 15.1042 66.3365 14.7555 66.6852C14.4068 67.0339 14.2109 67.5069 14.2109 68C14.2109 68.4931 14.4068 68.9661 14.7555 69.3148C15.1042 69.6635 15.5772 69.8594 16.0703 69.8594H25.126C25.6191 69.8594 26.0921 69.6635 26.4408 69.3148C26.7895 68.9661 26.9854 68.4931 26.9854 68C26.9854 67.5069 26.7895 67.0339 26.4408 66.6852C26.0921 66.3365 25.6191 66.1406 25.126 66.1406Z" fill="#F9B93E"/>
<path d="M32.5942 29.9625C32.4214 29.7897 32.2161 29.6526 31.9903 29.5591C31.7645 29.4656 31.5224 29.4176 31.278 29.4176C31.0335 29.4177 30.7915 29.4658 30.5657 29.5594C30.3399 29.653 30.1347 29.7902 29.9619 29.963C29.7891 30.1359 29.652 30.3411 29.5585 30.567C29.465 30.7928 29.4169 31.0349 29.417 31.2793C29.417 31.5238 29.4652 31.7658 29.5588 31.9916C29.6524 32.2174 29.7896 32.4226 29.9624 32.5954L36.3683 38.9938C36.7225 39.3104 37.1845 39.4795 37.6595 39.4662C38.1344 39.4529 38.5862 39.2583 38.9222 38.9223C39.2582 38.5863 39.4528 38.1345 39.4661 37.6595C39.4794 37.1846 39.3103 36.7226 38.9937 36.3683L32.5942 29.9625Z" fill="white"/>
</svg>
