<svg width="136" height="136" viewBox="0 0 136 136" fill="none" xmlns="http://www.w3.org/2000/svg">
<path d="M103.196 93.8888L83.6393 103.934C81.9458 102.228 79.6007 101.169 77.0126 101.169H63.536C62.9365 101.169 62.7171 101.133 62.6512 101.117C62.529 101.034 62.2244 100.747 61.9773 100.515L61.8485 100.393C50.8793 90.0637 41.6102 90.719 31.0686 94.8795C29.4189 95.5303 29.3876 95.5316 27.7524 95.6062L24.7837 95.6099C23.857 92.9833 21.3533 91.0953 18.4164 91.0953H8.50062C4.7778 91.0953 1.74902 94.1276 1.74902 97.8546V123.86C1.74902 127.583 4.7778 130.612 8.50062 130.612H18.4162C21.3533 130.612 23.857 128.726 24.7837 126.102H30.2364C30.8537 126.155 31.4556 126.281 32.0423 126.479L57.6837 133.335C58.8065 133.64 59.8373 133.939 60.8344 134.229C64.1458 135.191 66.9294 136 69.8318 136C73.1107 136 76.5411 134.967 81.0539 131.957C81.0764 131.942 81.0988 131.927 81.1208 131.911L112.736 109.398C116.892 106.433 118.103 101.081 115.553 96.947C113.032 92.8712 107.718 91.5572 103.196 93.8888ZM19.8555 123.86C19.8555 124.641 19.1963 125.3 18.4162 125.3H8.50062C7.72025 125.3 7.06126 124.641 7.06126 123.86V97.8549C7.06126 97.0705 7.72051 96.4078 8.50062 96.4078H18.4162C19.1965 96.4078 19.8555 97.0705 19.8555 97.8549V123.86ZM109.652 105.072L78.0724 127.56C71.6446 131.839 68.909 131.043 62.316 129.128C61.2966 128.832 60.2424 128.525 59.0646 128.206L33.4164 121.347C32.3844 121.027 31.3241 120.842 30.2359 120.79H25.1678V100.925L27.9941 100.913C30.0157 100.821 30.6426 100.758 33.0182 99.8212C42.1553 96.2148 49.2062 95.7853 58.2088 104.263L58.3361 104.383C59.8862 105.842 60.8466 106.481 63.536 106.481H77.0126C79.2344 106.481 81.0419 108.289 81.0419 110.511C81.0419 112.729 79.2344 114.533 77.0126 114.533H55.1641C53.6972 114.533 52.508 115.722 52.508 117.189C52.508 118.656 53.6972 119.845 55.1641 119.845H77.0126C82.1636 119.845 86.3542 115.658 86.3542 110.511C86.3542 109.86 86.2867 109.225 86.1595 108.611L105.627 98.6119C107.401 97.6974 109.829 97.7912 111.033 99.7389C112.095 101.46 111.5 103.754 109.652 105.072Z" fill="white"/>
<path d="M62.8886 62.8249C60.0133 64.2255 58.0268 67.1775 58.0268 70.5851C58.0268 74.3421 60.446 77.5433 63.8089 78.7205V82.6765C63.8089 87.5205 67.7464 91.4614 72.5858 91.4614H84.3532C89.1969 91.4614 93.1378 87.5205 93.1378 82.6765V78.7205C96.5007 77.5433 98.9199 74.3419 98.9199 70.5851C98.9199 67.1773 96.9334 64.2252 94.0579 62.8247C95.221 58.5037 97.5788 55.2863 100.059 51.9115C103.873 46.7198 108.197 40.8354 108.188 30.4705C108.188 29.5451 108.149 28.5952 108.074 27.6473C107.958 26.1848 106.681 25.0971 105.215 25.21C103.753 25.3264 102.662 26.6061 102.778 28.0685C102.843 28.8768 102.875 29.6848 102.875 30.4726C102.883 39.0954 99.4318 43.7928 95.7775 48.7658C93.0047 52.5394 90.1513 56.4293 88.7916 61.958H68.1541C66.7944 56.4298 63.9401 52.5402 61.1669 48.7669C57.5115 43.7938 54.0591 39.0965 54.0705 30.4734C54.0822 21.2787 58.0215 15.4719 61.3244 12.2197C65.8722 7.74152 72.1016 5.22458 78.4354 5.31382C78.4609 5.31409 78.4861 5.31409 78.5116 5.31382C83.6722 5.23547 88.8479 6.91759 93.0733 10.0415C94.2523 10.9135 95.9161 10.664 96.7881 9.48473C97.6601 8.30514 97.411 6.64188 96.2314 5.76988C91.0868 1.96684 84.7817 -0.0791658 78.4728 0.00237711C70.7465 -0.0919152 63.1417 2.97617 57.5976 8.43556C51.8264 14.1186 48.77 21.7371 48.7588 30.4673C48.745 40.8365 53.0708 46.7217 56.8871 51.9139C59.3671 55.2879 61.7255 58.5048 62.8886 62.8249ZM87.8258 82.6768C87.8258 84.5916 86.2683 86.1494 84.3535 86.1494H72.5861C70.6755 86.1494 69.1214 84.5916 69.1214 82.6768V79.2044H87.8258V82.6768ZM66.6534 67.2708H90.2936C92.1211 67.2708 93.608 68.7576 93.608 70.5851C93.608 72.4085 92.1213 73.8919 90.2936 73.8919H66.6534C64.826 73.8919 63.3391 72.4085 63.3391 70.5851C63.3391 68.7576 64.826 67.2708 66.6534 67.2708Z" fill="white"/>
<path d="M81.1286 19.4032C81.1286 17.9362 79.9395 16.7471 78.4725 16.7471C77.0056 16.7471 75.8164 17.9362 75.8164 19.4032V35.8767C75.8164 37.3437 77.0056 38.5329 78.4725 38.5329C79.9395 38.5329 81.1286 37.3437 81.1286 35.8767V19.4032Z" fill="#F9B93E"/>
<path d="M78.4727 45.2366C77.0056 45.2366 75.8164 46.4258 75.8164 47.8929V47.908C75.8164 49.3751 77.0056 50.5568 78.4727 50.5568C79.9397 50.5568 81.1289 49.3602 81.1289 47.8931C81.1289 46.4261 79.9397 45.2366 78.4727 45.2366Z" fill="#F9B93E"/>
<path d="M131.596 30.4497H120.807C119.341 30.4497 118.151 31.6389 118.151 33.1059C118.151 34.5728 119.341 35.762 120.807 35.762H131.596C133.063 35.762 134.252 34.5728 134.252 33.1059C134.252 31.6389 133.063 30.4497 131.596 30.4497Z" fill="#F9B93E"/>
<path d="M116.345 13.3409C116.854 13.3409 117.368 13.1948 117.822 12.8899L126.774 6.88174C127.992 6.06418 128.317 4.4142 127.499 3.1961C126.682 1.97827 125.032 1.65343 123.813 2.47098L114.862 8.47913C113.644 9.29668 113.319 10.9469 114.137 12.1648C114.649 12.9284 115.489 13.3409 116.345 13.3409Z" fill="white"/>
<path d="M126.775 59.33L117.823 53.3219C116.605 52.5043 114.955 52.8292 114.137 54.047C113.32 55.2648 113.645 56.9151 114.863 57.7326L123.814 63.7408C124.268 64.0457 124.783 64.1918 125.292 64.1918C126.147 64.1918 126.987 63.7793 127.5 63.0156C128.317 61.7975 127.993 60.1473 126.775 59.33Z" fill="white"/>
<path d="M25.3505 35.762H36.1316C37.5986 35.762 38.7878 34.5728 38.7878 33.1059C38.7878 31.6389 37.5986 30.4497 36.1316 30.4497H25.3505C23.8835 30.4497 22.6943 31.6389 22.6943 33.1059C22.6943 34.5728 23.8835 35.762 25.3505 35.762Z" fill="#F9B93E"/>
<path d="M30.1713 6.88198L39.1229 12.8901C39.5771 13.195 40.0916 13.3411 40.6005 13.3411C41.4561 13.3411 42.2959 12.9286 42.8086 12.165C43.6261 10.9472 43.3013 9.29692 42.0834 8.47937L33.1318 2.47123C31.9137 1.65367 30.2637 1.97852 29.4462 3.19635C28.6286 4.41418 28.9532 6.06443 30.1713 6.88198Z" fill="white"/>
<path d="M39.1239 53.3219L30.1722 59.33C28.9542 60.1476 28.6296 61.7978 29.4471 63.0156C29.9598 63.7793 30.7994 64.1918 31.6552 64.1918C32.1641 64.1918 32.6786 64.0457 33.1328 63.7408L42.0844 57.7326C43.3025 56.9151 43.6271 55.2648 42.8095 54.047C41.992 52.8292 40.3417 52.5043 39.1239 53.3219Z" fill="white"/>
<path d="M100.258 18.3904C100.776 18.9081 101.453 19.1665 102.131 19.1665C102.811 19.1665 103.492 18.9062 104.011 18.3867C105.048 17.3494 105.045 15.6637 104.007 14.6262C102.97 13.589 101.288 13.589 100.251 14.6262C99.2133 15.6635 99.2133 17.3454 100.251 18.3829L100.258 18.3904Z" fill="white"/>
</svg>
