<svg width="150" height="150" viewBox="0 0 150 150" fill="none" xmlns="http://www.w3.org/2000/svg">
<path d="M145.312 14.0625H37.4998C36.8782 14.0625 36.2821 14.3094 35.8425 14.749C35.403 15.1885 35.1561 15.7846 35.1561 16.4062V84.7734L25.699 87.8525L11.9998 90.0967C8.93383 90.6015 6.19344 92.3023 4.38027 94.8257C2.5671 97.3491 1.82932 100.489 2.32891 103.556L3.08477 108.182C3.53232 110.889 4.91424 113.354 6.99037 115.148C9.06649 116.942 11.7056 117.952 14.449 118.002L19.2596 134.326C19.4028 134.811 19.6989 135.237 20.1039 135.54C20.5088 135.843 21.0009 136.007 21.5066 136.008C21.6343 136.007 21.7616 135.996 21.8875 135.976L31.1395 134.461C31.4672 134.407 31.7797 134.284 32.0564 134.101C32.333 133.917 32.5675 133.677 32.7442 133.395C32.921 133.114 33.0359 132.799 33.0815 132.47C33.1271 132.141 33.1022 131.806 33.0086 131.487L28.4149 115.907L30.243 115.608L58.8807 115.333L58.9334 115.661C59.0239 116.209 59.3058 116.708 59.729 117.067C60.1523 117.427 60.6894 117.626 61.2449 117.627C61.3725 117.626 61.4999 117.616 61.6258 117.595L68.5662 116.458C69.1793 116.357 69.7272 116.016 70.0897 115.512C70.4522 115.007 70.5997 114.379 70.4998 113.766L68.7566 103.125H145.312C145.934 103.125 146.53 102.878 146.97 102.439C147.409 101.999 147.656 101.403 147.656 100.781V16.4062C147.656 15.7846 147.409 15.1885 146.97 14.749C146.53 14.3094 145.934 14.0625 145.312 14.0625ZM15.785 113.227C13.9451 113.525 12.0621 113.081 10.5486 111.993C9.03517 110.905 8.01468 109.262 7.71075 107.423L6.95489 102.797C6.65528 100.957 7.0978 99.0738 8.18534 97.56C9.27287 96.0463 10.9166 95.0258 12.7557 94.7226L24.3221 92.8271L27.3514 111.331L20.3143 112.485L15.7879 113.227H15.785ZM23.1707 131.016L19.1629 117.422L23.7537 116.672L27.7615 130.266L23.1707 131.016ZM32.0301 110.903L28.8924 91.7432L53.6951 83.6631L58.1131 110.651L32.0301 110.903ZM63.1814 112.591L57.8787 80.209L60.1932 79.831L65.4959 112.21L63.1814 112.591ZM142.969 98.4375H67.9891L64.4383 76.7607C64.3384 76.1473 63.9989 75.5987 63.4945 75.2356C62.9902 74.8724 62.3623 74.7245 61.7488 74.8242L54.8084 75.9609C54.1953 76.0622 53.6474 76.4026 53.2849 76.9073C52.9224 77.4121 52.7749 78.04 52.8748 78.6533L52.9275 78.9814L39.8436 83.2441V18.75H142.969V98.4375Z" fill="white"/>
<path d="M131.25 67.9688H124.219V42.1876H126.562C127.004 42.1878 127.437 42.0633 127.811 41.8283C128.185 41.5933 128.485 41.2574 128.676 40.8594C128.868 40.4613 128.943 40.0172 128.893 39.5784C128.843 39.1396 128.67 38.7238 128.394 38.379L119.019 26.6602C118.799 26.3859 118.52 26.1645 118.203 26.0124C117.886 25.8602 117.539 25.7812 117.187 25.7812C116.836 25.7812 116.489 25.8602 116.172 26.0124C115.855 26.1645 115.576 26.3859 115.356 26.6602L105.981 38.379C105.705 38.7238 105.532 39.1396 105.482 39.5784C105.432 40.0172 105.507 40.4613 105.699 40.8594C105.89 41.2574 106.19 41.5933 106.564 41.8283C106.938 42.0633 107.371 42.1878 107.812 42.1876H110.156V67.9688H98.4375V49.2188H100.781C101.223 49.2191 101.656 49.0946 102.03 48.8596C102.404 48.6246 102.704 48.2887 102.895 47.8906C103.086 47.4925 103.161 47.0485 103.111 46.6096C103.061 46.1708 102.888 45.755 102.612 45.4102L93.2373 33.6915C93.0174 33.4172 92.7387 33.1958 92.4218 33.0436C92.1049 32.8915 91.7578 32.8125 91.4062 32.8125C91.0547 32.8125 90.7076 32.8915 90.3907 33.0436C90.0738 33.1958 89.7951 33.4172 89.5752 33.6915L80.2002 45.4102C79.9241 45.755 79.7511 46.1708 79.7011 46.6096C79.6511 47.0485 79.7261 47.4925 79.9175 47.8906C80.1088 48.2887 80.4088 48.6246 80.7828 48.8596C81.1568 49.0946 81.5896 49.2191 82.0312 49.2188H84.375V67.9688H72.6562V60.9376H75C75.4417 60.9379 75.8745 60.8133 76.2484 60.5783C76.6224 60.3433 76.9224 60.0074 77.1138 59.6094C77.3052 59.2113 77.3801 58.7672 77.3301 58.3284C77.2801 57.8896 77.1071 57.4738 76.831 57.129L67.4561 45.4102C67.2362 45.1359 66.9575 44.9145 66.6405 44.7624C66.3236 44.6102 65.9766 44.5313 65.625 44.5313C65.2734 44.5313 64.9264 44.6102 64.6094 44.7624C64.2925 44.9145 64.0138 45.1359 63.7939 45.4102L54.4189 57.129C54.1429 57.4738 53.9699 57.8896 53.9199 58.3284C53.8698 58.7672 53.9448 59.2113 54.1362 59.6094C54.3276 60.0074 54.6276 60.3433 55.0016 60.5783C55.3755 60.8133 55.8083 60.9379 56.25 60.9376H58.5937V67.9688H51.5625C50.9409 67.9688 50.3448 68.2158 49.9052 68.6553C49.4657 69.0948 49.2188 69.691 49.2188 70.3126C49.2188 70.9342 49.4657 71.5303 49.9052 71.9699C50.3448 72.4094 50.9409 72.6563 51.5625 72.6563H131.25C131.872 72.6563 132.468 72.4094 132.907 71.9699C133.347 71.5303 133.594 70.9342 133.594 70.3126C133.594 69.691 133.347 69.0948 132.907 68.6553C132.468 68.2158 131.872 67.9688 131.25 67.9688ZM67.9687 58.5938V67.9688H63.2812V58.5938C63.2816 58.0039 63.0595 57.4356 62.6593 57.0022C62.2591 56.5689 61.7101 56.3024 61.1221 56.2559L65.625 50.628L70.1279 56.2559C69.5399 56.3024 68.9909 56.5689 68.5907 57.0022C68.1905 57.4356 67.9684 58.0039 67.9687 58.5938ZM93.75 46.8751V67.9688H89.0625V46.8751C89.0629 46.2852 88.8408 45.7168 88.4405 45.2835C88.0403 44.8501 87.4914 44.5836 86.9033 44.5372L91.4062 38.9093L95.9092 44.5372C95.3211 44.5836 94.7722 44.8501 94.372 45.2835C93.9717 45.7168 93.7496 46.2852 93.75 46.8751ZM119.531 39.8438V67.9688H114.844V39.8438C114.844 39.2539 114.622 38.6856 114.222 38.2522C113.822 37.8189 113.273 37.5524 112.685 37.5059L117.187 31.878L121.69 37.5059C121.102 37.5524 120.553 37.8189 120.153 38.2522C119.753 38.6856 119.531 39.2539 119.531 39.8438Z" fill="white"/>
<path d="M128.906 79.6875V93.75C128.906 94.3716 129.153 94.9677 129.593 95.4073C130.032 95.8468 130.628 96.0938 131.25 96.0938H138.281C138.903 96.0938 139.499 95.8468 139.939 95.4073C140.378 94.9677 140.625 94.3716 140.625 93.75V79.6875C140.625 79.0659 140.378 78.4698 139.939 78.0302C139.499 77.5907 138.903 77.3438 138.281 77.3438H131.25C130.628 77.3438 130.032 77.5907 129.593 78.0302C129.153 78.4698 128.906 79.0659 128.906 79.6875ZM133.594 82.0312H135.938V91.4062H133.594V82.0312Z" fill="#F9B93E"/>
<path d="M124.219 77.3438H107.812C107.191 77.3438 106.595 77.5907 106.155 78.0302C105.716 78.4698 105.469 79.0659 105.469 79.6875C105.469 80.3091 105.716 80.9052 106.155 81.3448C106.595 81.7843 107.191 82.0312 107.812 82.0312H124.219C124.84 82.0312 125.436 81.7843 125.876 81.3448C126.316 80.9052 126.562 80.3091 126.562 79.6875C126.562 79.0659 126.316 78.4698 125.876 78.0302C125.436 77.5907 124.84 77.3438 124.219 77.3438Z" fill="white"/>
<path d="M124.219 84.375H114.844C114.222 84.375 113.626 84.6219 113.186 85.0615C112.747 85.501 112.5 86.0971 112.5 86.7188C112.5 87.3404 112.747 87.9365 113.186 88.376C113.626 88.8156 114.222 89.0625 114.844 89.0625H124.219C124.84 89.0625 125.436 88.8156 125.876 88.376C126.316 87.9365 126.562 87.3404 126.562 86.7188C126.562 86.0971 126.316 85.501 125.876 85.0615C125.436 84.6219 124.84 84.375 124.219 84.375Z" fill="#F9B93E"/>
<path d="M124.219 91.4062H119.531C118.91 91.4062 118.314 91.6532 117.874 92.0927C117.434 92.5323 117.188 93.1284 117.188 93.75C117.188 94.3716 117.434 94.9677 117.874 95.4073C118.314 95.8468 118.91 96.0938 119.531 96.0938H124.219C124.84 96.0938 125.436 95.8468 125.876 95.4073C126.316 94.9677 126.562 94.3716 126.562 93.75C126.562 93.1284 126.316 92.5323 125.876 92.0927C125.436 91.6532 124.84 91.4062 124.219 91.4062Z" fill="white"/>
<path d="M44.5312 37.5H56.25C56.8716 37.5 57.4677 37.2531 57.9073 36.8135C58.3468 36.374 58.5938 35.7779 58.5938 35.1562V23.4375C58.5938 22.8159 58.3468 22.2198 57.9073 21.7802C57.4677 21.3407 56.8716 21.0938 56.25 21.0938H44.5312C43.9096 21.0938 43.3135 21.3407 42.874 21.7802C42.4344 22.2198 42.1875 22.8159 42.1875 23.4375V35.1562C42.1875 35.7779 42.4344 36.374 42.874 36.8135C43.3135 37.2531 43.9096 37.5 44.5312 37.5ZM46.875 25.7812H53.9062V32.8125H46.875V25.7812Z" fill="#F9B93E"/>
</svg>
