<svg width="320" height="320" viewBox="0 0 320 320" fill="none" xmlns="http://www.w3.org/2000/svg">
<g clip-path="url(#clip0)">
<path d="M260.215 69.7705L245 54.5557L229.785 69.7705L222.715 62.7002L245 40.415L267.285 62.7002L260.215 69.7705Z" fill="white"/>
<path d="M240 49.9854H250V104.985H240V49.9854Z" fill="white"/>
<path d="M270 169.985H260V148.484C297.725 140.784 323.491 105.769 319.619 67.4609C315.75 29.1553 283.503 0 245 0C206.497 0 174.25 29.1553 170.381 67.4609C166.509 105.769 192.275 140.784 230 148.484V169.985H220V309.985H200V149.985H150V309.985H130V189.985H80V309.985H60V239.985H10V309.985H0V319.985H320V309.985H270V169.985ZM50 309.985H20V249.985H50V309.985ZM120 309.985H90V199.985H120V309.985ZM190 309.985H160V159.985H190V309.985ZM180 74.9854C180 40.293 207.244 11.7163 241.897 10.061C276.548 8.40332 306.394 34.2529 309.705 68.7842C313.013 103.318 288.621 134.365 254.285 139.319L250 139.934V169.985H240V139.934L235.715 139.319C203.801 134.58 180.132 107.249 180 74.9854ZM260 309.985H230V179.985H260V309.985Z" fill="white"/>
<path d="M300 74.9854C300 44.6094 275.376 19.9854 245 19.9854C214.624 19.9854 190 44.6094 190 74.9854C190 105.361 214.624 129.985 245 129.985C275.361 129.949 299.963 105.347 300 74.9854ZM200 74.9854C200 50.1318 220.146 29.9854 245 29.9854C269.854 29.9854 290 50.1318 290 74.9854C290 99.8364 269.854 119.985 245 119.985C220.159 119.956 200.027 99.8267 200 74.9854Z" fill="#F9B93E"/>
<path d="M71.9551 169.985H107.07L149.999 127.056V139.985H159.999V109.985H129.999V119.985H142.929L102.929 159.985H68.0439L1.60352 221.313L8.39551 228.655L71.9551 169.985Z" fill="#F9B93E"/>
<path d="M290 169.985H320V179.985H290V169.985Z" fill="#F9B93E"/>
<path d="M290 189.985H320V199.985H290V189.985Z" fill="white"/>
<path d="M290 209.985H320V219.985H290V209.985Z" fill="#F9B93E"/>
<path d="M290 229.985H320V239.985H290V229.985Z" fill="white"/>
<path d="M290 249.985H320V259.985H290V249.985Z" fill="#F9B93E"/>
<path d="M290 269.985H320V279.985H290V269.985Z" fill="white"/>
<path d="M290 289.985H320V299.985H290V289.985Z" fill="#F9B93E"/>
</g>
<defs>
<clipPath id="clip0">
<rect width="320" height="320" fill="white"/>
</clipPath>
</defs>
</svg>
