<svg width="150" height="150" viewBox="0 0 150 150" fill="none" xmlns="http://www.w3.org/2000/svg">
<g clip-path="url(#clip0)">
<path d="M146.342 136.046H142.651V125.657C142.651 124.444 141.669 123.462 140.457 123.462C139.244 123.462 138.262 124.444 138.262 125.657V136.046H117.412V75.6354H138.262V115.486C138.262 116.698 139.244 117.681 140.457 117.681C141.669 117.681 142.651 116.698 142.651 115.486V74.9038C142.651 72.8867 141.01 71.2455 138.993 71.2455H116.68C114.663 71.2455 113.022 72.8867 113.022 74.9038V136.046H107.427V89.2443C107.427 87.2272 105.786 85.586 103.769 85.586H81.4559C79.4388 85.586 77.7976 87.2272 77.7976 89.2443V136.046H72.2024V51.2258C72.2024 49.2087 70.5612 47.5675 68.5441 47.5675H46.2313C44.2143 47.5675 42.573 49.2087 42.573 51.2258V70.2204C42.573 71.4327 43.5557 72.4153 44.768 72.4153C45.9803 72.4153 46.9629 71.4327 46.9629 70.2204V51.9573H67.8123V136.046H46.9629V80.4392C46.9629 79.2269 45.9803 78.2442 44.768 78.2442C43.5557 78.2442 42.573 79.2269 42.573 80.4392V136.046H36.9782V108.36C36.9782 106.343 35.337 104.702 33.3199 104.702H11.0071C8.99004 104.702 7.34883 106.343 7.34883 108.36V136.046H3.6583C1.64121 136.046 0 137.687 0 139.704V146.704C0 148.721 1.64121 150.362 3.6583 150.362H146.342C148.359 150.362 150 148.721 150 146.704V139.704C150 137.687 148.359 136.046 146.342 136.046ZM82.1874 89.9762H103.037V136.046H82.1874V89.9762ZM11.7387 109.092H32.5881V136.046H11.7387V109.092ZM145.61 145.972H4.39014V140.436H9.54111H9.54404H34.7836H34.7865H44.7656H44.7686H70.0081H70.011H79.9904H79.9934H105.233H105.236H115.215H115.218H140.458H140.461H145.612V145.972H145.61Z" fill="white"/>
<path d="M44.2315 25.1763L42.9758 32.497C42.6257 34.5381 43.449 36.5625 45.1248 37.7801C46.0716 38.468 47.1794 38.8175 48.2944 38.8175C49.1528 38.8175 50.0156 38.6104 50.8131 38.1914L57.3876 34.735L63.9621 38.1914C65.7949 39.1547 67.9749 38.9977 69.6504 37.7804C71.3258 36.5631 72.1494 34.5387 71.7993 32.4973L70.5436 25.1766L75.8625 19.9919C77.3455 18.5464 77.8693 16.4244 77.2292 14.4548C76.5893 12.4849 74.9185 11.0763 72.8689 10.7786L65.5183 9.71045L62.2312 3.04952C61.3145 1.19209 59.4586 0.0383835 57.3873 0.0383835C55.3163 0.0383835 53.4603 1.19209 52.5439 3.04952L49.2568 9.71016L41.9059 10.7783C39.8563 11.0763 38.1858 12.4849 37.5457 14.4545C36.9058 16.4244 37.4294 18.5461 38.9127 19.9916L44.2315 25.1763ZM41.7211 15.8112C41.7797 15.6314 41.9759 15.2045 42.5376 15.1228L50.2245 14.0057C51.4438 13.8284 52.4976 13.0632 53.0431 11.9578L56.4808 4.99219C56.7319 4.48331 57.1986 4.42852 57.3876 4.42852C57.5765 4.42852 58.0432 4.4836 58.2946 4.99249L61.7323 11.9578C62.2775 13.0629 63.3313 13.8287 64.5509 14.0057L72.2379 15.1228C72.7995 15.2042 72.9961 15.6314 73.0544 15.8112C73.113 15.9911 73.2049 16.452 72.7983 16.8481L67.2366 22.2697C66.3539 23.1299 65.9513 24.3689 66.1596 25.5835L67.4727 33.2394C67.5685 33.7986 67.2231 34.1174 67.0702 34.2287C66.9173 34.3398 66.5068 34.5694 66.0052 34.3055L59.1298 30.6911C58.0385 30.1175 56.736 30.1178 55.6456 30.6911L48.7702 34.3058C48.2677 34.5694 47.8582 34.3398 47.7052 34.2287C47.5523 34.1174 47.2072 33.7986 47.303 33.2394L48.6161 25.5835C48.8244 24.3689 48.4218 23.1299 47.5394 22.27L41.9768 16.8481C41.5705 16.452 41.6628 15.9911 41.7211 15.8112Z" fill="#F9B93E"/>
</g>
<defs>
<clipPath id="clip0">
<rect width="150" height="150" fill="white"/>
</clipPath>
</defs>
</svg>
