<svg width="95" height="95" viewBox="0 0 95 95" fill="none" xmlns="http://www.w3.org/2000/svg">
<path d="M31.1719 2.96875C31.1719 2.14789 30.5069 1.48438 29.6875 1.48438H23.75C22.9306 1.48438 22.2656 2.14789 22.2656 2.96875V5.1582C18.7996 7.5718 14.6166 8.90625 10.3906 8.90625H4.45312C2.81586 8.90625 1.48438 10.2377 1.48438 11.875V17.8125C1.48438 19.4498 2.81586 20.7812 4.45312 20.7812H4.86727L7.49758 28.6722C7.70094 29.2793 8.26648 29.6875 8.90625 29.6875H14.8438C15.3202 29.6875 15.7685 29.4589 16.0476 29.0715C16.3266 28.6841 16.4023 28.1853 16.2524 27.7341L14.0481 21.1212C16.9902 21.6526 19.8075 22.8178 22.2656 24.5293V26.7188C22.2656 27.5396 22.9306 28.2031 23.75 28.2031H29.6875C30.5069 28.2031 31.1719 27.5396 31.1719 26.7188V2.96875ZM4.45312 11.875H10.3906C11.3852 11.875 12.3752 11.7919 13.3594 11.6657V18.0203C12.3752 17.8956 11.3852 17.8125 10.3906 17.8125H4.45312V11.875ZM12.7849 26.7188H9.97648L7.99781 20.7812H10.3906C10.5316 20.7812 10.6712 20.7961 10.8107 20.7991L12.7849 26.7188ZM16.3281 18.5844V11.1031C18.4062 10.5643 20.4042 9.73899 22.2656 8.66727V21.0202C20.4042 19.9485 18.4062 19.1232 16.3281 18.5844ZM28.2031 25.2344H25.2344V4.45312H28.2031V25.2344Z" fill="white"/>
<path d="M58.3255 59.8099L55.3568 62.7787C55.0777 63.0562 54.9219 63.4333 54.9219 63.8281V66.7969C54.9219 67.6177 55.5869 68.2812 56.4062 68.2812H61.7292L64.263 70.8151C64.5406 71.0941 64.9191 71.25 65.3125 71.25H69.7656C70.159 71.25 70.5375 71.0941 70.8151 70.8151L75.2682 66.362C75.5473 66.0844 75.7031 65.7073 75.7031 65.3125V60.8594C75.7031 60.4645 75.5473 60.0875 75.2682 59.8099L72.2995 56.8412C72.0219 56.5621 71.6434 56.4062 71.25 56.4062H66.7969C66.4035 56.4062 66.025 56.5621 65.7474 56.8412L63.2136 59.375H59.375C58.9816 59.375 58.6031 59.5309 58.3255 59.8099ZM63.8281 62.3438C64.2215 62.3438 64.6 62.1879 64.8776 61.9088L67.4114 59.375H70.6355L72.7344 61.4739V64.698L69.1511 68.2812H65.927L63.3932 65.7474C63.1156 65.4684 62.7371 65.3125 62.3438 65.3125H57.8906V64.4427L59.9895 62.3438H63.8281Z" fill="white"/>
<path d="M62.3438 31.1719C45.1547 31.1719 31.1719 45.1562 31.1719 62.3438C31.1719 79.5313 45.1547 93.5156 62.3438 93.5156C79.5328 93.5156 93.5156 79.5313 93.5156 62.3438C93.5156 45.1562 79.5328 31.1719 62.3438 31.1719ZM90.5469 62.3438C90.5469 63.8623 90.3925 65.3422 90.1595 66.7969H89.0625C88.6691 66.7969 88.2906 66.9527 88.013 67.2318L85.4792 69.7656H81.6406C81.2473 69.7656 80.8687 69.9215 80.5912 70.2005L76.138 74.6537C75.859 74.9312 75.7031 75.3083 75.7031 75.7031V80.1562H72.7344C72.341 80.1562 71.9625 80.3121 71.6849 80.5912L69.1511 83.125H65.3125C64.9191 83.125 64.5406 83.2809 64.263 83.5599L61.2943 86.5287C61.0152 86.8062 60.8594 87.1833 60.8594 87.5781V90.4712C57.1618 90.2767 53.6572 89.3772 50.4688 87.8884V82.2552L54.487 78.237C54.766 77.9594 54.9219 77.5823 54.9219 77.1875V72.7344C54.9219 72.3395 54.766 71.9625 54.487 71.6849L50.0338 67.2318C49.7563 66.9527 49.3777 66.7969 48.9844 66.7969H45.1458L41.1276 62.7787C40.85 62.4996 40.4715 62.3438 40.0781 62.3438H34.1406C34.1406 60.6798 34.3143 59.0573 34.5919 57.472L36.0599 58.9401C36.3375 59.2191 36.716 59.375 37.1094 59.375H43.0469C43.4402 59.375 43.8188 59.2191 44.0963 58.9401L48.1145 54.9219H53.4375C53.8309 54.9219 54.2094 54.766 54.487 54.487L58.9401 50.0338C59.2191 49.7563 59.375 49.3792 59.375 48.9844V44.5312C59.375 44.1364 59.2191 43.7594 58.9401 43.4818L54.9219 39.4636V35.1648C57.2909 34.5162 59.7713 34.1406 62.3438 34.1406C77.8955 34.1406 90.5469 46.792 90.5469 62.3438ZM51.9531 36.149V40.0781C51.9531 40.473 52.109 40.85 52.388 41.1276L56.4062 45.1458V48.3698L52.823 51.9531H47.5C47.1066 51.9531 46.7281 52.109 46.4505 52.388L42.4323 56.4062H37.7239L35.3845 54.0669C37.9035 45.882 44.0592 39.2914 51.9531 36.149ZM34.2995 65.3125H39.4621L43.4803 69.3307C43.7594 69.6098 44.1379 69.7656 44.5312 69.7656H48.3698L51.9531 73.3489V76.573L47.9349 80.5912C47.6559 80.8687 47.5 81.2458 47.5 81.6406V86.2793C40.2904 81.792 35.2316 74.1683 34.2995 65.3125ZM63.8281 90.4712V88.1927L65.927 86.0938H69.7656C70.159 86.0938 70.5375 85.9379 70.8151 85.6588L73.3489 83.125H77.1875C78.0069 83.125 78.6719 82.4615 78.6719 81.6406V76.3177L82.2552 72.7344H86.0938C86.4871 72.7344 86.8656 72.5785 87.1432 72.2995L89.4692 69.9734C86.26 81.3645 76.0742 89.8299 63.8281 90.4712Z" fill="white"/>
<path d="M26.7188 68.2812H28.2031V71.25H26.7188V68.2812Z" fill="white"/>
<path d="M16.0312 68.2812H18.7031V71.25H16.0312V68.2812Z" fill="white"/>
<path d="M21.3751 68.2812H24.0469V71.25H21.3751V68.2812Z" fill="#F9B93E"/>
<path d="M10.3906 69.7656C10.3906 70.5865 11.0556 71.25 11.875 71.25H13.3594V68.2812H10.3906V69.7656Z" fill="#F9B93E"/>
<path d="M10.3906 62.0736H13.3594V65.1774H10.3906V62.0736Z" fill="white"/>
<path d="M10.3906 55.8674H13.3594V58.9713H10.3906V55.8674Z" fill="#F9B93E"/>
<path d="M10.3906 37.2444H13.3594V40.3482H10.3906V37.2444Z" fill="white"/>
<path d="M10.3906 43.4506H13.3594V46.5544H10.3906V43.4506Z" fill="#F9B93E"/>
<path d="M10.3906 49.6598H13.3594V52.7636H10.3906V49.6598Z" fill="white"/>
<path d="M10.3906 32.6562H13.3594V34.1406H10.3906V32.6562Z" fill="white"/>
<path d="M34.1406 11.875H35.625V14.8438H34.1406V11.875Z" fill="white"/>
<path d="M55.4622 11.875H58.2958V14.8438H55.4622V11.875Z" fill="white"/>
<path d="M61.1295 11.875H63.9632V14.8438H61.1295V11.875Z" fill="#F9B93E"/>
<path d="M38.4587 11.875H41.2924V14.8438H38.4587V11.875Z" fill="#F9B93E"/>
<path d="M49.7933 11.875H52.627V14.8438H49.7933V11.875Z" fill="#F9B93E"/>
<path d="M44.1276 11.875H46.9612V14.8438H44.1276V11.875Z" fill="white"/>
<path d="M69.7656 13.3594C69.7656 12.5385 69.1006 11.875 68.2812 11.875H66.7969V14.8438H69.7656V13.3594Z" fill="white"/>
<path d="M66.7969 17.2188H69.7656V19.5938H66.7969V17.2188Z" fill="#F9B93E"/>
<path d="M66.7969 21.9687H69.7656V24.3437H66.7969V21.9687Z" fill="white"/>
<path d="M66.7969 26.7188H69.7656V28.2031H66.7969V26.7188Z" fill="#F9B93E"/>
</svg>
