<svg width="134" height="134" viewBox="0 0 134 134" fill="none" xmlns="http://www.w3.org/2000/svg">
<path d="M12.9678 121.032H17.2904V125.355H12.9678V121.032Z" fill="white"/>
<path d="M21.6128 121.032H25.9354V125.355H21.6128V121.032Z" fill="white"/>
<path d="M30.2583 121.032H34.5809V125.355H30.2583V121.032Z" fill="white"/>
<path d="M103.742 121.032H121.032V125.355H103.742V121.032Z" fill="white"/>
<path d="M129.677 112.387V41.0645C129.677 35.1062 124.829 30.2581 118.871 30.2581H112.387C112.387 13.5724 98.8147 0 82.129 0C65.4434 0 51.871 13.5724 51.871 30.2581H15.129C9.17071 30.2581 4.32258 35.1062 4.32258 41.0645V112.387H0V123.194C0 129.152 4.84813 134 10.8065 134H123.194C129.152 134 134 129.152 134 123.194V112.387H129.677ZM118.871 34.5806C122.445 34.5806 125.355 37.4902 125.355 41.0645V112.387H121.032V43.2258C121.032 40.8418 119.094 38.9032 116.71 38.9032H111.112C111.529 37.5028 111.83 36.057 112.041 34.5806H118.871ZM57.4494 22.3157L80.3888 31.8748L88.2435 55.4348C86.2785 55.9128 84.2386 56.1935 82.129 56.1935C67.8274 56.1935 56.1935 44.5597 56.1935 30.2581C56.1935 27.4868 56.641 24.82 57.4494 22.3157ZM92.3498 54.0861L84.6016 30.8417L101.913 13.5292C105.743 18.0491 108.065 23.8839 108.065 30.2581C108.065 40.9305 101.581 50.1118 92.3498 54.0861ZM82.129 4.32258C88.5032 4.32258 94.338 6.64428 98.86 10.4719L81.6256 27.7053L59.1242 18.3319C63.4489 10.0202 72.1288 4.32258 82.129 4.32258ZM8.64516 41.0645C8.64516 37.4902 11.5547 34.5806 15.129 34.5806H52.2171C52.4282 36.057 52.7268 37.5028 53.1458 38.9032H17.2903C14.9064 38.9032 12.9677 40.8418 12.9677 43.2258V112.387H8.64516V41.0645ZM129.677 123.194C129.677 126.768 126.768 129.677 123.194 129.677H10.8065C7.23209 129.677 4.32258 126.768 4.32258 123.194V116.71H48.8496C51.9575 119.504 55.9339 121.032 60.1468 121.032H73.8553C78.0682 121.032 82.0446 119.504 85.1525 116.71H112.387V112.387H83.3954L82.7622 113.02C80.3825 115.4 77.2208 116.71 73.8532 116.71H60.1447C56.7792 116.71 53.6154 115.4 51.2357 113.02L50.6046 112.387H17.2903V43.2258H54.8322C59.7014 53.4318 70.0889 60.5161 82.129 60.5161C94.1692 60.5161 104.557 53.4318 109.426 43.2258H116.71V116.71H129.677V123.194Z" fill="white"/>
<path d="M105.903 90.7741C104.577 90.7741 103.342 91.1783 102.313 91.8653L94.7727 86.212C94.9648 85.5999 95.0967 84.9625 95.0967 84.2903C95.0967 80.7159 92.1872 77.8064 88.6128 77.8064C85.0384 77.8064 82.1289 80.7159 82.1289 84.2903C82.1289 85.0343 82.2798 85.7382 82.5109 86.4041L70.4065 96.0887C69.4145 95.4703 68.2536 95.0967 66.9999 95.0967C65.5457 95.0967 64.216 95.5959 63.1332 96.4064L53.8137 90.1927C53.9435 89.685 54.0322 89.1616 54.0322 88.6128C54.0322 85.0385 51.1226 82.129 47.5483 82.129C43.9739 82.129 41.0644 85.0385 41.0644 88.6128C41.0644 89.1616 41.1531 89.685 41.2829 90.1927L31.9633 96.4064C30.8806 95.5938 29.5509 95.0967 28.0967 95.0967C24.5223 95.0967 21.6128 98.0062 21.6128 101.581C21.6128 105.155 24.5223 108.064 28.0967 108.064C31.671 108.064 34.5805 105.155 34.5805 101.581C34.5805 101.032 34.4919 100.508 34.3621 100.001L43.6816 93.7871C44.7644 94.5997 46.094 95.0967 47.5483 95.0967C49.0025 95.0967 50.3322 94.5997 51.415 93.7871L60.7345 100.001C60.6047 100.508 60.516 101.034 60.516 101.581C60.516 105.155 63.4255 108.064 66.9999 108.064C70.5743 108.064 73.4838 105.155 73.4838 101.581C73.4838 100.837 73.3329 100.133 73.1017 99.4668L85.2062 89.7821C86.1982 90.4006 87.3591 90.7741 88.6128 90.7741C89.9393 90.7741 91.174 90.3699 92.203 89.6829L99.7432 95.3363C99.5512 95.9484 99.4193 96.5858 99.4193 97.258C99.4193 100.832 102.329 103.742 105.903 103.742C109.477 103.742 112.387 100.832 112.387 97.258C112.387 93.6836 109.477 90.7741 105.903 90.7741ZM28.0967 103.742C26.9063 103.742 25.9354 102.771 25.9354 101.581C25.9354 100.39 26.9063 99.4193 28.0967 99.4193C29.2871 99.4193 30.258 100.39 30.258 101.581C30.258 102.771 29.2871 103.742 28.0967 103.742ZM47.5483 90.7741C46.3579 90.7741 45.387 89.8032 45.387 88.6128C45.387 87.4224 46.3579 86.4516 47.5483 86.4516C48.7387 86.4516 49.7096 87.4224 49.7096 88.6128C49.7096 89.8032 48.7387 90.7741 47.5483 90.7741ZM66.9999 103.742C65.8095 103.742 64.8386 102.771 64.8386 101.581C64.8386 100.39 65.8095 99.4193 66.9999 99.4193C68.1903 99.4193 69.1612 100.39 69.1612 101.581C69.1612 102.771 68.1903 103.742 66.9999 103.742ZM88.6128 86.4516C87.4224 86.4516 86.4515 85.4807 86.4515 84.2903C86.4515 83.0999 87.4224 82.129 88.6128 82.129C89.8032 82.129 90.7741 83.0999 90.7741 84.2903C90.7741 85.4807 89.8032 86.4516 88.6128 86.4516ZM105.903 99.4193C104.713 99.4193 103.742 98.4484 103.742 97.258C103.742 96.0676 104.713 95.0967 105.903 95.0967C107.094 95.0967 108.064 96.0676 108.064 97.258C108.064 98.4484 107.094 99.4193 105.903 99.4193Z" fill="#F9B93E"/>
<path d="M56.1934 47.5483H21.6128V77.8064H56.1934V47.5483ZM51.8709 73.4838H25.9354V51.8709H51.8709V73.4838Z" fill="white"/>
<path d="M30.2583 56.1936H47.5486V60.5162H30.2583V56.1936Z" fill="#F9B93E"/>
<path d="M30.2583 64.8389H47.5486V69.1615H30.2583V64.8389Z" fill="#F9B93E"/>
<path d="M60.5161 69.1611H64.8387V73.4837H60.5161V69.1611Z" fill="white"/>
<path d="M69.1611 69.1611H112.387V73.4837H69.1611V69.1611Z" fill="white"/>
</svg>
