<svg width="108" height="108" viewBox="0 0 108 108" fill="none" xmlns="http://www.w3.org/2000/svg">
<path d="M106.613 72.5953L90.3824 56.3622C94.3037 51.195 96.7517 45.0012 97.3796 38.5075C98.1484 30.538 96.1634 22.4862 91.7898 15.8342C91.3094 15.1042 90.328 14.9015 89.5988 15.3819C88.8688 15.8623 88.6661 16.8436 89.1465 17.5736C97.4233 30.1607 95.6872 47.0414 85.0184 57.711C72.5574 70.1728 52.2836 70.1728 39.8234 57.711C27.3625 45.2492 27.3625 24.9721 39.8234 12.5103C52.2836 0.0485611 72.5582 0.0485611 85.0142 12.5062L85.1008 12.5935C85.7171 13.2132 86.7182 13.2173 87.3378 12.601C87.9583 11.9855 87.9616 10.9835 87.3461 10.3639L87.2554 10.2724C73.561 -3.42284 51.28 -3.42284 37.5855 10.2724C37.1554 10.7025 36.7393 11.1409 36.3364 11.5875H1.58203C0.708617 11.5875 0 12.2961 0 13.1695V20.1667C0 21.0409 0.708617 21.7495 1.58203 21.7495C2.45626 21.7495 3.16406 21.0409 3.16406 20.1667V14.7524H33.7985C32.5898 16.4506 31.5499 18.232 30.679 20.0752H10.9687C10.0953 20.0752 9.3867 20.783 9.3867 21.6573C9.3867 22.5315 10.0953 23.2393 10.9687 23.2393H29.3697C28.9157 24.5098 28.5375 25.801 28.2343 27.107H10.9687C10.0953 27.107 9.3867 27.8148 9.3867 28.689C9.3867 29.5624 10.0953 30.2711 10.9687 30.2711H27.6492C27.4721 31.554 27.3658 32.8452 27.3304 34.138H10.9687C10.0953 34.138 9.3867 34.8466 9.3867 35.7208C9.3867 36.5942 10.0953 37.3029 10.9687 37.3029H27.3856C27.6707 41.899 28.8498 46.449 30.927 50.6652H28.2664C27.3922 50.6652 26.6844 51.3738 26.6844 52.2481V99.0827C26.6844 99.9569 27.3922 100.666 28.2664 100.666H40.9226C41.7969 100.666 42.5046 99.9569 42.5046 99.0827V64.0465C43.9293 65.0279 45.41 65.8931 46.9343 66.6404V99.0827C46.9343 99.9569 47.6429 100.666 48.5164 100.666H61.1726C62.0468 100.666 62.7546 99.9569 62.7546 99.0827V70.2173C63.9881 70.2049 65.2199 70.1299 66.4468 69.9899V94.4281C66.4468 95.3023 67.1546 96.0109 68.0289 96.0109C68.9023 96.0109 69.6109 95.3023 69.6109 94.4281V69.4806C74.6116 68.4424 79.4277 66.3083 83.6712 63.0775L99.8985 79.3073C100.796 80.2038 101.988 80.6982 103.255 80.6982C104.523 80.6982 105.716 80.2038 106.612 79.3073C108.462 77.4583 108.463 74.4476 106.613 72.5953ZM39.3406 97.5007H29.8484V53.8301H32.6985C34.0672 56.0029 35.6953 58.0579 37.5855 59.9489C38.1557 60.5191 38.7424 61.0638 39.3406 61.5862V97.5007ZM50.0992 97.5007V68.0016C53.1677 69.1461 56.3647 69.8465 59.5914 70.1052V97.5007H50.0992ZM104.376 77.0694C104.077 77.3685 103.679 77.5333 103.256 77.5333C102.833 77.5333 102.436 77.3685 102.137 77.0694L86.1101 61.0415C86.4982 60.6864 86.8805 60.3238 87.2554 59.9489C87.6295 59.5748 87.9937 59.1933 88.3489 58.8036L104.374 74.8324C104.991 75.4495 104.992 76.4539 104.376 77.0694Z" fill="white"/>
<path d="M68.029 99.6671C67.1556 99.6671 66.447 100.375 66.447 101.249V104.836H3.16406V27.0231C3.16406 26.1488 2.45627 25.441 1.58203 25.441C0.708618 25.441 0 26.1488 0 27.0231V106.418C0 107.292 0.708618 108 1.58203 108H68.029C68.9032 108 69.611 107.292 69.611 106.418V101.249C69.611 100.375 68.9032 99.6671 68.029 99.6671Z" fill="white"/>
<path d="M6.85547 64.9045V99.0822C6.85547 99.9556 7.56409 100.664 8.4375 100.664H21.0946C21.968 100.664 22.6766 99.9556 22.6766 99.0822V64.9045C22.6766 64.0311 21.968 63.3225 21.0946 63.3225H8.4375C7.56409 63.3225 6.85547 64.0311 6.85547 64.9045ZM10.0195 66.4874H19.5125V97.4993H10.0195V66.4874Z" fill="#F9B93E"/>
<path d="M22.7986 44.3355C23.6728 44.3355 24.3806 43.6269 24.3806 42.7527C24.3806 41.8793 23.6728 41.1707 22.7986 41.1707H10.9688C10.0953 41.1707 9.38672 41.8793 9.38672 42.7527C9.38672 43.6269 10.0953 44.3355 10.9688 44.3355H22.7986Z" fill="white"/>
<path d="M62.4211 6.32568C54.7219 6.32568 47.4907 9.31671 42.0607 14.7475C36.6307 20.1783 33.6396 27.4104 33.6396 35.1104C33.6396 42.8105 36.6307 50.0425 42.0607 55.4733C47.4915 60.9041 54.7219 63.8951 62.4211 63.8951C70.1203 63.8951 77.3507 60.9041 82.7815 55.4733C88.2115 50.0425 91.2017 42.8105 91.2017 35.1104C91.2017 27.4104 88.2115 20.1783 82.7815 14.7475C77.3507 9.31671 70.1203 6.32568 62.4211 6.32568ZM80.5436 53.2354C75.711 58.0688 69.2749 60.7303 62.4211 60.7303C55.5664 60.7303 49.1312 58.0688 44.2986 53.2354C39.4651 48.4019 36.8037 41.9651 36.8037 35.1104C36.8037 28.2549 39.4651 21.8181 44.2986 16.9846C49.2943 11.988 55.8581 9.48892 62.4211 9.48892C68.984 9.48892 75.5478 11.988 80.5436 16.9846C85.3762 21.8181 88.0376 28.2549 88.0376 35.1104C88.0376 41.9651 85.3762 48.4019 80.5436 53.2354Z" fill="#F9B93E"/>
</svg>
