<svg width="127" height="127" viewBox="0 0 127 127" fill="none" xmlns="http://www.w3.org/2000/svg">
<path d="M63.5 83.3438C48.7581 83.3438 23.8125 85.4333 23.8125 93.2656C23.8125 101.098 48.7581 103.188 63.5 103.188C78.2419 103.188 103.188 101.098 103.188 93.2656C103.188 85.4333 78.2419 83.3438 63.5 83.3438ZM63.5 99.2188C41.4218 99.2188 28.5055 95.3016 27.7733 93.3291C28.5055 91.2297 41.4218 87.3125 63.5 87.3125C85.3559 87.3125 98.2325 91.1523 99.2009 93.2656C98.2325 95.379 85.3559 99.2188 63.5 99.2188Z" fill="#F9B93E"/>
<path d="M74.3982 75.6841L79.498 69.1257C80.0874 69.3222 80.7045 69.4531 81.3594 69.4531C83.3815 69.4531 85.1674 68.4351 86.2429 66.8893L97.28 69.8996C97.5122 72.9694 100.056 75.4062 103.188 75.4062C106.47 75.4062 109.141 72.7353 109.141 69.4531C109.141 67.9192 108.541 66.5321 107.585 65.4745L115.193 51.3417C115.8 51.4925 116.425 51.5938 117.078 51.5938C121.456 51.5938 125.016 48.0338 125.016 43.6562C125.016 39.2787 121.456 35.7188 117.078 35.7188C112.701 35.7188 109.141 39.2787 109.141 43.6562C109.141 45.9542 110.137 48.008 111.7 49.4586L104.09 63.5913C103.795 63.5456 103.497 63.5 103.188 63.5C101.165 63.5 99.3815 64.518 98.304 66.0638L87.2669 63.0535C87.0347 59.9837 84.4887 57.5469 81.3594 57.5469C78.0772 57.5469 75.4062 60.2178 75.4062 63.5C75.4062 64.6807 75.7615 65.7741 76.3568 66.7008L69.5186 75.4916C67.5104 75.436 65.5022 75.4062 63.5 75.4062C33.6788 75.4062 1.98438 81.665 1.98438 93.2656V105.172C1.98438 116.773 33.6788 123.031 63.5 123.031C93.3212 123.031 125.016 116.773 125.016 105.172V93.2656C125.016 83.0759 100.558 77.0076 74.3982 75.6841ZM117.078 39.6875C119.267 39.6875 121.047 41.4675 121.047 43.6562C121.047 45.845 119.267 47.625 117.078 47.625C114.889 47.625 113.109 45.845 113.109 43.6562C113.109 41.4675 114.889 39.6875 117.078 39.6875ZM103.188 67.4688C104.283 67.4688 105.172 68.3577 105.172 69.4531C105.172 70.5485 104.283 71.4375 103.188 71.4375C102.092 71.4375 101.203 70.5485 101.203 69.4531C101.203 68.3577 102.092 67.4688 103.188 67.4688ZM81.3594 61.5156C82.4548 61.5156 83.3438 62.4046 83.3438 63.5C83.3438 64.5954 82.4548 65.4844 81.3594 65.4844C80.264 65.4844 79.375 64.5954 79.375 63.5C79.375 62.4046 80.264 61.5156 81.3594 61.5156ZM5.95312 105.172V99.9133C7.95933 101.475 10.6561 102.882 13.8906 104.126V111.752C8.72927 109.581 5.95312 107.232 5.95312 105.172ZM109.141 105.493V113.234C106.811 114.004 104.154 114.731 101.203 115.397V107.539C104.033 106.934 106.692 106.249 109.141 105.493ZM97.2344 116.223C94.7618 116.691 92.1087 117.112 89.2969 117.481V109.537C92.0294 109.188 94.6845 108.781 97.2344 108.321V116.223ZM85.3281 117.955C82.8 118.225 80.1489 118.449 77.3906 118.626V110.675C80.0735 110.5 82.7266 110.274 85.3281 110.002V117.955ZM73.4219 118.844C70.864 118.957 68.2129 119.025 65.4844 119.049V111.113C68.1295 111.089 70.7827 111.014 73.4219 110.893V118.844ZM61.5156 119.049C58.7871 119.025 56.136 118.957 53.5781 118.844V110.891C56.2173 111.012 58.8705 111.087 61.5156 111.111V119.049ZM49.6094 118.626C46.8511 118.449 44.2 118.225 41.6719 117.955V110.002C44.2734 110.276 46.9265 110.502 49.6094 110.675V118.626ZM37.7031 117.481C34.8913 117.112 32.2382 116.691 29.7656 116.223V108.321C32.3155 108.783 34.9706 109.188 37.7031 109.537V117.481ZM25.7969 115.399C22.8461 114.733 20.189 114.004 17.8594 113.236V105.495C20.3081 106.251 22.9672 106.936 25.7969 107.543V115.399ZM113.109 111.754V104.128C116.344 102.884 119.041 101.477 121.047 99.9153V105.172C121.047 107.232 118.271 109.581 113.109 111.754ZM63.5 107.156C27.8447 107.156 5.95312 99.066 5.95312 93.2656C5.95312 87.4653 27.8447 79.375 63.5 79.375C99.1553 79.375 121.047 87.4653 121.047 93.2656C121.047 99.066 99.1553 107.156 63.5 107.156Z" fill="white"/>
<path d="M61.5156 45.6406H65.4844V41.6719C68.7665 41.6719 71.4375 39.0009 71.4375 35.7188C71.4375 32.4366 68.7665 29.7656 65.4844 29.7656H61.5156C60.4202 29.7656 59.5312 28.8766 59.5312 27.7812C59.5312 26.6859 60.4202 25.7969 61.5156 25.7969H67.4688V27.7812H71.4375V21.8281H65.4844V17.8594H61.5156V21.8281C58.2335 21.8281 55.5625 24.4991 55.5625 27.7812C55.5625 31.0634 58.2335 33.7344 61.5156 33.7344H65.4844C66.5798 33.7344 67.4688 34.6234 67.4688 35.7188C67.4688 36.8141 66.5798 37.7031 65.4844 37.7031H59.5312V35.7188H55.5625V41.6719H61.5156V45.6406Z" fill="#F9B93E"/>
<path d="M41.6719 53.5781H55.9991L59.1106 66.0261C59.6146 68.0442 61.4204 69.4531 63.5 69.4531C65.5796 69.4531 67.3854 68.0442 67.8894 66.0241L71.0009 53.5781H85.3281C88.6103 53.5781 91.2812 50.9072 91.2812 47.625V15.875C91.2812 12.5928 88.6103 9.92188 85.3281 9.92188H41.6719C38.3897 9.92188 35.7188 12.5928 35.7188 15.875V47.625C35.7188 50.9072 38.3897 53.5781 41.6719 53.5781ZM39.6875 15.875C39.6875 14.7796 40.5765 13.8906 41.6719 13.8906H85.3281C86.4235 13.8906 87.3125 14.7796 87.3125 15.875V47.625C87.3125 48.7204 86.4235 49.6094 85.3281 49.6094H67.9053L64.0417 65.0617C63.9167 65.5578 63.0853 65.5558 62.9603 65.0637L59.0947 49.6094H41.6719C40.5765 49.6094 39.6875 48.7204 39.6875 47.625V15.875Z" fill="white"/>
<path d="M19.8435 55.5625H31.7497V51.5938H15.8747V53.8401L9.53066 49.6094L15.8747 45.3787V47.625H31.7497V43.6563H19.8435V37.9651L2.375 49.6094L19.8435 61.2537V55.5625Z" fill="#F9B93E"/>
<path d="M107.156 25.535L124.625 13.8906L107.156 2.24634V7.93753H95.25V11.9063H111.125V9.65996L117.469 13.8906L111.125 18.1213V15.875H95.25V19.8438H107.156V25.535Z" fill="#F9B93E"/>
</svg>
