<svg width="105" height="105" viewBox="0 0 105 105" fill="none" xmlns="http://www.w3.org/2000/svg">
<g clip-path="url(#clip0)">
<path d="M52.5 95.9086C67.3683 95.9086 79.4644 83.8125 79.4644 68.9444C79.4644 54.076 67.3683 41.9799 52.5 41.9799C37.6316 41.9799 25.5355 54.076 25.5355 68.9444C25.5353 83.8125 37.6316 95.9086 52.5 95.9086ZM52.5 45.0558C65.6719 45.0558 76.3883 55.7722 76.3883 68.9441C76.3883 82.1161 65.6719 92.8325 52.5 92.8325C39.328 92.8325 28.6116 82.1163 28.6116 68.9444C28.6116 55.7724 39.3278 45.0558 52.5 45.0558Z" fill="#F9B93E"/>
<path d="M45.4582 79.9805C47.5451 81.3457 48.9632 81.7392 50.8167 81.8348V83.67C50.8167 84.5197 51.5052 85.2081 52.3548 85.2081C53.2044 85.2081 53.8929 84.5197 53.8929 83.67V81.7156C57.5351 81.0327 59.6624 78.0443 60.1316 75.2532C60.7304 71.691 58.8664 68.5937 55.3828 67.3622C54.8935 67.1893 54.3923 67.0076 53.8929 66.8179V58.8896C55.7441 59.1142 57.072 59.9128 57.1015 59.9308C57.8189 60.3785 58.7647 60.1631 59.2169 59.4468C59.6701 58.7282 59.455 57.7783 58.7366 57.3251C58.6206 57.2521 56.6508 56.0364 53.8929 55.7948V54.2186C53.8929 53.3689 53.2044 52.6805 52.3548 52.6805C51.5052 52.6805 50.8167 53.3689 50.8167 54.2186V55.9769C50.5544 56.0329 50.2895 56.0993 50.022 56.1799C47.7315 56.87 46.0195 58.8314 45.5548 61.2983C45.1315 63.5449 45.8493 65.7101 47.4282 66.9486C48.2826 67.6188 49.3492 68.2324 50.8167 68.8822V78.7555C49.4991 78.6706 48.6164 78.3706 47.1425 77.4063C46.4315 76.9414 45.4783 77.1405 45.0132 77.8513C44.5481 78.5621 44.7474 79.5153 45.4582 79.9805ZM49.3266 64.5278C48.6548 64.001 48.3677 62.9815 48.5777 61.8678C48.7702 60.8456 49.4607 59.6115 50.8167 59.1574V65.4677C50.2534 65.1689 49.7448 64.8559 49.3266 64.5278ZM54.3574 70.2624C57.4174 71.3438 57.2285 73.9655 57.0976 74.7432C56.838 76.2874 55.748 77.9297 53.8927 78.5388V70.0961C54.0457 70.1513 54.1982 70.2062 54.3574 70.2624Z" fill="white"/>
<path d="M30.9206 24.5475L32.8514 23.0049V32.7859C32.8514 33.6355 33.5399 34.3239 34.3895 34.3239C35.2392 34.3239 35.9276 33.6355 35.9276 32.7859V23.0049L37.8584 24.5475C38.142 24.7739 38.4808 24.884 38.8176 24.884C39.2689 24.884 39.7166 24.6861 40.0201 24.3061C40.5505 23.6424 40.4424 22.6745 39.7786 22.1444L35.3495 18.6057C34.788 18.157 33.9908 18.157 33.4293 18.6057L29.0003 22.1444C28.3366 22.6745 28.2283 23.6424 28.7587 24.3061C29.2892 24.9695 30.2568 25.0778 30.9206 24.5475Z" fill="white"/>
<path d="M64.9798 24.306C65.5102 24.9695 66.4775 25.078 67.1416 24.5476L69.0724 23.005V32.786C69.0724 33.6357 69.7608 34.3241 70.6105 34.3241C71.4601 34.3241 72.1485 33.6357 72.1485 32.786V23.005L74.0794 24.5476C74.363 24.774 74.7018 24.8842 75.0385 24.8842C75.4899 24.8842 75.9376 24.6863 76.2411 24.3062C76.7714 23.6426 76.6633 22.6746 75.9995 22.1445L71.5704 18.6059C71.0089 18.1572 70.2118 18.1572 69.6503 18.6059L65.2212 22.1445C64.5576 22.6742 64.4495 23.6422 64.9798 24.306Z" fill="white"/>
<path d="M52.5 32.8884C32.6189 32.8884 16.4444 49.0629 16.4444 68.9442C16.4444 78.1702 19.9282 86.9492 26.2545 93.6637C26.8371 94.2818 27.8104 94.3107 28.4289 93.7283C29.0472 93.1456 29.0759 92.1723 28.4935 91.5538C22.7072 85.4126 19.5205 77.3827 19.5205 68.944C19.5205 50.7589 34.3151 35.9643 52.5 35.9643C70.6849 35.9643 85.4796 50.7591 85.4796 68.944C85.4796 87.1289 70.6849 101.924 52.5 101.924C45.3803 101.924 38.601 99.6901 32.8947 95.4645C32.2118 94.9587 31.249 95.1027 30.7432 95.785C30.2377 96.4677 30.3813 97.431 31.0638 97.9365C37.3037 102.558 44.716 105 52.5 105C72.3813 105 88.5558 88.8255 88.5558 68.9444C88.5558 49.0629 72.3813 32.8884 52.5 32.8884Z" fill="white"/>
<path d="M49.6638 6.50732L52.5 3.70165L60.552 11.6677H59.0966C57.5708 11.6677 56.3295 12.909 56.3295 14.4348V29.2523C56.3295 30.102 57.0179 30.7904 57.8675 30.7904C58.7172 30.7904 59.4056 30.102 59.4056 29.2523V14.7439H64.2937C64.9173 14.7439 65.479 14.3674 65.7163 13.7907C65.9536 13.214 65.8188 12.551 65.3755 12.1123L53.5816 0.4446C52.9824 -0.148281 52.0175 -0.148281 51.4182 0.4446L47.5004 4.32037C46.8965 4.91776 46.8911 5.89168 47.4885 6.49543C48.0863 7.09979 49.0602 7.10492 49.6638 6.50732Z" fill="#F9B93E"/>
<path d="M40.7065 14.7439H45.5946V29.2523C45.5946 30.102 46.283 30.7904 47.1327 30.7904C47.9823 30.7904 48.6707 30.102 48.6707 29.2523V14.4348C48.6707 12.909 47.4292 11.6677 45.9034 11.6677H44.448L45.2921 10.8326C45.896 10.235 45.9014 9.26132 45.304 8.65757C44.7062 8.05341 43.7323 8.04828 43.1289 8.64568L39.6249 12.1123C39.1816 12.551 39.047 13.2138 39.2841 13.7907C39.5212 14.3676 40.0829 14.7439 40.7065 14.7439Z" fill="#F9B93E"/>
</g>
<defs>
<clipPath id="clip0">
<rect width="105" height="105" fill="white"/>
</clipPath>
</defs>
</svg>
