<svg width="134" height="134" viewBox="0 0 134 134" fill="none" xmlns="http://www.w3.org/2000/svg">
<path d="M88.3215 102.552C87.4433 102.404 86.5436 102.329 85.647 102.329H77.086V96.8676C82.0167 93.5767 85.2718 87.9651 85.2718 81.6051V71.7815C85.2718 68.3975 84.3425 65.0903 82.5841 62.2185L79.2329 64.2703C80.613 66.5246 81.343 69.1224 81.343 71.7815V73.8415L80.8267 72.8876C79.2554 69.9832 76.2282 68.1787 72.9261 68.1787H60.9412C57.639 68.1787 54.6119 69.9832 53.0405 72.8876L52.5253 73.8415V71.7815C52.5253 63.8358 58.9885 57.3726 66.9341 57.3726C70.7669 57.3726 74.3747 58.8611 77.0921 61.5632L79.8626 58.7763C76.4041 55.3371 71.8127 53.4427 66.9341 53.4427C56.8222 53.4427 48.5954 61.6695 48.5954 71.7815V81.6051C48.5954 87.9651 51.8516 93.5777 56.7823 96.8676V102.329H48.2212C39.3995 102.329 32.2227 109.506 32.2227 118.329V134H36.1525V118.329C36.1525 111.673 41.5658 106.259 48.2212 106.259H56.9336C57.7576 111.034 61.9267 114.68 66.9341 114.68C71.9415 114.68 76.1106 111.034 76.9346 106.259H85.647C86.3259 106.259 87.0057 106.315 87.6692 106.428L88.3215 102.552ZM73.1561 104.528C73.1561 107.959 70.3651 110.75 66.9341 110.75C63.5032 110.75 60.7122 107.959 60.7122 104.528V98.855C62.6556 99.5584 64.7504 99.9428 66.9341 99.9428C69.1178 99.9428 71.2126 99.5584 73.1561 98.855V104.528ZM66.9341 96.014C59.148 96.014 52.789 89.8053 52.5376 82.0805L56.4981 74.7575C57.3814 73.1238 59.0846 72.1086 60.9412 72.1086H72.9261C74.7836 72.1086 76.4869 73.1238 77.3702 74.7575L81.3307 82.0795C81.0782 89.8053 74.7192 96.014 66.9341 96.014Z" fill="white"/>
<path d="M92.5792 103.905L90.875 107.446C95.0318 109.446 97.7165 113.719 97.7165 118.329V134H101.646V118.329C101.646 112.218 98.0876 106.557 92.5792 103.905Z" fill="white"/>
<path d="M85.9277 124.569H89.8576V134H85.9277V124.569Z" fill="white"/>
<path d="M44.0117 124.569H47.9416V134H44.0117V124.569Z" fill="white"/>
<path d="M34.8011 18.5186L30.2579 9.31451L25.7146 18.5186L15.5566 19.9949L22.9073 27.1605L21.1723 37.2775L30.2579 32.5012L39.3434 37.2775L37.6085 27.1605L44.9591 19.9949L34.8011 18.5186ZM34.1244 30.0946L30.2579 28.0611L26.3914 30.0946L27.1295 25.7885L24.0012 22.7388L28.3246 22.1111L30.2579 18.1935L32.1911 22.1111L36.5146 22.7388L33.3862 25.7885L34.1244 30.0946Z" fill="white"/>
<path d="M72.7875 18.5186L68.2442 9.31351L63.702 18.5186L53.543 19.9949L60.8936 27.1605L59.1587 37.2775L68.2442 32.5012L77.3308 37.2775L75.5948 27.1595L82.9454 19.9949L72.7875 18.5186ZM72.1117 30.0946L68.2442 28.0612L64.3777 30.0946L65.1158 25.7885L61.9875 22.7389L66.311 22.1111L68.2442 18.1935L70.1774 22.1111L74.5009 22.7389L71.3726 25.7885L72.1117 30.0946Z" fill="#F9B93E"/>
<path d="M103.611 9.31351L99.0681 18.5186L88.9102 19.9949L96.2608 27.1595L94.5259 37.2775L103.611 32.5012L112.698 37.2775L110.962 27.1595L118.313 19.9949L108.155 18.5186L103.611 9.31351ZM107.478 30.0946L103.611 28.0612L99.7439 30.0946L100.483 25.7885L97.3547 22.7389L101.678 22.1111L103.611 18.1935L105.545 22.1111L109.868 22.7389L106.74 25.7885L107.478 30.0946Z" fill="white"/>
<path d="M126.665 0H102.536V3.92987H126.665C128.47 3.92987 129.939 5.39897 129.939 7.20442V41.2606C129.939 43.067 128.47 44.5361 126.665 44.5361H37.4626V58.4267L17.7826 44.5361H7.20442C5.39897 44.5361 3.92987 43.067 3.92987 41.2606V24.1466H0V41.2606C0 45.2334 3.23161 48.465 7.20442 48.465H16.5363L41.3925 66.0114V48.465H126.665C130.638 48.465 133.869 45.2334 133.869 41.2606V7.20442C133.869 3.23161 130.638 0 126.665 0Z" fill="white"/>
<path d="M3.92987 7.20442C3.92987 5.39897 5.39897 3.92987 7.20442 3.92987H98.6077V0H7.20442C3.23161 0 0 3.23161 0 7.20442V20.2168H3.92987V7.20442Z" fill="white"/>
<path d="M40.082 118.329H44.0119C44.0119 116.007 45.9002 114.118 48.2219 114.118V110.189C43.7338 110.189 40.082 113.841 40.082 118.329Z" fill="#F9B93E"/>
<path d="M125.747 17.6834V7.85974H115.924V11.7886H121.818V17.6834H125.747Z" fill="#F9B93E"/>
<path d="M7.85938 30.5199V40.3446H17.683V36.4147H11.7882V30.5199H7.85938Z" fill="#F9B93E"/>
<path d="M57.1113 125.224H61.0402V129.153H57.1113V125.224Z" fill="white"/>
<path d="M64.9697 125.224H68.8996V129.153H64.9697V125.224Z" fill="#F9B93E"/>
<path d="M72.8291 125.224H76.758V129.153H72.8291V125.224Z" fill="white"/>
</svg>
