<svg width="109" height="109" viewBox="0 0 109 109" fill="none" xmlns="http://www.w3.org/2000/svg">
<path d="M109 60.6429C109 56.246 105.424 52.6681 101.027 52.6681C98.898 52.6681 96.8961 53.4982 95.3887 55.0048L87.9032 62.4903V0H18.6108L0 18.6108V109H87.9032V85.0429L106.665 66.2811C108.17 64.7763 109 62.7735 109 60.6429ZM65.9223 91.1893L70.4968 95.7639L64.0938 97.6327L65.9223 91.1893ZM73.8387 94.132L71.9313 92.2246L97.0309 67.1232L98.9401 69.0324L73.8387 94.132ZM69.4436 89.7385L67.5344 87.8294L92.6375 62.7281L94.5466 64.6372L69.4436 89.7385ZM17.5806 6.00214V17.5806H6.00214L17.5806 6.00214ZM84.3871 105.484H3.51613V21.0968H21.0968V3.51613H84.3871V66.0064L63.4818 86.91L58.9724 102.788L74.7632 98.1829L84.3871 88.5591V105.484ZM104.179 63.7951L101.428 66.5463L95.1235 60.242L97.8747 57.4908C98.7169 56.6487 99.8371 56.1842 101.027 56.1842C103.483 56.1842 105.484 58.1852 105.484 60.6429C105.484 61.8344 105.019 62.9547 104.179 63.7951Z" fill="white"/>
<path d="M35.6179 72.6558L28.0517 80.98C25.8207 78.742 22.7389 77.3548 19.3387 77.3548C12.5545 77.3548 7.03223 82.8771 7.03223 89.6613C7.03223 96.4454 12.5545 101.968 19.3387 101.968C26.1229 101.968 31.6451 96.4454 31.6451 89.6613C31.6451 87.5641 31.1163 85.5897 30.1858 83.86L38.2207 75.0216L35.6179 72.6558ZM28.129 89.6613C28.129 94.508 24.1854 98.4516 19.3387 98.4516C14.492 98.4516 10.5484 94.508 10.5484 89.6613C10.5484 84.8146 14.492 80.8709 19.3387 80.8709C21.8298 80.8709 24.0712 81.9242 25.673 83.5956L19.0554 90.8759L15.0405 88.2002L13.0902 91.1257L19.6237 95.4823L27.5873 86.722C27.9161 87.6448 28.129 88.6243 28.129 89.6613Z" fill="white"/>
<path d="M28.0517 49.3348C25.8207 47.0969 22.7389 45.7097 19.3387 45.7097C12.5545 45.7097 7.03223 51.2319 7.03223 58.0161C7.03223 64.8003 12.5545 70.3226 19.3387 70.3226C26.1229 70.3226 31.6451 64.8003 31.6451 58.0161C31.6451 55.919 31.1163 53.9446 30.1858 52.2148L38.2207 43.3765L35.6179 41.0106L28.0517 49.3348ZM28.129 58.0161C28.129 62.8628 24.1854 66.8064 19.3387 66.8064C14.492 66.8064 10.5484 62.8628 10.5484 58.0161C10.5484 53.1694 14.492 49.2258 19.3387 49.2258C21.8298 49.2258 24.0712 50.2791 25.673 51.9504L19.0554 59.2308L15.0405 56.5551L13.0902 59.4806L19.6237 63.8371L27.5873 55.0768C27.9161 55.9997 28.129 56.9791 28.129 58.0161Z" fill="white"/>
<path d="M77.355 56.2581H80.8711V59.7742H77.355V56.2581Z" fill="white"/>
<path d="M38.6772 56.2581H73.8385V59.7742H38.6772V56.2581Z" fill="#F9B93E"/>
<path d="M38.6772 49.2258H80.8708V52.742H38.6772V49.2258Z" fill="white"/>
<path d="M38.6772 63.2904H80.8708V66.8065H38.6772V63.2904Z" fill="white"/>
<path d="M38.6772 87.9032H58.016V91.4193H38.6772V87.9032Z" fill="#F9B93E"/>
<path d="M38.6772 94.9355H58.016V98.4517H38.6772V94.9355Z" fill="white"/>
<path d="M38.6772 80.871H58.016V84.3871H38.6772V80.871Z" fill="white"/>
<path d="M33.4031 38.6774H72.0805C76.9272 38.6774 80.8708 34.7338 80.8708 29.8871V15.8225C80.8708 10.9759 76.9272 7.03223 72.0805 7.03223H33.4031C28.5564 7.03223 24.6128 10.9759 24.6128 15.8225V29.8871C24.6128 34.7338 28.5564 38.6774 33.4031 38.6774ZM28.1289 15.8225C28.1289 12.915 30.4956 10.5484 33.4031 10.5484H72.0805C74.988 10.5484 77.3547 12.915 77.3547 15.8225V29.8871C77.3547 32.7946 74.988 35.1613 72.0805 35.1613H33.4031C30.4956 35.1613 28.1289 32.7946 28.1289 29.8871V15.8225Z" fill="white"/>
<path d="M73.8384 17.5806H63.29V28.129H73.8384V17.5806ZM70.3223 24.6128H66.8062V21.0967H70.3223V24.6128Z" fill="white"/>
<path d="M58.0162 17.5806H47.4678V28.129H58.0162V17.5806ZM54.5 24.6128H50.9839V21.0967H54.5V24.6128Z" fill="#F9B93E"/>
<path d="M42.1934 17.5806H31.645V28.129H42.1934V17.5806ZM38.6773 24.6128H35.1611V21.0967H38.6773V24.6128Z" fill="white"/>
</svg>
