<svg width="87" height="87" viewBox="0 0 87 87" fill="none" xmlns="http://www.w3.org/2000/svg">
<path d="M38.019 1.3485C34.7565 2.5665 32.0595 5.1765 30.363 8.613L28.9275 11.5275V27.1875V42.8475L30.1455 45.327C31.668 48.459 34.191 50.982 37.323 52.5045C39.4545 53.5485 40.3245 53.7225 43.5 53.7225C46.3275 53.679 47.676 53.4615 49.242 52.7655C52.113 51.4605 55.4625 48.198 56.8545 45.2835L58.0725 42.8475V27.1875V11.5275L56.637 8.613C53.9835 3.219 49.416 0.435001 43.3695 0.478501C41.325 0.478501 39.4545 0.783001 38.019 1.3485ZM49.155 4.176C50.4165 4.872 52.0695 6.177 52.896 7.0905C55.5495 10.2225 55.68 11.136 55.68 27.3615C55.68 43.8045 55.593 44.109 52.287 47.589C46.284 53.8965 35.844 51.9825 32.2335 43.935C31.407 42.108 31.32 41.1075 31.32 27.3615C31.32 15.3555 31.4505 12.3975 31.9725 10.8315C34.452 3.8715 42.6735 0.652501 49.155 4.176Z" fill="#F9B93E"/>
<path d="M41.1945 10.353C39.4545 12.3105 40.9335 15.66 43.5 15.66C46.0665 15.66 47.415 12.7455 45.849 10.527C44.979 9.309 42.2385 9.1785 41.1945 10.353Z" fill="#F9B93E"/>
<path d="M28.8405 58.116C28.6665 58.5945 30.624 60.8565 35.7135 65.946C39.6285 69.861 43.152 73.08 43.5 73.08C43.848 73.08 47.3715 69.861 51.2865 65.946C56.376 60.8565 58.3335 58.5945 58.1595 58.116C57.9855 57.7245 57.5505 57.42 57.1155 57.42C56.6805 57.42 53.4615 60.291 49.938 63.8145L43.5 70.2525L37.062 63.8145C33.5385 60.291 30.3195 57.42 29.8845 57.42C29.4495 57.42 29.0145 57.7245 28.8405 58.116Z" fill="#F9B93E"/>
<path d="M28.8405 71.601C28.6665 72.0795 30.624 74.3415 35.7135 79.431C39.6285 83.346 43.152 86.565 43.5 86.565C43.848 86.565 47.3715 83.346 51.2865 79.431C56.376 74.3415 58.3335 72.0795 58.1595 71.601C57.9855 71.2095 57.5505 70.905 57.1155 70.905C56.6805 70.905 53.4615 73.776 49.938 77.2995L43.5 83.7375L37.062 77.2995C33.5385 73.776 30.3195 70.905 29.8845 70.905C29.4495 70.905 29.0145 71.2095 28.8405 71.601Z" fill="#F9B93E"/>
</svg>
