<svg width="234" height="234" viewBox="0 0 234 234" fill="none" xmlns="http://www.w3.org/2000/svg">
<path d="M155.772 64.0853C140.202 48.5152 114.866 48.5152 99.2951 64.0853L87.3698 76.0106C86.033 77.3475 86.033 79.5142 87.3698 80.8515C88.7062 82.1874 90.8734 82.1874 92.2102 80.8515L104.136 68.9262C117.038 56.0247 138.03 56.0247 150.932 68.9262L159.143 77.1372C165.393 83.3871 168.835 91.6964 168.835 100.536C168.835 109.374 165.393 117.684 159.143 123.934L152.624 130.453C151.289 128.55 149.787 126.757 148.125 125.099L143.373 120.344L149.463 114.253C153.127 110.589 155.145 105.718 155.145 100.535C155.145 95.3536 153.127 90.4816 149.463 86.8176L141.252 78.6066C137.592 74.9471 132.72 72.9321 127.534 72.9321C122.347 72.9321 117.475 74.9471 113.816 78.6066L88.5316 103.891C84.8671 107.555 82.8493 112.427 82.8493 117.609C82.8493 122.791 84.8676 127.662 88.5316 131.327L96.7426 139.538C100.525 143.32 105.493 145.211 110.46 145.211C115.355 145.211 120.247 143.371 124.007 139.7L128.763 144.458C130.536 146.232 131.69 148.4 132.171 150.789C126.16 156.023 118.506 158.893 110.46 158.893C101.61 158.893 93.3012 155.457 87.0622 149.219L78.8508 141.008C72.6009 134.758 69.159 126.449 69.159 117.609C69.159 108.771 72.6009 100.461 78.8512 94.2105L81.5856 91.4761C82.922 90.1398 82.922 87.9725 81.5856 86.6357C80.2488 85.2998 78.082 85.2993 76.7452 86.6362L74.0113 89.3701C66.4684 96.9134 62.3145 106.942 62.3145 117.609C62.3145 123.485 63.5818 129.164 65.9748 134.344L58.1541 142.168C50.6094 149.708 46.4541 159.737 46.4541 170.409C46.4541 181.078 50.6094 191.106 58.1527 198.644L66.3628 206.859C73.9043 214.401 83.9334 218.554 94.6033 218.554C96.4935 218.554 98.026 217.022 98.026 215.131C98.026 213.241 96.4935 211.708 94.6033 211.708C85.762 211.708 77.4518 208.267 71.2037 202.019L62.9927 193.803C56.7419 187.557 53.2995 179.249 53.2995 170.409C53.2995 161.566 56.7423 153.256 62.9945 147.008L69.5168 140.483C70.8468 142.378 72.3408 144.176 74.0117 145.847L78.7626 150.598L72.6763 156.688C69.0095 160.349 66.9899 165.222 66.9899 170.409C66.9899 175.593 69.0095 180.464 72.6735 184.123L80.88 192.334C82.6967 194.156 84.8155 195.575 87.1715 196.547C89.5224 197.523 92.0229 198.018 94.6033 198.018C99.7846 198.018 104.656 196.001 108.318 192.338L133.604 167.052C137.38 163.293 139.709 157.493 139.222 151.817C138.874 147.225 136.88 142.894 133.605 139.618L125.392 131.401C121.724 127.74 116.853 125.723 111.675 125.723C106.576 125.723 101.777 127.682 98.127 131.24L93.372 126.485C91.6143 124.728 90.4438 122.541 89.9548 120.161C95.9775 114.912 103.636 112.033 111.674 112.033C120.511 112.033 128.822 115.475 135.074 121.723L143.286 129.939C145.56 132.209 147.479 134.772 148.991 137.559C151.596 142.348 152.974 147.803 152.974 153.333C152.974 162.174 149.532 170.485 143.284 176.732L117.998 202.018C115.336 204.68 112.292 206.846 108.952 208.456C105.405 210.275 107.335 216.372 111.924 214.622C115.958 212.678 119.63 210.066 122.838 206.859L148.124 181.573C155.666 174.031 159.819 164.002 159.819 153.332C159.819 147.533 158.559 141.798 156.161 136.597L163.984 128.774C171.527 121.23 175.681 111.202 175.681 100.535C175.681 89.8678 171.527 79.8387 163.984 72.2959L155.772 64.0853ZM103.477 187.498C98.9364 192.037 90.899 192.637 85.724 187.499L77.5117 179.282C75.1401 176.914 73.8339 173.763 73.8339 170.41C73.8339 167.054 75.1401 163.901 77.5139 161.53L83.6354 155.405C90.9859 162.083 100.436 165.738 110.46 165.738C117.453 165.738 124.202 163.938 130.143 160.571C129.733 161.15 129.274 161.7 128.762 162.212L103.477 187.498ZM119.055 134.966C114.624 139.134 107.882 139.471 103.078 135.975C105.418 133.778 108.454 132.57 111.674 132.57C114.363 132.57 116.922 133.411 119.055 134.966ZM111.674 105.188C104.689 105.188 97.9423 106.991 91.9973 110.363C92.4059 109.788 92.8629 109.241 93.372 108.732L118.656 83.447C121.023 81.08 124.176 79.777 127.534 79.777C130.892 79.777 134.045 81.08 136.411 83.4465L144.622 91.658C146.994 94.0291 148.299 97.1817 148.299 100.535C148.299 103.889 146.993 107.041 144.622 109.412L138.499 115.536C131.136 108.849 121.685 105.188 111.674 105.188Z" fill="#F9B93E"/>
<path d="M214.478 17.6195C214.478 7.9039 206.574 0 196.859 0H37.141C27.4258 0 19.5215 7.9039 19.5215 17.6195V216.38C19.5215 226.096 27.4254 234 37.141 234H196.859C206.574 234 214.478 226.096 214.478 216.38V17.6195ZM196.859 227.155H37.141C31.2 227.155 26.3669 222.321 26.3669 216.38V46.0244H166.927C168.817 46.0244 170.35 44.4924 170.35 42.6017C170.35 40.711 168.817 39.179 166.927 39.179H26.3669V17.6195C26.3669 11.6785 31.2 6.84496 37.141 6.84496H196.859C202.8 6.84496 207.633 11.6785 207.633 17.6195V39.179H183.241C181.351 39.179 179.818 40.711 179.818 42.6017C179.818 44.4924 181.351 46.0244 183.241 46.0244H207.632V216.38C207.633 222.321 202.799 227.155 196.859 227.155Z" fill="white"/>
<path d="M47.3087 29.3754C50.8193 29.1257 53.4627 26.0773 53.213 22.5668C52.9632 19.0562 49.9149 16.4128 46.4043 16.6625C42.8937 16.9123 40.2503 19.9606 40.5001 23.4712C40.7498 26.9818 43.7982 29.6252 47.3087 29.3754Z" fill="white"/>
<path d="M66.4229 29.3817C69.9405 29.3817 72.7921 26.5301 72.7921 23.0125C72.7921 19.4949 69.9405 16.6433 66.4229 16.6433C62.9053 16.6433 60.0537 19.4949 60.0537 23.0125C60.0537 26.5301 62.9053 29.3817 66.4229 29.3817Z" fill="#F9B93E"/>
<path d="M86.0166 29.3817C89.5343 29.3817 92.3858 26.5301 92.3858 23.0125C92.3858 19.4949 89.5343 16.6433 86.0166 16.6433C82.499 16.6433 79.6475 19.4949 79.6475 23.0125C79.6475 26.5301 82.499 29.3817 86.0166 29.3817Z" fill="white"/>
</svg>
