<svg width="102" height="102" viewBox="0 0 102 102" fill="none" xmlns="http://www.w3.org/2000/svg">
<path d="M73.1224 17.6201L69.098 6.44536C68.9362 5.99632 68.5697 5.65167 68.1119 5.51759C67.6539 5.38392 67.1592 5.47655 66.7811 5.76781L57.7029 12.7582C57.0492 13.2616 56.9273 14.1995 57.4306 14.8532C57.9342 15.507 58.8719 15.6287 59.5255 15.1255L65.225 10.7367C57.9569 32.5946 43.4456 44.9978 32.2814 51.6272C19.5224 59.2033 8.2259 61.1154 8.11334 61.1339C7.29953 61.2666 6.7469 62.0336 6.87918 62.8478C6.99831 63.5811 7.63203 64.1025 8.35201 64.1025C8.43149 64.1025 8.51238 64.0961 8.59326 64.0829C9.07218 64.0052 20.4715 62.0891 33.703 54.2581C41.4773 49.6569 48.2543 43.9588 53.846 37.3227C60.0194 29.9958 64.7489 21.5065 67.9388 12.0436L70.3116 18.6326C70.531 19.2416 71.1049 19.6207 71.7173 19.6207C71.8853 19.6207 72.0564 19.592 72.2235 19.5318C72.9993 19.2521 73.4019 18.3963 73.1224 17.6201Z" fill="#F9B93E"/>
<path d="M100.497 99.0121H94.9332V44.211C94.9332 43.3861 94.2644 42.7171 93.4392 42.7171C92.6143 42.7171 91.9453 43.3859 91.9453 44.211V99.0121H78.6034V15.4546H91.9453V33.7867C91.9453 34.6117 92.6141 35.2806 93.4392 35.2806C94.2642 35.2806 94.9332 34.6119 94.9332 33.7867V14.9565C94.9332 13.5835 93.8163 12.4667 92.4433 12.4667H78.1056C76.7325 12.4667 75.6157 13.5835 75.6157 14.9565V99.0121H72.0832V52.1031C72.0832 50.7301 70.9664 49.6132 69.5933 49.6132H55.2556C53.8826 49.6132 52.7657 50.7301 52.7657 52.1031V99.0123H49.2332V62.7593C49.2332 61.3863 48.1164 60.2694 46.7434 60.2694H32.4056C31.0326 60.2694 29.9158 61.3863 29.9158 62.7593V99.0123H26.3832V78.1971C26.3832 76.8241 25.2664 75.7073 23.8934 75.7073H9.5548C8.18179 75.7073 7.06497 76.8241 7.06497 78.1971V82.986C7.06497 83.8109 7.73375 84.4799 8.55891 84.4799C9.38387 84.4799 10.0528 83.8111 10.0528 82.986V78.6952H23.3947V99.0121H10.0528V93.6424C10.0528 92.8174 9.38407 92.1484 8.55891 92.1484C7.73394 92.1484 7.06497 92.8172 7.06497 93.6424V99.0121H2.99533V1.49394C2.99533 0.668777 2.32635 0 1.50139 0C0.676423 0 0.00744629 0.668777 0.00744629 1.49394V100.506C0.00744629 101.331 0.676223 102 1.50139 102H8.55911H24.8889H31.4093H47.7391H54.2595H70.5892H77.1097H93.4394H100.497C101.322 102 101.991 101.375 101.991 100.55C101.991 99.7251 101.322 99.0121 100.497 99.0121ZM46.2447 99.0121H32.9028V63.2571H46.2447V99.0121ZM69.0951 99.0121H55.7532V52.6009H69.0951V99.0121Z" fill="white"/>
</svg>
