<svg width="128" height="128" viewBox="0 0 128 128" fill="none" xmlns="http://www.w3.org/2000/svg">
<path d="M90 26H70C68.8955 26 68 26.8955 68 28V48C68 49.1045 68.8955 50 70 50H90C91.1045 50 92 49.1045 92 48V28C92 26.8955 91.1045 26 90 26ZM72 46V32.8268L85.1732 46H72ZM88 43.17L74.83 30H88V43.17Z" fill="white"/>
<path d="M90 54H70C68.8955 54 68 54.8955 68 56V76C68 77.1045 68.8955 78 70 78H90C91.1045 78 92 77.1045 92 76V56C92 54.8955 91.1045 54 90 54ZM72 74V60.8288L85.1712 74H72ZM88 71.172L74.828 58H88V71.172Z" fill="#F9B93E"/>
<path d="M84 82H68V86H84V82Z" fill="white"/>
<path d="M92 82H88V86H92V82Z" fill="white"/>
<path d="M92 90H68V94H92V90Z" fill="#F9B93E"/>
<path d="M92 98H68V102H92V98Z" fill="white"/>
<path d="M54 46H34V50H54V46Z" fill="#F9B93E"/>
<path d="M54 62H34V66H54V62Z" fill="#F9B93E"/>
<path d="M54 78H34V82H54V78Z" fill="#F9B93E"/>
<path d="M116 14C114.896 14 114 14.8955 114 16V24H102V4C102 1.79075 100.209 0 98 0H30C27.7908 0 26 1.79075 26 4V24H14V16C14 14.8955 13.1045 14 12 14C11.88 14 0 14.182 0 30V108C0 115.626 7.6 119.158 11.6 119.96C11.7315 119.988 11.8655 120.001 12 120H26V124C26 126.209 27.7908 128 30 128H98C100.209 128 102 126.209 102 124V120H116C116.134 120.001 116.269 119.988 116.4 119.96C120.4 119.158 128 115.626 128 108V30C128 14.182 116.12 14 116 14ZM4 30C4 21.84 7.6 19.228 10 18.4V96.458C7.80675 97.1385 5.76825 98.2428 4 99.708V30ZM26 116H12.22C11.026 115.714 4 113.782 4 108C4 101.76 12.062 100.03 12.4 99.96C13.3312 99.77 14.0002 98.9505 14 98V28H26V116ZM30 22H53.03L30 36.3857V22ZM58 23.6117V38H34.966L58 23.6117ZM30 42H58V54H30V42ZM30 58H58V70H30V58ZM30 74H58V86H30V74ZM30 90H53.5465L30 106.181V90ZM58 91.793V108H34.4157L58 91.793ZM98 124H30V112H98V124ZM98 108H62V22H98V108ZM98 18H30V4H98V18ZM115.784 116H102V28H114V98C114 98.9505 114.669 99.77 115.6 99.96C115.692 99.978 124 101.712 124 108C124 113.814 117.018 115.71 115.784 116ZM124 99.708C122.232 98.2428 120.193 97.1385 118 96.458V18.4C120.374 19.23 124 21.844 124 30V99.708Z" fill="white"/>
<path d="M66 10H50V14H66V10Z" fill="#F9B93E"/>
<path d="M74 10H70V14H74V10Z" fill="white"/>
<path d="M82 10H78V14H82V10Z" fill="white"/>
</svg>
