<svg width="56" height="56" viewBox="0 0 56 56" fill="none" xmlns="http://www.w3.org/2000/svg">
<path d="M42.0003 37.3333H37.3337V35H18.667V37.3333H14.0003V35H4.66699V46.6667H51.3337V35H42.0003V37.3333ZM46.667 18.6667H39.667V14C39.667 11.4333 37.567 9.33334 35.0003 9.33334H21.0003C18.4337 9.33334 16.3337 11.4333 16.3337 14V18.6667H9.33366C6.76699 18.6667 4.66699 20.7667 4.66699 23.3333V32.6667H14.0003V28H18.667V32.6667H37.3337V28H42.0003V32.6667H51.3337V23.3333C51.3337 20.7667 49.2337 18.6667 46.667 18.6667ZM35.0003 18.6667H21.0003V14H35.0003V18.6667Z" fill="#F9B93E"/>
</svg>
