<svg width="103" height="103" viewBox="0 0 103 103" fill="none" xmlns="http://www.w3.org/2000/svg">
<g clip-path="url(#clip0)">
<path d="M30.6711 52.0974L24.2331 58.5355L27.2677 61.5701L33.7057 55.132L30.6711 52.0974Z" fill="#F9B93E"/>
<path d="M47.833 69.2642L41.3949 75.7023L44.4295 78.7369L50.8676 72.2988L47.833 69.2642Z" fill="#F9B93E"/>
<path d="M15.0203 17.1357C11.465 17.1357 8.58282 20.0179 8.58282 23.5732V40.7399H12.8744V23.5732C12.8744 22.3881 13.8352 21.4273 15.0203 21.4273H66.5205V17.1357H15.0203Z" fill="white"/>
<path d="M15.0204 81.5108C13.8352 81.5108 12.8744 80.55 12.8744 79.3649V57.9064H8.58282V79.3649C8.58282 82.9202 11.465 85.8024 15.0204 85.8024H36.4788V81.5108H15.0204Z" fill="white"/>
<path d="M68.0378 87.045L15.9238 34.931C15.0859 34.0933 13.7276 34.0933 12.8895 34.931L0.628262 47.1925C-0.209421 48.0304 -0.209421 49.3887 0.628262 50.2268L52.7423 102.341C53.1446 102.743 53.6904 102.969 54.2593 102.969C54.8284 102.969 55.374 102.743 55.7763 102.341L68.0376 90.0793C68.8755 89.2412 68.8755 87.8829 68.0378 87.045ZM54.2593 97.7892L5.17959 48.7095L14.4068 39.4823L63.4865 88.5622L54.2593 97.7892Z" fill="white"/>
<path d="M94.4166 81.5109H62.229V85.8025H85.8332V96.5316C85.8332 97.7168 86.794 98.6776 87.9791 98.6776H94.4166C99.1571 98.6776 103 94.8348 103 90.0941C103 85.3537 99.1571 81.5109 94.4166 81.5109ZM94.4166 94.3859H90.125V85.8025H94.4166C96.7869 85.8025 98.7083 87.7239 98.7083 90.0941C98.7083 92.4645 96.7869 94.3859 94.4166 94.3859Z" fill="white"/>
<path d="M94.4166 17.1357H83.6874V21.4273H94.4166C96.7868 21.4273 98.7082 23.3487 98.7082 25.7189V90.0942H103V25.7189C103 20.9785 99.157 17.1357 94.4166 17.1357Z" fill="white"/>
<path d="M39.2542 60.6807L32.8162 67.1188L35.8508 70.1534L42.2888 63.7153L39.2542 60.6807Z" fill="white"/>
<path d="M56.4201 77.8518L49.9821 84.2899L53.0167 87.3245L59.4547 80.8864L56.4201 77.8518Z" fill="white"/>
<path d="M22.0818 43.5138L15.6437 49.9519L18.6783 52.9865L25.1164 46.5484L22.0818 43.5138Z" fill="white"/>
<path d="M92.5584 4.79271L89.5928 1.82722C87.0835 -0.56814 83.1345 -0.56814 80.6253 1.82722L47.9957 34.4568C47.158 35.2947 47.158 36.653 47.9957 37.4911L56.8946 46.39C57.2959 46.7939 57.8423 47.0203 58.4116 47.0187C58.9807 47.0185 59.5263 46.7923 59.9286 46.39L92.5584 13.7602C92.5594 13.7592 92.5605 13.7582 92.5615 13.7572C95.0361 11.2809 95.0347 7.26733 92.5584 4.79271ZM89.5264 10.7239L58.4116 41.8385L52.547 35.9739L83.6618 4.86131C84.4721 4.087 85.7483 4.087 86.5587 4.86131L89.5264 7.82478C89.5266 7.82519 89.527 7.82539 89.5274 7.82579C90.3272 8.62626 90.3268 9.92382 89.5264 10.7239Z" fill="white"/>
<path d="M57.7227 42.8385L48.4614 45.9307L51.5536 36.6542L47.4764 35.2959L43.0259 48.6451C42.953 48.864 42.9158 49.0931 42.9158 49.3237C42.916 50.5088 43.877 51.4694 45.0621 51.469C45.2893 51.4698 45.5152 51.435 45.7316 51.366L59.0809 46.9154L57.7227 42.8385Z" fill="white"/>
<path d="M77.7256 7.75831L74.691 10.7929L83.5902 19.692L86.6248 16.6574L77.7256 7.75831Z" fill="white"/>
<path d="M77.2499 47.1774H45.0623V51.469H77.2499V47.1774Z" fill="white"/>
<path d="M85.8331 47.1774H81.5415V51.469H85.8331V47.1774Z" fill="white"/>
<path d="M94.4166 47.1774H90.125V51.469H94.4166V47.1774Z" fill="#F9B93E"/>
</g>
<defs>
<clipPath id="clip0">
<rect width="103" height="103" fill="white"/>
</clipPath>
</defs>
</svg>
