<svg width="122" height="122" viewBox="0 0 122 122" fill="none" xmlns="http://www.w3.org/2000/svg">
<g clip-path="url(#clip0)">
<path d="M81.3333 10.1667H40.6666V14.2334H81.3333V10.1667Z" fill="#F9B93E"/>
<path d="M100.65 76.25C100.65 72.3262 97.4569 69.1334 93.5333 69.1334H89.4667V40.6667H85.4V69.1334H80.3167C76.3929 69.1334 73.2 72.3264 73.2 76.25C73.2 78.2422 74.0281 80.0402 75.3518 81.3334C74.0281 82.6266 73.2 84.4245 73.2 86.4167C73.2 87.7874 73.6079 89.0575 74.2825 90.1448C71.8501 91.2776 70.15 93.7286 70.15 96.5834C70.15 97.6791 70.4197 98.7054 70.864 99.6334H54.9C54.9 93.4162 51.7844 87.914 47.0328 84.6057C51.6276 82.8543 54.9 78.4026 54.9 73.2C54.9 72.0771 53.9906 71.1667 52.8667 71.1667H36.6V50.8334H32.5333V71.1667C29.1697 71.1667 26.4333 73.903 26.4333 77.2667V122H30.5V77.2667C30.5 76.1458 31.4115 75.2334 32.5333 75.2334H50.5751C49.6715 78.737 46.4825 81.3334 42.7 81.3334H36.6C35.4761 81.3334 34.5667 82.2438 34.5667 83.3667C34.5667 84.4896 35.4761 85.4 36.6 85.4C44.4474 85.4 50.8333 91.7849 50.8333 99.6334V101.667C50.8333 102.79 51.7428 103.7 52.8667 103.7H64.764C64.3197 104.628 64.05 105.654 64.05 106.75C64.05 110.674 67.2431 113.867 71.1667 113.867V122H75.2333V113.867H83.3667H84.3833C88.3072 113.867 91.5 110.674 91.5 106.75C91.5 105.643 91.2237 104.607 90.7703 103.671C94.5586 103.517 97.6 100.409 97.6 96.5834C97.6 95.2126 97.1921 93.9426 96.5175 92.8552C98.9499 91.7224 100.65 89.2715 100.65 86.4167C100.65 84.4245 99.8219 82.6266 98.4982 81.3334C99.8219 80.0402 100.65 78.2422 100.65 76.25ZM84.3833 109.8H83.3667H73.2H71.1667C69.4849 109.8 68.1167 108.432 68.1167 106.75C68.1167 105.068 69.4849 103.7 71.1667 103.7H77.2667H84.3833C86.0652 103.7 87.4333 105.068 87.4333 106.75C87.4333 108.432 86.0652 109.8 84.3833 109.8ZM90.4833 99.6334H84.3833H77.2667C75.5849 99.6334 74.2167 98.2652 74.2167 96.5834C74.2167 94.9015 75.5849 93.5334 77.2667 93.5334H80.3167H90.4833C92.1652 93.5334 93.5333 94.9015 93.5333 96.5834C93.5333 98.2652 92.1652 99.6334 90.4833 99.6334ZM93.5333 89.4667H90.4833H80.3167C78.6349 89.4667 77.2667 88.0985 77.2667 86.4167C77.2667 84.7349 78.6349 83.3667 80.3167 83.3667H93.5333C95.2152 83.3667 96.5833 84.7349 96.5833 86.4167C96.5833 88.0985 95.2152 89.4667 93.5333 89.4667ZM93.5333 79.3H80.3167C78.6349 79.3 77.2667 77.9318 77.2667 76.25C77.2667 74.5682 78.6349 73.2 80.3167 73.2H93.5333C95.2152 73.2 96.5833 74.5682 96.5833 76.25C96.5833 77.9318 95.2152 79.3 93.5333 79.3Z" fill="white"/>
<path d="M30.4941 25.8813C30.4525 25.2975 30.1625 24.7594 29.6958 24.4058L27.5791 22.8013C27.0728 20.238 24.8229 18.3 22.1323 18.3C19.0963 18.3 16.62 20.7682 16.5803 23.8172C14.9559 23.5333 13.4032 22.9098 12.0132 21.9735L11.3043 21.4949C10.6829 21.075 9.87666 21.0292 9.21151 21.3846C8.54839 21.7371 8.13333 22.4282 8.13333 23.1797V24.8478C8.13333 27.2983 8.87194 29.6353 10.2422 31.5982L8.72122 33.1372C8.1435 33.72 7.97448 34.5928 8.29041 35.3503C8.60583 36.1067 9.34647 36.6 10.1667 36.6H20.0197C23.9494 36.6 27.1979 33.6046 27.6348 29.7604L29.9124 27.4561C30.3234 27.04 30.5358 26.4661 30.4941 25.8813ZM24.2053 27.4441C23.8281 27.8244 23.6174 28.3388 23.6174 28.8738C23.6174 30.8914 22.0029 32.5333 20.0194 32.5333H14.8469C15.1687 31.7927 15.0296 30.899 14.428 30.2906C13.479 29.3296 12.7998 28.1202 12.4562 26.8166C14.3963 27.6348 16.4812 28.0597 18.6139 28.0597C19.7378 28.0597 20.6472 27.1493 20.6472 26.0264V23.8917C20.6472 23.0506 21.3144 22.3667 22.1326 22.3667C22.9507 22.3667 23.6179 23.0506 23.6179 23.8917C23.6179 24.5281 23.9158 25.1277 24.4221 25.512L25.3912 26.2457L24.2053 27.4441Z" fill="#F9B93E"/>
<path d="M67.1 34.5667V30.5H61C59.8761 30.5 58.9667 31.4104 58.9667 32.5333V38.6333H54.9V42.7H58.9667V50.8333H63.0334V42.7H67.1V38.6333H63.0334V34.5667H67.1Z" fill="#F9B93E"/>
<path d="M73.1999 22.3667H48.7999C45.4363 22.3667 42.7 25.1031 42.7 28.4667V52.8667C42.7 56.2303 45.4363 58.9667 48.7999 58.9667H73.1999C76.5636 58.9667 79.2999 56.2303 79.2999 52.8667V28.4667C79.2999 25.1031 76.5636 22.3667 73.1999 22.3667ZM75.2333 52.8667C75.2333 53.9876 74.3218 54.9 73.1999 54.9H48.7999C47.6781 54.9 46.7666 53.9876 46.7666 52.8667V28.4667C46.7666 27.3458 47.6781 26.4334 48.7999 26.4334H73.1999C74.3218 26.4334 75.2333 27.3458 75.2333 28.4667V52.8667Z" fill="white"/>
<path d="M30.5 10.1667H6.1C2.73636 10.1667 0 12.903 0 16.2667V40.6667C0 44.0303 2.73636 46.7667 6.1 46.7667H30.5C33.8636 46.7667 36.6 44.0303 36.6 40.6667V16.2667C36.6 12.903 33.8636 10.1667 30.5 10.1667ZM32.5333 40.6667C32.5333 41.7876 31.6219 42.7 30.5 42.7H6.1C4.97811 42.7 4.06667 41.7876 4.06667 40.6667V16.2667C4.06667 15.1458 4.97811 14.2334 6.1 14.2334H30.5C31.6219 14.2334 32.5333 15.1458 32.5333 16.2667V40.6667Z" fill="white"/>
<path d="M115.9 0H91.5C88.1364 0 85.4 2.73636 85.4 6.1V30.5C85.4 33.8636 88.1364 36.6 91.5 36.6H115.9C119.264 36.6 122 33.8636 122 30.5V6.1C122 2.73636 119.264 0 115.9 0ZM117.933 30.5C117.933 31.6209 117.022 32.5333 115.9 32.5333H91.5C90.3781 32.5333 89.4667 31.6209 89.4667 30.5V20.3333H93.739C94.6837 24.9678 98.7908 28.4667 103.7 28.4667C108.609 28.4667 112.716 24.9678 113.661 20.3333H117.933V30.5ZM97.6 18.3C97.6 14.9364 100.336 12.2 103.7 12.2C107.064 12.2 109.8 14.9364 109.8 18.3C109.8 21.6636 107.064 24.4 103.7 24.4C100.336 24.4 97.6 21.6636 97.6 18.3ZM117.933 16.2667H113.661C112.716 11.6322 108.609 8.13333 103.7 8.13333C98.7908 8.13333 94.6837 11.6322 93.739 16.2667H89.4667V6.1C89.4667 4.97913 90.3781 4.06667 91.5 4.06667H115.9C117.022 4.06667 117.933 4.97913 117.933 6.1V16.2667Z" fill="white"/>
<path d="M63.0333 83.3667H58.9667V87.4333H63.0333V83.3667Z" fill="#F9B93E"/>
</g>
<defs>
<clipPath id="clip0">
<rect width="122" height="122" fill="white"/>
</clipPath>
</defs>
</svg>
