<svg width="320" height="320" viewBox="0 0 320 320" fill="none" xmlns="http://www.w3.org/2000/svg">
<path d="M305 205H210C208.982 205.001 207.989 205.313 207.152 205.893C206.316 206.474 205.678 207.296 205.321 208.25L165.858 168.787C163.078 165.992 159.773 163.777 156.131 162.269C152.49 160.76 148.586 159.989 144.645 160H119.5C119.835 158.354 120.004 156.679 120.003 155V133.09L122.115 132.034C124.99 130.596 127.296 128.23 128.658 125.318C130.021 122.406 130.36 119.119 129.621 115.99C128.882 112.861 127.108 110.074 124.587 108.079C122.065 106.084 118.944 104.999 115.729 105H95C88.3719 105.007 82.0173 107.644 77.3306 112.331C72.6438 117.017 70.0074 123.372 70 130V155C69.9995 156.679 70.168 158.354 70.5031 160H45C35.7206 160.01 26.8243 163.701 20.2628 170.263C13.7013 176.824 10.0104 185.721 10 195V310H20V242.071L54.75 276.821C58.9188 281.013 63.8776 284.336 69.3393 286.598C74.801 288.86 80.6571 290.016 86.5687 290H125V295C125.004 298.977 126.586 302.79 129.398 305.602C132.21 308.414 136.023 309.996 140 310H305C306.326 310 307.598 309.473 308.536 308.536C309.473 307.598 310 306.326 310 305V210C310 208.674 309.473 207.402 308.536 206.464C307.598 205.527 306.326 205 305 205ZM205 257.929L177.071 230L195 212.071L205 222.071V257.929ZM173.017 240.088C169.624 240.348 166.314 241.26 163.267 242.775L155 246.91V222.071L173.017 240.088ZM80 174.986C82.8249 177.11 86.0683 178.61 89.5159 179.388C92.9636 180.166 96.5369 180.203 100 179.497V180C100 182.652 98.9464 185.196 97.0711 187.071C95.1957 188.946 92.6522 190 90 190C87.3478 190 84.8043 188.946 82.9289 187.071C81.0536 185.196 80 182.652 80 180V174.986ZM80 155V147.071L92.0706 135H110V155C110 158.978 108.42 162.794 105.607 165.607C102.794 168.42 98.9782 170 95 170C91.0218 170 87.2064 168.42 84.3934 165.607C81.5804 162.794 80 158.978 80 155ZM95 115H115.729C116.691 115 117.625 115.325 118.379 115.922C119.133 116.519 119.664 117.353 119.885 118.289C120.106 119.226 120.005 120.209 119.597 121.08C119.189 121.951 118.5 122.66 117.639 123.09L113.819 125H90C89.3434 125 88.6932 125.129 88.0865 125.381C87.4799 125.632 86.9287 126 86.4644 126.464L80 132.929V130C80.0045 126.023 81.5863 122.21 84.3983 119.398C87.2104 116.586 91.0231 115.004 95 115ZM20 195C20.0074 188.372 22.6438 182.017 27.3306 177.331C32.0173 172.644 38.3719 170.007 45 170H70V180C70 185.304 72.1071 190.391 75.8579 194.142C79.6086 197.893 84.6957 200 90 200C95.3043 200 100.391 197.893 104.142 194.142C107.893 190.391 110 185.304 110 180V174.986C111.888 173.566 113.566 171.888 114.986 170H144.645C147.272 169.993 149.875 170.507 152.303 171.513C154.73 172.518 156.934 173.995 158.787 175.858L187.929 205L170 222.929L153.536 206.464C152.836 205.765 151.945 205.289 150.976 205.096C150.006 204.903 149 205.002 148.087 205.38C147.173 205.759 146.392 206.4 145.843 207.222C145.293 208.044 145 209.011 145 210V250H97.0706L48.5356 201.464L41.4644 208.536L65.4287 232.5L45 252.929L20 227.929V195ZM61.82 269.75L52.0713 260L72.5 239.571L91.4644 258.536C91.9287 259 92.4799 259.368 93.0865 259.619C93.6932 259.871 94.3434 260 95 260H150C150.776 260 151.542 259.819 152.236 259.472L167.741 251.722C171.025 250.08 174.768 249.595 178.363 250.347C181.958 251.099 185.193 253.043 187.544 255.864L204.457 276.161C204.741 276.503 204.922 276.918 204.979 277.36C205.036 277.801 204.966 278.249 204.777 278.652C204.588 279.054 204.289 279.395 203.914 279.634C203.538 279.873 203.103 280 202.658 280C202.015 279.999 201.389 279.79 200.873 279.405L183 266C182.135 265.351 181.082 265 180 265C178.918 265 177.865 265.351 177 266L158.333 280H86.5687C81.9707 280.013 77.4158 279.114 73.1676 277.354C68.9195 275.595 65.0625 273.01 61.82 269.75ZM185 280H175L180 276.25L185 280ZM135 295V290H205V300H140C138.674 299.999 137.403 299.471 136.466 298.534C135.529 297.597 135.001 296.326 135 295ZM300 300H215V215H300V300Z" fill="white"/>
<path d="M260 275C263.956 275 267.822 273.827 271.111 271.629C274.4 269.432 276.964 266.308 278.478 262.654C279.991 258.999 280.387 254.978 279.616 251.098C278.844 247.219 276.939 243.655 274.142 240.858C271.345 238.061 267.781 236.156 263.902 235.384C260.022 234.613 256.001 235.009 252.346 236.522C248.692 238.036 245.568 240.6 243.371 243.889C241.173 247.178 240 251.044 240 255C240.006 260.303 242.115 265.386 245.864 269.136C249.614 272.885 254.697 274.994 260 275ZM260 245C261.978 245 263.911 245.586 265.556 246.685C267.2 247.784 268.482 249.346 269.239 251.173C269.996 253 270.194 255.011 269.808 256.951C269.422 258.891 268.47 260.673 267.071 262.071C265.673 263.47 263.891 264.422 261.951 264.808C260.011 265.194 258 264.996 256.173 264.239C254.346 263.482 252.784 262.2 251.685 260.556C250.586 258.911 250 256.978 250 255C250.003 252.349 251.058 249.807 252.932 247.932C254.807 246.058 257.349 245.003 260 245Z" fill="#F9B93E"/>
<path d="M295 10H155C151.023 10.0045 147.21 11.5863 144.398 14.3983C141.586 17.2104 140.004 21.0231 140 25V150H150V25C150.001 23.6744 150.529 22.4035 151.466 21.4661C152.403 20.5288 153.674 20.0015 155 20H295C296.326 20.0015 297.597 20.5288 298.534 21.4661C299.471 22.4035 299.999 23.6744 300 25V155C299.999 156.326 299.471 157.597 298.534 158.534C297.597 159.471 296.326 159.999 295 160H255C253.674 160 252.402 160.527 251.464 161.464C250.527 162.402 250 163.674 250 165V180.284L222.906 160.931C222.058 160.326 221.042 160 220 160H175V170H218.398L252.094 194.069C252.842 194.603 253.722 194.92 254.638 194.987C255.555 195.053 256.471 194.866 257.288 194.445C258.105 194.025 258.79 193.388 259.268 192.604C259.747 191.819 260 190.919 260 190V170H295C298.977 169.996 302.79 168.414 305.602 165.602C308.414 162.79 309.996 158.977 310 155V25C309.996 21.0231 308.414 17.2104 305.602 14.3983C302.79 11.5863 298.977 10.0045 295 10Z" fill="white"/>
<path d="M160 35C162.761 35 165 32.7614 165 30C165 27.2386 162.761 25 160 25C157.239 25 155 27.2386 155 30C155 32.7614 157.239 35 160 35Z" fill="white"/>
<path d="M175 35C177.761 35 180 32.7614 180 30C180 27.2386 177.761 25 175 25C172.239 25 170 27.2386 170 30C170 32.7614 172.239 35 175 35Z" fill="#F9B93E"/>
<path d="M190 35C192.761 35 195 32.7614 195 30C195 27.2386 192.761 25 190 25C187.239 25 185 27.2386 185 30C185 32.7614 187.239 35 190 35Z" fill="white"/>
<path d="M165 50H175V60H165V50Z" fill="white"/>
<path d="M190 50H220V60H190V50Z" fill="#F9B93E"/>
<path d="M230 50H240V60H230V50Z" fill="white"/>
<path d="M165 70H175V80H165V70Z" fill="#F9B93E"/>
<path d="M190 70H205V80H190V70Z" fill="white"/>
<path d="M215 70H270V80H215V70Z" fill="white"/>
<path d="M165 90H175V100H165V90Z" fill="white"/>
<path d="M190 90H230V100H190V90Z" fill="#F9B93E"/>
<path d="M240 90H250V100H240V90Z" fill="white"/>
<path d="M165 110H175V120H165V110Z" fill="#F9B93E"/>
<path d="M190 110H260V120H190V110Z" fill="white"/>
<path d="M270 110H280V120H270V110Z" fill="white"/>
<path d="M165 130H175V140H165V130Z" fill="white"/>
<path d="M190 130H235V140H190V130Z" fill="#F9B93E"/>
<path d="M245 130H255V140H245V130Z" fill="white"/>
</svg>
