<svg width="122" height="122" viewBox="0 0 122 122" fill="none" xmlns="http://www.w3.org/2000/svg">
<path d="M122 0H11.8065V27.5484H9.83871C4.41365 27.5484 0 31.962 0 37.3871V100.355C0 105.78 4.41365 110.194 9.83871 110.194H27.5484V118.065H19.6774V122H27.5484H82.6452H90.5161V118.065H82.6452V110.194H100.355C105.78 110.194 110.194 105.78 110.194 100.355V86.5806H122V0ZM118.065 3.93548V15.7419H15.7419V3.93548H118.065ZM78.7097 118.065H31.4839V110.194H78.7097V118.065ZM100.355 106.258H82.6452H27.5484H9.83871C6.58406 106.258 3.93548 103.609 3.93548 100.355V98.3871H106.258V100.355C106.258 103.609 103.609 106.258 100.355 106.258ZM106.258 94.4516H3.93548V37.3871C3.93548 34.1325 6.58406 31.4839 9.83871 31.4839H11.8065V86.5806H106.258V94.4516ZM15.7419 82.6452V19.6774H118.065V82.6452H15.7419Z" fill="white"/>
<path d="M23.6127 7.87109H19.6772V11.8066H23.6127V7.87109Z" fill="#F9B93E"/>
<path d="M31.4838 7.87109H27.5483V11.8066H31.4838V7.87109Z" fill="#F9B93E"/>
<path d="M39.3549 7.87109H35.4194V11.8066H39.3549V7.87109Z" fill="#F9B93E"/>
<path d="M98.3871 39.3548H86.5806V31.4838H70.8387V47.2258H62.9677V27.5483H47.2258V35.4193H35.4193V70.8387H27.5483V74.7741H35.4193H47.2258H51.1612H59.0322H62.9677H70.8387H74.7742H82.6451H86.5806H98.3871H106.258V70.8387H98.3871V39.3548ZM39.3548 70.8387V39.3548H47.2258V70.8387H39.3548ZM51.1612 70.8387V35.4193V31.4838H59.0322V47.2258V70.8387H51.1612ZM62.9677 70.8387V51.1612H70.8387V70.8387H62.9677ZM74.7742 70.8387V47.2258V35.4193H82.6451V39.3548V70.8387H74.7742ZM86.5806 70.8387V43.2903H94.4516V70.8387H86.5806Z" fill="#F9B93E"/>
<path d="M114.129 23.6128H110.194V27.5483H114.129V23.6128Z" fill="white"/>
<path d="M114.129 31.4839H110.194V35.4194H114.129V31.4839Z" fill="#F9B93E"/>
<path d="M114.129 39.3547H110.194V43.2902H114.129V39.3547Z" fill="white"/>
<path d="M114.129 47.2258H110.194V51.1613H114.129V47.2258Z" fill="#F9B93E"/>
<path d="M114.129 55.0969H110.194V59.0324H114.129V55.0969Z" fill="white"/>
</svg>
