<svg width="127" height="127" viewBox="0 0 127 127" fill="none" xmlns="http://www.w3.org/2000/svg">
<path d="M122.246 6.18182H96.9432V1.86035C96.9432 0.832941 96.1106 0 95.0829 0H31.032C30.0043 0 29.1716 0.832941 29.1716 1.86035V6.18182H4.75489C3.74038 6.18182 2.89404 7.03014 2.89404 8.04242L2.89454 56.8585C2.89454 57.886 3.72723 58.7189 4.75489 58.7189H29.1719V72.3014C29.1719 73.3289 30.0046 74.1618 31.0322 74.1618H36.7098C36.3454 74.8645 36.1003 75.6421 36.0051 76.4704L33.5591 97.6491C33.4904 98.2479 33.4579 98.8556 33.4626 99.4403C33.4626 104.215 35.8912 108.148 39.4041 111.173C41.4686 112.95 43.5331 114.728 45.5975 116.505V125.14C45.5975 126.167 46.4302 127 47.4579 127H53.1818C54.2095 127 55.0422 126.167 55.0422 125.14C55.0422 124.112 54.2095 123.279 53.1818 123.279H49.3182V115.652C49.3182 115.11 49.0821 114.595 48.6718 114.242C46.6354 112.489 44.5989 110.735 42.5624 108.982C39.5777 106.412 37.2602 103.6 37.1833 99.411C37.1801 98.9675 37.2046 98.518 37.2555 98.0755L39.7015 76.8965C39.8729 75.405 41.1367 74.2801 42.6408 74.2801C43.6273 74.2801 44.4516 74.8216 44.8579 75.2852C45.5256 76.0477 45.5978 76.9037 45.5978 77.2363V92.9198C45.5978 93.9473 46.4305 94.7802 47.4581 94.7802C48.4858 94.7802 49.3185 93.9473 49.3185 92.9198V42.5105C49.3185 40.8801 50.645 39.5538 52.2752 39.5538C53.9007 39.5538 55.2232 40.8724 55.2314 42.4959C55.2314 42.5006 55.2307 42.5051 55.2307 42.5098C55.2307 42.5195 55.2319 42.5289 55.2322 42.5386V66.0571C55.2322 68.8987 58.972 68.8915 58.9678 66.0802C58.9673 65.6761 58.9655 64.4872 58.9747 64.1787C59.3066 60.3942 65.6507 60.4842 65.6507 64.3726V67.1909C65.6507 69.5903 69.3714 69.5903 69.3714 67.1909C69.3716 65.5583 70.6996 64.23 72.3325 64.23C74.1817 64.23 76.0547 65.0314 76.0547 67.1912V69.024C76.0547 71.399 79.733 71.439 79.7752 69.0567C79.7819 68.6688 79.8022 68.5822 79.8699 68.2962C80.6161 65.3847 84.9286 65.3708 85.6849 68.2819L87.9803 77.1232C89.6398 83.5201 89.573 90.264 87.7866 96.6259L82.5855 115.149C82.5394 115.313 82.5163 115.482 82.5163 115.652V123.279H62.0884C61.0608 123.279 60.2281 124.112 60.2281 125.14C60.2281 126.167 61.0608 127 62.0884 127H84.3767C85.4044 127 86.2371 126.167 86.2371 125.14V115.908L91.3686 97.6315C93.3327 90.6368 93.4066 83.222 91.5817 76.1883L91.0556 74.1616H95.0836C96.1113 74.1616 96.944 73.3286 96.944 72.3012V17.4476H120.386V54.9982H103.83C102.802 54.9982 101.969 55.8311 101.969 56.8585C101.969 57.886 102.802 58.7189 103.83 58.7189H122.247C123.274 58.7189 124.107 57.886 124.107 56.8585V8.04242V8.04218C124.106 7.01477 123.273 6.18182 122.246 6.18182ZM6.61524 9.90278H29.1719V13.7269H6.61524V9.90278ZM32.8936 3.72145H93.2218V13.7269H32.8936V3.72145ZM6.61524 54.9982V17.4476H29.1719V54.9982H6.61524ZM90.089 70.4411L89.2856 67.3462C88.1108 62.8261 82.5198 60.8677 78.7639 63.6528C76.7284 60.4044 71.9548 59.5114 68.752 61.5513C67.0923 57.9822 62.4045 56.6599 58.9524 58.3959V44.3699H75.8756C76.8688 44.3699 77.6767 45.179 77.6767 46.1734V49.747C77.6767 50.74 76.8688 51.5479 75.8756 51.5479H65.6931C64.6654 51.5479 63.8327 52.3808 63.8327 53.4082C63.8327 54.4356 64.6654 55.2686 65.6931 55.2686H75.8756C78.9202 55.2686 81.3974 52.7916 81.3974 49.747V46.1734C81.3974 43.1274 78.9204 40.6492 75.8756 40.6492H58.6865C57.8783 37.8703 55.3108 35.8329 52.2747 35.8329C48.5927 35.8329 45.5973 38.8285 45.5973 42.5103V70.4408H32.8923V17.4476H93.2225V70.4411H90.089ZM96.9432 13.7269V9.90278H120.385V13.7269H96.9432Z" fill="white"/>
<path d="M73.8439 6.95422H52.2715C51.2438 6.95422 50.4111 7.78717 50.4111 8.81458C50.4111 9.84199 51.2438 10.6749 52.2715 10.6749H73.8439C74.8715 10.6749 75.7042 9.84199 75.7042 8.81458C75.7042 7.78717 74.8715 6.95422 73.8439 6.95422Z" fill="#F9B93E"/>
<path d="M55.3944 21.0179H40.7051C39.6774 21.0179 38.8447 21.8509 38.8447 22.8783V31.3749C38.8447 32.4023 39.6774 33.2353 40.7051 33.2353H55.3944C56.4221 33.2353 57.2548 32.4023 57.2548 31.3749V22.8783C57.2548 21.8509 56.4221 21.0179 55.3944 21.0179ZM53.5341 29.5145H42.5654V24.7386H53.5341V29.5145Z" fill="white"/>
<path d="M102.532 30.9381H113.583C114.611 30.9381 115.444 30.1052 115.444 29.0778C115.444 28.0503 114.611 27.2174 113.583 27.2174H102.532C101.504 27.2174 100.672 28.0503 100.672 29.0778C100.672 30.1052 101.505 30.9381 102.532 30.9381Z" fill="white"/>
<path d="M113.583 38.9412C114.611 38.9412 115.444 38.1082 115.444 37.0808C115.444 36.0534 114.611 35.2205 113.583 35.2205H102.532C101.504 35.2205 100.672 36.0534 100.672 37.0808C100.672 38.1082 101.504 38.9412 102.532 38.9412H113.583Z" fill="#F9B93E"/>
<path d="M12.2634 30.9381H23.3144C24.3421 30.9381 25.1748 30.1052 25.1748 29.0778C25.1748 28.0503 24.3421 27.2174 23.3144 27.2174H12.2634C11.2358 27.2174 10.4031 28.0503 10.4031 29.0778C10.4031 30.1052 11.236 30.9381 12.2634 30.9381Z" fill="white"/>
<path d="M23.3144 35.2205H12.2634C11.2358 35.2205 10.4031 36.0534 10.4031 37.0808C10.4031 38.1082 11.2358 38.9412 12.2634 38.9412H23.3144C24.3421 38.9412 25.1748 38.1082 25.1748 37.0808C25.1748 36.0534 24.3421 35.2205 23.3144 35.2205Z" fill="#F9B93E"/>
<path d="M84.3755 25.2664H64.6399C63.6122 25.2664 62.7795 26.0993 62.7795 27.1267C62.7795 28.1541 63.6122 28.9871 64.6399 28.9871H84.3755C85.4032 28.9871 86.2358 28.1541 86.2358 27.1267C86.2358 26.0993 85.4032 25.2664 84.3755 25.2664Z" fill="#F9B93E"/>
</svg>
