<svg width="129" height="129" viewBox="0 0 129 129" fill="none" xmlns="http://www.w3.org/2000/svg">
<path d="M124.903 18.6819C124.839 17.4315 123.807 16.4402 122.544 16.4402H6.33032C5.06662 16.4402 4.03469 17.4315 3.97121 18.6819C3.96826 18.7225 3.96826 18.7624 3.96826 18.803V108.559C3.96826 109.864 5.02676 110.923 6.33032 110.923H122.544C123.847 110.923 124.906 109.864 124.906 108.559V18.803C124.906 18.7624 124.906 18.7225 124.903 18.6819ZM8.69238 21.137H120.182V32.0342H8.69238V21.137ZM120.182 106.196H8.69238V36.7598H120.182V106.196Z" fill="white"/>
<path d="M44.3596 29.1113H25.4631C24.1581 29.1113 23.1011 28.0535 23.1011 26.7492C23.1011 25.4434 24.1581 24.3864 25.4631 24.3864H44.3596C45.6646 24.3864 46.7217 25.4434 46.7217 26.7492C46.7217 28.0535 45.6646 29.1113 44.3596 29.1113Z" fill="white"/>
<path d="M16.0193 29.1113C14.715 29.1113 13.6565 28.0535 13.6565 26.7492C13.6565 25.4434 14.7128 24.3864 16.0178 24.3864H16.0193C17.3243 24.3864 18.3813 25.4434 18.3813 26.7492C18.3813 28.0535 17.3243 29.1113 16.0193 29.1113Z" fill="#F9B93E"/>
<path d="M40.2627 77.8737H20.4214C19.1163 77.8737 18.0593 76.8167 18.0593 75.5109C18.0593 74.2058 19.1163 73.1481 20.4214 73.1481H40.2627C41.5677 73.1481 42.6248 74.2058 42.6248 75.5109C42.6248 76.8167 41.5677 77.8737 40.2627 77.8737Z" fill="#F9B93E"/>
<path d="M40.2627 87.3692H20.4214C19.1163 87.3692 18.0593 86.3107 18.0593 85.0064C18.0593 83.7013 19.1163 82.6428 20.4214 82.6428H40.2627C41.5677 82.6428 42.6248 83.7013 42.6248 85.0064C42.6248 86.3107 41.5677 87.3692 40.2627 87.3692Z" fill="white"/>
<path d="M40.2627 96.8631H20.4214C19.1163 96.8631 18.0593 95.8061 18.0593 94.5011C18.0593 93.1961 19.1163 92.1383 20.4214 92.1383H40.2627C41.5677 92.1383 42.6248 93.1961 42.6248 94.5011C42.6248 95.8061 41.5677 96.8631 40.2627 96.8631Z" fill="#F9B93E"/>
<path d="M30.342 68.7878C24.09 68.7878 19.0042 63.7013 19.0042 57.4477C19.0042 51.1934 24.09 46.1061 30.342 46.1061C36.5941 46.1061 41.6799 51.1934 41.6799 57.4477C41.6799 63.7013 36.5941 68.7878 30.342 68.7878ZM30.342 50.8317C26.6956 50.8317 23.7283 53.7991 23.7283 57.4477C23.7283 61.0949 26.6956 64.063 30.342 64.063C33.9885 64.063 36.9558 61.0949 36.9558 57.4477C36.9558 53.7991 33.9892 50.8317 30.342 50.8317Z" fill="white"/>
<path d="M74.3576 77.8737H54.5164C53.2113 77.8737 52.1543 76.8167 52.1543 75.5109C52.1543 74.2058 53.2113 73.1481 54.5164 73.1481H74.3576C75.6627 73.1481 76.7197 74.2058 76.7197 75.5109C76.7197 76.8167 75.6627 77.8737 74.3576 77.8737Z" fill="white"/>
<path d="M74.3576 87.3692H54.5164C53.2113 87.3692 52.1543 86.3107 52.1543 85.0064C52.1543 83.7013 53.2113 82.6428 54.5164 82.6428H74.3576C75.6627 82.6428 76.7197 83.7013 76.7197 85.0064C76.7197 86.3107 75.6627 87.3692 74.3576 87.3692Z" fill="#F9B93E"/>
<path d="M74.3576 96.8631H54.5164C53.2113 96.8631 52.1543 95.8061 52.1543 94.5011C52.1543 93.1961 53.2113 92.1383 54.5164 92.1383H74.3576C75.6627 92.1383 76.7197 93.1961 76.7197 94.5011C76.7197 95.8061 75.6627 96.8631 74.3576 96.8631Z" fill="white"/>
<path d="M64.437 68.7878C58.1849 68.7878 53.0991 63.7013 53.0991 57.4477C53.0991 51.1934 58.1849 46.1061 64.437 46.1061C70.6891 46.1061 75.7749 51.1934 75.7749 57.4477C75.7749 63.7013 70.6891 68.7878 64.437 68.7878ZM64.437 50.8317C60.7906 50.8317 57.8232 53.7991 57.8232 57.4477C57.8232 61.0949 60.7906 64.063 64.437 64.063C68.0834 64.063 71.0508 61.0949 71.0508 57.4477C71.0508 53.7991 68.0834 50.8317 64.437 50.8317Z" fill="#F9B93E"/>
<path d="M108.473 77.8737H88.6318C87.3268 77.8737 86.2698 76.8167 86.2698 75.5109C86.2698 74.2058 87.3268 73.1481 88.6318 73.1481H108.473C109.777 73.1481 110.835 74.2058 110.835 75.5109C110.835 76.8167 109.777 77.8737 108.473 77.8737Z" fill="#F9B93E"/>
<path d="M108.473 87.3692H88.6318C87.3268 87.3692 86.2698 86.3107 86.2698 85.0064C86.2698 83.7013 87.3268 82.6428 88.6318 82.6428H108.473C109.777 82.6428 110.835 83.7013 110.835 85.0064C110.835 86.3107 109.777 87.3692 108.473 87.3692Z" fill="white"/>
<path d="M108.473 96.8631H88.6318C87.3268 96.8631 86.2698 95.8061 86.2698 94.5011C86.2698 93.1961 87.3268 92.1383 88.6318 92.1383H108.473C109.777 92.1383 110.835 93.1961 110.835 94.5011C110.835 95.8061 109.777 96.8631 108.473 96.8631Z" fill="#F9B93E"/>
<path d="M98.5525 68.7878C92.3004 68.7878 87.2146 63.7013 87.2146 57.4477C87.2146 51.1934 92.3004 46.1061 98.5525 46.1061C104.805 46.1061 109.89 51.1934 109.89 57.4477C109.89 63.7013 104.805 68.7878 98.5525 68.7878ZM98.5525 50.8317C94.9061 50.8317 91.9387 53.7991 91.9387 57.4477C91.9387 61.0949 94.9061 64.063 98.5525 64.063C102.199 64.063 105.166 61.0949 105.166 57.4477C105.166 53.7991 102.199 50.8317 98.5525 50.8317Z" fill="white"/>
</svg>
