<svg width="114" height="114" viewBox="0 0 114 114" fill="none" xmlns="http://www.w3.org/2000/svg">
<g clip-path="url(#clip0)">
<path d="M38 0C22.2599 0 9.5 12.7599 9.5 28.5V49.4C9.50831 56.7418 15.4582 62.6917 22.8 62.7H24.7V58.9H22.8C17.556 58.8938 13.3062 54.644 13.3 49.4V28.5C13.3 14.8585 24.3585 3.8 38 3.8C51.6415 3.8 62.7 14.8585 62.7 28.5V49.4C62.6938 54.644 58.444 58.8938 53.2 58.9H51.3V62.7H53.2C60.5418 62.6917 66.4917 56.7418 66.5 49.4V28.5C66.5 12.7599 53.7401 0 38 0Z" fill="white"/>
<path d="M15.6579 89.545L17.0468 87.3581L13.8377 85.3213L12.4488 87.5101C8.24812 94.1297 8.55996 102.653 13.2335 108.948V114H17.0335V108.3C17.0337 107.868 16.8869 107.449 16.6174 107.112C12.578 102.063 12.1925 95.0047 15.6579 89.545Z" fill="white"/>
<path d="M104.5 0H79.8001C74.5561 0.006175 70.3062 4.256 70.3 9.5V28.5C70.3062 33.744 74.5561 37.9938 79.8001 38H83.6001V45.6C83.5998 46.3683 84.0625 47.0613 84.7724 47.3556C85.003 47.4518 85.2502 47.5007 85.5001 47.5C86.004 47.5 86.4871 47.2995 86.8434 46.9433L95.7867 38H104.5C109.744 37.9938 113.994 33.744 114 28.5V9.5C113.994 4.256 109.744 0.006175 104.5 0ZM110.2 28.5C110.2 31.6481 107.648 34.2 104.5 34.2H95.0001C94.4961 34.2 94.013 34.4004 93.6568 34.7567L87.4001 41.0134V36.1C87.4001 35.0507 86.5493 34.2 85.5001 34.2H79.8001C76.652 34.2 74.1 31.6481 74.1 28.5V9.5C74.1 6.35194 76.652 3.8 79.8001 3.8H104.5C107.648 3.8 110.2 6.35194 110.2 9.5V28.5Z" fill="#F9B93E"/>
<path d="M93.0999 9.5H79.7999V13.3H93.0999V9.5Z" fill="white"/>
<path d="M104.5 9.5H96.9V13.3H104.5V9.5Z" fill="white"/>
<path d="M104.5 17.1H79.7999V20.9H104.5V17.1Z" fill="#F9B93E"/>
<path d="M93.0999 24.7H79.7999V28.5H93.0999V24.7Z" fill="white"/>
<path d="M63.5513 87.5101L62.1624 85.3213L58.9532 87.3581L60.3422 89.5469C63.8078 95.0058 63.4223 102.063 59.3826 107.112C59.1131 107.449 58.9663 107.868 58.9665 108.3V114H62.7666V108.948C67.4401 102.653 67.7519 94.1297 63.5513 87.5101Z" fill="white"/>
<path d="M112.1 64.5999H95C87.8712 64.6082 82.0168 70.2355 81.7266 77.3584L76 87.6678V79.7999C75.9917 72.4581 70.0418 66.5082 62.7 66.4999H55.7555L55.7042 66.46L55.67 66.4999H51.3C49.2012 66.4999 47.5 64.7987 47.5 62.6999V58.2292C53.3708 54.8396 56.991 48.5789 57 41.7999V26.5999C56.9972 23.4519 56.2139 20.3537 54.72 17.5825C54.2414 16.7009 53.1599 16.343 52.25 16.7655L20.0906 31.8971C19.4247 32.2106 18.9998 32.8806 19 33.6166V41.7999C19.009 48.5789 22.6292 54.8396 28.5 58.2292V62.6999C28.5 64.7987 26.7988 66.4999 24.7 66.4999H13.3C5.95816 66.5082 0.0083125 72.4581 0 79.7999V114H3.8V79.7999C3.80617 74.5559 8.056 70.3061 13.3 70.2999H19.3458L36.4553 94.2057C36.8068 94.6971 37.3711 94.9918 37.9753 94.9999H38C38.598 94.9999 39.1611 94.7182 39.52 94.2399L57.57 70.2999H62.7C67.944 70.3061 72.1938 74.5559 72.2 79.7999V94.9999C72.201 96.0491 73.0524 96.8992 74.1017 96.8982C74.7909 96.8975 75.4257 96.5239 75.7606 95.9214L84.7172 79.7999H95.6099L77.0849 114H81.4074L99.94 79.7999H100.7C108.042 79.7916 113.992 73.8417 114 66.4999C114 65.4506 113.149 64.5999 112.1 64.5999ZM22.8 41.7999V34.8231L52.1379 21.0177C52.8397 22.7952 53.2 24.689 53.2 26.5999V41.7999C53.2 50.1946 46.3947 56.9999 38 56.9999C29.6053 56.9999 22.8 50.1946 22.8 41.7999ZM38.0399 89.8927L32.1765 81.6999H44.2149L38.0399 89.8927ZM47.0896 77.8999H29.45L24.0103 70.2999H24.7C28.8973 70.2999 32.3 66.8972 32.3 62.6999V59.924C36.0102 61.0918 39.9898 61.0918 43.7 59.924V62.6999C43.7 66.8972 47.1027 70.2999 51.3 70.2999H52.82L47.0896 77.8999ZM100.7 75.9999H85.69C86.5984 71.5793 90.487 68.4049 95 68.3999H110.01C109.102 72.8205 105.213 75.9949 100.7 75.9999Z" fill="white"/>
</g>
<defs>
<clipPath id="clip0">
<rect width="114" height="114" fill="white"/>
</clipPath>
</defs>
</svg>
