<svg width="122" height="122" viewBox="0 0 122 122" fill="none" xmlns="http://www.w3.org/2000/svg">
<path d="M61 62.9062C67.3078 62.9062 72.4375 57.7765 72.4375 51.4688C72.4375 45.161 67.3078 40.0312 61 40.0312C54.6922 40.0312 49.5625 45.161 49.5625 51.4688C49.5625 57.7765 54.6922 62.9062 61 62.9062ZM61 43.8438C65.2052 43.8438 68.625 47.2636 68.625 51.4688C68.625 55.6739 65.2052 59.0938 61 59.0938C56.7948 59.0938 53.375 55.6739 53.375 51.4688C53.375 47.2636 56.7948 43.8438 61 43.8438Z" fill="white"/>
<path d="M1.90625 116.281H5.71875V120.094H1.90625V116.281Z" fill="#F9B93E"/>
<path d="M116.281 116.281H120.094V120.094H116.281V116.281Z" fill="#F9B93E"/>
<path d="M95.3125 97.2188C108.977 97.2188 120.094 86.1015 120.094 72.4375C120.094 59.9859 110.852 49.6769 98.8715 47.9422C97.0758 28.4203 80.7697 13.3438 61 13.3438C56.8291 13.3438 52.7173 14.0757 48.739 15.4368C44.631 7.41722 36.2988 1.90625 26.6875 1.90625C13.0235 1.90625 1.90625 13.0235 1.90625 26.6875C1.90625 39.0572 11.0258 49.309 22.8883 51.1466C22.8864 51.2552 22.875 51.3601 22.875 51.4688C22.875 65.127 30.1168 77.0945 40.9386 83.8273L32.8256 116.281H9.53125V120.094H112.469V116.281H89.1744L83.6806 94.306C87.1537 96.1608 91.1111 97.2188 95.3125 97.2188ZM42.9974 45.2963C45.8053 42.8334 48.0661 39.7625 49.5358 36.2702C52.8698 33.7483 56.8177 32.4062 61 32.4062C71.5111 32.4062 80.0625 40.9577 80.0625 51.4688C80.0625 51.9472 80.0301 52.4657 79.9824 53.0052C75.4322 56.6023 72.1668 61.7472 71.0059 67.6471C67.9959 69.5133 64.5647 70.5312 61 70.5312C50.4889 70.5312 41.9375 61.9798 41.9375 51.4688C41.9375 49.3909 42.3035 47.3169 42.9974 45.2963ZM95.3125 93.4062C89.4451 93.4062 84.14 90.9777 80.3313 87.0794C83.3298 81.6371 89.0581 78.1562 95.3125 78.1562C101.565 78.1562 107.295 81.6352 110.296 87.0794C106.485 90.9758 101.18 93.4062 95.3125 93.4062ZM89.5938 68.625C89.5938 65.4721 92.1596 62.9062 95.3125 62.9062C98.4654 62.9062 101.031 65.4721 101.031 68.625C101.031 71.7779 98.4654 74.3438 95.3125 74.3438C92.1596 74.3438 89.5938 71.7779 89.5938 68.625ZM116.281 72.4375C116.281 76.656 115.017 80.581 112.865 83.875C110.265 79.8948 106.39 76.942 101.948 75.4456C103.729 73.7128 104.844 71.2995 104.844 68.625C104.844 63.3695 100.568 59.0938 95.3125 59.0938C90.057 59.0938 85.7812 63.3695 85.7812 68.625C85.7812 71.2995 86.8964 73.7128 88.6787 75.4456C84.2353 76.942 80.3599 79.8928 77.7617 83.875C75.6076 80.5829 74.3438 76.6579 74.3438 72.4375C74.3438 60.8761 83.7511 51.4688 95.3125 51.4688C106.874 51.4688 116.281 60.8761 116.281 72.4375ZM61 17.1562C78.5794 17.1562 93.1184 30.4047 95.0189 47.6715C90.9834 47.7192 87.1823 48.7352 83.8273 50.5004C83.3127 38.3366 73.2877 28.5938 61 28.5938C57.5078 28.5938 54.1547 29.3829 51.0875 30.8717C51.3201 29.5087 51.4688 28.1172 51.4688 26.6875C51.4688 23.9863 51.0189 21.3919 50.2163 18.9557C53.7219 17.7853 57.3362 17.1562 61 17.1562ZM26.6875 5.71875C38.2489 5.71875 47.6562 15.1261 47.6562 26.6875C47.6562 30.9079 46.3924 34.8329 44.2402 38.125C41.642 34.1428 37.7666 31.1901 33.3232 29.6956C35.1036 27.9628 36.2188 25.5495 36.2188 22.875C36.2188 17.6195 31.943 13.3438 26.6875 13.3438C21.432 13.3438 17.1562 17.6195 17.1562 22.875C17.1562 25.5495 18.2714 27.9628 20.0538 29.6956C15.6103 31.1901 11.7349 34.1428 9.13475 38.125C6.98259 34.831 5.71875 30.906 5.71875 26.6875C5.71875 15.1261 15.1261 5.71875 26.6875 5.71875ZM20.9688 22.875C20.9688 19.7221 23.5346 17.1562 26.6875 17.1562C29.8404 17.1562 32.4062 19.7221 32.4062 22.875C32.4062 26.0279 29.8404 28.5938 26.6875 28.5938C23.5346 28.5938 20.9688 26.0279 20.9688 22.875ZM11.7044 41.3275C14.7029 35.8852 20.4331 32.4062 26.6875 32.4062C32.9419 32.4062 38.6721 35.8871 41.6687 41.3294C37.86 45.2277 32.5549 47.6562 26.6875 47.6562C20.8201 47.6562 15.5131 45.2258 11.7044 41.3275ZM26.6875 51.4688C30.8984 51.4688 34.8634 50.407 38.3404 48.5465C38.2108 49.5167 38.125 50.4908 38.125 51.4688C38.125 64.0824 48.3863 74.3438 61 74.3438C64.3264 74.3438 67.5651 73.6213 70.5408 72.2545C70.5408 72.3155 70.5312 72.3746 70.5312 72.4375C70.5312 76.4082 71.4939 80.1521 73.1619 83.4823C69.2503 84.9787 65.1785 85.7812 61 85.7812C42.0805 85.7812 26.6875 70.3883 26.6875 51.4688ZM50.0963 108.656H71.9038L73.81 116.281H48.19L50.0963 108.656ZM51.0494 104.844L52.0025 101.031H69.9975L70.9506 104.844H51.0494ZM52.9556 97.2188L54.9915 89.0733C56.9549 89.386 58.9508 89.5938 61 89.5938C63.0263 89.5938 65.026 89.3802 67.0047 89.0619L69.0444 97.2188H52.9556ZM44.3908 85.7317C46.5754 86.7954 48.8705 87.6513 51.261 88.2842L44.2631 116.281H36.7525L44.3908 85.7317ZM85.2475 116.281H77.7369L70.7333 88.267C72.2259 87.8686 73.6975 87.3787 75.1501 86.7935C76.2462 88.328 77.5119 89.7272 78.9207 90.9739L85.2475 116.281Z" fill="white"/>
<path d="M47.3076 78.7281C48.5105 79.3343 49.7724 79.8681 51.0553 80.3103L52.2982 76.7056C51.1754 76.3186 50.0755 75.8535 49.0232 75.3235L47.3076 78.7281Z" fill="white"/>
<path d="M67.0959 81.3606L66.3411 77.6225C65.1802 77.8589 63.9945 78.0171 62.8164 78.0952L63.0699 81.9001C64.4157 81.8086 65.7711 81.6275 67.0959 81.3606Z" fill="white"/>
<path d="M54.9795 81.374C56.3024 81.6408 57.6597 81.8181 59.0112 81.9039L59.2533 78.099C58.0714 78.0247 56.8877 77.8684 55.7306 77.6358L54.9795 81.374Z" fill="#F9B93E"/>
<path d="M82.3518 35.4582L85.4018 33.1688C84.3095 31.7124 83.0762 30.3456 81.7361 29.1027L79.1455 31.8992C80.3179 32.9858 81.3949 34.1829 82.3518 35.4582Z" fill="white"/>
<path d="M60.9995 24.7812C66.8307 24.7812 72.3665 26.6265 77.012 30.1187L79.3014 27.0687C73.9906 23.0771 67.6618 20.9688 60.9995 20.9688C58.9522 20.9688 56.9011 21.1727 54.9033 21.5768L55.6582 25.315C57.4081 24.9604 59.2057 24.7812 60.9995 24.7812Z" fill="#F9B93E"/>
</svg>
