<svg width="128" height="128" viewBox="0 0 128 128" fill="none" xmlns="http://www.w3.org/2000/svg">
<path d="M118 94C118 81.602 109.894 71.076 98.708 67.404C103.09 64.548 106 59.61 106 54C106 45.178 98.822 38 90 38C89.154 38 88.33 38.086 87.52 38.212C87.632 37.888 87.774 37.572 87.872 37.244L92 36.272V23.828L87.876 22.856C87.392 21.232 86.742 19.664 85.932 18.17L88.162 14.564L79.436 5.836L75.83 8.068C74.338 7.262 72.77 6.61 71.142 6.124L70.172 2H57.828L56.858 6.124C55.232 6.61 53.662 7.26 52.17 8.068L48.564 5.836L39.838 14.564L42.068 18.17C41.26 19.664 40.61 21.232 40.124 22.856L36 23.83V36.276L40.126 37.248C40.224 37.574 40.366 37.89 40.478 38.214C39.67 38.086 38.846 38 38 38C29.178 38 22 45.178 22 54C22 59.61 24.91 64.548 29.292 67.404C18.106 71.076 10 81.602 10 94V102H41.054C37.878 106.54 36 112.052 36 118V126H92V118C92 112.052 90.122 106.54 86.946 102H118V94ZM94 72C94 75.252 92.168 78 90 78C87.832 78 86 75.252 86 72C86 71.432 86.08 70.87 86.2 70.312C87.452 70.112 88.72 70 90 70C91.298 70 92.564 70.132 93.806 70.332C93.922 70.884 94 71.44 94 72ZM64 90C57.382 90 52 84.618 52 78C52 71.382 57.382 66 64 66C70.618 66 76 71.382 76 78C76 84.618 70.618 90 64 90ZM48.432 72.396C48.602 72.478 48.774 72.554 48.942 72.64C48.344 74.32 48 76.118 48 78C48 78.798 48.078 79.578 48.192 80.346L45.528 86.208L40.68 80.15L48.432 72.396ZM64 62C58.484 62 53.612 64.806 50.734 69.066C49.438 68.404 48.092 67.854 46.712 67.402C51.092 64.544 54 59.608 54 54C54 53.628 53.97 53.264 53.944 52.9C54.892 53.318 55.864 53.68 56.858 53.978L57.828 58.102H70.172L71.142 53.978C72.136 53.68 73.108 53.318 74.056 52.9C74.03 53.264 74 53.628 74 54C74 59.61 76.908 64.544 81.288 67.402C79.91 67.852 78.564 68.406 77.268 69.068C74.39 64.808 69.516 62 64 62ZM102 54C102 60.618 96.618 66 90 66C83.382 66 78 60.618 78 54C78 47.382 83.382 42 90 42C96.618 42 102 47.382 102 54ZM43.686 35.096L43.394 33.906L40 33.106V26.994L43.392 26.196L43.684 25.006C44.188 22.95 45 20.984 46.104 19.168L46.738 18.122L44.902 15.156L49.152 10.906L52.118 12.742L53.164 12.106C54.976 11.006 56.942 10.19 59.004 9.686L60.194 9.394L60.996 6H67.004L67.802 9.392L68.992 9.684C71.054 10.19 73.02 11.004 74.832 12.104L75.878 12.74L78.844 10.904L83.094 15.154L81.26 18.122L81.894 19.168C82.998 20.984 83.81 22.95 84.314 25.006L84.606 26.196L88 26.996V33.108L84.608 33.906L84.316 35.096C83.912 36.75 83.256 38.362 82.426 39.912C79.252 41.626 76.72 44.382 75.29 47.718L74.834 47.994C73.022 49.094 71.056 49.91 68.994 50.414L67.804 50.706L67.006 54.098H60.998L60.2 50.704L59.01 50.412C56.952 49.908 54.986 49.094 53.17 47.992L52.714 47.716C51.284 44.378 48.752 41.622 45.578 39.908C44.746 38.362 44.09 36.75 43.686 35.096ZM26 54C26 47.382 31.382 42 38 42C44.618 42 50 47.382 50 54C50 60.618 44.618 66 38 66C31.382 66 26 60.618 26 54ZM44.322 70.85L38 77.172L31.696 70.868C33.708 70.318 35.816 70 38 70C40.15 70 42.274 70.292 44.322 70.85ZM35.32 80.148L30.472 86.206L24.888 73.922C25.748 73.358 26.652 72.862 27.584 72.41L35.32 80.148ZM14 94C14 87.084 16.958 80.86 21.656 76.476L29.528 93.794L38 83.202L46.472 93.794L50.078 85.86C51.348 88.1 53.14 90.004 55.29 91.406C51.17 92.758 47.472 95.036 44.44 98.002H24V86.002H20V98.002H14V94ZM64 94C67.476 94 70.772 94.758 73.758 96.094L64 118.91L54.242 96.092C57.228 94.758 60.524 94 64 94ZM40 118C40 109.676 44.262 102.334 50.716 98.028L60.968 122H50V110H46V122H40V118ZM88 122H82V110H78V122H67.032L77.284 98.028C83.738 102.334 88 109.676 88 118V122ZM114 98H108V86H104V98H83.558C80.526 95.034 76.826 92.756 72.708 91.404C77.09 88.548 80 83.61 80 78C80 76.12 79.656 74.322 79.058 72.644C80.028 72.146 81.03 71.714 82.056 71.356C82.044 71.57 82 71.784 82 72C82 77.514 85.588 82 90 82C94.412 82 98 77.514 98 72C98 71.792 97.958 71.588 97.946 71.38C107.28 74.67 114 83.554 114 94V98Z" fill="white"/>
<path d="M64 38C68.412 38 72 34.412 72 30C72 25.588 68.412 22 64 22C59.588 22 56 25.588 56 30C56 34.412 59.588 38 64 38ZM64 26C66.206 26 68 27.794 68 30C68 32.206 66.206 34 64 34C61.794 34 60 32.206 60 30C60 27.794 61.794 26 64 26Z" fill="white"/>
<path d="M64 46C72.822 46 80 38.822 80 30C80 21.178 72.822 14 64 14C55.178 14 48 21.178 48 30C48 38.822 55.178 46 64 46ZM64 18C70.618 18 76 23.382 76 30C76 36.618 70.618 42 64 42C57.382 42 52 36.618 52 30C52 23.382 57.382 18 64 18Z" fill="#F9B93E"/>
</svg>
