<svg width="128" height="128" viewBox="0 0 128 128" fill="none" xmlns="http://www.w3.org/2000/svg">
<g clip-path="url(#clip0)">
<path d="M29.675 54.825C29.65 54.775 29.625 54.75 29.6 54.7C28.9 53.475 27.325 53.125 26.15 53.9C26.125 53.9 26.125 53.925 26.1 53.925C25 54.65 24.7 56.125 25.4 57.225C25.425 57.25 25.45 57.3 25.475 57.35C26.2 58.5 27.725 58.85 28.875 58.1C28.9 58.1 28.9 58.075 28.925 58.075C29.975 57.375 30.325 55.95 29.675 54.825Z" fill="#F9B93E"/>
<path d="M71.8749 117C71.0249 116.15 69.6999 116.025 68.6999 116.725C64.2749 119.775 59.2499 121.775 53.8749 122.575C52.0999 122.825 50.2999 122.975 48.5249 122.975C39.0249 122.975 30.0749 119.3 23.3499 112.625C16.6499 105.95 12.9499 97.075 12.9249 87.65C12.9249 79.2 16.0499 70.9 21.5749 64.525C22.3999 63.575 22.3999 62.175 21.5499 61.25L21.5249 61.225C20.5249 60.125 18.7749 60.125 17.7999 61.25C11.4749 68.55 7.89993 78.025 7.92493 87.675C7.92493 98.45 12.1499 108.575 19.8249 116.2C27.4999 123.825 37.6749 128.025 48.5249 128.025C50.5499 128.025 52.6249 127.875 54.6249 127.575C60.7749 126.65 66.5499 124.375 71.5999 120.875C72.8749 120 72.9999 118.2 71.9249 117.1C71.8999 117.025 71.8999 117 71.8749 117Z" fill="white"/>
<path d="M76.225 109.8C76.15 109.875 76.1 109.95 76.025 110.05C75.15 111.1 75.325 112.675 76.4 113.525C76.425 113.55 76.45 113.575 76.475 113.575C77.525 114.425 79.05 114.225 79.9 113.2C79.975 113.125 80.025 113.05 80.1 112.95C80.975 111.85 80.775 110.25 79.65 109.425C79.65 109.425 79.625 109.4 79.6 109.4C78.55 108.6 77.05 108.775 76.225 109.8Z" fill="#F9B93E"/>
<path d="M119.976 43.55L119.951 33.825C119.926 31.15 117.476 31.125 117.451 31.125C101.951 31.125 89.2006 18.5 89.0756 2.975C89.0756 1.8 88.2006 0.575 86.5756 0.5H66.7756C65.4006 0.5 64.2756 1.625 64.2756 3V57.65L64.2506 87.6C64.2506 94.325 59.9256 100.275 53.5006 102.4C51.6506 103 49.7256 103.275 47.7756 103.175C39.5506 102.775 33.0006 96.025 32.8756 87.825C32.8256 83.625 34.4006 79.675 37.3506 76.675C40.3256 73.65 44.3256 71.975 48.5756 71.975C50.2506 71.975 51.9256 72.25 53.5256 72.775C54.4756 73.075 55.5256 72.8 56.2006 72.05C56.6006 71.575 56.8006 70.95 56.8006 70.35V50.175C56.8006 48.95 55.9006 47.875 54.6756 47.7C52.6506 47.4 50.6006 47.25 48.5756 47.25C44.1256 47.25 39.8256 47.95 35.7506 49.3C34.4256 49.75 33.8006 51.225 34.4256 52.475V52.5C34.5006 52.625 34.5756 52.775 34.6256 52.9C35.1256 53.9 36.3006 54.375 37.3506 54.025C40.9006 52.85 44.6756 52.25 48.5506 52.25C49.6256 52.25 50.7006 52.3 51.7756 52.4V67.25C50.7006 67.075 49.6256 67 48.5506 67C42.9506 67 37.7006 69.2 33.7756 73.175C29.8756 77.125 27.7756 82.35 27.8506 87.9C28.0006 98.725 36.6506 107.625 47.5006 108.15C50.0756 108.275 52.6006 107.925 55.0506 107.125C63.5506 104.325 69.2506 96.475 69.2506 87.575L69.2756 57.625V5.5H75.8006C78.8006 5.475 82.1006 5.45 84.2006 5.475C84.8506 13.425 88.2506 20.8 93.9756 26.475C99.6756 32.125 107.076 35.475 115.001 36.075C115.001 39.825 115.026 47.1 115.051 50.975C109.426 50.7 103.951 49.45 98.7506 47.25C94.9256 45.65 91.3506 43.55 88.0756 41.025C87.3256 40.45 86.3006 40.35 85.4506 40.75C84.6006 41.15 84.0506 42.05 84.0506 43L84.1506 87.775C84.1256 92.75 83.0756 97.55 81.1006 101.975C80.6006 103.075 81.0006 104.375 82.0006 105.025C82.0256 105.025 82.0256 105.05 82.0506 105.05C83.3256 105.875 85.0506 105.375 85.6756 104C87.9256 98.95 89.1256 93.475 89.1506 87.775L89.0006 47.75C91.4756 49.3 94.0506 50.675 96.7506 51.8C103.326 54.575 110.301 56 117.476 56C118.151 56 118.801 55.75 119.276 55.275C119.751 54.8 120.001 54.175 120.001 53.5L119.976 43.55Z" fill="white"/>
</g>
<defs>
<clipPath id="clip0">
<rect width="128" height="128" fill="white"/>
</clipPath>
</defs>
</svg>
