<svg width="112" height="112" viewBox="0 0 112 112" fill="none" xmlns="http://www.w3.org/2000/svg">
<g clip-path="url(#clip0)">
<path d="M36.1211 70.534C39.3639 67.2913 39.3639 62.0139 36.1211 58.7711C34.5497 57.2006 32.4613 56.335 30.2396 56.335C28.9553 56.335 27.7163 56.6255 26.5961 57.1732C22.6458 51.5216 20.5651 44.9078 20.5651 37.9514C20.5651 20.1481 34.4728 5.39953 52.2266 4.37414C53.434 4.30407 54.3551 3.26928 54.2859 2.06274C54.2158 0.855338 53.181 -0.0632412 51.9745 0.00340909C31.9067 1.16295 16.1875 17.8315 16.1875 37.9514C16.1875 45.9785 18.6407 53.6031 23.2917 60.0793C21.1666 63.3059 21.5221 67.698 24.3582 70.534C25.9296 72.1046 28.0179 72.9702 30.2396 72.9702C32.4613 72.9702 34.5497 72.1046 36.1211 70.534ZM27.4531 61.8669C28.2213 61.0987 29.2305 60.7142 30.2396 60.7142C31.2479 60.7142 32.2571 61.0987 33.0253 61.8669C34.5616 63.4025 34.5616 65.9027 33.0253 67.4382C31.4889 68.9746 28.9895 68.9746 27.4531 67.4382C25.9176 65.9027 25.9176 63.4033 27.4531 61.8669Z" fill="#F9B93E"/>
<path d="M87.9466 75.8336C86.5632 75.8336 85.2626 76.1942 84.1338 76.8265C83.1332 73.6538 80.163 71.3466 76.6639 71.3466C74.4499 71.3466 72.4478 72.2704 71.0225 73.752C70.6269 73.3419 70.1868 72.9753 69.7109 72.6583C74.7558 70.3999 79.2957 67.0451 82.9692 62.7957C88.9284 55.9 92.2105 47.0765 92.2105 37.9514C92.2105 29.9286 89.7573 22.2997 85.1071 15.8226C87.2322 12.596 86.8768 8.2048 84.0399 5.36789C80.7971 2.12509 75.5206 2.12509 72.2769 5.36789C69.0341 8.61069 69.0341 13.888 72.2769 17.1308C73.8987 18.7527 76.0281 19.5636 78.1584 19.5636C79.4068 19.5636 80.6535 19.2824 81.7994 18.7253C85.7514 24.3786 87.8329 30.9975 87.8329 37.9514C87.8329 53.7851 77.0843 67.169 61.9282 70.6947V58.9129C70.6081 55.7086 76.5383 47.3183 76.5383 37.9514C76.5383 25.6339 66.5168 15.6124 54.1984 15.6124C41.8809 15.6124 31.8594 25.633 31.8594 37.9514C31.8594 42.8126 33.395 47.4354 36.2985 51.3182C38.8312 54.7046 42.3355 57.3347 46.267 58.8352V91.0316L43.5173 86.5207C41.2067 82.7276 36.3831 81.4972 32.537 83.7171C28.879 85.8294 27.452 90.4642 29.2985 94.2872L37.4632 110.781C37.8451 111.553 38.621 112 39.4268 112C39.7532 112 40.0839 111.927 40.3958 111.773C41.4793 111.236 41.9228 109.923 41.387 108.84L33.2309 92.3646C32.3858 90.6137 33.042 88.4809 34.7263 87.5085C36.4669 86.5036 38.7338 87.0821 39.7797 88.7988L46.5866 99.9679C47.0976 100.805 48.1033 101.201 49.0475 100.936C49.9918 100.671 50.6446 99.8098 50.6446 98.828V48.6078C50.6446 46.7039 52.1938 45.1556 54.0976 45.1556C56.0014 45.1556 57.5506 46.7039 57.5506 48.6078V57.2655C57.5497 57.2809 57.5506 57.2962 57.5506 57.3125V90.1779C57.5506 91.3871 58.5298 92.3663 59.7389 92.3663C60.9481 92.3663 61.9282 91.3871 61.9282 90.1779V79.1772C61.9282 77.2734 63.4765 75.7242 65.3803 75.7242C67.2841 75.7242 68.8333 77.2734 68.8333 79.1772V90.9743C68.8333 92.1834 69.8134 93.1635 71.0217 93.1635C72.2308 93.1635 73.2109 92.1834 73.2109 90.9743V79.1772C73.2109 77.2734 74.7601 75.7242 76.6639 75.7242C78.5677 75.7242 80.116 77.2734 80.116 79.1772V91.1222C80.116 92.3313 81.0961 93.3114 82.3052 93.3114C83.5143 93.3114 84.4936 92.3313 84.4936 91.1222V83.6642C84.4936 81.7603 86.0428 80.2112 87.9466 80.2112C89.8504 80.2112 91.3996 81.7603 91.3996 83.6642V109.81C91.3996 111.019 92.3788 111.999 93.588 111.999C94.7971 111.999 95.7772 111.019 95.7772 109.81V83.6642C95.7772 79.3464 92.2643 75.8336 87.9466 75.8336ZM75.3727 14.0359C73.8364 12.4995 73.8364 10.0001 75.3727 8.46371C76.1409 7.69553 77.1492 7.31186 78.1584 7.31186C79.1675 7.31186 80.1767 7.69553 80.9449 8.46371C82.4804 10.0001 82.4804 12.4995 80.9449 14.0359C79.4085 15.5714 76.9083 15.5714 75.3727 14.0359ZM36.237 37.9514C36.237 28.047 44.2949 19.9891 54.1993 19.9891C64.1028 19.9891 72.1607 28.047 72.1607 37.9514C72.1607 44.9258 68.0737 51.2276 61.9282 54.1679V48.6078C61.9282 47.379 61.6428 46.2152 61.1352 45.1787C63.0766 43.3073 64.2242 40.6986 64.2242 37.9514C64.2242 32.4228 59.727 27.9256 54.1993 27.9256C48.6707 27.9256 44.1735 32.4228 44.1735 37.9514C44.1735 40.6183 45.2596 43.1809 47.1266 45.0488C46.5789 46.1169 46.267 47.3269 46.267 48.6078V54.0757C40.1719 51.0969 36.237 44.9198 36.237 37.9514ZM50.1259 41.8633C49.1168 40.8191 48.5511 39.4356 48.5511 37.9514C48.5511 34.8368 51.0847 32.3032 54.1984 32.3032C57.313 32.3032 59.8466 34.8368 59.8466 37.9514C59.8466 39.457 59.2348 40.8908 58.194 41.9384C57.0012 41.2027 55.5981 40.778 54.0976 40.778C52.6484 40.778 51.2914 41.1745 50.1259 41.8633Z" fill="white"/>
<path d="M61.9501 5.15771C62.526 5.15771 63.0908 4.92358 63.4976 4.51599C63.9052 4.10925 64.1393 3.54443 64.1393 2.96851C64.1393 2.39343 63.9052 1.82861 63.4976 1.42102C63.0908 1.01428 62.526 0.780151 61.9501 0.780151C61.375 0.780151 60.8102 1.01428 60.4034 1.42102C59.9958 1.82861 59.7617 2.39343 59.7617 2.96851C59.7617 3.54443 59.9958 4.10925 60.4034 4.51599C60.8102 4.92358 61.375 5.15771 61.9501 5.15771Z" fill="white"/>
</g>
<defs>
<clipPath id="clip0">
<rect width="112" height="112" fill="white"/>
</clipPath>
</defs>
</svg>
