<svg width="129" height="130" viewBox="0 0 129 130" fill="none" xmlns="http://www.w3.org/2000/svg">
<g clip-path="url(#clip0)">
<path d="M89.9031 65.3651L76.3246 62.4686C70.6011 57.1467 62.2624 55.005 54.3445 57.6031C44.3564 60.8816 38.2337 70.6592 39.0807 80.7825L16.0875 63.6685C15.3759 63.1387 14.3947 63.1771 13.7259 63.7608C13.5313 63.9305 11.8021 65.5059 11.0386 68.4707C10.4018 70.9436 10.6896 73.385 11.405 75.5918L6.4158 73.0327C5.93441 72.7857 5.37107 72.758 4.86799 72.9568C4.36491 73.1555 3.97027 73.5613 3.78341 74.0721C3.71785 74.2513 2.18744 78.5218 2.8983 84.1684C3.4503 88.5518 5.48303 94.5044 11.6939 99.7231C8.61068 99.7188 5.69359 98.7495 2.98126 96.8225C2.31554 96.3496 1.42387 96.359 0.768482 96.8467C0.112843 97.3341 -0.159247 98.1897 0.093174 98.9704C2.38211 106.054 6.44859 112.455 11.8531 117.481C12.6207 118.195 13.8175 118.146 14.5256 117.372C15.2339 116.599 15.186 115.393 14.4184 114.679C10.6999 111.221 7.67564 107.049 5.51733 102.433C9.17831 103.763 13.1159 103.887 17.1264 102.772C17.8524 102.57 18.3905 101.953 18.496 101.201C18.6014 100.449 18.2544 99.7066 17.6121 99.3096C5.69864 91.9451 5.99569 81.8526 6.79708 77.5056L14.8324 81.6269C15.6028 82.0221 16.5411 81.8404 17.1115 81.1858C17.6819 80.5312 17.7392 79.5698 17.2505 78.8512C13.4412 73.2472 14.3654 69.5861 15.3224 67.8382L40.7718 86.7803C41.4332 87.2726 42.3342 87.2779 43.0015 86.7933C43.6685 86.3087 43.9481 85.4452 43.6937 84.6571C40.5446 74.9112 45.8479 64.4009 55.5156 61.2279C65.187 58.0544 75.6162 63.3999 78.7648 73.1443C82.0317 83.2485 81.1982 94.0297 76.4179 103.502C71.6375 112.974 63.4831 120.003 53.4561 123.294C42.5478 126.877 30.6515 125.502 20.8177 119.523C19.9237 118.979 18.7607 119.269 18.2213 120.17C17.6817 121.072 17.9692 122.243 18.8636 122.787C25.6944 126.94 33.4314 129.065 41.2272 129.065C45.7292 129.065 50.2521 128.356 54.628 126.919C65.6152 123.312 74.5511 115.61 79.7894 105.23C82.5854 99.689 84.1484 93.7397 84.4542 87.7127L93.756 77.2868C95.4929 75.3412 96.0495 72.6937 95.245 70.2046C94.4406 67.7155 92.4432 65.9064 89.9031 65.3651ZM90.9438 74.7377L84.374 82.1014C84.106 78.6944 83.4385 75.2952 82.3612 71.9631C81.8085 70.2529 81.0686 68.656 80.1737 67.1859L89.1204 69.0943C90.3227 69.3505 91.2681 70.2069 91.6489 71.385C92.0294 72.5631 91.7661 73.8165 90.9438 74.7377Z" fill="white"/>
<path d="M71.1803 76.2427C71.3765 76.2427 71.5707 76.213 71.7593 76.1509C72.4507 75.9238 72.9684 75.3065 73.2171 74.4125C73.4632 73.5276 73.4158 72.4753 73.0842 71.4494C72.7526 70.4235 72.1756 69.545 71.4597 68.976C70.7368 68.4012 69.9578 68.2096 69.2656 68.4365C68.5741 68.6637 68.0565 69.281 67.8078 70.175C67.5617 71.0598 67.6091 72.1122 67.9407 73.138C68.5371 74.9817 69.9033 76.2427 71.1803 76.2427Z" fill="#F9B93E"/>
<path d="M62.6746 79.0347C62.8708 79.0347 63.0649 79.005 63.2538 78.943C63.9452 78.716 64.463 78.0985 64.7116 77.2045C64.9575 76.3197 64.9103 75.2673 64.5787 74.2414C64.2471 73.2155 63.6701 72.337 62.9545 71.768C62.2312 71.193 61.4518 71.0016 60.7603 71.2285C59.3424 71.6941 58.748 73.8031 59.4354 75.9298C60.0313 77.7737 61.3976 79.035 62.6746 79.0347Z" fill="#F9B93E"/>
<path d="M128.098 8.69783C127.688 4.92841 124.664 1.99964 120.906 1.73383C108.881 0.884036 96.6894 0.710978 84.6726 1.21999C83.0927 1.28428 81.4435 1.36611 79.7709 1.46293C78.7282 1.52341 77.9313 2.42428 77.9914 3.47508C78.0514 4.52614 78.9466 5.32942 79.988 5.26843C81.6392 5.17288 83.2667 5.09207 84.8282 5.02854C96.7078 4.52588 108.757 4.69665 120.641 5.53628C122.573 5.673 124.127 7.17741 124.338 9.11281C125.51 19.9156 125.51 30.8706 124.338 41.6691C124.294 42.0678 124.193 42.4533 124.039 42.8167C123.445 44.2121 122.141 45.1445 120.636 45.25C112.717 45.8118 104.63 46.0769 96.5943 46.0357C94.8733 46.0321 93.2725 46.8636 92.3014 48.2722C89.8075 51.8894 85.6583 55.4322 82.6179 57.7661C82.2835 58.0227 81.962 57.9251 81.8001 57.8443C81.6382 57.7635 81.3671 57.5645 81.3671 57.1409V50.521C81.3671 47.7795 79.2396 45.4853 76.5164 45.2977L75.8232 45.2502C73.8911 45.1137 72.3355 43.603 72.1241 41.6584C70.9516 30.8582 70.9523 19.9087 72.1264 9.11535C72.2255 8.21322 72.6098 7.39418 73.238 6.74667C73.9682 5.99395 73.9549 4.78738 73.208 4.05143C72.461 3.31549 71.2637 3.32896 70.5335 4.08167C69.3261 5.32586 68.5567 6.96471 68.3666 8.69808C67.1625 19.7685 67.1617 30.9974 68.364 42.0732C68.7748 45.852 71.8006 48.7871 75.5705 49.0534L76.2655 49.1012C77.0054 49.1523 77.5846 49.7759 77.5846 50.5212V57.1412C77.5846 58.9002 78.5562 60.4781 80.1199 61.2595C80.7677 61.5832 81.4617 61.7426 82.1516 61.7426C83.1273 61.7426 84.0943 61.4237 84.9088 60.7995C88.1669 58.2984 92.6328 54.4724 95.4076 50.4475C95.6666 50.0717 96.1009 49.8478 96.5691 49.8478H96.5759C104.706 49.8892 112.888 49.6214 120.9 49.0529C123.825 48.8481 126.359 47.0344 127.514 44.3211C127.816 43.6142 128.012 42.8645 128.098 42.0884C129.301 31.0101 129.301 19.7764 128.098 8.69783Z" fill="white"/>
<path d="M79.4469 13.783H117.015C118.059 13.783 118.906 12.9297 118.906 11.8771C118.906 10.8245 118.059 9.97119 117.015 9.97119H79.4469C78.4024 9.97119 77.5557 10.8245 77.5557 11.8771C77.5557 12.9297 78.4024 13.783 79.4469 13.783Z" fill="white"/>
<path d="M79.4469 21.5575H117.015C118.059 21.5575 118.906 20.7041 118.906 19.6515C118.906 18.599 118.059 17.7456 117.015 17.7456H79.4469C78.4024 17.7456 77.5557 18.599 77.5557 19.6515C77.5557 20.7041 78.4024 21.5575 79.4469 21.5575Z" fill="#F9B93E"/>
<path d="M79.4469 29.3321H100.579C101.623 29.3321 102.47 28.4788 102.47 27.4262C102.47 26.3736 101.623 25.5203 100.579 25.5203H79.4469C78.4024 25.5203 77.5557 26.3736 77.5557 27.4262C77.5557 28.4788 78.4024 29.3321 79.4469 29.3321Z" fill="white"/>
<path d="M115.928 66.7756H105.634C104.59 66.7756 103.743 67.629 103.743 68.6816C103.743 69.7341 104.59 70.5875 105.634 70.5875H115.928C116.973 70.5875 117.819 69.7341 117.819 68.6816C117.819 67.629 116.973 66.7756 115.928 66.7756Z" fill="#F9B93E"/>
<path d="M111.906 77.9629L105.258 73.2444C104.404 72.6383 103.224 72.8444 102.622 73.7051C102.021 74.5656 102.226 75.7546 103.08 76.3607L109.728 81.0792C110.059 81.3143 110.439 81.4271 110.815 81.4271C111.41 81.4271 111.995 81.1456 112.363 80.6185C112.965 79.7581 112.76 78.569 111.906 77.9629Z" fill="white"/>
<path d="M104.17 64.4669C104.547 64.4669 104.927 64.354 105.258 64.119L111.906 59.4004C112.76 58.7943 112.965 57.6053 112.363 56.7448C111.762 55.8844 110.582 55.678 109.728 56.2841L103.08 61.0027C102.226 61.6087 102.021 62.7978 102.622 63.6582C102.991 64.1853 103.576 64.4669 104.17 64.4669Z" fill="white"/>
</g>
<defs>
<clipPath id="clip0">
<rect width="129" height="130" fill="white"/>
</clipPath>
</defs>
</svg>
