<svg width="122" height="122" viewBox="0 0 122 122" fill="none" xmlns="http://www.w3.org/2000/svg">
<g clip-path="url(#clip0)">
<path d="M106.75 58.9717V53.375C106.75 51.972 105.611 50.8333 104.208 50.8333C102.805 50.8333 101.666 51.972 101.666 53.375V58.9717C101.666 60.3747 102.805 61.5135 104.208 61.5135C105.611 61.5135 106.75 60.3747 106.75 58.9717Z" fill="#F9B93E"/>
<path d="M96.5833 58.9717V53.375C96.5833 51.972 95.4445 50.8333 94.0415 50.8333C92.6385 50.8333 91.5 51.972 91.5 53.375V58.9717C91.5 60.3747 92.6387 61.5135 94.0417 61.5135C95.4447 61.5135 96.5833 60.3747 96.5833 58.9717Z" fill="white"/>
<path d="M86.4175 63.5417V53.375C86.4175 51.972 85.2787 50.8333 83.8757 50.8333C82.4727 50.8333 81.334 51.972 81.334 53.375V63.5417C81.334 64.9447 82.4727 66.0835 83.8757 66.0835C85.2787 66.0832 86.4175 64.9447 86.4175 63.5417Z" fill="#F9B93E"/>
<path d="M96.5842 105.972V109.292C96.5842 110.695 97.723 111.833 99.126 111.833C100.529 111.833 101.668 110.695 101.668 109.292V105.972C103.162 105.088 104.209 103.527 104.209 101.667C104.209 98.8607 101.932 96.5835 99.1262 96.5835C96.3202 96.5835 94.043 98.8607 94.043 101.667C94.0427 103.527 95.095 105.088 96.5842 105.972Z" fill="#F9B93E"/>
<path d="M10.166 58.4583C10.166 62.6623 13.582 66.0833 17.791 66.0833C21.9898 66.0833 25.416 62.6623 25.416 58.4583C25.416 54.2543 21.9898 50.8333 17.791 50.8333C13.582 50.8333 10.166 54.2545 10.166 58.4583ZM20.3325 58.4583C20.3325 59.8613 19.1838 61 17.7908 61C16.388 61 15.2493 59.8613 15.2493 58.4583C15.2493 57.0553 16.388 55.9165 17.791 55.9165C19.1838 55.9167 20.3325 57.0553 20.3325 58.4583Z" fill="#F9B93E"/>
<path d="M109.292 35.5833C116.297 35.5833 122 29.8798 122 22.875V12.7083C122 5.7035 116.297 0 109.292 0H12.7083C5.69325 0 0 5.7035 0 12.7083V22.875C0 29.8798 5.69325 35.5833 12.7083 35.5833H45.75V40.6665H12.7083C5.69325 40.6667 0 46.3703 0 53.375V63.5417C0 70.5465 5.69325 76.25 12.7083 76.25H45.75V81.3333H43.2083C41.8053 81.3333 40.6665 82.472 40.6665 83.875V86.4167H38.125C36.722 86.4167 35.5833 87.5555 35.5833 88.9585V91.5H12.7083C11.3053 91.5 10.1665 92.6387 10.1665 94.0417C10.1665 95.4447 11.3053 96.5835 12.7083 96.5835H35.5833V99.125C35.5833 100.528 36.722 101.667 38.125 101.667H58.4583C59.8613 101.667 61 100.528 61 99.125V96.5833H68.625C70.028 96.5833 71.1667 95.4445 71.1667 94.0415C71.1667 92.6385 70.028 91.5 68.625 91.5H61V88.9583C61 87.5553 59.8613 86.4165 58.4583 86.4165H55.9165V83.875C55.9165 82.472 54.7778 81.3333 53.3748 81.3333H50.833V76.25H75.8633C77.2663 76.25 78.405 75.1165 78.405 73.7135C78.405 72.3105 77.2663 71.1718 75.8633 71.1718H48.312C48.307 71.1718 48.2968 71.1667 48.2917 71.1667C48.2867 71.1667 48.2765 71.1718 48.2663 71.1718H12.7083C8.50426 71.1718 5.08325 67.7507 5.08325 63.5468V53.38C5.08325 49.176 8.50426 45.755 12.7083 45.755H109.292C113.495 45.755 116.917 49.176 116.917 53.38V63.5468C116.917 64.604 116.688 65.6462 116.235 66.6475C115.661 67.9235 116.23 69.4333 117.511 70.0075C118.777 70.5718 120.297 70.0178 120.871 68.7315C121.619 67.0693 122 65.3205 122 63.5415V53.375C122 46.3703 116.296 40.6668 109.292 40.6668H50.8333V35.5835H109.292V35.5833ZM50.8333 86.4167V88.9585C50.8333 90.3615 51.972 91.5002 53.375 91.5002H55.9167V96.5835H40.6667V91.5H43.2085C44.6115 91.5 45.7502 90.3613 45.7502 88.9583V86.4165H50.8333V86.4167ZM12.7083 30.5C8.49925 30.5 5.08325 27.079 5.08325 22.875V12.7083C5.08325 8.50426 8.49925 5.08325 12.7083 5.08325H109.292C113.49 5.08325 116.917 8.50426 116.917 12.7083V22.875C116.917 27.079 113.49 30.5 109.292 30.5H12.7083Z" fill="white"/>
<path d="M119.458 86.4167H116.917V83.875C116.917 74.0642 108.936 66.0833 99.125 66.0833C89.314 66.0833 81.3335 74.0642 81.3335 83.875V86.4167H78.7917C77.3887 86.4167 76.25 87.5555 76.25 88.9585V119.458C76.25 120.861 77.3887 122 78.7917 122H119.458C120.861 122 122 120.861 122 119.458V88.9585C122 87.5553 120.861 86.4167 119.458 86.4167ZM86.417 83.875C86.417 76.8702 92.1155 71.1667 99.1252 71.1667C106.135 71.1667 111.833 76.8702 111.833 83.875V86.4167H86.417V83.875ZM116.917 116.917H81.3335V91.5H116.917V116.917H116.917Z" fill="white"/>
<path d="M94.0417 10.1667C92.6387 10.1667 91.5 11.3055 91.5 12.7085V22.875C91.5 24.278 92.6387 25.4167 94.0417 25.4167C95.4447 25.4167 96.5835 24.278 96.5835 22.875V12.7083C96.5833 11.3053 95.4447 10.1667 94.0417 10.1667Z" fill="white"/>
<path d="M104.208 10.1667C102.805 10.1667 101.666 11.3055 101.666 12.7085V22.875C101.666 24.278 102.805 25.4167 104.208 25.4167C105.611 25.4167 106.75 24.278 106.75 22.875V12.7083C106.75 11.3053 105.611 10.1667 104.208 10.1667Z" fill="#F9B93E"/>
<path d="M71.166 53.375V63.5417C71.166 64.9447 72.3048 66.0835 73.7078 66.0835C75.1108 66.0835 76.2493 64.9447 76.2493 63.5417V53.375C76.2493 51.972 75.1105 50.8333 73.7075 50.8333C72.3045 50.8333 71.166 51.972 71.166 53.375Z" fill="white"/>
<path d="M83.8757 10.1667C82.4727 10.1667 81.334 11.3055 81.334 12.7085V22.875C81.334 24.278 82.4727 25.4167 83.8757 25.4167C85.2787 25.4167 86.4175 24.278 86.4175 22.875V12.7083C86.4175 11.3053 85.2787 10.1667 83.8757 10.1667Z" fill="#F9B93E"/>
<path d="M73.7078 10.1667C72.3048 10.1667 71.166 11.3055 71.166 12.7085V22.875C71.166 24.278 72.3048 25.4167 73.7078 25.4167C75.1108 25.4167 76.2495 24.278 76.2495 22.875V12.7083C76.2495 11.3053 75.1108 10.1667 73.7078 10.1667Z" fill="white"/>
<path d="M17.791 10.1667C13.582 10.1667 10.166 13.5878 10.166 17.7917C10.166 21.9957 13.582 25.4167 17.791 25.4167C21.9898 25.4167 25.416 21.9957 25.416 17.7917C25.416 13.5878 21.9898 10.1667 17.791 10.1667ZM17.791 20.3333C16.388 20.3333 15.2493 19.1947 15.2493 17.7917C15.2493 16.3887 16.388 15.25 17.791 15.25C19.1838 15.25 20.3328 16.3887 20.3328 17.7917C20.3328 19.1947 19.1838 20.3333 17.791 20.3333Z" fill="#F9B93E"/>
</g>
<defs>
<clipPath id="clip0">
<rect width="122" height="122" fill="white"/>
</clipPath>
</defs>
</svg>
