<svg width="118" height="118" viewBox="0 0 118 118" fill="none" xmlns="http://www.w3.org/2000/svg">
<g clip-path="url(#clip0)">
<path d="M13.7667 102.267C6.1773 102.267 0 108.444 0 116.033C0 117.121 0.8791 118 1.96667 118H25.5667C26.6542 118 27.5333 117.121 27.5333 116.033C27.5333 108.444 21.356 102.267 13.7667 102.267ZM4.13197 114.067C4.9147 110.222 7.95517 107.201 11.8 106.416V110.133H15.7333V106.416C19.5782 107.203 22.6186 110.222 23.4014 114.067H4.13197Z" fill="#F9B93E"/>
<path d="M116.033 84.5667H112.584C112.476 84.2933 112.364 84.0219 112.242 83.7485L114.682 81.3079C115.451 80.5389 115.451 79.296 114.682 78.527L106.34 70.1844C105.933 69.7773 105.396 69.6003 104.863 69.6259C107.98 67.9719 110.133 64.7328 110.133 60.9667V9.83333C110.133 4.41123 105.722 0 100.3 0H9.83333C4.41123 0 0 4.41123 0 9.83333V60.9667C0 66.3888 4.41123 70.8 9.83333 70.8H35.4983L28.0683 84.5667H27.5333H24.5833C20.7877 84.5667 17.7 87.6543 17.7 91.45C17.7 95.2457 20.7877 98.3333 24.5833 98.3333H66.8667C66.8667 99.4209 67.7458 100.3 68.8333 100.3H72.2829C72.391 100.573 72.5031 100.845 72.6251 101.118L70.1844 103.559C69.4155 104.328 69.4155 105.571 70.1844 106.34L78.527 114.682C79.296 115.451 80.5389 115.451 81.3079 114.682L83.7485 112.242C84.0219 112.364 84.2933 112.476 84.5667 112.584V116.033C84.5667 117.121 85.4458 118 86.5333 118H98.3333C99.4209 118 100.3 117.121 100.3 116.033V112.584C100.573 112.476 100.845 112.364 101.118 112.242L103.559 114.682C104.328 115.451 105.571 115.451 106.34 114.682L114.682 106.34C115.451 105.571 115.451 104.328 114.682 103.559L112.242 101.118C112.364 100.845 112.476 100.573 112.584 100.3H116.033C117.121 100.3 118 99.4209 118 98.3333V86.5333C118 85.4458 117.121 84.5667 116.033 84.5667ZM3.93333 9.83333C3.93333 6.58047 6.58047 3.93333 9.83333 3.93333H100.3C103.553 3.93333 106.2 6.58047 106.2 9.83333V51.1333H3.93333V9.83333ZM9.83333 66.8667C6.58047 66.8667 3.93333 64.2195 3.93333 60.9667V55.0667H106.2V60.9667C106.2 64.2195 103.553 66.8667 100.3 66.8667H98.3333H86.5333H71.3389H38.7945H9.83333ZM103.533 70.21L101.118 72.6251C100.845 72.5031 100.573 72.391 100.3 72.2829V70.8C101.439 70.8 102.514 70.5679 103.533 70.21ZM84.5667 70.8V72.2829C84.2933 72.391 84.0219 72.5031 83.7485 72.6251L81.9235 70.8H84.5667ZM77.9095 70.8L76.2142 72.4953L75.0598 70.8H77.9095ZM66.8667 94.4H24.5833C22.9569 94.4 21.6333 93.0764 21.6333 91.45C21.6333 89.8236 22.9569 88.5 24.5833 88.5H27.5333H29.2404H66.8667V94.4ZM32.5375 84.5647L39.9666 70.8H70.3005L73.3842 75.3253L70.1844 78.5251C69.4155 79.294 69.4155 80.537 70.1844 81.3059L72.6251 83.7466C72.5031 84.0199 72.391 84.2913 72.2829 84.5647H68.8333H32.5375ZM114.067 96.3667H111.197C110.338 96.3667 109.581 96.9232 109.321 97.7414C109.022 98.6913 108.619 99.6589 108.121 100.611C107.724 101.374 107.868 102.304 108.475 102.912L110.513 104.949L104.951 110.511L102.914 108.473C102.304 107.866 101.376 107.724 100.613 108.119C99.6608 108.617 98.6932 109.02 97.7433 109.319C96.9232 109.581 96.3667 110.338 96.3667 111.197V114.067H88.5V111.197C88.5 110.338 87.9434 109.581 87.1253 109.321C86.1754 109.022 85.2078 108.619 84.2559 108.121C83.4929 107.726 82.5626 107.868 81.9549 108.475L79.9175 110.513L74.3557 104.951L76.3932 102.914C77.0009 102.306 77.1445 101.376 76.7472 100.613C76.2496 99.6608 75.8465 98.6932 75.5475 97.7433C75.286 96.9232 74.5288 96.3667 73.6694 96.3667H70.8V88.5H73.6694C74.5288 88.5 75.286 87.9434 75.5456 87.1253C75.8445 86.1754 76.2477 85.2078 76.7452 84.2559C77.1425 83.4929 76.9989 82.5626 76.3912 81.9549L74.3538 79.9175L79.9155 74.3557L81.953 76.3932C82.5607 77.0029 83.4909 77.1445 84.254 76.7472C85.2058 76.2496 86.1734 75.8465 87.1233 75.5475C87.9434 75.286 88.5 74.5288 88.5 73.6694V70.8H96.3667V73.6694C96.3667 74.5288 96.9232 75.286 97.7414 75.5456C98.6913 75.8445 99.6589 76.2477 100.611 76.7452C101.374 77.1425 102.302 77.0009 102.912 76.3912L104.949 74.3538L110.511 79.9155L108.473 81.953C107.866 82.5607 107.722 83.4909 108.119 84.254C108.617 85.2058 109.02 86.1734 109.319 87.1233C109.581 87.9434 110.338 88.5 111.197 88.5H114.067V96.3667Z" fill="white"/>
<path d="M92.4333 80.6334C85.9256 80.6334 80.6333 85.9257 80.6333 92.4334C80.6333 98.9411 85.9256 104.233 92.4333 104.233C98.941 104.233 104.233 98.9411 104.233 92.4334C104.233 85.9257 98.941 80.6334 92.4333 80.6334ZM92.4333 100.3C88.0948 100.3 84.5666 96.7718 84.5666 92.4334C84.5666 88.0949 88.0948 84.5667 92.4333 84.5667C96.7718 84.5667 100.3 88.0949 100.3 92.4334C100.3 96.7718 96.7718 100.3 92.4333 100.3Z" fill="white"/>
<path d="M38.7571 15.1571L35.9762 12.3762L22.2095 26.1429C21.4406 26.9119 21.4406 28.1548 22.2095 28.9238L35.9762 42.6904L38.7571 39.9096L26.3808 27.5333L38.7571 15.1571Z" fill="#F9B93E"/>
<path d="M82.0238 26.1429L68.2571 12.3762L65.4762 15.1571L77.8525 27.5333L65.4762 39.9096L68.2571 42.6904L82.0238 28.9238C82.7927 28.1548 82.7927 26.9119 82.0238 26.1429Z" fill="#F9B93E"/>
<path d="M59.2002 6.9981L41.5054 42.3878L45.0233 44.1468L62.7182 8.75709L59.2002 6.9981Z" fill="white"/>
<path d="M80.6333 39.3333H76.7V43.2666H80.6333V39.3333Z" fill="white"/>
<path d="M88.5 39.3333H84.5667V43.2666H88.5V39.3333Z" fill="#F9B93E"/>
<path d="M96.3667 39.3333H92.4333V43.2666H96.3667V39.3333Z" fill="white"/>
</g>
<defs>
<clipPath id="clip0">
<rect width="118" height="118" fill="white"/>
</clipPath>
</defs>
</svg>
