<svg width="128" height="148" viewBox="0 0 128 148" fill="none" xmlns="http://www.w3.org/2000/svg">
<g clip-path="url(#clip0)">
<path d="M121.806 48.0461H119.742V19.7328H20.6452V0.857178H10.3226C4.63105 0.857178 0 6.1498 0 12.6544V102.313C0 108.818 4.63105 114.111 10.3226 114.111H66.0645V140.065C66.0645 143.967 68.8438 147.143 72.2581 147.143H121.806C125.221 147.143 128 143.967 128 140.065V55.1245C128 51.2224 125.221 48.0461 121.806 48.0461ZM4.12903 12.6544C4.12903 8.75234 6.90827 5.57607 10.3226 5.57607H16.5161V90.5162H10.3226C8 90.5162 5.85484 91.3987 4.12903 92.8802V12.6544ZM10.3226 109.392C6.90827 109.392 4.12903 106.215 4.12903 102.313C4.12903 98.4113 6.90827 95.2351 10.3226 95.2351H20.6452V24.4516H115.613V48.0461H72.8982C69.4314 36.8457 60.0655 29.1705 49.5484 29.1705C35.8871 29.1705 24.7742 41.871 24.7742 57.4839C24.7742 73.0968 35.8871 85.7973 49.5484 85.7973C55.7006 85.7973 61.5635 83.1567 66.0645 78.5565V109.392H10.3226ZM66.0645 55.1245H51.6129V34.0219C59.3941 34.9205 66.1371 40.8261 68.8851 49.2028C67.1895 50.4666 66.0645 52.6452 66.0645 55.1245ZM47.4839 80.9586C37.0665 79.7708 28.9032 69.6959 28.9032 57.4839C28.9032 45.2719 37.0665 35.197 47.4839 34.0093V80.9586ZM51.6129 59.8434H66.0645V71.5887C62.5877 76.8952 57.3357 80.2742 51.6129 80.9344V59.8434ZM123.871 140.065C123.871 141.364 122.944 142.424 121.806 142.424H72.2581C71.121 142.424 70.1935 141.364 70.1935 140.065V55.1245C70.1935 53.8249 71.121 52.765 72.2581 52.765H121.806C122.944 52.765 123.871 53.8249 123.871 55.1245V140.065Z" fill="white"/>
<path d="M74.3225 81.0784H119.742V57.4839H74.3225V81.0784ZM78.4515 62.2028H115.613V76.3595H78.4515V62.2028Z" fill="white"/>
<path d="M107.355 137.705H119.742V123.548H107.355V137.705ZM111.484 128.267H115.613V132.986H111.484V128.267Z" fill="#F9B93E"/>
<path d="M90.8386 137.705H103.226V123.548H90.8386V137.705ZM94.9677 128.267H99.0967V132.986H94.9677V128.267Z" fill="white"/>
<path d="M74.3225 137.705H86.7096V123.548H74.3225V137.705ZM78.4515 128.267H82.5806V132.986H78.4515V128.267Z" fill="#F9B93E"/>
<path d="M107.355 118.83H119.742V104.673H107.355V118.83ZM111.484 109.392H115.613V114.111H111.484V109.392Z" fill="white"/>
<path d="M90.8386 118.83H103.226V104.673H90.8386V118.83ZM94.9677 109.392H99.0967V114.111H94.9677V109.392Z" fill="#F9B93E"/>
<path d="M74.3225 118.83H86.7096V104.673H74.3225V118.83ZM78.4515 109.392H82.5806V114.111H78.4515V109.392Z" fill="white"/>
<path d="M107.355 99.9539H119.742V85.7972H107.355V99.9539ZM111.484 90.5161H115.613V95.235H111.484V90.5161Z" fill="#F9B93E"/>
<path d="M90.8386 99.9539H103.226V85.7972H90.8386V99.9539ZM94.9677 90.5161H99.0967V95.235H94.9677V90.5161Z" fill="white"/>
<path d="M74.3225 99.9539H86.7096V85.7972H74.3225V99.9539ZM78.4515 90.5161H82.5806V95.235H78.4515V90.5161Z" fill="#F9B93E"/>
<path d="M82.5806 29.1705H111.484V33.8894H82.5806V29.1705Z" fill="#F9B93E"/>
<path d="M78.4517 38.6083H111.484V43.3272H78.4517V38.6083Z" fill="white"/>
</g>
<defs>
<clipPath id="clip0">
<rect width="128" height="146.286" fill="white" transform="translate(0 0.857178)"/>
</clipPath>
</defs>
</svg>
