<svg width="140" height="161" viewBox="0 0 140 161" fill="none" xmlns="http://www.w3.org/2000/svg">
<g clip-path="url(#clip0)">
<path d="M116.348 13.2646C105.651 13.2646 97.1987 23.0751 97.1987 35.3004C97.1987 47.5257 105.783 57.1852 116.348 57.1852C126.913 57.1852 135.629 47.3748 135.629 35.1495C135.629 22.9242 127.045 13.2646 116.348 13.2646ZM116.348 52.3555C108.028 52.3555 101.293 44.6581 101.293 35.1495C101.293 25.6409 108.16 18.0944 116.348 18.0944C124.668 18.0944 131.403 25.7918 131.403 35.3004C131.403 44.809 124.668 52.3555 116.348 52.3555Z" fill="white"/>
<path d="M122.423 38.6209C122.291 38.1682 122.291 37.8663 122.027 37.4135C121.895 37.1116 121.763 36.6589 121.499 36.357C121.234 36.0551 121.102 35.7533 120.838 35.4514C120.574 35.1496 120.31 34.8477 119.914 34.6968C119.65 34.3949 119.254 34.244 118.989 34.0931C118.593 33.9421 118.329 33.6403 117.933 33.4893C117.537 33.3384 117.14 33.1875 116.876 33.0365C116.744 33.0365 116.48 32.8856 116.348 32.7347C116.216 32.5838 115.952 32.5838 115.82 32.4328C115.688 32.2819 115.424 32.2819 115.292 32.131C115.16 31.98 115.027 31.8291 114.895 31.6782C114.763 31.5272 114.631 31.3763 114.631 31.0745C114.499 30.9235 114.499 30.6217 114.499 30.4707C114.499 30.1689 114.499 30.0179 114.499 29.7161C114.499 29.5652 114.631 29.2633 114.631 29.1124C114.763 28.9614 114.763 28.6596 114.895 28.5086C115.027 28.3577 115.16 28.2068 115.292 28.0559C115.424 27.9049 115.688 27.754 115.952 27.754C116.216 27.6031 116.348 27.6031 116.612 27.6031C116.744 27.6031 116.876 27.6031 117.008 27.6031C117.14 27.6031 117.273 27.6031 117.405 27.6031C117.669 27.6031 117.801 27.6031 118.065 27.754C118.329 27.754 118.593 27.9049 118.725 27.9049C118.857 27.9049 119.121 28.0559 119.254 28.0559C119.518 28.0559 119.65 28.2068 119.782 28.2068L120.442 28.5086L120.574 27.6031L120.838 25.1882V24.5845L120.31 24.4335C120.178 24.4335 119.914 24.2826 119.782 24.2826C119.65 24.2826 119.518 24.1317 119.254 24.1317C119.121 24.1317 118.857 23.9808 118.593 23.9808C118.329 23.9808 118.197 23.8298 117.933 23.8298H117.801V21.7168V20.9622H117.14H115.292H114.631V21.7168V23.9808H114.499C114.103 24.1317 113.707 24.2826 113.311 24.5845C112.914 24.7354 112.65 25.0373 112.386 25.3391C112.122 25.641 111.858 25.9428 111.594 26.3956C111.33 26.6975 111.198 27.1503 111.066 27.6031C110.933 28.0559 110.801 28.5087 110.669 28.9614C110.537 29.4142 110.537 30.0179 110.537 30.4707C110.537 30.9235 110.537 31.2254 110.669 31.6782C110.801 32.131 110.801 32.4328 111.066 32.8856C111.198 33.1875 111.462 33.6403 111.594 33.9421C111.858 34.244 111.99 34.5458 112.254 34.8477C112.518 35.1496 112.782 35.4514 113.179 35.6024C113.443 35.9042 113.839 36.0551 114.103 36.2061C114.499 36.357 114.895 36.6589 115.16 36.8098C115.556 36.9607 115.952 37.1117 116.216 37.2626C116.348 37.2626 116.612 37.4135 116.744 37.5644C116.876 37.7154 117.14 37.7154 117.273 37.8663C117.405 38.0172 117.537 38.1682 117.669 38.1682C117.801 38.3191 117.933 38.47 118.065 38.6209C118.197 38.7719 118.197 38.9228 118.329 39.2247C118.329 39.3756 118.461 39.6775 118.461 39.9793C118.461 40.2812 118.461 40.4321 118.461 40.734C118.461 40.8849 118.329 41.1868 118.197 41.3377C118.065 41.4886 117.933 41.6395 117.801 41.7905C117.669 41.9414 117.537 42.0923 117.273 42.2433C117.14 42.3942 116.876 42.3942 116.744 42.5451C116.612 42.5451 116.348 42.6961 116.084 42.6961C115.952 42.6961 115.82 42.6961 115.556 42.6961C115.424 42.6961 115.16 42.6961 115.027 42.6961C114.763 42.6961 114.499 42.6961 114.367 42.6961C114.103 42.6961 113.839 42.5451 113.707 42.5451C113.443 42.5451 113.179 42.3942 112.914 42.2433C112.65 42.0923 112.386 42.0923 112.122 41.9414C111.99 41.9414 111.858 41.7905 111.726 41.7905C111.594 41.7905 111.462 41.6395 111.33 41.6395L110.537 41.1868L110.405 42.2433L110.141 44.96V45.4128L110.537 45.5637C111.066 45.4128 111.33 45.5637 111.726 45.7146C111.99 45.8656 112.386 46.0165 112.65 46.0165C112.914 46.1674 113.311 46.1674 113.707 46.3184C114.103 46.4693 114.367 46.4693 114.763 46.4693H115.027V48.7332V49.4879H115.688H117.537H118.197V48.7332V46.3184H118.329C118.725 46.1674 119.121 46.0165 119.518 45.7146C119.914 45.5637 120.178 45.2619 120.574 44.96C120.838 44.6581 121.102 44.3563 121.367 43.9035C121.631 43.6016 121.763 43.1488 122.027 42.6961C122.159 42.2433 122.291 41.7905 122.423 41.3377C122.555 40.8849 122.555 40.4321 122.555 39.8284C122.555 39.3756 122.555 39.0737 122.423 38.6209Z" fill="#F9B93E"/>
<path d="M107.104 60.0529C106.443 58.9964 104.991 58.8454 104.066 59.6001L82.6719 79.07L55.0706 65.9391C54.4103 65.6373 53.6179 65.7882 53.0896 66.241L23.5074 90.3898C22.5829 91.1444 22.3188 92.6537 22.9791 93.7102C23.3753 94.4649 24.0356 94.7668 24.6959 94.7668C25.0921 94.7668 25.4883 94.6158 25.8845 94.314L54.5423 70.9198L82.2757 84.0507C82.936 84.3526 83.8604 84.2017 84.3887 83.7489L106.707 63.5243C107.632 62.7696 107.764 61.1094 107.104 60.0529Z" fill="#F9B93E"/>
<path d="M138.007 142.763H128.234V72.8822C128.234 71.5238 127.309 70.4673 126.121 70.4673H106.707C105.519 70.4673 104.594 71.5238 104.594 72.8822V142.763H97.463V97.031C97.463 95.6726 96.5385 94.6161 95.35 94.6161H75.8045C74.616 94.6161 73.6915 95.6726 73.6915 97.031V142.763H66.5601V93.4086C66.5601 92.0503 65.6356 90.9937 64.4471 90.9937H45.0337C43.8451 90.9937 42.9207 92.0503 42.9207 93.4086V142.763H35.7893V107.596C35.7893 106.238 34.8648 105.181 33.6762 105.181H14.1308C12.9422 105.181 12.0178 106.238 12.0178 107.596V142.763H2.11302C0.924446 142.763 0 143.819 0 145.178C0 146.536 0.924446 147.592 2.11302 147.592H13.9987H33.4121H45.0337H64.4471H75.8045H95.2179H106.575H125.989H137.874C139.063 147.592 139.987 146.536 139.987 145.178C140.12 143.819 139.195 142.763 138.007 142.763ZM31.4312 142.763H16.2438V110.011H31.4312V142.763ZM62.334 142.763H47.1467V95.8235H62.334V142.763ZM93.1049 142.763H77.9176V99.4458H93.1049V142.763ZM124.008 142.763H108.82V75.297H124.008V142.763Z" fill="white"/>
</g>
<defs>
<clipPath id="clip0">
<rect width="140" height="160" fill="white" transform="translate(0 0.428467)"/>
</clipPath>
</defs>
</svg>
