<svg width="136" height="157" viewBox="0 0 136 157" fill="none" xmlns="http://www.w3.org/2000/svg">
<g clip-path="url(#clip0)">
<path d="M83.6845 110.512H76.2291C75.1289 110.512 74.2369 111.531 74.2369 112.789C74.2369 114.046 75.1289 115.066 76.2291 115.066H83.6845C84.7847 115.066 85.6767 114.046 85.6767 112.789C85.6767 111.531 84.7847 110.512 83.6845 110.512Z" fill="white"/>
<path d="M127.566 86.1377L116.718 81.3555L111.187 75.0342C110.832 74.6283 110.374 74.4085 109.907 74.3742V69.3443C112.513 66.1678 114.369 62.1451 115.118 57.6134C115.583 57.6374 116.052 57.5946 116.515 57.4865C119.166 56.8663 121.09 54.0555 121.09 50.8036V49.1434C121.09 47.2622 120.422 45.5354 119.335 44.3008C121.094 33.3661 119.645 24.4551 115.126 18.4908C110.755 12.722 103.712 9.96463 94.76 10.518C86.4894 11.029 81.1504 15.3779 79.4588 16.969C78.5329 17.0946 76.9556 17.4662 75.3592 18.5609C73.1465 20.0782 70.5091 23.2654 70.5091 29.8325C70.5091 35.5616 71.3102 40.3447 71.8904 43.0583C69.946 44.1408 68.6452 46.4868 68.6452 49.1689V50.8033C68.6452 54.0552 70.5691 56.866 73.2198 57.4862C73.6828 57.5946 74.1524 57.6371 74.617 57.6131C75.3658 62.1448 77.2217 66.1675 79.8283 69.344V74.3739C79.3608 74.4082 78.9029 74.628 78.548 75.0339L73.0169 81.3552L62.1685 86.1374C61.23 86.5508 60.3335 87.0873 59.5042 87.7311C58.5942 88.4379 58.3578 89.8537 58.9759 90.8938C59.3613 91.5422 59.9879 91.8913 60.6254 91.8913C61.0109 91.8913 61.4003 91.7635 61.7432 91.4976C62.3215 91.0486 62.947 90.6746 63.6023 90.3856L73.6703 85.9473L81.3682 99.1439C82.3223 100.78 83.8518 101.829 85.5637 102.023C85.7542 102.045 85.9446 102.055 86.1338 102.055C87.1248 102.055 88.0864 101.757 88.9374 101.207L87.2855 144.031C87.2369 145.288 88.0888 146.351 89.1882 146.406C89.2179 146.408 89.2477 146.408 89.2774 146.408C90.3373 146.408 91.2192 145.454 91.2662 144.232L92.7994 104.482H96.9352L98.4684 144.232C98.5154 145.454 99.3973 146.408 100.457 146.408C100.487 146.408 100.517 146.408 100.546 146.406C101.646 146.351 102.497 145.288 102.449 144.031L100.797 101.207C101.648 101.757 102.609 102.055 103.601 102.055C103.79 102.055 103.98 102.045 104.171 102.023C105.883 101.829 107.412 100.78 108.366 99.1439L116.064 85.9473L126.132 90.3856C127.544 91.0079 128.76 92.0009 129.716 93.2398L122.828 101.112C120.339 103.956 118.969 107.737 118.969 111.759V144.132C118.969 145.389 119.861 146.409 120.961 146.409C122.061 146.409 122.953 145.389 122.953 144.132V111.759C122.953 108.954 123.909 106.316 125.645 104.332L131.69 97.423C131.933 98.4409 132.046 99.511 132.008 100.605L130.465 144.04C130.42 145.296 131.275 146.356 132.374 146.407C132.402 146.408 132.429 146.409 132.457 146.409C133.52 146.409 134.403 145.449 134.446 144.225L135.989 100.789C136.215 94.346 132.831 88.4582 127.566 86.1377ZM78.5169 56.6744C78.1655 54.4884 76.3943 52.8995 74.4826 53.0613C74.3315 53.0738 74.1758 53.0616 74.0191 53.0252C73.227 52.84 72.6296 51.8847 72.6296 50.8036V49.1686C72.6296 48.1125 73.2472 47.1611 74.0353 47.0029C74.7004 46.8693 75.3374 47.1483 75.7403 47.7491C76.1061 48.294 76.5941 48.6838 77.1511 48.8757C77.9671 49.1574 78.8668 48.9919 79.5585 48.434C80.8042 47.4288 81.9034 46.2009 82.8254 44.7838C83.482 43.7747 83.2982 42.3485 82.4155 41.5984C81.5323 40.848 80.2847 41.0578 79.628 42.0668C79.1682 42.7735 78.6487 43.415 78.0768 43.9827C77.4451 43.3652 76.7072 42.919 75.9165 42.6643C75.4046 40.4233 74.4935 35.6223 74.4935 29.8319C74.4935 26.3448 75.4341 23.8947 77.2889 22.5498C78.7363 21.5004 80.2682 21.4585 80.2671 21.4582C80.7764 21.4582 81.272 21.229 81.6418 20.8292C81.6904 20.777 86.5877 15.5828 94.9746 15.0646C102.652 14.5911 108.578 16.8059 112.114 21.4712C115.677 26.1736 116.863 33.3928 115.576 42.4287C115.042 42.4071 114.458 42.4533 113.877 42.5641L112.005 37.427C111.623 36.3791 110.623 35.8132 109.662 36.0995C109.477 36.1548 91.0792 41.4849 83.3651 30.5089C82.6764 29.5287 81.4226 29.372 80.5644 30.1595C79.7067 30.947 79.5696 32.3798 80.2589 33.3604C88.1363 44.5689 103.767 42.1306 108.97 40.9415L110.417 44.9137C111.04 46.6213 112.632 47.5539 114.201 47.131C114.845 46.9577 115.461 46.9537 115.692 47.006C116.497 47.1893 117.105 48.1076 117.105 49.1428V50.8033C117.105 51.8847 116.508 52.8397 115.715 53.0249C115.559 53.0616 115.403 53.0738 115.252 53.061C113.341 52.9019 111.569 54.4878 111.218 56.6744C109.768 65.6918 102.892 72.2368 94.8673 72.2368C86.8425 72.2368 79.9662 65.6918 78.5169 56.6744ZM87.3546 96.9209C86.8494 97.4983 86.2621 97.5265 85.9566 97.4919C85.6514 97.4576 85.08 97.2979 84.6837 96.6185L76.9288 83.3245L80.0475 79.7602L91.9528 91.6657L87.3546 96.9209ZM92.975 99.9284L93.0956 96.7991L94.867 94.7746L96.6385 96.7991L96.7591 99.9284H92.975ZM94.8673 88.5292L83.8127 77.4746V73.1171C87.0268 75.4531 90.8295 76.7904 94.8673 76.7904C98.9051 76.7904 102.708 75.4531 105.922 73.1171V77.4746L94.8673 88.5292ZM105.051 96.6185C104.655 97.2982 104.083 97.4576 103.779 97.4919C103.473 97.5265 102.885 97.4983 102.38 96.9206L97.782 91.6654L109.687 79.7599L112.806 83.3242L105.051 96.6185Z" fill="#F9B93E"/>
<path d="M63.1778 98.0695L53.4501 93.2169L48.1325 87.1397C47.7763 86.7323 47.3184 86.5137 46.8522 86.4797V82.8978C51.3968 79.4848 54.7224 74.0566 55.791 67.5884C56.3143 67.6151 56.8427 67.5577 57.3633 67.4172C59.9125 66.7277 61.7626 63.9358 61.7626 60.7786V59.1187C61.7626 56.8122 60.7612 54.7372 59.2097 53.5199C59.666 51.4538 59.8987 49.34 59.8987 47.2123C59.8987 37.7797 55.4372 29.4715 48.7124 24.7012C48.6407 16.8286 42.761 10.4475 35.5405 10.4475C28.32 10.4475 22.4404 16.8286 22.3687 24.7012C15.6441 29.4715 11.1826 37.78 11.1826 47.2123C11.1826 49.3336 11.4137 51.4413 11.8674 53.5017C10.3167 54.713 9.31872 56.7976 9.31872 59.1436V60.7786C9.31872 63.9358 11.1688 66.7277 13.718 67.4172C14.2386 67.558 14.7667 67.6151 15.2903 67.5884C16.3589 74.0566 19.6848 79.4848 24.2294 82.8978V86.4797C23.7632 86.5137 23.3053 86.7323 22.9491 87.1397L17.6315 93.2169L7.904 98.0695C2.95459 100.539 -0.216982 106.341 0.0117216 112.507L1.18818 144.228C1.2336 145.452 2.11575 146.409 3.17719 146.409C3.20561 146.409 3.2343 146.408 3.26298 146.407C4.36241 146.354 5.2156 145.292 5.16912 144.036L3.99239 112.314C3.91669 110.27 4.38153 108.287 5.25544 106.58L10.4843 113.751C12.1368 116.017 13.0465 118.889 13.0465 121.839V144.132C13.0465 145.389 13.9385 146.409 15.0387 146.409C16.1389 146.409 17.0309 145.389 17.0309 144.132V121.839C17.0309 117.826 15.7928 113.919 13.5451 110.836L7.98634 103.212C8.45889 102.84 8.96119 102.51 9.49802 102.243L17.9757 98.0133L23.9667 109.127C24.5582 110.224 25.5363 110.968 26.6503 111.169C26.8506 111.205 27.0514 111.222 27.2514 111.222C28.1622 111.222 29.0494 110.854 29.7528 110.167L33.5491 106.465V144.132C33.5491 145.389 34.4411 146.409 35.5413 146.409C36.6415 146.409 37.5335 145.389 37.5335 144.132V106.466L41.3296 110.168C42.033 110.854 42.9201 111.223 43.831 111.223C44.0307 111.223 44.2318 111.205 44.4321 111.169C45.5461 110.969 46.5242 110.225 47.1157 109.127L53.1066 98.0136L61.5844 102.243C62.1209 102.511 62.6235 102.84 63.096 103.213L57.5373 110.836C55.2896 113.919 54.0515 117.827 54.0515 121.839V144.132C54.0515 145.39 54.9434 146.409 56.0437 146.409C57.1439 146.409 58.0359 145.39 58.0359 144.132V121.839C58.0359 118.89 58.9459 116.017 60.5981 113.751L65.8269 106.58C66.7008 108.287 67.1657 110.27 67.09 112.314L65.9135 144.036C65.867 145.292 66.7202 146.354 67.8197 146.407C67.8484 146.409 67.8768 146.409 67.9055 146.409C68.9669 146.409 69.849 145.452 69.8945 144.229L71.0709 112.507C71.2994 106.341 68.1275 100.539 63.1778 98.0695ZM35.5411 15.0011C39.7794 15.0011 43.3552 18.0912 44.4127 22.278C41.6624 21.0917 38.6699 20.4393 35.5411 20.4393C32.4122 20.4393 29.4197 21.0917 26.6694 22.278C27.7269 18.0912 31.3025 15.0011 35.5411 15.0011ZM19.1905 66.65C18.8393 64.4634 17.0652 62.8751 15.1564 63.0366C14.9872 63.0503 14.8124 63.0339 14.636 62.9859C13.8763 62.7804 13.3034 61.8314 13.3034 60.7786V59.1436C13.3034 58.0875 13.921 57.1361 14.7091 56.9779C15.3742 56.8443 16.0109 57.1236 16.4136 57.7238C16.7794 58.269 17.2673 58.6588 17.8249 58.8512C18.6406 59.133 19.5408 58.9675 20.232 58.4093C21.4589 57.4196 22.5437 56.2132 23.4564 54.8241C24.117 53.8186 23.9393 52.3912 23.0596 51.6365C22.1795 50.8816 20.9308 51.0847 20.2702 52.0901C19.8184 52.7777 19.3097 53.4027 18.7503 53.958C17.8979 53.125 16.8527 52.6034 15.744 52.4453C15.3622 50.7304 15.167 48.9766 15.167 47.2126C15.167 34.961 24.3067 24.9932 35.5411 24.9932C46.7752 24.9932 55.9148 34.9607 55.9148 47.2126C55.9148 48.9733 55.7207 50.7234 55.3403 52.4352C54.8159 52.4829 54.2831 52.581 53.7898 52.7273L52.2922 51.3199C51.5397 50.6126 50.5925 50.2586 49.6338 50.3239C46.7056 50.5215 31.7089 50.9741 24.0147 40.4505C23.3092 39.4857 22.0531 39.357 21.2087 40.1633C20.3643 40.9696 20.2519 42.4055 20.9574 43.3703C24.7521 48.5604 30.3178 52.07 37.4995 53.8016C42.9982 55.1273 47.8863 54.9986 49.8015 54.8738L52.1379 57.0696C52.781 57.674 53.6828 57.7593 54.4029 57.2803C54.7408 57.0699 55.8723 56.8689 56.3661 56.9815C57.1718 57.1646 57.779 58.0832 57.779 59.1187V60.7786C57.779 61.8317 57.206 62.7807 56.4464 62.9859C56.2702 63.0336 56.0952 63.0509 55.926 63.0363C54.0183 62.8778 52.2431 64.4634 51.8917 66.6497C50.4424 75.6674 43.5661 82.2124 35.5413 82.2124C27.5162 82.2124 20.6397 75.6674 19.1905 66.65ZM27.2804 106.593L21.2884 95.4773L24.3579 91.9692L32.6077 101.398L27.2804 106.593ZM35.5411 98.3099L28.214 89.9362V85.2259C30.5013 86.2211 32.973 86.766 35.5411 86.766C38.1091 86.766 40.5808 86.2211 42.8681 85.2262V89.9362L35.5411 98.3099ZM43.8018 106.593L38.4744 101.398L46.7242 91.9692L49.7937 95.4773L43.8018 106.593Z" fill="white"/>
<path d="M28.0857 120.554H22.4943C21.394 120.554 20.5021 121.574 20.5021 122.831C20.5021 124.088 21.394 125.108 22.4943 125.108H28.0857C29.1859 125.108 30.0779 124.088 30.0779 122.831C30.0779 121.574 29.1859 120.554 28.0857 120.554Z" fill="white"/>
</g>
<defs>
<clipPath id="clip0">
<rect width="136" height="155.429" fill="white" transform="translate(0 0.714111)"/>
</clipPath>
</defs>
</svg>
