<svg width="128" height="147" viewBox="0 0 128 147" fill="none" xmlns="http://www.w3.org/2000/svg">
<g clip-path="url(#clip0)">
<path d="M91.5 113.143C90.12 113.143 89 114.423 89 116C89 117.577 90.12 118.857 91.5 118.857C92.88 118.857 94 117.577 94 116C94 114.423 92.88 113.143 91.5 113.143Z" fill="#F9B93E"/>
<path d="M97.6555 103.904L85.773 99.378L81.5072 89.6274C85.3503 85.1572 88.0185 79.2423 88.9183 73.0729L89.4502 69.4286H94C98.1355 69.4286 101.5 65.5834 101.5 60.8571V42.8571C101.5 19.2257 84.6775 0 64 0C43.2695 0 26.5 19.1706 26.5 42.8571V60.8571C26.5 64.5817 28.5903 67.7577 31.5 68.9371V72.2857C31.5 77.012 34.8645 80.8571 39 80.8571H41.1955C42.2793 83.5477 43.682 86.0397 45.389 88.2783C45.743 88.7434 46.1123 89.1943 46.4905 89.6329L42.227 99.378L30.3442 103.904C16.528 109.169 6.5 125.792 6.5 143.429C6.5 145.007 7.61925 146.286 9 146.286H119C120.381 146.286 121.5 145.007 121.5 143.429C121.5 125.792 111.472 109.169 97.6555 103.904ZM96.5 60.8571C96.5 62.4326 95.3785 63.7143 94 63.7143H90.1845C90.82 58.0886 91.2435 52.102 91.4137 46.2057C91.4187 46.0394 91.4228 45.8777 91.4273 45.7143H96.5V60.8571ZM34 63.7143C32.6215 63.7143 31.5 62.4326 31.5 60.8571V45.7143H36.5745C36.5828 46.0123 36.5915 46.3117 36.6012 46.6131C36.6015 46.6234 36.602 46.6334 36.6022 46.6437C36.6022 46.6446 36.6022 46.6454 36.6022 46.6463C36.7772 52.3811 37.1952 58.2123 37.8162 63.714H34V63.7143ZM39 75.1429C37.6215 75.1429 36.5 73.8611 36.5 72.2857V69.4286H38.5495L39.0815 73.074C39.183 73.7669 39.3078 74.4571 39.452 75.1429H39ZM36.5042 40H31.595C32.8612 20.8511 46.8442 5.71429 64 5.71429C81.0795 5.71429 95.124 20.8491 96.4047 40H91.496C91.316 24.2209 80.0727 11.4286 66.2377 11.4286H61.7627C47.928 11.4286 36.684 24.2209 36.5042 40ZM61.7625 17.1429H66.2375C77.4398 17.1429 86.5065 27.6146 86.5 40.4029C86.5 41.302 86.4938 42.0849 86.4805 42.7971C86.4805 42.8063 86.4802 42.8157 86.4802 42.8251L83.3532 42.3146C74.8582 40.9283 66.8372 36.3449 60.7677 29.4083C60.2987 28.8726 59.663 28.5714 59 28.5714C52.286 28.5714 45.859 32.0674 41.6105 37.9737C42.6575 26.3397 51.2633 17.1429 61.7625 17.1429ZM44.635 75.1429C43.3835 70.3849 41.9515 56.3849 41.635 47.4134L44.9997 42.286C48.09 37.5786 52.8978 34.6537 58.012 34.318C64.7412 41.6369 73.4467 46.47 82.6462 47.9711L86.3268 48.5723C86.0807 54.5394 85.578 60.5274 84.8577 66.0346C84.8575 66.0363 84.8573 66.0383 84.857 66.0403C84.628 67.8109 84.4475 68.9503 83.9865 72.1329C82.6625 81.2086 76.737 89.4157 68.9147 91.6509C65.6955 92.5694 62.304 92.5692 59.0865 91.6509C54.2022 90.2554 49.7238 86.3932 46.8335 80.8571H51.93C52.962 84.1826 55.7407 86.5714 59 86.5714H64C68.1437 86.5714 71.5 82.736 71.5 78C71.5 73.2737 68.1355 69.4286 64 69.4286H59C55.6683 69.4286 52.9305 71.888 51.9258 75.1429H44.635ZM58.7897 97.4331C60.5045 97.846 62.2528 98.0572 64 98.0572C65.3677 98.0572 66.7357 97.9263 68.0882 97.6726L63.6707 103.012L58.7897 97.4331ZM60.2337 107.165L52.3042 116.749C50.1213 111.973 48.2455 107.003 46.707 101.915L49.6847 95.1091L60.2337 107.165ZM77.8915 94.1411L81.2925 101.915C79.7515 107.012 77.8753 111.983 75.6945 116.753L67.2075 107.054L77.8915 94.1411ZM56.5 78C56.5 76.4226 57.6195 75.1429 59 75.1429H64C65.3785 75.1429 66.5 76.4246 66.5 78C66.5 79.5777 65.3802 80.8571 64 80.8571H59C57.6215 80.8571 56.5 79.5754 56.5 78ZM11.6 140.571C12.5908 126.417 20.833 113.552 31.9255 109.325L42.449 105.317C44.377 111.41 46.7655 117.332 49.5648 122.957C49.5695 122.967 49.574 122.976 49.5788 122.986C49.5788 122.986 49.579 122.986 49.579 122.986C51.6242 127.097 53.9263 131.115 56.422 134.929L59.4975 140.571H11.6ZM64 138.025L60.6095 131.804C60.5715 131.734 60.531 131.666 60.488 131.601C58.4635 128.514 56.575 125.287 54.855 121.983L63.7707 111.207L73.1653 121.944C71.4338 125.272 69.5387 128.513 67.5125 131.6C67.39 131.787 67.5638 131.493 64 138.025ZM68.5025 140.571L71.5778 134.929C74.0845 131.101 76.403 127.051 78.4688 122.891C78.4812 122.866 78.493 122.841 78.5055 122.815C78.507 122.812 78.5085 122.809 78.51 122.806C81.2738 117.235 83.6373 111.364 85.551 105.317L96.0742 109.325C107.167 113.552 115.409 126.417 116.4 140.571H68.5025Z" fill="white"/>
<path d="M108.886 129.009C107.216 125.187 104.768 121.792 101.809 119.19C100.715 118.227 99.1452 118.461 98.3035 119.712C97.4615 120.963 97.6662 122.757 98.7605 123.719C101.124 125.797 103.078 128.509 104.413 131.563C105.031 132.977 106.534 133.546 107.767 132.842C109.002 132.137 109.503 130.421 108.886 129.009Z" fill="#F9B93E"/>
</g>
<defs>
<clipPath id="clip0">
<rect width="128" height="146.286" fill="white"/>
</clipPath>
</defs>
</svg>
