<svg width="68" height="68" viewBox="0 0 68 68" fill="none" xmlns="http://www.w3.org/2000/svg">
<path d="M62.9 68H5.1C2.2882 68 0 65.7118 0 62.9V5.1C0 2.2882 2.2882 0 5.1 0H62.9C65.7118 0 68 2.2882 68 5.1V62.9C68 65.7118 65.7118 68 62.9 68ZM5.1 2.26667C3.53827 2.26667 2.26667 3.53827 2.26667 5.1V62.9C2.26667 64.4617 3.53827 65.7333 5.1 65.7333H62.9C64.4629 65.7333 65.7333 64.4617 65.7333 62.9V5.1C65.7333 3.53827 64.4617 2.26667 62.9 2.26667H5.1Z" fill="white"/>
<path d="M10.2001 11.3333H5.66678C5.04118 11.3333 4.53345 10.8256 4.53345 10.2V5.66666C4.53345 5.04106 5.04118 4.53333 5.66678 4.53333H10.2001C10.8257 4.53333 11.3334 5.04106 11.3334 5.66666V10.2C11.3334 10.8256 10.8257 11.3333 10.2001 11.3333ZM6.80011 9.06666H9.06678V6.79999H6.80011V9.06666Z" fill="white"/>
<path d="M19.2668 11.3333H14.7334C14.1078 11.3333 13.6001 10.8256 13.6001 10.2V5.66666C13.6001 5.04106 14.1078 4.53333 14.7334 4.53333H19.2668C19.8924 4.53333 20.4001 5.04106 20.4001 5.66666V10.2C20.4001 10.8256 19.8924 11.3333 19.2668 11.3333ZM15.8668 9.06666H18.1334V6.79999H15.8668V9.06666Z" fill="#F9B93E"/>
<path d="M28.3332 11.3333H23.7998C23.1742 11.3333 22.6665 10.8256 22.6665 10.2V5.66666C22.6665 5.04106 23.1742 4.53333 23.7998 4.53333H28.3332C28.9588 4.53333 29.4665 5.04106 29.4665 5.66666V10.2C29.4665 10.8256 28.9588 11.3333 28.3332 11.3333ZM24.9332 9.06666H27.1998V6.79999H24.9332V9.06666Z" fill="white"/>
<path d="M66.8667 15.8667H1.13333C0.507733 15.8667 0 15.3589 0 14.7333V5.1C0 2.2882 2.2882 0 5.1 0H62.9C65.7118 0 68 2.2882 68 5.1V14.7333C68 15.3589 67.4923 15.8667 66.8667 15.8667ZM2.26667 13.6H65.7333V5.1C65.7333 3.53827 64.4617 2.26667 62.9 2.26667H5.1C3.53827 2.26667 2.26667 3.53827 2.26667 5.1V13.6Z" fill="white"/>
<path d="M19.2668 34H5.66678C5.04118 34 4.53345 33.4923 4.53345 32.8667V19.2667C4.53345 18.6411 5.04118 18.1333 5.66678 18.1333H19.2668C19.8924 18.1333 20.4001 18.6411 20.4001 19.2667V32.8667C20.4001 33.4923 19.8924 34 19.2668 34ZM6.80011 31.7333H18.1334V20.4H6.80011V31.7333Z" fill="white"/>
<path d="M62.3334 34H48.7334C48.1078 34 47.6001 33.4923 47.6001 32.8667V19.2667C47.6001 18.6411 48.1078 18.1333 48.7334 18.1333H62.3334C62.959 18.1333 63.4668 18.6411 63.4668 19.2667V32.8667C63.4668 33.4923 62.959 34 62.3334 34ZM49.8668 31.7333H61.2001V20.4H49.8668V31.7333Z" fill="white"/>
<path d="M40.8 34H27.2C26.5744 34 26.0667 33.4923 26.0667 32.8667V19.2667C26.0667 18.6411 26.5744 18.1333 27.2 18.1333H40.8C41.4256 18.1333 41.9333 18.6411 41.9333 19.2667V32.8667C41.9333 33.4923 41.4256 34 40.8 34ZM28.3333 31.7333H39.6667V20.4H28.3333V31.7333Z" fill="#F9B93E"/>
<path d="M13.6 27.2H11.3333C10.7077 27.2 10.2 26.6923 10.2 26.0667C10.2 25.4411 10.7077 24.9333 11.3333 24.9333H13.6C14.2256 24.9333 14.7333 25.4411 14.7333 26.0667C14.7333 26.6923 14.2256 27.2 13.6 27.2Z" fill="white"/>
<path d="M35.1334 27.2H32.8667C32.2411 27.2 31.7334 26.6923 31.7334 26.0667C31.7334 25.4411 32.2411 24.9333 32.8667 24.9333H35.1334C35.759 24.9333 36.2667 25.4411 36.2667 26.0667C36.2667 26.6923 35.759 27.2 35.1334 27.2Z" fill="white"/>
<path d="M56.6666 27.2H54.3999C53.7743 27.2 53.2666 26.6923 53.2666 26.0667C53.2666 25.4411 53.7743 24.9333 54.3999 24.9333H56.6666C57.2922 24.9333 57.7999 25.4411 57.7999 26.0667C57.7999 26.6923 57.2922 27.2 56.6666 27.2Z" fill="white"/>
<path d="M19.2667 38.5333H18.1333C17.5077 38.5333 17 38.0256 17 37.4C17 36.7744 17.5077 36.2667 18.1333 36.2667H19.2667C19.8923 36.2667 20.4 36.7744 20.4 37.4C20.4 38.0256 19.8923 38.5333 19.2667 38.5333Z" fill="#F9B93E"/>
<path d="M13.6001 38.5333H5.66678C5.04118 38.5333 4.53345 38.0256 4.53345 37.4C4.53345 36.7744 5.04118 36.2667 5.66678 36.2667H13.6001C14.2257 36.2667 14.7334 36.7744 14.7334 37.4C14.7334 38.0256 14.2257 38.5333 13.6001 38.5333Z" fill="white"/>
<path d="M6.80011 43.0666H5.66678C5.04118 43.0666 4.53345 42.5589 4.53345 41.9333C4.53345 41.3077 5.04118 40.8 5.66678 40.8H6.80011C7.42571 40.8 7.93345 41.3077 7.93345 41.9333C7.93345 42.5589 7.42571 43.0666 6.80011 43.0666Z" fill="#F9B93E"/>
<path d="M19.2666 43.0666H11.3333C10.7077 43.0666 10.2 42.5589 10.2 41.9333C10.2 41.3077 10.7077 40.8 11.3333 40.8H19.2666C19.8922 40.8 20.4 41.3077 20.4 41.9333C20.4 42.5589 19.8922 43.0666 19.2666 43.0666Z" fill="white"/>
<path d="M40.8001 38.5333H39.6668C39.0412 38.5333 38.5334 38.0256 38.5334 37.4C38.5334 36.7744 39.0412 36.2667 39.6668 36.2667H40.8001C41.4257 36.2667 41.9334 36.7744 41.9334 37.4C41.9334 38.0256 41.4257 38.5333 40.8001 38.5333Z" fill="#F9B93E"/>
<path d="M35.1333 38.5333H27.2C26.5744 38.5333 26.0667 38.0256 26.0667 37.4C26.0667 36.7744 26.5744 36.2667 27.2 36.2667H35.1333C35.7589 36.2667 36.2667 36.7744 36.2667 37.4C36.2667 38.0256 35.7589 38.5333 35.1333 38.5333Z" fill="white"/>
<path d="M28.3333 43.0666H27.2C26.5744 43.0666 26.0667 42.5589 26.0667 41.9333C26.0667 41.3077 26.5744 40.8 27.2 40.8H28.3333C28.9589 40.8 29.4666 41.3077 29.4666 41.9333C29.4666 42.5589 28.9589 43.0666 28.3333 43.0666Z" fill="#F9B93E"/>
<path d="M40.8001 43.0666H32.8667C32.2411 43.0666 31.7334 42.5589 31.7334 41.9333C31.7334 41.3077 32.2411 40.8 32.8667 40.8H40.8001C41.4257 40.8 41.9334 41.3077 41.9334 41.9333C41.9334 42.5589 41.4257 43.0666 40.8001 43.0666Z" fill="white"/>
<path d="M62.3333 38.5333H61.2C60.5744 38.5333 60.0667 38.0256 60.0667 37.4C60.0667 36.7744 60.5744 36.2667 61.2 36.2667H62.3333C62.9589 36.2667 63.4666 36.7744 63.4666 37.4C63.4666 38.0256 62.9589 38.5333 62.3333 38.5333Z" fill="#F9B93E"/>
<path d="M56.6668 38.5333H48.7334C48.1078 38.5333 47.6001 38.0256 47.6001 37.4C47.6001 36.7744 48.1078 36.2667 48.7334 36.2667H56.6668C57.2924 36.2667 57.8001 36.7744 57.8001 37.4C57.8001 38.0256 57.2924 38.5333 56.6668 38.5333Z" fill="white"/>
<path d="M49.8668 43.0666H48.7334C48.1078 43.0666 47.6001 42.5589 47.6001 41.9333C47.6001 41.3077 48.1078 40.8 48.7334 40.8H49.8668C50.4924 40.8 51.0001 41.3077 51.0001 41.9333C51.0001 42.5589 50.4924 43.0666 49.8668 43.0666Z" fill="#F9B93E"/>
<path d="M62.3333 43.0666H54.3999C53.7743 43.0666 53.2666 42.5589 53.2666 41.9333C53.2666 41.3077 53.7743 40.8 54.3999 40.8H62.3333C62.9589 40.8 63.4666 41.3077 63.4666 41.9333C63.4666 42.5589 62.9589 43.0666 62.3333 43.0666Z" fill="white"/>
<path d="M62.3334 63.4667H34C33.3744 63.4667 32.8667 62.9589 32.8667 62.3333V46.4666C32.8667 45.841 33.3744 45.3333 34 45.3333H62.3334C62.959 45.3333 63.4667 45.841 63.4667 46.4666V62.3333C63.4667 62.9589 62.959 63.4667 62.3334 63.4667ZM35.1334 61.2H61.2V47.6H35.1334V61.2Z" fill="white"/>
<path d="M28.3334 63.4667H5.66678C5.04118 63.4667 4.53345 62.9589 4.53345 62.3333V46.4666C4.53345 45.841 5.04118 45.3333 5.66678 45.3333H28.3334C28.959 45.3333 29.4668 45.841 29.4668 46.4666V62.3333C29.4668 62.9589 28.959 63.4667 28.3334 63.4667ZM6.80011 61.2H27.2001V47.6H6.80011V61.2Z" fill="white"/>
<path d="M57.8001 53.2667H56.6668C56.0412 53.2667 55.5334 52.7589 55.5334 52.1333C55.5334 51.5077 56.0412 51 56.6668 51H57.8001C58.4257 51 58.9334 51.5077 58.9334 52.1333C58.9334 52.7589 58.4257 53.2667 57.8001 53.2667Z" fill="#F9B93E"/>
<path d="M52.1332 53.2667H38.5332C37.9076 53.2667 37.3999 52.7589 37.3999 52.1333C37.3999 51.5077 37.9076 51 38.5332 51H52.1332C52.7588 51 53.2666 51.5077 53.2666 52.1333C53.2666 52.7589 52.7588 53.2667 52.1332 53.2667Z" fill="white"/>
<path d="M39.6666 57.8H38.5332C37.9076 57.8 37.3999 57.2923 37.3999 56.6667C37.3999 56.0411 37.9076 55.5334 38.5332 55.5334H39.6666C40.2922 55.5334 40.7999 56.0411 40.7999 56.6667C40.7999 57.2923 40.2922 57.8 39.6666 57.8Z" fill="#F9B93E"/>
<path d="M57.8 57.8H44.2C43.5744 57.8 43.0667 57.2923 43.0667 56.6667C43.0667 56.0411 43.5744 55.5334 44.2 55.5334H57.8C58.4256 55.5334 58.9333 56.0411 58.9333 56.6667C58.9333 57.2923 58.4256 57.8 57.8 57.8Z" fill="white"/>
<path d="M17 58.9333C16.3744 58.9333 15.8667 58.4256 15.8667 57.8V51C15.8667 50.3744 16.3744 49.8667 17 49.8667C17.6256 49.8667 18.1334 50.3744 18.1334 51V57.8C18.1334 58.4256 17.6256 58.9333 17 58.9333Z" fill="white"/>
<path d="M20.3999 55.5333H13.5999C12.9743 55.5333 12.4666 55.0256 12.4666 54.4C12.4666 53.7744 12.9743 53.2667 13.5999 53.2667H20.3999C21.0255 53.2667 21.5332 53.7744 21.5332 54.4C21.5332 55.0256 21.0255 55.5333 20.3999 55.5333Z" fill="#F9B93E"/>
</svg>
