<svg width="124" height="124" viewBox="0 0 124 124" fill="none" xmlns="http://www.w3.org/2000/svg">
<path d="M79.885 101.111C74.1955 101.304 68.1786 101.402 62 101.402C44.1396 101.402 28.3369 100.601 19.726 99.2581C10.5257 97.8239 6.87018 93.5374 5.75479 82.8792C4.53534 71.2183 4.53534 52.9492 5.75479 41.2883C6.87018 30.6301 10.5257 26.3445 19.726 24.9103C21.2198 24.6767 22.9747 24.4553 24.9434 24.2509C26.2745 24.1128 27.2414 22.9227 27.1032 21.5916C26.9651 20.2615 25.7731 19.2937 24.4439 19.4327C22.3929 19.6456 20.5547 19.8783 18.9796 20.1233C13.2408 21.0183 9.21826 22.9454 6.32147 26.1875C3.34048 29.5214 1.63004 34.1598 0.936584 40.785C-0.312195 52.7288 -0.312195 71.4397 0.936584 83.3835C1.63004 90.0086 3.34048 94.6461 6.32147 97.9809C9.21826 101.223 13.2408 103.15 18.9796 104.044C27.8222 105.423 43.905 106.247 62 106.247C68.2325 106.247 74.3052 106.148 80.0486 105.953C81.3854 105.908 82.4327 104.788 82.3873 103.451C82.3419 102.114 81.2274 101.067 79.885 101.111Z" fill="white"/>
<path d="M123.063 40.7849C122.37 34.1607 120.66 29.5223 117.679 26.1875C114.782 22.9454 110.759 21.0183 105.02 20.1243C96.1768 18.7449 80.0941 17.9219 62 17.9219C55.7675 17.9219 49.6958 18.0212 43.9523 18.2151C42.6146 18.2606 41.5673 19.3807 41.6128 20.7174C41.6582 22.0551 42.7735 23.1043 44.116 23.057C49.8046 22.864 55.8223 22.7666 62.001 22.7666C79.8595 22.7666 95.6631 23.5679 104.275 24.9103C113.474 26.3455 117.131 30.631 118.245 41.2892C119.466 52.9501 119.466 71.2192 118.245 82.8802C117.131 93.5383 113.474 97.8239 104.275 99.259C102.781 99.4918 101.025 99.7131 99.0566 99.9175C97.7265 100.056 96.7596 101.246 96.8977 102.577C97.0273 103.823 98.0784 104.749 99.3035 104.749C99.3877 104.749 99.4719 104.744 99.5571 104.736C101.607 104.523 103.445 104.291 105.02 104.045C110.759 103.15 114.782 101.224 117.679 97.9819C120.66 94.6471 122.37 90.0086 123.063 83.3844C124.312 71.4406 124.312 52.7288 123.063 40.7849Z" fill="white"/>
<path d="M81.9617 60.0238L51.9853 41.5031C51.2379 41.0415 50.2994 41.0206 49.5322 41.4483C48.7659 41.8759 48.29 42.6857 48.29 43.5636V80.6041C48.29 81.482 48.7659 82.2918 49.5322 82.7194C49.9002 82.9238 50.3061 83.026 50.7119 83.026C51.1547 83.026 51.5955 82.9049 51.9853 82.6646L81.9617 64.1448C82.6759 63.703 83.1111 62.9235 83.1111 62.0843C83.1111 61.2442 82.6759 60.4647 81.9617 60.0238ZM53.1347 76.2608V47.9078L76.0801 62.0843L53.1347 76.2608Z" fill="#F9B93E"/>
<path d="M34.3524 23.5008C34.4063 23.5008 34.4611 23.4989 34.516 23.4961C35.8509 23.4072 36.8603 22.253 36.7714 20.9181C36.6825 19.5833 35.5264 18.5719 34.1934 18.6618H34.1915C32.8567 18.7507 31.8482 19.9049 31.9371 21.2398C32.0222 22.5198 33.0875 23.5008 34.3524 23.5008Z" fill="#F9B93E"/>
<path d="M89.4844 100.673C88.1496 100.761 87.1392 101.915 87.2281 103.25C87.3132 104.53 88.3785 105.511 89.6424 105.511C89.6973 105.511 89.7512 105.509 89.8061 105.507H89.808C91.1428 105.418 92.1513 104.264 92.0624 102.929C91.9735 101.594 90.8212 100.585 89.4844 100.673Z" fill="#F9B93E"/>
</svg>
